<svg width="30" height="30" viewBox="0 0 30 30" fill="none" xmlns="http://www.w3.org/2000/svg">
<path d="M23.2214 25.9616H6.77992C6.41921 25.9672 6.06116 25.8989 5.72785 25.7609C5.39454 25.6229 5.09303 25.4181 4.84192 25.1591C4.58269 24.9081 4.37772 24.6066 4.23968 24.2733C4.10165 23.9399 4.03349 23.5818 4.03942 23.2211V12.2601C4.03382 11.8994 4.10214 11.5415 4.24016 11.2083C4.37817 10.875 4.58297 10.5736 4.84192 10.3226C5.09281 10.0634 5.39421 9.85846 5.72746 9.72043C6.06072 9.58239 6.41875 9.5142 6.77942 9.52006H9.51992V7.46456C9.51212 7.00262 9.60588 6.54461 9.79457 6.1229C9.98327 5.70118 10.2623 5.32607 10.6119 5.02406C11.2359 4.41051 12.0705 4.05821 12.9454 4.03906H17.0559C17.9307 4.05808 18.7653 4.4102 19.3894 5.02356C19.739 5.32557 20.0181 5.70069 20.2068 6.1224C20.3955 6.54411 20.4892 7.00212 20.4814 7.46406V9.51906H23.2219C23.9487 9.51906 24.6458 9.80779 25.1597 10.3217C25.6737 10.8357 25.9624 11.5327 25.9624 12.2596V23.2211C25.9624 23.5809 25.8915 23.9373 25.7538 24.2698C25.6161 24.6023 25.4142 24.9044 25.1597 25.1589C24.9053 25.4134 24.6032 25.6152 24.2707 25.753C23.9382 25.8907 23.5818 25.9616 23.2219 25.9616H23.2214ZM10.2049 13.6301C9.7989 13.6312 9.40228 13.7524 9.06493 13.9783C8.72759 14.2043 8.46458 14.5249 8.30897 14.8999C8.15336 15.275 8.1121 15.6876 8.19038 16.086C8.26866 16.4844 8.46299 16.8508 8.74892 17.1391C8.9377 17.3333 9.16431 17.4868 9.41474 17.59C9.66517 17.6932 9.9341 17.7439 10.2049 17.7391C10.6113 17.7383 11.0085 17.6173 11.3462 17.3912C11.684 17.1652 11.9473 16.8442 12.103 16.4688C12.2587 16.0934 12.2998 15.6803 12.2211 15.2815C12.1425 14.8828 11.9475 14.5162 11.6609 14.2281C11.4719 14.0343 11.2452 13.8813 10.9948 13.7785C10.7444 13.6756 10.4756 13.6251 10.2049 13.6301ZM17.7394 8.14956C17.7421 7.96891 17.7085 7.78955 17.6406 7.62211C17.5727 7.45468 17.4719 7.30258 17.3442 7.17482C17.2164 7.04706 17.0643 6.94625 16.8969 6.87835C16.7294 6.81046 16.5501 6.77687 16.3694 6.77956H13.6304C13.4515 6.77762 13.274 6.81168 13.1085 6.87971C12.9429 6.94774 12.7928 7.04835 12.6669 7.17556C12.535 7.30071 12.4306 7.45203 12.3605 7.61984C12.2904 7.78765 12.2562 7.96824 12.2599 8.15006V9.52006H17.7394V8.14956ZM21.8514 17.7391L16.3709 19.1091L17.7409 23.2196L23.2214 21.8496L21.8514 17.7391Z" fill="#5F5E5E"/>
</svg>
