<svg width="30" height="30" viewBox="0 0 30 30" fill="none" xmlns="http://www.w3.org/2000/svg">
<path d="M12.457 24.7109C12.457 24.9582 12.3837 25.1998 12.2464 25.4054C12.109 25.611 11.9138 25.7712 11.6854 25.8658C11.457 25.9604 11.2056 25.9852 10.9632 25.9369C10.7207 25.8887 10.498 25.7696 10.3231 25.5948C10.1483 25.42 10.0293 25.1973 9.98105 24.9548C9.93282 24.7123 9.95757 24.461 10.0522 24.2326C10.1468 24.0042 10.307 23.809 10.5126 23.6716C10.7181 23.5342 10.9598 23.4609 11.207 23.4609C11.5386 23.4609 11.8565 23.5926 12.0909 23.8271C12.3253 24.0615 12.457 24.3794 12.457 24.7109Z" fill="#5F5E5E"/>
<path d="M22.918 24.7109C22.918 24.9582 22.8447 25.1998 22.7073 25.4054C22.57 25.611 22.3747 25.7712 22.1463 25.8658C21.9179 25.9604 21.6666 25.9852 21.4241 25.9369C21.1816 25.8887 20.9589 25.7696 20.7841 25.5948C20.6093 25.42 20.4902 25.1973 20.442 24.9548C20.3938 24.7123 20.4185 24.461 20.5131 24.2326C20.6077 24.0042 20.7679 23.809 20.9735 23.6716C21.1791 23.5342 21.4207 23.4609 21.668 23.4609C21.9995 23.4609 22.3174 23.5926 22.5519 23.8271C22.7863 24.0615 22.918 24.3794 22.918 24.7109Z" fill="#5F5E5E"/>
<path d="M24.9235 8.44277C24.8619 8.3548 24.7803 8.28275 24.6853 8.23258C24.5904 8.18241 24.4849 8.15557 24.3775 8.15427H8.41098L8.09998 7.09577C8.06833 6.9848 8.01033 6.88311 7.93094 6.79937C7.85155 6.71562 7.7531 6.65229 7.64398 6.61477L4.81098 5.68327C4.72172 5.65601 4.62785 5.64723 4.53509 5.65746C4.44233 5.66768 4.35262 5.6967 4.27144 5.74274C4.19026 5.78878 4.11932 5.85087 4.06293 5.92524C4.00655 5.9996 3.9659 6.08468 3.94348 6.17527C3.88681 6.35951 3.90285 6.55845 3.98831 6.73123C4.07377 6.90401 4.22216 7.0375 4.40298 7.10427L6.88298 7.91877L10.0485 18.6298L8.92198 19.6218L8.83198 19.7178C8.55254 20.0719 8.39598 20.5075 8.38597 20.9585C8.37596 21.4095 8.51303 21.8515 8.77648 22.2178C8.95692 22.459 9.19353 22.6524 9.46575 22.7814C9.73796 22.9104 10.0375 22.9709 10.3385 22.9578H21.875C22.0625 22.9449 22.2382 22.8613 22.3664 22.7239C22.4947 22.5865 22.566 22.4055 22.566 22.2175C22.566 22.0295 22.4947 21.8486 22.3664 21.7112C22.2382 21.5738 22.0625 21.4902 21.875 21.4773H10.2285C10.1472 21.4731 10.0684 21.4475 10.0002 21.403C9.93205 21.3584 9.87693 21.2966 9.84048 21.2238C9.80127 21.1486 9.78079 21.0651 9.78079 20.9803C9.78079 20.8955 9.80127 20.8119 9.84048 20.7368L11.5065 19.2563H22.1715C22.3341 19.2573 22.4919 19.2018 22.618 19.0992C22.7441 18.9965 22.8305 18.8532 22.8625 18.6938L25.0755 9.07377C25.097 8.9643 25.0948 8.85148 25.0689 8.74296C25.043 8.63443 24.9941 8.53274 24.9255 8.44477L24.9235 8.44277Z" fill="#5F5E5E"/>
</svg>
