<svg width="772" height="30" viewBox="0 0 772 30" fill="none" xmlns="http://www.w3.org/2000/svg">
<path d="M53.402 10.146V13.818H57.722V15.492H53.402V19.326H58.262V21H51.35V8.472H58.262V10.146H53.402ZM64.8755 8.49C66.2075 8.49 67.3715 8.748 68.3675 9.264C69.3755 9.768 70.1495 10.5 70.6895 11.46C71.2415 12.408 71.5175 13.518 71.5175 14.79C71.5175 16.062 71.2415 17.166 70.6895 18.102C70.1495 19.038 69.3755 19.758 68.3675 20.262C67.3715 20.754 66.2075 21 64.8755 21H60.7895V8.49H64.8755ZM64.8755 19.326C66.3395 19.326 67.4615 18.93 68.2415 18.138C69.0215 17.346 69.4115 16.23 69.4115 14.79C69.4115 13.338 69.0215 12.204 68.2415 11.388C67.4615 10.572 66.3395 10.164 64.8755 10.164H62.8415V19.326H64.8755ZM86.309 8.49V10.164H82.979V21H80.927V10.164H77.579V8.49H86.309ZM90.4391 10.146V13.818H94.7591V15.492H90.4391V19.326H95.2991V21H88.3871V8.472H95.2991V10.146H90.4391ZM97.1426 14.718C97.1426 13.494 97.4246 12.396 97.9886 11.424C98.5646 10.452 99.3386 9.696 100.311 9.156C101.295 8.604 102.369 8.328 103.533 8.328C104.865 8.328 106.047 8.658 107.079 9.318C108.123 9.966 108.879 10.89 109.347 12.09H106.881C106.557 11.43 106.107 10.938 105.531 10.614C104.955 10.29 104.289 10.128 103.533 10.128C102.705 10.128 101.967 10.314 101.319 10.686C100.671 11.058 100.161 11.592 99.7886 12.288C99.4286 12.984 99.2486 13.794 99.2486 14.718C99.2486 15.642 99.4286 16.452 99.7886 17.148C100.161 17.844 100.671 18.384 101.319 18.768C101.967 19.14 102.705 19.326 103.533 19.326C104.289 19.326 104.955 19.164 105.531 18.84C106.107 18.516 106.557 18.024 106.881 17.364H109.347C108.879 18.564 108.123 19.488 107.079 20.136C106.047 20.784 104.865 21.108 103.533 21.108C102.357 21.108 101.283 20.838 100.311 20.298C99.3386 19.746 98.5646 18.984 97.9886 18.012C97.4246 17.04 97.1426 15.942 97.1426 14.718ZM121.738 8.49V21H119.686V15.528H113.8V21H111.748V8.49H113.8V13.854H119.686V8.49H121.738Z" fill="#5F5E5E"/>
<rect x="765" y="7" width="17" height="3" transform="rotate(90 765 7)" fill="#5F5E5E"/>
<rect x="755" y="14" width="17" height="3" fill="#5F5E5E"/>
<path d="M6.46578 16.4276L15.0298 21.1091L23.5358 16.4281V21.3391L15.0298 25.9616L6.46578 21.3391V16.4276ZM15.0298 4.03906L28.3883 11.3466V21.1091H25.9908V12.6591L15.0298 18.6536L1.61328 11.3466L15.0298 4.03906Z" fill="#5F5E5E"/>
</svg>
