<svg width="30" height="30" viewBox="0 0 30 30" fill="none" xmlns="http://www.w3.org/2000/svg">
<path d="M8.64566 7.8374V22.6624H11.8227V16.3089H18.1762V22.6624H21.3532V7.8374H18.1762V14.1909H11.8227V7.8374H8.64566ZM5.46916 18.4269C5.46896 18.5661 5.49621 18.704 5.54934 18.8326C5.60247 18.9613 5.68044 19.0782 5.7788 19.1767C5.87716 19.2752 5.99397 19.3533 6.12255 19.4066C6.25113 19.46 6.38896 19.4874 6.52816 19.4874H7.58716V11.0144H6.52816C6.24729 11.0144 5.97793 11.126 5.77933 11.3246C5.58073 11.5232 5.46916 11.7925 5.46916 12.0734V14.1914H4.41016V16.3094H5.46916V18.4269ZM24.5302 12.0729C24.5302 11.792 24.4186 11.5227 24.22 11.3241C24.0214 11.1255 23.752 11.0139 23.4712 11.0139H22.4102V19.4874H23.4692C23.75 19.4874 24.0194 19.3758 24.218 19.1772C24.4166 18.9786 24.5282 18.7093 24.5282 18.4284V16.3089H25.5872V14.1909H24.5302V12.0729Z" fill="#5F5E5E"/>
</svg>
