<svg width="30" height="30" viewBox="0 0 30 30" fill="none" xmlns="http://www.w3.org/2000/svg">
<path d="M23.6402 15.773C23.5333 15.8835 23.4049 15.9709 23.263 16.0298C23.121 16.0887 22.9684 16.1179 22.8147 16.1155C22.6634 16.1184 22.5131 16.0903 22.373 16.0329C22.233 15.9756 22.1061 15.8902 22.0002 15.782L21.7367 15.5185V22.8765C21.7383 23.0233 21.7104 23.1688 21.6545 23.3046C21.5987 23.4403 21.5161 23.5634 21.4117 23.6665C21.309 23.7747 21.1847 23.8603 21.0469 23.9177C20.9092 23.9752 20.761 24.0032 20.6117 24H17.2392V18.943C17.237 18.7947 17.1771 18.653 17.0722 18.5481C16.9673 18.4431 16.8256 18.3832 16.6772 18.381H13.3057C13.1574 18.3832 13.0157 18.4431 12.9108 18.5481C12.8058 18.653 12.7459 18.7947 12.7437 18.943V24.0005H9.37174C9.22252 24.0037 9.07429 23.9757 8.93653 23.9182C8.79877 23.8608 8.67452 23.7752 8.57174 23.667C8.46785 23.5636 8.38584 23.4403 8.33061 23.3045C8.27537 23.1687 8.24804 23.0231 8.25024 22.8765V15.5185L7.98674 15.782C7.88063 15.8904 7.75344 15.976 7.61301 16.0333C7.47259 16.0907 7.32189 16.1186 7.17024 16.1155C7.01654 16.1179 6.86399 16.0887 6.72201 16.0298C6.58004 15.9709 6.45163 15.8835 6.34474 15.773C6.23392 15.6663 6.14617 15.538 6.08691 15.396C6.02766 15.254 5.99816 15.1014 6.00024 14.9475C5.99711 14.7959 6.02509 14.6452 6.08245 14.5047C6.13981 14.3643 6.22533 14.2371 6.33374 14.131L14.1307 6.33402C14.242 6.2201 14.3763 6.13137 14.5248 6.07384C14.6732 6.0163 14.8323 5.9913 14.9912 6.00052C15.1499 5.99152 15.3087 6.01663 15.4569 6.07416C15.6051 6.13168 15.7392 6.2203 15.8502 6.33402L23.6502 14.131C23.7586 14.2371 23.8442 14.3643 23.9015 14.5047C23.9589 14.6452 23.9869 14.7959 23.9837 14.9475C23.9861 15.1012 23.9569 15.2538 23.898 15.3957C23.8391 15.5377 23.7517 15.6661 23.6412 15.773H23.6402Z" fill="#5F5E5E"/>
</svg>
