<svg width="30" height="30" viewBox="0 0 30 30" fill="none" xmlns="http://www.w3.org/2000/svg">
<path d="M18.5685 13.5311H19.2184C19.6773 13.5325 20.132 13.4424 20.5562 13.266C20.9804 13.0896 21.3658 12.8303 21.6902 12.5031L25.2664 8.88464L24.296 7.90214L20.6438 11.5681L19.8852 10.8066L23.5374 7.14064L22.5322 6.16164L18.8939 9.81164L18.1368 9.05164L21.7889 5.38564L20.8096 4.41064L17.2051 7.99814C16.8796 8.32275 16.6214 8.70936 16.4456 9.13547C16.2698 9.56157 16.1799 10.0187 16.181 10.4801V11.1301L14.2957 13.0221L5.69205 4.41064C3.75709 6.81714 4.89822 11.2396 7.07778 13.4266L10.8137 17.1766C11.9737 18.3411 12.2029 18.4446 13.5202 17.9131C13.8035 17.7981 13.9067 17.8131 14.1716 18.0766L14.7397 18.6086C14.8677 18.7401 14.8707 18.7791 14.8707 19.0301V19.2736C14.8947 19.6344 14.9942 19.9859 15.1625 20.3052C15.3309 20.6245 15.5644 20.9043 15.8476 21.1261L20.3734 25.4626L23.5195 22.3046L16.6841 15.4221L18.5685 13.5311Z" fill="#5F5E5E"/>
<path d="M11.7526 20.4917C10.7107 20.7067 10.0741 20.9042 8.85413 19.6752C8.83477 19.6557 8.81443 19.6367 8.79459 19.6167L8.11437 18.9312L4.37891 22.6507L7.16972 25.4632L12.1932 20.4007L11.7526 20.4917Z" fill="#5F5E5E"/>
</svg>
