<svg width="30" height="30" viewBox="0 0 30 30" fill="none" xmlns="http://www.w3.org/2000/svg">
<path d="M14.4039 26.4675C14.5771 26.5582 14.7697 26.6056 14.9652 26.6056C15.1607 26.6056 15.3532 26.5582 15.5264 26.4675C24.9309 21.4145 25.5964 11.5465 25.5889 8.73996C25.588 8.51432 25.5213 8.29385 25.397 8.10557C25.2726 7.91729 25.0961 7.76937 24.8889 7.67996L15.4419 3.49496C15.2916 3.42842 15.129 3.39404 14.9647 3.39404C14.8003 3.39404 14.6377 3.42842 14.4874 3.49496L5.10692 7.68146C4.90289 7.77098 4.72889 7.91727 4.60567 8.1029C4.48245 8.28853 4.41519 8.50567 4.41192 8.72846C4.37192 11.521 4.93392 21.41 14.4039 26.4665V26.4675ZM11.1039 13.0175L13.7954 15.709L18.8309 10.6695L20.4904 12.329L13.7934 19.0245L9.44342 14.6745L11.1029 13.015L11.1039 13.0175Z" fill="#5F5E5E"/>
</svg>
