<svg width="30" height="30" viewBox="0 0 30 30" fill="none" xmlns="http://www.w3.org/2000/svg">
<path d="M25.2152 25.2161C25.0989 25.3338 24.9604 25.4273 24.8077 25.4912C24.655 25.555 24.4912 25.5878 24.3257 25.5878C24.1602 25.5878 23.9963 25.555 23.8436 25.4912C23.6909 25.4273 23.5524 25.3338 23.4362 25.2161L14.1512 15.9306L11.9792 18.1021V18.1226C12.0974 18.2408 12.1911 18.3811 12.2551 18.5355C12.319 18.6899 12.352 18.8554 12.352 19.0226C12.352 19.1897 12.319 19.3552 12.2551 19.5096C12.1911 19.6641 12.0974 19.8044 11.9792 19.9226C11.861 20.0408 11.7207 20.1345 11.5662 20.1985C11.4118 20.2624 11.2463 20.2954 11.0792 20.2954C10.912 20.2954 10.7465 20.2624 10.5921 20.1985C10.4377 20.1345 10.2974 20.0408 10.1792 19.9226L4.77916 14.5226C4.66094 14.4044 4.56715 14.2641 4.50317 14.1097C4.43918 13.9552 4.40625 13.7897 4.40625 13.6226C4.40625 13.4554 4.43918 13.2899 4.50317 13.1355C4.56715 12.981 4.66094 12.8407 4.77916 12.7226C4.89586 12.6024 5.0359 12.5074 5.19067 12.4433C5.34544 12.3793 5.51168 12.3475 5.67916 12.3501C5.8467 12.3472 6.01304 12.3787 6.16786 12.4428C6.32269 12.5069 6.46268 12.6021 6.57916 12.7226L6.59966 12.7431L12.7442 6.60357L12.7237 6.58307C12.6034 6.46648 12.5082 6.32646 12.4442 6.17167C12.3801 6.01687 12.3484 5.85058 12.3512 5.68307C12.3486 5.51553 12.3803 5.34924 12.4445 5.19445C12.5086 5.03965 12.6038 4.89965 12.7242 4.78307C12.8423 4.66485 12.9826 4.57106 13.1371 4.50708C13.2915 4.44309 13.457 4.41016 13.6242 4.41016C13.7913 4.41016 13.9568 4.44309 14.1113 4.50708C14.2657 4.57106 14.406 4.66485 14.5242 4.78307L19.9242 10.1831C20.0424 10.3013 20.1361 10.4416 20.2001 10.596C20.264 10.7504 20.297 10.9159 20.297 11.0831C20.297 11.2502 20.264 11.4157 20.2001 11.5701C20.1361 11.7246 20.0424 11.8649 19.9242 11.9831C19.806 12.1013 19.6657 12.195 19.5112 12.259C19.3568 12.3229 19.1913 12.3559 19.0242 12.3559C18.857 12.3559 18.6915 12.3229 18.5371 12.259C18.3827 12.195 18.2424 12.1013 18.1242 11.9831L18.1037 11.9626L15.9302 14.1311L25.2162 23.4376C25.3339 23.5538 25.4274 23.6923 25.4913 23.845C25.5551 23.9977 25.5879 24.1616 25.5879 24.3271C25.5879 24.4926 25.5551 24.6564 25.4913 24.8091C25.4274 24.9618 25.3339 25.1003 25.2162 25.2166L25.2152 25.2161ZM11.3802 9.58157L9.60166 11.3816L13.3447 15.1246L15.1232 13.3461L11.3802 9.58157Z" fill="#5F5E5E"/>
</svg>
