<svg width="30" height="30" viewBox="0 0 30 30" fill="none" xmlns="http://www.w3.org/2000/svg">
<path d="M16.1842 16.7877L17.0977 13.1342H13.4727L12.5597 16.7877H16.1852H16.1842ZM27.1477 9.59423L26.3477 12.7917C26.3277 12.8926 26.2719 12.9829 26.1905 13.0458C26.1092 13.1088 26.0078 13.1402 25.9052 13.1342H21.2362L20.3227 16.7877H24.7612C24.8299 16.7868 24.8978 16.8019 24.9598 16.8316C25.0217 16.8614 25.0759 16.905 25.1182 16.9592C25.163 17.0144 25.1941 17.0794 25.209 17.149C25.2238 17.2185 25.222 17.2905 25.2037 17.3592L24.4037 20.5567C24.3893 20.6603 24.335 20.7542 24.2523 20.8182C24.1695 20.8823 24.065 20.9113 23.9612 20.8992H19.2947L18.1382 25.5807C18.1182 25.6816 18.0624 25.7719 17.981 25.8348C17.8997 25.8978 17.7983 25.9292 17.6957 25.9232H14.5002C14.4292 25.9251 14.3588 25.9106 14.2944 25.8809C14.2299 25.8512 14.1732 25.807 14.1287 25.7517C14.0862 25.6953 14.0565 25.6303 14.0417 25.5612C14.027 25.4921 14.0274 25.4206 14.0432 25.3517L15.1567 20.8992H11.5317L10.3752 25.5807C10.3552 25.6816 10.2994 25.7719 10.218 25.8348C10.1367 25.8978 10.0353 25.9292 9.93266 25.9232H6.72166C6.65295 25.9241 6.58498 25.9091 6.52305 25.8793C6.46112 25.8496 6.40691 25.8059 6.36466 25.7517C6.32216 25.6953 6.29249 25.6303 6.27772 25.5612C6.26296 25.4921 6.26345 25.4206 6.27916 25.3517L7.39216 20.8992H2.95366C2.88508 20.8999 2.81728 20.8847 2.75553 20.8549C2.69378 20.8251 2.63975 20.7814 2.59766 20.7272C2.55516 20.6708 2.52549 20.6058 2.51072 20.5367C2.49596 20.4676 2.49645 20.3961 2.51216 20.3272L3.31216 17.1297C3.33214 17.0288 3.38795 16.9386 3.46929 16.8756C3.55062 16.8127 3.65198 16.7813 3.75466 16.7872H8.42216L9.33516 13.1337H4.89466C4.82595 13.1346 4.75798 13.1196 4.69605 13.0898C4.63412 13.0601 4.57991 13.0164 4.53766 12.9622C4.49282 12.907 4.46169 12.842 4.44683 12.7725C4.43197 12.703 4.43379 12.6309 4.45216 12.5622L5.25216 9.36473C5.26649 9.26112 5.32084 9.16725 5.40355 9.10322C5.48626 9.0392 5.59076 9.01013 5.69466 9.02223H10.3622L11.5182 4.34223C11.54 4.23947 11.5983 4.1481 11.6823 4.08504C11.7664 4.02198 11.8704 3.99149 11.9752 3.99923H15.1727C15.2414 3.99835 15.3093 4.01337 15.3713 4.04312C15.4332 4.07287 15.4874 4.11655 15.5297 4.17073C15.5722 4.22716 15.6018 4.2922 15.6166 4.36128C15.6314 4.43037 15.6309 4.50185 15.6152 4.57073L14.5017 9.02373H18.1272L19.2837 4.34223C19.3055 4.23947 19.3638 4.1481 19.4478 4.08504C19.5319 4.02198 19.6359 3.99149 19.7407 3.99923H22.9377C23.0064 3.99835 23.0743 4.01337 23.1363 4.04312C23.1982 4.07287 23.2524 4.11655 23.2947 4.17073C23.3372 4.22716 23.3668 4.2922 23.3816 4.36128C23.3964 4.43037 23.3959 4.50185 23.3802 4.57073L22.2667 9.02373H26.7052C26.7739 9.02285 26.8418 9.03787 26.9038 9.06762C26.9657 9.09737 27.0199 9.14105 27.0622 9.19523C27.1047 9.25166 27.1343 9.3167 27.1491 9.38578C27.1639 9.45487 27.1634 9.52635 27.1477 9.59523V9.59423Z" fill="#5F5E5E"/>
</svg>
