<svg width="30" height="30" viewBox="0 0 30 30" fill="none" xmlns="http://www.w3.org/2000/svg">
<path d="M6.67548 10.4021L10.7455 11.5771L15.221 8.32812L8.80098 8.51213C8.73812 8.51551 8.67718 8.53496 8.62398 8.56862L6.59048 9.73663C6.52725 9.77162 6.47598 9.8248 6.4433 9.88926C6.41062 9.95373 6.39805 10.0265 6.40721 10.0982C6.41636 10.1699 6.44683 10.2372 6.49466 10.2914C6.54249 10.3456 6.60548 10.3841 6.67548 10.4021Z" fill="#5F5E5E"/>
<path d="M26.6862 6.76358L22.2267 5.80108C21.8516 5.7197 21.4635 5.71995 21.0885 5.80183C20.7136 5.8837 20.3607 6.04527 20.0537 6.27558L6.58318 16.0646L3.34818 15.9231C3.16293 15.9169 2.98041 15.969 2.82636 16.0721C2.67232 16.1752 2.55454 16.3241 2.48963 16.4977C2.42472 16.6713 2.41597 16.8609 2.4646 17.0398C2.51323 17.2187 2.6168 17.3777 2.76068 17.4946L5.91068 19.9946C5.96255 20.0363 6.02426 20.0641 6.08991 20.0752C6.15556 20.0863 6.22296 20.0804 6.28568 20.0581C7.18568 19.7111 10.5327 17.9346 14.4897 15.7616L15.2827 23.9091C15.2895 23.9796 15.3154 24.047 15.3576 24.1039C15.3998 24.1608 15.4567 24.2051 15.5222 24.232C15.5878 24.259 15.6594 24.2675 15.7294 24.2568C15.7995 24.2461 15.8652 24.2164 15.9197 24.1711L17.6892 22.6986C17.786 22.6173 17.8512 22.5046 17.8732 22.3801L19.5507 12.9726C22.3822 11.4011 25.0862 9.87908 26.9902 8.80358C27.1878 8.6961 27.3476 8.53044 27.448 8.32906C27.5483 8.12768 27.5843 7.90033 27.551 7.67781C27.5178 7.4553 27.417 7.24838 27.2622 7.08512C27.1074 6.92185 26.9061 6.81012 26.6857 6.76508L26.6862 6.76358Z" fill="#5F5E5E"/>
</svg>
