<svg width="30" height="30" viewBox="0 0 30 30" fill="none" xmlns="http://www.w3.org/2000/svg">
<path d="M22.8884 11.4048L25.7939 15.2638V20.1218H23.8874C23.8769 20.893 23.5643 21.6294 23.0169 22.1727C22.4694 22.7159 21.7306 23.0228 20.9594 23.0273C20.5776 23.0336 20.1986 22.9601 19.8469 22.8116C19.4951 22.6631 19.1782 22.4428 18.9164 22.1648C18.6465 21.898 18.4331 21.5797 18.2888 21.2287C18.1444 20.8777 18.0722 20.5013 18.0764 20.1218H12.2639C12.2671 20.5033 12.1921 20.8814 12.0436 21.2327C11.8951 21.5841 11.6762 21.9013 11.4004 22.1648C11.1332 22.442 10.8122 22.6616 10.4569 22.8099C10.1017 22.9583 9.71979 23.0323 9.33485 23.0273C8.95305 23.0336 8.57415 22.9601 8.22236 22.8116C7.87057 22.6631 7.55365 22.4428 7.29185 22.1648C7.02172 21.8981 6.80801 21.5798 6.66344 21.2289C6.51888 20.8779 6.44641 20.5014 6.45035 20.1218H4.50035V9.45232C4.49537 9.19502 4.54316 8.93943 4.64076 8.70131C4.73836 8.4632 4.88372 8.2476 5.06785 8.06782C5.24733 7.88377 5.46257 7.7384 5.70032 7.64063C5.93808 7.54286 6.19332 7.49477 6.45035 7.49932H19.9804V11.4048H22.8884ZM9.33585 21.5748C9.52969 21.5751 9.72168 21.5371 9.90081 21.463C10.0799 21.389 10.2427 21.2803 10.3798 21.1432C10.5168 21.0062 10.6255 20.8434 10.6996 20.6643C10.7736 20.4851 10.8116 20.2932 10.8114 20.0993C10.8161 19.9082 10.78 19.7182 10.7056 19.5421C10.6312 19.366 10.5202 19.2077 10.3799 19.0778C10.2413 18.9444 10.0777 18.8396 9.89856 18.7695C9.71941 18.6994 9.52819 18.6654 9.33585 18.6693C9.14677 18.6646 8.9587 18.6983 8.78306 18.7685C8.60743 18.8387 8.44789 18.9439 8.31415 19.0776C8.1804 19.2114 8.07525 19.3709 8.00506 19.5465C7.93487 19.7222 7.90112 19.9102 7.90585 20.0993C7.89855 20.4877 8.04544 20.8631 8.31435 21.1433C8.44436 21.2835 8.60266 21.3944 8.77875 21.4688C8.95485 21.5432 9.14474 21.5793 9.33585 21.5748ZM22.4359 12.8578H19.9859V15.2638H24.2954L22.4359 12.8578ZM20.9584 21.5748C21.1522 21.5751 21.3442 21.5371 21.5233 21.463C21.7024 21.389 21.8652 21.2803 22.0023 21.1432C22.1393 21.0062 22.248 20.8434 22.3221 20.6643C22.3961 20.4851 22.4341 20.2932 22.4339 20.0993C22.4383 19.908 22.402 19.718 22.3272 19.5418C22.2525 19.3657 22.141 19.2075 22.0004 19.0778C21.8618 18.9444 21.6982 18.8396 21.5191 18.7695C21.3399 18.6994 21.1487 18.6654 20.9564 18.6693C20.7673 18.6646 20.5792 18.6983 20.4036 18.7685C20.2279 18.8387 20.0684 18.9439 19.9346 19.0776C19.8009 19.2114 19.6957 19.3709 19.6256 19.5465C19.5554 19.7222 19.5216 19.9102 19.5264 20.0993C19.519 20.4877 19.6659 20.8631 19.9349 21.1433C20.0651 21.2837 20.2237 21.3948 20.4002 21.4692C20.5766 21.5436 20.7669 21.5796 20.9584 21.5748Z" fill="#5F5E5E"/>
</svg>
