<svg width="30" height="30" viewBox="0 0 30 30" fill="none" xmlns="http://www.w3.org/2000/svg">
<path d="M24.1351 7.69238H17.5586V25.9609H25.5966V9.15388C25.5966 8.76627 25.4426 8.39453 25.1685 8.12045C24.8944 7.84636 24.5227 7.69238 24.1351 7.69238ZM20.4816 20.1149H19.0201V18.6534H20.4816V20.1149ZM20.4816 16.4614H19.0201V14.9999H20.4816V16.4614ZM20.4816 12.8079H19.0201V11.3459H20.4816V12.8079ZM23.4046 20.1154H21.9431V18.6534H23.4046V20.1154ZM23.4046 16.4619H21.9431V14.9999H23.4046V16.4619ZM23.4046 12.8084H21.9431V11.3459H23.4046V12.8084Z" fill="#5F5E5E"/>
<path d="M14.5468 4.03906H5.9543C5.54321 4.03906 5.14896 4.20237 4.85828 4.49305C4.5676 4.78373 4.4043 5.17798 4.4043 5.58906V25.9616H8.0578V23.7691H12.4423V25.9611H16.0958V5.58906C16.0958 5.38551 16.0557 5.18396 15.9778 4.9959C15.8999 4.80785 15.7857 4.63698 15.6418 4.49305C15.4979 4.34912 15.327 4.23494 15.139 4.15705C14.9509 4.07915 14.7493 4.03906 14.5458 4.03906H14.5468ZM8.0578 20.1156H6.5963V18.6541H8.0578V20.1156ZM8.0578 16.4621H6.5963V15.0001H8.0578V16.4621ZM8.0578 12.8086H6.5963V11.3466H8.0578V12.8086ZM8.0578 9.15506H6.5963V7.69256H8.0578V9.15506ZM10.9808 20.1161H9.5193V18.6541H10.9808V20.1161ZM10.9808 16.4626H9.5193V15.0001H10.9808V16.4626ZM10.9808 12.8091H9.5193V11.3466H10.9808V12.8091ZM10.9808 9.15556H9.5193V7.69256H10.9808V9.15556ZM13.9043 20.1156H12.4423V18.6541H13.9043V20.1156ZM13.9043 16.4621H12.4423V15.0001H13.9043V16.4621ZM13.9043 12.8086H12.4423V11.3466H13.9043V12.8086ZM13.9043 9.15506H12.4423V7.69256H13.9043V9.15506Z" fill="#5F5E5E"/>
</svg>
