<svg width="33" height="31" viewBox="0 0 33 31" fill="none" xmlns="http://www.w3.org/2000/svg">
<path id="Icon simple-jquery" d="M2.03417 7.23954C-0.801044 11.3125 -0.449798 16.6104 1.71855 20.9359C1.76814 21.0414 1.8227 21.1415 1.87591 21.2416C1.9067 21.3096 1.94102 21.376 1.97871 21.4404C1.99749 21.4785 2.01842 21.5156 2.04139 21.5513C2.0761 21.6208 2.11353 21.6866 2.1496 21.7542L2.35926 22.1082C2.39804 22.1736 2.43547 22.2376 2.47965 22.303C2.55315 22.4283 2.63972 22.5528 2.71592 22.6781C2.75064 22.7304 2.78265 22.7823 2.82143 22.8346C2.94948 23.0384 3.08716 23.2362 3.23445 23.4279C3.3386 23.5709 3.44276 23.7098 3.55503 23.8486C3.5911 23.8996 3.63123 23.9501 3.66866 24.001L3.96399 24.3617C4.00006 24.4032 4.03614 24.4519 4.07491 24.4939C4.20567 24.6512 4.34545 24.805 4.48342 24.9601C4.48342 24.9628 4.48748 24.9655 4.49018 24.9695C4.65941 25.1829 4.84909 25.3792 5.05651 25.5557C5.16337 25.6653 5.27023 25.7748 5.38385 25.8817L5.51912 26.0111C5.66747 26.15 5.81581 26.2889 5.97002 26.4223C5.97272 26.4223 5.97407 26.425 5.97678 26.4264L6.05298 26.4931C6.18825 26.6122 6.32667 26.7307 6.4669 26.8403L6.63373 26.9805C6.74735 27.0707 6.86459 27.1582 6.98092 27.2475L7.16127 27.3863C7.28527 27.4797 7.41783 27.5721 7.54453 27.6627C7.58962 27.6961 7.63787 27.7295 7.68611 27.7601L7.72489 27.7908L8.10003 28.0379L8.2601 28.1447C8.45624 28.2701 8.65147 28.3891 8.84626 28.5054C8.90217 28.5334 8.95853 28.5641 9.01039 28.5956C9.15467 28.6786 9.30437 28.7625 9.44956 28.84C9.52981 28.8851 9.61233 28.9243 9.69529 28.9654C9.79539 29.0213 9.89955 29.0763 10.0064 29.1322C10.0323 29.14 10.0573 29.1503 10.0813 29.1629C10.1263 29.1827 10.1669 29.2043 10.2093 29.2255C10.3694 29.3058 10.5367 29.382 10.7103 29.4577C10.7448 29.471 10.7787 29.4861 10.8117 29.5028C11.0038 29.5871 11.1963 29.667 11.3952 29.7459C11.4402 29.7594 11.4885 29.7819 11.5354 29.7991C11.7157 29.8671 11.9015 29.9366 12.0841 30.002L12.1509 30.0259C12.3551 30.0953 12.5567 30.1611 12.7636 30.2261C12.8119 30.2396 12.861 30.2567 12.912 30.2711C13.1192 30.3419 13.3299 30.4021 13.5432 30.4515C27.2449 32.949 31.2272 22.2132 31.2272 22.2132C27.8821 26.5693 21.9461 27.7177 16.3239 26.4399C16.1156 26.3917 15.9072 26.3249 15.6976 26.2636C15.4436 26.1885 15.1912 26.1079 14.9405 26.0219L14.8576 25.9899C14.6772 25.9286 14.5009 25.8605 14.3233 25.7924C14.2749 25.7723 14.2259 25.7541 14.1763 25.7379C13.9801 25.659 13.7889 25.5778 13.5996 25.4935C13.5581 25.48 13.5234 25.4615 13.4819 25.4452C13.3205 25.371 13.1598 25.2958 12.9999 25.2198C12.9503 25.1986 12.9066 25.1747 12.8583 25.1504C12.733 25.0917 12.6072 25.025 12.4845 24.9605C12.4 24.9199 12.3168 24.8773 12.2347 24.8325C12.0837 24.7522 11.9331 24.6656 11.7838 24.5827C11.7387 24.5507 11.6864 24.5241 11.6341 24.4925C11.4372 24.3759 11.2419 24.2556 11.048 24.1318C10.9942 24.0984 10.9417 24.0633 10.8906 24.0263C10.749 23.9388 10.6102 23.8471 10.474 23.7512C10.4289 23.7206 10.3838 23.6872 10.3365 23.6538C10.2039 23.5619 10.073 23.4675 9.94373 23.3707C9.88782 23.3256 9.8274 23.2805 9.76744 23.2354C9.64975 23.1452 9.53117 23.0551 9.41348 22.9577L9.25612 22.8323C9.10582 22.7103 8.95718 22.5852 8.81019 22.4572C8.79493 22.4423 8.77833 22.4289 8.76059 22.417L8.29707 21.995L8.16181 21.8697C8.05224 21.7587 7.93997 21.6519 7.82814 21.5423L7.69874 21.407C7.55776 21.2667 7.42024 21.1228 7.28617 20.9755L7.26633 20.9543C7.12475 20.7992 6.98723 20.6419 6.84835 20.4818C6.81228 20.4403 6.77892 20.3961 6.74149 20.3524L6.43985 19.9827C6.28594 19.7852 6.13459 19.5857 5.9858 19.3843C2.87013 15.1347 1.74154 9.25909 4.23768 4.43904M10.8306 3.80779C8.77547 6.75798 8.8918 10.7028 10.4916 13.8221C10.7559 14.3477 11.058 14.8535 11.3956 15.3353C11.6944 15.8148 12.0496 16.2568 12.4534 16.6519C12.5963 16.8147 12.751 16.9725 12.9129 17.1312L13.0333 17.2516C13.1854 17.3986 13.3412 17.5433 13.5008 17.6858L13.5207 17.7034C13.701 17.8606 13.8853 18.0129 14.0735 18.1602C14.1186 18.1908 14.1578 18.2269 14.2015 18.2576C14.3886 18.4018 14.5767 18.5407 14.7719 18.6782L14.7917 18.6904C14.8747 18.7504 14.9626 18.8054 15.056 18.864C15.0934 18.8879 15.1362 18.9199 15.1763 18.9443C15.3179 19.0344 15.4568 19.1206 15.5997 19.2071C15.6223 19.2166 15.6426 19.2283 15.6638 19.2378C15.7842 19.3113 15.9149 19.3821 16.0403 19.4475C16.0853 19.4741 16.1273 19.4926 16.1724 19.5196C16.2625 19.5647 16.35 19.6098 16.4352 19.6549L16.4781 19.6734C16.6584 19.7635 16.8428 19.8442 17.0228 19.9272C17.0678 19.9448 17.1071 19.9592 17.1454 19.9782C17.2937 20.0422 17.4443 20.1035 17.5927 20.1612C17.6594 20.1838 17.7221 20.2108 17.7848 20.2307C17.92 20.2816 18.0639 20.3281 18.1987 20.3749L18.3858 20.4349C18.581 20.506 18.781 20.5636 18.9841 20.6072C29.5616 22.3607 32.0109 14.2126 32.0109 14.2126C29.806 17.3855 25.5392 18.8974 20.992 17.7169C20.7909 17.6649 20.5914 17.6071 20.3936 17.5433C20.3296 17.5258 20.2732 17.5059 20.2133 17.4874C20.0744 17.4392 19.9315 17.3927 19.7966 17.3418L19.6046 17.2696C19.4549 17.2097 19.3029 17.1533 19.1573 17.0893C19.1122 17.0695 19.0703 17.0559 19.0355 17.0361C18.8484 16.9518 18.6604 16.8693 18.4787 16.7795L18.2036 16.6366L18.0449 16.5563C17.9223 16.4923 17.8087 16.4256 17.691 16.3561C17.6625 16.3427 17.6348 16.3276 17.608 16.3111C17.4664 16.2209 17.3194 16.1375 17.1846 16.0468C17.1395 16.0216 17.0976 15.9909 17.0552 15.9639L16.7775 15.7835C16.5854 15.6482 16.3969 15.5058 16.2071 15.3669C16.1643 15.3281 16.1228 15.2961 16.0817 15.2614C14.052 13.6938 12.5445 11.5484 11.7577 9.10759C11.3433 7.8477 11.1955 6.51538 11.3238 5.19531C11.452 3.87524 11.8534 2.59628 12.5026 1.4397M18.2289 1.24356C17.6492 2.1121 17.2995 3.11365 17.2128 4.15429C17.126 5.19493 17.305 6.24055 17.7329 7.19309C18.1909 8.22803 18.8534 9.15968 19.6807 9.93205C20.5079 10.7044 21.4828 11.3016 22.5466 11.6876C22.6337 11.721 22.7175 11.7489 22.8073 11.7809L22.9249 11.817C23.0476 11.8558 23.172 11.9013 23.2987 11.9293C29.1428 13.0565 30.7236 8.92858 31.1497 8.32213C29.7582 10.32 27.4253 10.7993 24.5635 10.1036C24.33 10.0452 24.1 9.97389 23.8745 9.88989C23.5942 9.79139 23.3192 9.67821 23.0507 9.55081C22.5423 9.30448 22.0591 9.00926 21.6079 8.66932C19.0437 6.72777 17.4556 3.01963 19.1275 0" fill="#B1B1B1"/>
</svg>
