<svg width="36" height="24" viewBox="0 0 36 24" fill="none" xmlns="http://www.w3.org/2000/svg">
<path id="Icon awesome-erlang" d="M4.90089 0.764123H0V23.7538H5.64286C2.84955 20.768 1.21384 16.641 1.21964 11.715C1.21384 7.36114 2.5683 3.61467 4.90089 0.765025V0.764123ZM18.2884 1.31466C17.0131 1.3047 15.7826 1.78883 14.85 2.6674C13.9174 3.54598 13.3538 4.75217 13.275 6.03777H22.8241C22.7625 3.21608 20.8853 1.32233 18.2884 1.31466ZM31.2549 0.769533H31.2719L31.2661 0.763672L31.2549 0.769533ZM31.2719 0.769533C33.0357 3.19353 34.0085 6.30424 33.8683 10.0056C33.8976 10.4611 33.8976 10.9181 33.8683 11.3736H12.9379C12.9268 17.6009 15.1254 22.4372 20.7277 22.4597C24.5777 22.4426 27.3598 19.5646 29.2652 16.4367L34.683 19.1732C33.7816 20.8266 32.6891 22.3662 31.4286 23.7597H35.9701V0.769533H31.2719Z" fill="#B1B1B1"/>
</svg>
