<svg width="29" height="29" viewBox="0 0 29 29" fill="none" xmlns="http://www.w3.org/2000/svg">
<path id="Icon simple-next-dot-js" d="M21.5183 27.1881C21.4108 27.2448 21.4171 27.2681 21.5241 27.2133C21.5555 27.1998 21.5841 27.1806 21.6084 27.1566C21.6084 27.1372 21.6084 27.1396 21.5178 27.1881H21.5183ZM21.7334 27.0747C21.685 27.1144 21.685 27.1169 21.7441 27.0854C21.7679 27.0761 21.7894 27.0617 21.8071 27.0432C21.809 27.0204 21.7945 27.0262 21.7354 27.0747H21.7334ZM21.8749 26.9889C21.8265 27.0286 21.8265 27.0311 21.8856 26.9996C21.9094 26.9903 21.9309 26.9759 21.9486 26.9574C21.95 26.9346 21.936 26.9404 21.8764 26.9889H21.8749ZM22.0164 26.9045C21.9679 26.9443 21.9679 26.9467 22.0271 26.9152C22.0509 26.906 22.0724 26.8916 22.09 26.873C22.0915 26.8498 22.077 26.8561 22.0178 26.9045H22.0164ZM22.2102 26.7775C22.1133 26.8406 22.0799 26.8827 22.168 26.8343C22.231 26.7979 22.3323 26.7208 22.3134 26.7184C22.2782 26.7346 22.2447 26.7544 22.2136 26.7775H22.2102ZM13.5502 0.00449773C13.4872 0.0103147 13.2895 0.0297046 13.1108 0.044247C11.0461 0.243872 9.04821 0.88362 7.2514 1.92044C5.45459 2.95726 3.90059 4.36711 2.69395 6.05511C1.34373 7.93006 0.46612 10.1036 0.135782 12.3907C0.0257389 13.0886 -0.0175776 13.7953 0.00641952 14.5013C-0.0173086 15.2079 0.0263325 15.9151 0.136751 16.6134C0.534593 19.2963 1.67357 21.8147 3.4253 23.8848C5.17703 25.9548 7.47187 27.4941 10.0511 28.3292C11.0466 28.6445 12.0716 28.8571 13.1103 28.9637C14.0352 29.0121 14.962 29.0121 15.887 28.9637C17.7077 28.7852 19.4788 28.2666 21.1084 27.4349C21.3575 27.3069 21.4054 27.273 21.3715 27.2453C20.5776 26.1957 19.7909 25.1404 19.0115 24.0794L16.6937 20.947L13.79 16.6473C12.8246 15.2086 11.8499 13.7763 10.8661 12.3505C10.8549 12.3481 10.8433 14.2585 10.8384 16.5906C10.8302 20.6751 10.8278 20.8394 10.7755 20.9359C10.7261 21.0488 10.6377 21.1402 10.5264 21.1933C10.4358 21.2393 10.3564 21.2475 9.92854 21.2475H9.43871L9.30838 21.1651C9.22796 21.1144 9.16255 21.0431 9.11894 20.9586L9.05983 20.8307L9.06661 15.149L9.07485 9.46336L9.16351 9.35381C9.22281 9.28425 9.29401 9.22581 9.37379 9.18124C9.48958 9.12452 9.53561 9.11822 10.0259 9.11822C10.6044 9.11822 10.6999 9.141 10.8496 9.30533C12.025 11.0553 13.1905 12.8118 14.3462 14.575C16.2276 17.4292 18.7993 21.327 20.0648 23.2403L22.3594 26.7179L22.4752 26.6418C23.5794 25.907 24.5807 25.028 25.4525 24.0281C27.2786 21.9371 28.463 19.3634 28.8634 16.6158C28.9738 15.9175 29.0175 15.2103 28.9937 14.5038C29.0174 13.7972 28.9738 13.09 28.8634 12.3917C28.4655 9.70911 27.3266 7.19101 25.5752 5.12119C23.8238 3.05136 21.5293 1.51209 18.9505 0.676841C17.9684 0.363868 16.957 0.151907 15.932 0.044247C15.6602 0.0161317 13.7866 -0.0148921 13.5526 0.00789096L13.5502 0.00449773ZM19.4834 8.77502C19.551 8.809 19.6111 8.85612 19.6603 8.91364C19.7095 8.97115 19.7467 9.0379 19.7698 9.10998C19.7925 9.18366 19.7974 10.7581 19.7925 14.3108L19.7833 19.4075L18.8851 18.0308L17.9815 16.6522V12.9472C17.9815 10.5521 17.9921 9.20596 18.0091 9.141C18.0295 9.0657 18.0649 8.99526 18.113 8.93382C18.1611 8.87238 18.221 8.82119 18.2891 8.78326C18.4049 8.72412 18.4475 8.71782 18.8928 8.71782C19.3148 8.71782 19.3865 8.72364 19.4834 8.77502Z" fill="#B1B1B1"/>
</svg>
