<svg width="258" height="44" viewBox="0 0 258 44" fill="none" xmlns="http://www.w3.org/2000/svg">
<g clip-path="url(#clip0_1072_95386)">
<path d="M72.6739 34.4454V21.6755H61.4693V34.4454H55.5356V5.83986H61.4693V16.7458H72.6753V5.83986H78.6275V34.4454H72.6739ZM100.002 21.9471H86.0738V29.3025H101.942V34.4454H80.2185V5.83986H101.248V10.9047H86.0738V16.979H100.002V21.9471ZM125.366 34.4454H118.091L112.646 24.7027L106.885 34.4454H99.9212L109.142 19.8724L100.369 5.83986H107.528L112.645 15.1361L117.898 5.83986H124.823L116.049 19.6379L125.366 34.4454ZM141.373 28.5659H130.81L128.826 34.4454H122.562L132.794 5.83986H139.567L149.72 34.4454H143.222L141.373 28.5659ZM139.7 23.6362L136.114 12.3752L132.418 23.6362H139.7ZM162.146 34.4454H149.151V5.83986H163.08C166.595 5.89197 169.085 6.90767 170.55 8.88695C171.454 10.1634 171.919 11.6969 171.878 13.2589C171.952 14.7756 171.481 16.2688 170.55 17.4705C169.941 18.1541 169.2 18.7084 168.371 19.1C169.728 19.5453 170.897 20.4315 171.691 21.6172C172.466 22.8755 172.855 24.3327 172.809 25.8089C172.832 27.4209 172.386 29.0049 171.525 30.3689C170.996 31.2443 170.303 32.0092 169.482 32.6211C168.517 33.3396 167.402 33.8306 166.219 34.0573C164.878 34.3246 163.514 34.4547 162.146 34.4454ZM162.014 21.8503H154.871V29.4773H161.91C162.914 29.5242 163.917 29.352 164.848 28.9726C165.487 28.6367 166.011 28.1166 166.35 27.4798C166.69 26.843 166.829 26.1191 166.751 25.4022C166.803 24.7625 166.652 24.1226 166.321 23.5726C165.989 23.0227 165.493 22.5903 164.902 22.3365C163.98 21.9838 162.997 21.8185 162.011 21.8503H162.014ZM164.99 16.3974C165.394 16.1253 165.716 15.7484 165.922 15.3072C166.128 14.866 166.209 14.3773 166.157 13.8935C166.216 13.3457 166.096 12.7937 165.815 12.3195C165.534 11.8452 165.107 11.474 164.598 11.261C163.487 10.9336 162.332 10.7829 161.174 10.8146H154.871V17.122H161.91C162.983 17.1663 164.047 16.9156 164.987 16.3974H164.99ZM193.485 21.9471H179.554V29.3025H195.428V34.4454H173.699V5.83986H194.728V10.9047H179.554V16.979H193.483L193.485 21.9471ZM195.796 5.83986H201.788V29.3025H215.989V34.4454H195.795L195.796 5.83986ZM215.829 5.83986H221.822V29.3025H236.021V34.4454H215.828L215.829 5.83986ZM246.269 30.312C247.435 30.3475 248.599 30.1899 249.713 29.8456C250.446 29.6604 251.095 29.2314 251.551 28.6293C252.007 28.0273 252.244 27.2881 252.223 26.5336C252.234 26.0899 252.124 25.6516 251.905 25.2653C251.686 24.8791 251.366 24.5596 250.979 24.341C249.753 23.6953 248.434 23.2435 247.069 23.0016L244.034 22.322C241.861 21.9513 239.769 21.2095 237.848 20.1294C236.873 19.4322 236.094 18.4966 235.587 17.4123C235.079 16.3281 234.859 15.1318 234.949 13.9385C234.922 12.7351 235.159 11.5403 235.642 10.4375C236.126 9.3348 236.845 8.35076 237.75 7.55418C239.617 5.85929 242.362 5.01185 245.984 5.01185C248.757 4.93345 251.477 5.7765 253.717 7.40845C254.784 8.22457 255.643 9.27937 256.226 10.4878C256.809 11.6962 257.099 13.0243 257.073 14.3651H251.315C251.315 13.6051 251.105 12.8598 250.706 12.2122C250.308 11.5645 249.737 11.0399 249.057 10.6967C247.97 10.1849 246.776 9.93876 245.575 9.97861C244.278 9.91286 242.99 10.2358 241.879 10.906C241.442 11.1821 241.084 11.5673 240.842 12.0234C240.6 12.4795 240.481 12.9907 240.498 13.5066C240.48 13.9784 240.6 14.4453 240.841 14.8514C241.082 15.2575 241.436 15.5859 241.859 15.7972C243.053 16.3372 244.307 16.7348 245.595 16.9816L250.536 18.166C252.298 18.5068 253.969 19.2142 255.438 20.242C256.3 20.9427 256.982 21.8378 257.429 22.8535C257.875 23.8691 258.073 24.9761 258.007 26.0831C258.028 27.3241 257.768 28.5538 257.247 29.6805C256.725 30.8073 255.955 31.8021 254.995 32.5907C252.574 34.4549 249.555 35.3765 246.503 35.1833C243.359 35.3628 240.249 34.4622 237.69 32.6317C236.637 31.7987 235.797 30.7284 235.239 29.5088C234.681 28.2891 234.421 26.9549 234.48 25.6155H240.2C240.286 26.6707 240.656 27.6832 241.271 28.546C241.919 29.1933 242.705 29.6878 243.57 29.9934C244.434 30.2989 245.357 30.4078 246.269 30.312Z" fill="#2C3441"/>
<path d="M18.1582 40.1752L18.1994 29.4614L22.0666 25.5929L25.9032 29.4349L25.8649 40.1302L21.9842 44L18.1582 40.1752ZM0 22.0623L22.1157 0L44.1014 21.9324L33.2382 32.7695L22.1157 21.6741L10.8634 32.898L0 22.0623Z" fill="#EB7373"/>
</g>
<defs>
<clipPath id="clip0_1072_95386">
<rect width="258" height="44" fill="white"/>
</clipPath>
</defs>
</svg>
