<svg width="25" height="18" viewBox="0 0 25 18" fill="none" xmlns="http://www.w3.org/2000/svg">
<path fill-rule="evenodd" clip-rule="evenodd" d="M10.8003 0.145734C10.9603 0.222687 11.0954 0.343124 11.1899 0.49322C11.2845 0.643317 11.3348 0.816989 11.3349 0.9943V16.0799C11.3347 16.2573 11.2843 16.4311 11.1895 16.5812C11.0948 16.7313 10.9595 16.8517 10.7993 16.9285C10.6391 17.0053 10.4604 17.0354 10.2838 17.0154C10.1072 16.9954 9.93982 16.926 9.80093 16.8153L5.33686 13.2514H0.944577C0.69406 13.2514 0.453803 13.152 0.27666 12.9752C0.0995176 12.7984 0 12.5586 0 12.3085V4.7657C0 4.51564 0.0995176 4.27583 0.27666 4.09901C0.453803 3.92219 0.69406 3.82285 0.944577 3.82285H5.33686L9.80093 0.258876C9.93992 0.147974 10.1075 0.0785144 10.2843 0.0584975C10.4611 0.0384806 10.64 0.0687203 10.8003 0.145734ZM24.2832 4.09816C24.3712 4.18575 24.4409 4.28979 24.4886 4.40434C24.5362 4.51889 24.5607 4.64169 24.5607 4.7657C24.5607 4.88972 24.5362 5.01252 24.4886 5.12707C24.4409 5.24161 24.3712 5.34566 24.2832 5.43324L16.7266 12.976C16.5492 13.1531 16.3086 13.2526 16.0578 13.2526C15.807 13.2526 15.5664 13.1531 15.3891 12.976C15.2117 12.799 15.112 12.5589 15.112 12.3085C15.112 12.0581 15.2117 11.818 15.3891 11.641L22.9457 4.09816C23.0334 4.01036 23.1376 3.9407 23.2524 3.89316C23.3672 3.84563 23.4902 3.82117 23.6144 3.82117C23.7387 3.82117 23.8617 3.84563 23.9765 3.89316C24.0912 3.9407 24.1954 4.01036 24.2832 4.09816Z" fill="white"/>
<path fill-rule="evenodd" clip-rule="evenodd" d="M15.3883 4.09816C15.3004 4.18575 15.2306 4.28979 15.183 4.40434C15.1354 4.51889 15.1108 4.64169 15.1108 4.7657C15.1108 4.88972 15.1354 5.01252 15.183 5.12707C15.2306 5.24161 15.3004 5.34566 15.3883 5.43324L22.945 12.976C23.0328 13.0637 23.137 13.1332 23.2518 13.1807C23.3665 13.2281 23.4895 13.2526 23.6137 13.2526C23.7379 13.2526 23.8609 13.2281 23.9757 13.1807C24.0904 13.1332 24.1947 13.0637 24.2825 12.976C24.3703 12.8884 24.44 12.7843 24.4875 12.6698C24.535 12.5552 24.5595 12.4325 24.5595 12.3085C24.5595 12.1845 24.535 12.0618 24.4875 11.9472C24.44 11.8327 24.3703 11.7286 24.2825 11.641L16.7259 4.09816C16.6381 4.01036 16.5339 3.9407 16.4191 3.89316C16.3044 3.84563 16.1813 3.82117 16.0571 3.82117C15.9329 3.82117 15.8098 3.84563 15.6951 3.89316C15.5803 3.9407 15.4761 4.01036 15.3883 4.09816Z" fill="white"/>
</svg>
