<svg width="17" height="19" viewBox="0 0 17 19" fill="none" xmlns="http://www.w3.org/2000/svg">
<path d="M17 1.58346V17.4168C16.9995 17.8366 16.8366 18.239 16.5468 18.5358C16.2571 18.8327 15.8643 18.9996 15.4545 19.0001H11.9773C11.5675 18.9996 11.1747 18.8327 10.885 18.5358C10.5953 18.239 10.4323 17.8366 10.4318 17.4168V1.58346C10.4323 1.16368 10.5953 0.761229 10.885 0.4644C11.1747 0.167571 11.5675 0.000602155 11.9773 0.00012207H15.4545C15.8643 0.000602155 16.2571 0.167571 16.5468 0.4644C16.8366 0.761229 16.9995 1.16368 17 1.58346ZM5.02273 0.00012207H1.54545C1.13572 0.000602155 0.742898 0.167571 0.453171 0.4644C0.163443 0.761229 0.000468599 1.16368 0 1.58346V17.4168C0.000468599 17.8366 0.163443 18.239 0.453171 18.5358C0.742898 18.8327 1.13572 18.9996 1.54545 19.0001H5.02273C5.43246 18.9996 5.82528 18.8327 6.11501 18.5358C6.40474 18.239 6.56771 17.8366 6.56818 17.4168V1.58346C6.56771 1.16368 6.40474 0.761229 6.11501 0.4644C5.82528 0.167571 5.43246 0.000602155 5.02273 0.00012207Z" fill="white"/>
</svg>
