<svg width="116" height="19" viewBox="0 0 116 19" fill="none" xmlns="http://www.w3.org/2000/svg">
<path d="M27.3139 5.32809C26.6867 5.00905 25.9945 4.83455 25.2893 4.8177C24.8553 4.8177 24.1114 5.00174 24.1114 5.53242C24.1114 6.24627 25.2893 6.34898 25.8055 6.45035C27.5615 6.79749 28.884 7.61392 28.884 9.5528C28.884 12.3083 26.3427 13.451 23.8841 13.451C22.3736 13.4454 20.8939 13.0287 19.6074 12.2467L20.9708 9.65469C21.7353 10.1854 23.0164 10.7162 23.9461 10.7162C24.4214 10.7162 25.1239 10.4915 25.1239 9.91987C25.1239 9.1038 23.9461 9.06325 22.7686 8.7568C21.5911 8.45034 20.4132 7.87874 20.4132 6.00189C20.4132 3.42983 22.7686 2.28711 25.0826 2.28711C26.2808 2.28711 27.479 2.47043 28.5742 2.96056L27.3139 5.32809Z" fill="white"/>
<path d="M15.1824 2.18185C15.385 1.96626 15.4965 1.68227 15.4939 1.38812C15.4939 1.2277 15.462 1.06884 15.3998 0.920629C15.3377 0.772413 15.2466 0.63774 15.1318 0.5243C15.017 0.410859 14.8807 0.320872 14.7306 0.259482C14.5806 0.198092 14.4198 0.166495 14.2574 0.166504L6.55975 0.207913C5.32118 0.208001 4.10794 0.554455 3.06036 1.2072C2.01277 1.85994 1.17365 2.79229 0.640044 3.89643C0.106438 5.00057 -0.099846 6.2314 0.045049 7.44651C0.189944 8.66162 0.680098 9.81136 1.45882 10.7628L3.77233 13.1956L15.1824 2.18185Z" fill="url(#paint0_linear_1467_583)"/>
<path d="M0.478591 16.381C0.214758 16.6045 0.0263672 16.9107 0.0263672 17.2804C0.0267312 17.6037 0.157028 17.9135 0.388606 18.1418C0.620184 18.3702 0.934083 18.4983 1.26128 18.4981L8.9092 18.5039C10.1517 18.5062 11.3691 18.1588 12.4189 17.5022C13.4687 16.8456 14.3074 15.9071 14.8367 14.7967C15.366 13.6862 15.564 12.4498 15.4075 11.2321C15.251 10.0145 14.7466 8.86613 13.9532 7.92153C13.9532 7.92153 12.849 6.62868 11.6932 5.53613L0.478591 16.381Z" fill="url(#paint1_linear_1467_583)"/>
<path d="M15.1942 2.17766C15.3494 2.00064 15.4498 1.7833 15.4835 1.5515C15.5172 1.3197 15.4828 1.08321 15.3843 0.870185C15.2859 0.657161 15.1275 0.476565 14.9281 0.349909C14.7287 0.223253 14.4967 0.155862 14.2596 0.155762L9.21981 0.223504C8.46235 0.22372 7.71845 0.422091 7.06375 0.798417C6.40905 1.17474 5.86691 1.71562 5.49245 2.36604C5.11799 3.01647 4.92456 3.75327 4.93184 4.50149C4.93911 5.24971 5.14683 5.98268 5.53387 6.62589C5.53387 6.62589 6.04123 7.62133 7.18914 8.79347L7.73675 9.37511L15.1942 2.17766Z" fill="url(#paint2_linear_1467_583)"/>
<path d="M0.449082 16.4068C0.257338 16.5693 0.120566 16.7859 0.0571623 17.0275C-0.00624121 17.269 0.00676506 17.524 0.094432 17.758C0.182099 17.9921 0.340221 18.194 0.54753 18.3366C0.754839 18.4793 1.00139 18.5557 1.25402 18.5558L6.28429 18.5214C8.65243 18.5214 10.5721 16.5677 10.5721 14.2281C10.5735 13.2866 10.256 12.3716 9.67012 11.629C9.67012 11.629 9.02633 10.6893 7.72407 9.37451L0.449082 16.4068Z" fill="url(#paint3_linear_1467_583)"/>
<path d="M0.448784 16.4069C0.257137 16.5694 0.120451 16.786 0.0571063 17.0275C-0.0062388 17.2691 0.00679371 17.524 0.094451 17.7579C0.182108 17.9919 0.340187 18.1938 0.547434 18.3364C0.754681 18.479 1.00116 18.5555 1.25373 18.5556L2.33833 18.5641C3.89879 18.5641 5.15755 17.2713 5.15755 15.7301C5.1586 15.0821 4.93039 14.454 4.51238 13.9546L3.77052 13.1948L0.448784 16.4069Z" fill="url(#paint4_linear_1467_583)"/>
<path d="M15.2079 2.19029C15.3632 2.01335 15.4637 1.79603 15.4974 1.56424C15.5312 1.33246 15.4968 1.09598 15.3983 0.882968C15.2999 0.669954 15.1415 0.489389 14.9421 0.362796C14.7426 0.236203 14.5106 0.168912 14.2735 0.168945L13.1732 0.191288C11.6127 0.191288 10.3477 1.49814 10.3477 3.03955C10.3469 3.6084 10.5227 4.1638 10.8514 4.63087C11.1045 4.96285 11.3924 5.26746 11.7104 5.53959L15.2079 2.19029Z" fill="url(#paint5_linear_1467_583)"/>
<path d="M42.098 13.0471H38.4942V11.9323H38.4548C37.821 12.9296 36.5737 13.3798 35.3855 13.3798C32.3757 13.3798 30.2568 10.8956 30.2568 8.01977C30.2568 5.14396 32.3361 2.67969 35.3459 2.67969C36.5141 2.67969 37.7417 3.11036 38.4942 3.99053V3.01256H42.098V13.0471ZM33.9794 8.03949C33.9794 9.31079 34.8308 10.2896 36.2962 10.2896C37.7615 10.2896 38.613 9.31072 38.613 8.03949C38.613 6.80725 37.7615 5.77052 36.2962 5.77052C34.8308 5.77052 33.9793 6.80725 33.9793 8.03949H33.9794Z" fill="white"/>
<path d="M55.6431 12.0689C55.6431 16.3332 53.5047 18.0544 49.762 18.0544C47.4254 18.0544 44.2968 16.8615 43.98 14.2204H48.0195C48.0704 14.3875 48.1567 14.542 48.2728 14.6736C48.3889 14.8051 48.532 14.9108 48.6926 14.9834C49.0136 15.1373 49.3656 15.2177 49.7224 15.2186C51.6627 15.2186 52.0391 13.9667 52.0391 12.3428V11.8736C51.1083 12.7927 50.158 13.2426 48.8114 13.2426C45.8414 13.2426 43.8018 11.0132 43.8018 8.11806C43.8018 5.18379 45.9005 2.67969 49.0095 2.67969C50.1974 2.67969 51.2866 3.07102 51.9994 4.06849H52.0391V3.01249H55.6429L55.6431 12.0689ZM47.5246 7.96124C47.5246 9.23268 48.376 10.2109 49.8413 10.2109C51.3066 10.2109 52.1581 9.23289 52.1581 7.96124C52.1581 6.72857 51.3067 5.69226 49.8413 5.69226C48.376 5.69226 47.5246 6.72892 47.5246 7.96159V7.96124Z" fill="white"/>
<path d="M68.3363 8.62692H60.7526C60.7526 10.0739 61.5246 10.8563 63.0098 10.8563C63.7822 10.8563 64.3366 10.602 64.7325 9.93674H68.1977C67.9205 11.1107 67.2077 11.9712 66.2769 12.5387C65.3461 13.1061 64.198 13.3798 63.0296 13.3798C59.6633 13.3798 57.1484 11.5017 57.1484 8.03943C57.1484 4.6949 59.4652 2.67969 62.7721 2.67969C66.2968 2.67969 68.3363 4.83158 68.3363 8.25442L68.3363 8.62692ZM64.9899 6.57297C64.8119 5.61384 63.9208 4.98821 62.9503 4.98821C61.9008 4.98821 61.0298 5.53646 60.8118 6.57297H64.9899Z" fill="white"/>
<path d="M73.5836 4.30326H73.6233C74.4549 3.09071 75.4647 2.67969 76.8708 2.67969C79.6034 2.67969 80.6923 4.38165 80.6923 6.8465V13.047H77.0885V8.15719C77.0885 7.19849 77.2469 5.51595 75.4647 5.51595C73.9994 5.51595 73.5836 6.59171 73.5836 7.84373V13.0469H69.9795V3.01233H73.5833L73.5836 4.30326Z" fill="white"/>
<path d="M93.5044 8.62692H85.9205C85.9205 10.0739 86.6926 10.8563 88.1778 10.8563C88.9502 10.8563 89.5046 10.602 89.9005 9.93674H93.3656C93.0884 11.1107 92.3756 11.9712 91.4451 12.5387C90.5146 13.1061 89.3659 13.3798 88.1976 13.3798C84.8312 13.3798 82.3164 11.5017 82.3164 8.03943C82.3164 4.6949 84.6332 2.67969 87.9402 2.67969C91.4647 2.67969 93.5045 4.83158 93.5045 8.25442L93.5044 8.62692ZM90.1579 6.57297C89.9799 5.61384 89.0884 4.98821 88.1183 4.98821C87.069 4.98821 86.1977 5.53646 85.9798 6.57297H90.1579Z" fill="white"/>
<path d="M113.187 13.0465H109.583V5.94636H108.415V3.01181H109.583V0H113.187V3.01181H115.227V5.94636H113.187V13.0465Z" fill="white"/>
<path d="M94.1514 15.9928H94.6421V18.8167H94.1514V15.9928ZM94.1514 14.9252H94.6421V15.4656H94.1514V14.9252ZM95.3715 15.9796H95.8301V16.3825C95.9455 16.2332 96.093 16.1111 96.2619 16.0249C96.4203 15.951 96.5936 15.9139 96.7687 15.9163C97.1764 15.9163 97.4517 16.0567 97.5947 16.3374C97.6734 16.4911 97.7127 16.711 97.7127 16.997V18.8167H97.2218V17.0286C97.2276 16.8851 97.201 16.7422 97.144 16.6101C97.0582 16.4335 96.9027 16.3452 96.6774 16.3452C96.5822 16.3426 96.4872 16.3542 96.3956 16.3796C96.2586 16.4215 96.1373 16.5026 96.047 16.6127C95.9722 16.6957 95.9184 16.7952 95.8901 16.9027C95.8622 17.0436 95.8501 17.1871 95.854 17.3306V18.8167H95.3712L95.3715 15.9796ZM98.5466 15.5478C98.5538 15.35 98.5886 15.2052 98.6512 15.1133C98.7638 14.9509 98.9811 14.8696 99.3029 14.8696C99.3333 14.8696 99.3646 14.8705 99.3968 14.8723C99.429 14.874 99.4657 14.8767 99.5067 14.8802V15.3146C99.4567 15.3111 99.4205 15.3089 99.3983 15.308C99.3761 15.3071 99.3551 15.3066 99.3353 15.3066C99.1887 15.3066 99.1011 15.3442 99.0725 15.4192C99.0439 15.4943 99.0294 15.6855 99.0291 15.9928H99.5064V16.369H99.0237V18.8167H98.5465V16.369H98.1469V15.9928H98.5464L98.5466 15.5478ZM101.091 18.5098C101.411 18.5098 101.631 18.3901 101.75 18.1508C101.871 17.9018 101.932 17.6284 101.928 17.3522C101.937 17.1297 101.893 16.9083 101.799 16.7058C101.664 16.4444 101.429 16.3137 101.097 16.3137C100.802 16.3137 100.587 16.425 100.453 16.6475C100.313 16.8929 100.244 17.1713 100.252 17.4528C100.242 17.7185 100.312 17.981 100.453 18.2074C100.587 18.409 100.8 18.5098 101.091 18.5098ZM101.11 15.8978C101.283 15.8939 101.456 15.9242 101.617 15.987C101.778 16.0498 101.925 16.1437 102.049 16.2633C102.304 16.5071 102.432 16.8655 102.432 17.3388C102.432 17.7962 102.32 18.1742 102.094 18.4726C101.869 18.7711 101.52 18.9203 101.046 18.9203C100.651 18.9203 100.337 18.7883 100.105 18.5242C99.8721 18.2602 99.7559 17.9056 99.7559 17.4604C99.7559 16.9835 99.8784 16.6039 100.123 16.3213C100.368 16.0388 100.697 15.8975 101.11 15.8974L101.11 15.8978ZM103.103 15.1875H103.591V15.9799H104.049V16.3693H103.591V18.2206C103.586 18.26 103.593 18.2999 103.611 18.3353C103.629 18.3706 103.658 18.3999 103.693 18.4193C103.752 18.4427 103.816 18.4526 103.88 18.4484C103.904 18.4484 103.929 18.448 103.956 18.4471C103.982 18.4462 104.014 18.444 104.049 18.4404V18.8167C103.993 18.8328 103.935 18.8443 103.876 18.8511C103.812 18.8584 103.747 18.862 103.682 18.8617C103.457 18.8617 103.304 18.8047 103.224 18.6908C103.138 18.5587 103.096 18.4037 103.103 18.2471V16.369H102.714V15.9796H103.103L103.103 15.1875ZM105.728 15.916C105.934 15.9165 106.137 15.9651 106.321 16.0577C106.497 16.1394 106.648 16.266 106.758 16.4246C106.857 16.576 106.923 16.7467 106.951 16.9253C106.985 17.1319 107 17.3412 106.994 17.5505H104.889C104.898 17.8384 104.966 18.0692 105.095 18.2429C105.224 18.4167 105.423 18.5036 105.693 18.5038C105.806 18.5087 105.918 18.4892 106.022 18.4467C106.127 18.4041 106.22 18.3395 106.296 18.2575C106.382 18.1624 106.444 18.0491 106.479 17.9263H106.953C106.934 18.0492 106.892 18.1674 106.829 18.2747C106.767 18.3912 106.687 18.4972 106.591 18.5888C106.44 18.7324 106.252 18.8315 106.047 18.875C105.918 18.9047 105.786 18.9189 105.653 18.9174C105.482 18.92 105.313 18.8871 105.157 18.8206C105 18.7542 104.859 18.6558 104.744 18.5319C104.495 18.2749 104.371 17.9151 104.371 17.4524C104.371 16.9968 104.496 16.6268 104.747 16.3424C104.868 16.2033 105.018 16.0927 105.188 16.0189C105.358 15.9451 105.543 15.9099 105.728 15.916ZM106.498 17.1716C106.488 16.9989 106.441 16.8301 106.361 16.6763C106.228 16.4467 106.008 16.3319 105.698 16.3319C105.594 16.3299 105.49 16.35 105.394 16.3908C105.297 16.4317 105.211 16.4925 105.141 16.569C104.988 16.7335 104.903 16.9484 104.902 17.1716H106.498ZM108.694 15.8974C109.017 15.8974 109.281 15.9751 109.484 16.1306C109.687 16.286 109.809 16.5536 109.85 16.9332H109.38C109.358 16.7727 109.29 16.6217 109.185 16.4978C109.083 16.3821 108.919 16.3242 108.694 16.3242C108.386 16.3242 108.166 16.4726 108.034 16.7693C107.942 16.9955 107.898 17.2381 107.905 17.4818C107.897 17.7333 107.96 17.9821 108.088 18.1997C108.209 18.394 108.401 18.4911 108.662 18.4911C108.749 18.4955 108.837 18.4816 108.919 18.4503C109.001 18.4191 109.076 18.3712 109.138 18.3097C109.264 18.1699 109.348 17.9978 109.38 17.813H109.85C109.796 18.1889 109.662 18.464 109.447 18.6382C109.213 18.8186 108.921 18.911 108.624 18.8988C108.453 18.905 108.282 18.8714 108.126 18.8007C107.97 18.7301 107.833 18.6243 107.726 18.4919C107.502 18.2206 107.391 17.882 107.391 17.476C107.391 16.978 107.513 16.5904 107.758 16.3131C107.873 16.1791 108.016 16.0721 108.178 16.0002C108.34 15.9283 108.516 15.8931 108.694 15.8974ZM110.332 14.9123H110.815V16.364C110.901 16.248 111.005 16.1462 111.124 16.062C111.298 15.9562 111.501 15.9037 111.705 15.9111C112.122 15.9111 112.404 16.055 112.553 16.3429C112.633 16.4999 112.674 16.718 112.674 16.9972V18.8167H112.177V17.0286C112.177 16.8202 112.151 16.6674 112.097 16.5703C112.009 16.4149 111.845 16.3372 111.604 16.3372C111.403 16.3373 111.209 16.4098 111.059 16.5411C110.897 16.6771 110.815 16.9341 110.815 17.3121V18.8167H110.333L110.332 14.9123Z" fill="white"/>
<path d="M94.0619 3.04736H98.2444L102.825 7.82929C102.839 7.84038 102.851 7.85462 102.859 7.87091C102.867 7.88721 102.871 7.90511 102.871 7.92327C102.871 7.94142 102.867 7.95933 102.859 7.97562C102.851 7.99191 102.839 8.00615 102.825 8.01724C102.718 8.1196 98.001 13.0533 98.001 13.0533H93.8203L98.7245 7.95464V7.87767L94.0619 3.04736Z" fill="url(#paint6_linear_1467_583)"/>
<path d="M103.588 7.16872L107.617 3.01025H103.4L101.49 5.00462L103.588 7.16872Z" fill="white"/>
<path d="M103.558 8.67822L107.806 13.0621H103.589L101.46 10.842L103.558 8.67822Z" fill="white"/>
<defs>
<linearGradient id="paint0_linear_1467_583" x1="7.80895" y1="12.8568" x2="7.74321" y2="0.257566" gradientUnits="userSpaceOnUse">
<stop stop-color="#774B9B"/>
<stop offset="0.872" stop-color="#7B6FB0"/>
<stop offset="1" stop-color="#7C75B4"/>
</linearGradient>
<linearGradient id="paint1_linear_1467_583" x1="7.91272" y1="7.77956" x2="7.80374" y2="14.3161" gradientUnits="userSpaceOnUse">
<stop stop-color="#F5973A"/>
<stop offset="0.27" stop-color="#F6A039"/>
<stop offset="0.725" stop-color="#FBBA37"/>
<stop offset="1" stop-color="#FFCE36"/>
</linearGradient>
<linearGradient id="paint2_linear_1467_583" x1="10.235" y1="8.54537" x2="10.2109" y2="0.377003" gradientUnits="userSpaceOnUse">
<stop stop-color="#5780BE"/>
<stop offset="0.771" stop-color="#74A4D6"/>
<stop offset="1" stop-color="#7EB0DE"/>
</linearGradient>
<linearGradient id="paint3_linear_1467_583" x1="0.0175781" y1="13.9652" x2="10.5721" y2="13.9652" gradientUnits="userSpaceOnUse">
<stop stop-color="#EE5E51"/>
<stop offset="0.225" stop-color="#EB675A"/>
<stop offset="0.605" stop-color="#E58272"/>
<stop offset="1" stop-color="#DEA492"/>
</linearGradient>
<linearGradient id="paint4_linear_1467_583" x1="2.69036" y1="13.2807" x2="2.51651" y2="18.365" gradientUnits="userSpaceOnUse">
<stop stop-color="#EA1A64"/>
<stop offset="0.126" stop-color="#EA236A"/>
<stop offset="0.339" stop-color="#EC3E7D"/>
<stop offset="0.612" stop-color="#EF689B"/>
<stop offset="0.933" stop-color="#F3A3C4"/>
<stop offset="1" stop-color="#F4B1CE"/>
</linearGradient>
<linearGradient id="paint5_linear_1467_583" x1="12.903" y1="5.21198" x2="12.9533" y2="0.109906" gradientUnits="userSpaceOnUse">
<stop stop-color="#6DC4AE"/>
<stop offset="0.557" stop-color="#7CCCD2"/>
<stop offset="1" stop-color="#8AD4F2"/>
</linearGradient>
<linearGradient id="paint6_linear_1467_583" x1="93.8203" y1="8.05031" x2="102.871" y2="8.05031" gradientUnits="userSpaceOnUse">
<stop stop-color="#F5973A"/>
<stop offset="0.27" stop-color="#F6A039"/>
<stop offset="0.725" stop-color="#FBBA37"/>
<stop offset="1" stop-color="#FFCE36"/>
</linearGradient>
</defs>
</svg>
