<svg width="113" height="27" viewBox="0 0 113 27" fill="none" xmlns="http://www.w3.org/2000/svg">
<path d="M28.8906 16.2261V25.9971H32.6555C35.4685 25.9971 37.0985 23.8982 37.0985 21.1328C37.0985 18.3533 35.4685 16.2261 32.6555 16.2261H28.8906ZM29.8426 25.1172V17.1053H32.6555C34.9202 17.1053 36.1463 18.8637 36.1463 21.1328C36.1463 23.3876 34.9202 25.1176 32.6555 25.1176L29.8426 25.1172Z" fill="white"/>
<path d="M32.8128 10.4724C34.6954 10.4724 36.6075 9.503 36.6075 7.32925C36.6075 5.49324 35.1136 4.75889 33.6495 4.31818L32.5738 3.98044C31.6176 3.71611 31.5579 3.26062 31.5579 3.05517C31.5579 2.49695 32.036 2.01239 32.768 2.01239C33.5748 2.01239 33.9482 2.52651 33.9482 3.12858H36.2938C36.2938 1.16028 34.7848 0 32.8128 0C30.7661 0 29.1812 1.27779 29.1812 3.09926C29.1812 4.05385 29.6157 5.41983 31.8874 6.02215L33.1125 6.38945C34.0231 6.68309 34.2471 7.05014 34.2471 7.44676C34.2471 8.1077 33.6645 8.48954 32.9025 8.48954C32.0957 8.48954 31.4384 7.99019 31.4384 7.34379H29.0928C29.0928 9.20935 30.6168 10.4724 32.8128 10.4724Z" fill="white"/>
<path d="M47.3096 6.48127H50.9159V4.48169H47.3096V2.46782H51.4208V0.524902H45.0449V10.2962H51.5506V8.35325H47.3096V6.48127Z" fill="white"/>
<path d="M63.1418 10.9787C64.5427 10.962 65.8801 10.4015 66.8624 9.41939C67.8447 8.43733 68.3923 7.11333 68.3858 5.736C68.3922 4.35992 67.8441 3.03733 66.8615 2.05735C65.8788 1.07738 64.5415 0.519747 63.1418 0.506348C62.4469 0.50902 61.7593 0.646548 61.1185 0.911043C60.4778 1.17554 59.8964 1.5618 59.4078 2.04767C58.9193 2.53353 58.5331 3.10945 58.2714 3.74238C58.0097 4.37531 57.8777 5.05281 57.883 5.736C57.8777 6.41984 58.0095 7.09799 58.271 7.73169C58.5325 8.36539 58.9185 8.94219 59.4069 9.42911C59.8953 9.91603 60.4766 10.3035 61.1174 10.5694C61.7583 10.8353 62.4462 10.9744 63.1418 10.9787ZM63.1268 8.80497C61.3938 8.80497 60.2434 7.42543 60.2434 5.73526C60.2434 4.04509 61.3938 2.68059 63.1268 2.68059C64.845 2.68133 66.0254 4.04608 66.0254 5.736C66.0254 7.42593 64.8447 8.80497 63.1268 8.80497Z" fill="white"/>
<path d="M46.2283 21.7982H50.2064V20.951H46.2283V17.4229H50.7908V16.5757H45.3242V25.9969H50.9439V25.1485H46.2283V21.7982Z" fill="white"/>
<path d="M64.0713 26.167C64.7295 26.1713 65.3815 26.0425 65.987 25.7888C66.5924 25.5351 67.1384 25.1619 67.5911 24.6922L66.9131 24.0965C66.5458 24.4734 66.1046 24.7733 65.6162 24.978C65.1278 25.1828 64.6023 25.2882 64.0713 25.2878C61.8066 25.2878 60.0323 23.4018 60.0323 21.1327C60.0323 18.8636 61.8066 16.935 64.0713 16.935C64.602 16.9365 65.1269 17.0427 65.6151 17.2473C66.1032 17.452 66.5446 17.7509 66.9131 18.1263L67.5911 17.545C67.1413 17.0707 66.5962 16.6934 65.9904 16.4371C65.3845 16.1808 64.7311 16.0509 64.0716 16.0558C61.2877 16.0558 59.0806 18.3673 59.0806 21.1327C59.0711 21.7857 59.1928 22.4341 59.4386 23.0407C59.6845 23.6474 60.0497 24.2004 60.5133 24.668C60.9769 25.1357 61.5298 25.5088 62.1404 25.7661C62.7509 26.0233 63.4071 26.1595 64.0713 26.167Z" fill="white"/>
<path d="M77.6852 25.2266C78.3043 25.2235 78.9167 25.0998 79.487 24.8626C80.0573 24.6254 80.574 24.2795 81.0075 23.8448C81.441 23.4101 81.7825 22.8953 82.0123 22.33C82.2422 21.7648 82.3558 21.1604 82.3466 20.5517C82.3466 17.9707 80.3107 15.8374 77.6859 15.8374C75.0611 15.8374 73.024 17.9707 73.024 20.5517C73.0148 21.1603 73.1284 21.7647 73.3582 22.33C73.588 22.8952 73.9295 23.41 74.363 23.8447C74.7964 24.2794 75.3132 24.6254 75.8834 24.8625C76.4536 25.0997 77.066 25.2235 77.6852 25.2266ZM77.6852 24.4102C75.5553 24.4102 73.908 22.6587 73.908 20.5519C73.908 18.4452 75.5555 16.654 77.6852 16.654C79.8148 16.654 81.4626 18.4447 81.4626 20.5517C81.4626 22.6587 79.815 24.4102 77.6852 24.4102Z" fill="white"/>
<path d="M91.4268 15.9951V25.0683H94.9218C97.5338 25.0683 99.0473 23.1194 99.0473 20.5515C99.0473 17.9706 97.5338 15.9941 94.9218 15.9941L91.4268 15.9951ZM92.3108 24.2511V16.8115H94.9218C97.0266 16.8115 98.1642 18.4445 98.1642 20.5515C98.1642 22.6452 97.0266 24.2511 94.9218 24.2511H92.3108Z" fill="white"/>
<path d="M108.459 21.2262H112.289V20.4098H108.459V17.0122H112.852V16.1958H107.588V25.2689H113V24.4518H108.459V21.2262Z" fill="white"/>
<mask id="mask0_1467_751" style="mask-type:luminance" maskUnits="userSpaceOnUse" x="7" y="8" width="17" height="19">
<path d="M7.68287 8.24512C7.60717 8.24512 7.53458 8.27468 7.48105 8.3273C7.42753 8.37992 7.39746 8.45129 7.39746 8.5257V11.1155C7.39746 11.1899 7.42753 11.2613 7.48105 11.3139C7.53458 11.3666 7.60717 11.3961 7.68287 11.3961H14.146C15.8426 11.3961 17.2448 11.9671 18.2008 13.0479C19.1259 14.0931 19.6145 15.5559 19.6145 17.2783C19.6145 18.984 19.1271 20.4315 18.2043 21.46C17.2493 22.526 15.8461 23.0899 14.145 23.0899H7.68287C7.60717 23.0899 7.53458 23.1194 7.48105 23.172C7.42753 23.2247 7.39746 23.296 7.39746 23.3704V25.9603C7.39746 26.0347 7.42753 26.106 7.48105 26.1587C7.53458 26.2113 7.60717 26.2408 7.68287 26.2408H14.146C16.8311 26.2408 19.1001 25.3427 20.7083 23.6431C21.4848 22.8158 22.081 21.8411 22.4603 20.7789C22.8607 19.6542 23.0607 18.4699 23.0514 17.2783C23.0607 16.0806 22.8609 14.8902 22.4608 13.7588C22.0825 12.69 21.4872 11.7079 20.711 10.8721C19.1011 9.15364 16.8309 8.24512 14.146 8.24512H7.68287Z" fill="white"/>
</mask>
<g mask="url(#mask0_1467_751)">
<path d="M23.5311 7.84521H6.91797V26.6398H23.5311V7.84521Z" fill="url(#paint0_linear_1467_751)"/>
</g>
<mask id="mask1_1467_751" style="mask-type:luminance" maskUnits="userSpaceOnUse" x="0" y="1" width="18" height="21">
<path d="M10.1162 18.5493C9.84513 18.2082 9.70758 17.7827 9.72857 17.3503C9.70805 16.9114 9.84686 16.4796 10.1202 16.1319C10.2591 15.9851 10.4294 15.8705 10.6188 15.7963C10.8082 15.722 11.012 15.69 11.2155 15.7025H13.5228C13.7264 15.69 13.9303 15.722 14.1198 15.7962C14.3094 15.8705 14.4798 15.9851 14.6188 16.1319C14.892 16.4799 15.0305 16.912 15.0094 17.3511C15.0303 17.7834 14.893 18.2087 14.6223 18.55C14.4817 18.6953 14.3103 18.8085 14.1203 18.8817C13.9304 18.9548 13.7264 18.9861 13.5228 18.9733H11.2152C11.0117 18.9861 10.8078 18.9549 10.6179 18.8818C10.428 18.8086 10.2567 18.6954 10.1162 18.55M9.67946 1.03492C6.9938 1.03492 4.72384 1.94368 3.11439 3.66194C2.33823 4.49799 1.74271 5.4802 1.36388 6.5491C0.963985 7.68007 0.764389 8.87009 0.773772 10.0674C0.764111 11.2589 0.964005 12.4431 1.36463 13.5677C1.74393 14.6299 2.33986 15.6049 3.1159 16.4327C4.32225 17.6842 5.90152 18.527 7.62625 18.8397C7.62975 18.8394 7.63327 18.8394 7.63677 18.8397C7.86851 19.4908 8.29052 20.0601 8.84992 20.4764C9.40932 20.8927 10.0812 21.1375 10.7815 21.18L11.2165 21.199H13.5238C13.6716 21.199 13.817 21.1923 13.958 21.18C14.8685 21.1169 15.7218 20.7202 16.3493 20.0685C17.0241 19.3208 17.3859 18.3496 17.3618 17.3503C17.386 16.3475 17.0257 15.3725 16.3523 14.6189C15.7271 13.9605 14.8718 13.5588 13.958 13.4945C13.817 13.4817 13.6716 13.4751 13.5238 13.4751H11.2152L10.7802 13.4945C10.1254 13.536 9.49498 13.7545 8.95847 14.1259C8.42195 14.4973 8.00021 15.0072 7.73976 15.5993C6.92139 15.3481 6.18866 14.8813 5.62115 14.2496C4.69928 13.2199 4.21141 11.7741 4.21141 10.0676C4.21141 8.34545 4.70028 6.88265 5.62491 5.83815C6.5811 4.75645 7.98332 4.18542 9.68046 4.18542H17.1113C17.1488 4.18545 17.1859 4.17823 17.2205 4.16416C17.2551 4.15009 17.2866 4.12945 17.3132 4.10342C17.3397 4.07738 17.3607 4.04647 17.3751 4.01244C17.3895 3.97841 17.3969 3.94193 17.3969 3.90508V1.31501C17.3969 1.24055 17.3667 1.16916 17.3132 1.11651C17.2596 1.06385 17.187 1.03424 17.1113 1.03418L9.67946 1.03492Z" fill="white"/>
</mask>
<g mask="url(#mask1_1467_751)">
<path d="M0.776672 0.886918L0.59375 21.1978L17.4014 21.3491L17.5843 1.03829L0.776672 0.886918Z" fill="#FFA111"/>
</g>
<defs>
<linearGradient id="paint0_linear_1467_751" x1="15.2245" y1="7.84521" x2="15.2245" y2="26.6398" gradientUnits="userSpaceOnUse">
<stop stop-color="#C1C1C1"/>
<stop offset="1" stop-color="#747474"/>
</linearGradient>
</defs>
</svg>
