<svg width="24" height="24" viewBox="0 0 24 24" fill="none" xmlns="http://www.w3.org/2000/svg">
<g id="Iconsax/Linear/hearttick">
<path id="Vector" d="M21.9999 17.2001C21.9999 18.1001 21.7499 18.9501 21.2999 19.6701C20.8772 20.3806 20.2769 20.969 19.5581 21.3775C18.8393 21.7859 18.0267 22.0005 17.1999 22.0001C15.4499 22.0001 13.9199 21.0601 13.0999 19.6701C12.6599 18.9501 12.3999 18.1001 12.3999 17.2001C12.4255 15.944 12.9425 14.748 13.8399 13.8688C14.7373 12.9895 15.9436 12.4971 17.1999 12.4971C18.4562 12.4971 19.6625 12.9895 20.5599 13.8688C21.4573 14.748 21.9743 15.944 21.9999 17.2001Z" stroke="white" stroke-width="1.5" stroke-miterlimit="10" stroke-linecap="round" stroke-linejoin="round"/>
<path id="Vector_2" d="M15.3301 17.2L16.5101 18.38L19.0701 16.02" stroke="white" stroke-width="1.5" stroke-linecap="round" stroke-linejoin="round"/>
<path id="Vector_3" d="M22 8.6901C22 10.6601 21.49 12.4001 20.69 13.9101C20.242 13.4337 19.7013 13.0539 19.1011 12.7943C18.5009 12.5346 17.854 12.4004 17.2 12.4001C14.55 12.4001 12.4 14.5501 12.4 17.2001C12.4 18.4301 12.87 19.5501 13.63 20.4001C13.26 20.5701 12.92 20.7101 12.62 20.8101C12.28 20.9301 11.72 20.9301 11.38 20.8101C8.48 19.8201 2 15.6901 2 8.6901C2 5.6001 4.49 3.1001 7.56 3.1001C9.37 3.1001 10.99 3.9801 12 5.3301C12.5159 4.63891 13.1857 4.07749 13.9565 3.69039C14.7272 3.3033 15.5775 3.10118 16.44 3.1001C19.51 3.1001 22 5.6001 22 8.6901Z" stroke="white" stroke-width="1.5" stroke-linecap="round" stroke-linejoin="round"/>
</g>
</svg>
