<svg width="23" height="23" viewBox="0 0 23 23" fill="none" xmlns="http://www.w3.org/2000/svg">
<g id="Group 2790">
<path id="Vector" d="M11.5 22C17.2991 22 22 17.2991 22 11.5C22 5.70085 17.2991 1 11.5 1C5.70085 1 1 5.70085 1 11.5C1 17.2991 5.70085 22 11.5 22Z" stroke="#2C3441" stroke-width="1.5" stroke-linecap="round" stroke-linejoin="round"/>
<path id="Vector_2" d="M11.5 14C12.163 14 12.7989 13.7366 13.2678 13.2678C13.7366 12.7989 14 12.163 14 11.5C14 10.837 13.7366 10.2011 13.2678 9.73223C12.7989 9.26339 12.163 9 11.5 9C10.837 9 10.2011 9.26339 9.73223 9.73223C9.26339 10.2011 9 10.837 9 11.5C9 12.163 9.26339 12.7989 9.73223 13.2678C10.2011 13.7366 10.837 14 11.5 14Z" stroke="#2C3441" stroke-width="1.5" stroke-linecap="round" stroke-linejoin="round"/>
<path id="Vector_3" d="M11.5 18C13.2239 18 14.8772 17.3152 16.0962 16.0962C17.3152 14.8772 18 13.2239 18 11.5C18 9.77609 17.3152 8.12279 16.0962 6.90381C14.8772 5.68482 13.2239 5 11.5 5C9.77609 5 8.12279 5.68482 6.90381 6.90381C5.68482 8.12279 5 9.77609 5 11.5C5 13.2239 5.68482 14.8772 6.90381 16.0962C8.12279 17.3152 9.77609 18 11.5 18Z" stroke="#2C3441" stroke-width="1.5" stroke-linecap="round" stroke-linejoin="round"/>
</g>
</svg>
