<svg width="21" height="18" viewBox="0 0 21 18" fill="none" xmlns="http://www.w3.org/2000/svg">
    <g id="Group 2791">
        <path id="Vector"
            d="M13.8084 8.93511C13.8084 10.8326 12.2751 12.3659 10.3776 12.3659C8.48011 12.3659 6.94678 10.8326 6.94678 8.93511C6.94678 7.03761 8.48011 5.50427 10.3776 5.50427C12.2751 5.50427 13.8084 7.03761 13.8084 8.93511Z"
            stroke="white" stroke-width="1.5" stroke-linecap="round" stroke-linejoin="round" />
        <path id="Vector_2"
            d="M10.3773 16.8604C13.7602 16.8604 16.9131 14.8671 19.1077 11.4171C19.9702 10.0658 19.9702 7.79458 19.1077 6.44333C16.9131 2.99333 13.7602 1 10.3773 1C6.99438 1 3.84146 2.99333 1.64687 6.44333C0.784375 7.79458 0.784375 10.0658 1.64687 11.4171C3.84146 14.8671 6.99438 16.8604 10.3773 16.8604Z"
            stroke="white" stroke-width="1.5" stroke-linecap="round" stroke-linejoin="round" />
    </g>
</svg>