<svg width="195" height="60" viewBox="0 0 195 60" fill="none" xmlns="http://www.w3.org/2000/svg">
<g id="Group 2739">
<path id="Path 4307" d="M19.0247 19.3788C18.8097 19.296 18.577 19.268 18.3481 19.2976C12.6513 19.295 6.95444 19.2943 1.25742 19.2954C0.579081 19.2954 0.57779 19.2955 0.57779 18.6501C0.57779 17.0663 0.58769 15.4824 0.570042 13.899C0.565738 13.527 0.667317 13.4022 1.06158 13.4043C9.89234 13.4404 18.723 13.4671 27.5534 13.4843C27.8978 13.4843 28.0105 13.5926 28.0067 13.9299C27.992 15.2687 27.9976 16.6076 28.0036 17.9469C28.0116 18.1774 27.9297 18.4021 27.7747 18.5752C26.7494 19.7601 25.7551 20.969 24.7028 22.1297C24.1381 22.7513 23.5609 23.3641 23.0426 24.0212C20.9004 26.7379 18.5702 29.3005 16.3359 31.9414C14.6043 33.9873 12.8675 36.0303 11.0886 38.0373C10.474 38.7307 9.86408 39.4278 9.25891 40.1285C9.17842 40.2216 9.00582 40.3113 9.06823 40.4383C9.13796 40.5821 9.3295 40.5182 9.46723 40.5191C11.3708 40.5315 13.2746 40.5405 15.1785 40.5462C19.454 40.558 23.7294 40.5684 28.0049 40.5775C28.577 40.5775 28.5778 40.5813 28.5778 41.1365C28.5778 42.7491 28.5649 44.3617 28.5873 45.9735C28.5925 46.3611 28.4719 46.4546 28.0919 46.4529C19.9934 46.4185 11.8952 46.3916 3.79732 46.3721C2.68469 46.3692 1.5712 46.3586 0.458564 46.3721C0.128433 46.3764 -0.00542752 46.2998 0.000167926 45.943C0.0199672 44.5758 0.0130805 43.2074 0.00361128 41.8385C0.00178753 41.6093 0.0910561 41.3886 0.252393 41.2232C2.29688 38.8726 4.387 36.558 6.36004 34.1502C9.56321 30.2394 12.9248 26.462 16.208 22.6185C17.1274 21.5424 18.0446 20.4638 19.0255 19.3784" fill="#F9C067"/>
<path id="Path 4308" d="M117.075 22.9963V45.3286C117.075 45.9324 117.075 45.9333 116.458 45.9337C114.408 45.9337 112.357 45.924 110.307 45.9422C109.903 45.946 109.787 45.8288 109.787 45.4319C109.796 30.4571 109.796 15.4824 109.787 0.507883C109.787 0.101657 109.918 0.000100169 110.313 0.00263908C112.393 0.0187189 114.472 0.0178726 116.552 0.000100169C116.982 -0.00413135 117.085 0.12493 117.084 0.534542C117.072 8.02152 117.069 15.5088 117.075 22.9963" fill="#F9C067"/>
<path id="Path 4309" d="M104.331 13.437C103.325 16.2873 102.109 19.0564 100.975 21.8577C98.8064 27.2176 96.6263 32.573 94.4352 37.9239C92.6742 42.2316 90.9062 46.5369 89.1311 50.8398C89.0881 50.9452 89.0291 51.045 88.9775 51.1466C88.7166 51.7875 88.3961 52.4034 88.0202 52.9865C87.2152 54.3883 86.0829 55.582 84.7167 56.4694C83.3505 57.3568 81.7895 57.9124 80.1621 58.0905C77.3254 58.534 74.4223 57.9282 72.0134 56.3903C71.6195 56.1364 71.307 55.7915 70.9201 55.5326C70.692 55.3798 70.8555 55.2283 70.9317 55.0895C71.7507 53.5989 72.5726 52.1094 73.3976 50.621C73.7626 49.9626 73.7695 49.9584 74.3919 50.36C75.4001 51.0627 76.5855 51.4794 77.8184 51.5643C79.9335 51.6573 81.5127 50.7395 82.6254 49.0131C83.2509 47.907 83.8084 46.7652 84.295 45.5936C84.3918 45.393 84.2924 45.233 84.2188 45.0621C81.4354 38.5678 78.6527 32.0731 75.8708 25.578C74.4788 22.3295 73.0683 19.0898 71.6996 15.8328C71.3445 14.9865 71.0595 14.1119 70.6791 13.2745C70.5288 12.9448 70.7651 12.988 70.9485 12.9867C71.8713 12.9833 72.7941 12.9867 73.7161 12.9842C74.9764 12.9842 76.2353 13.0024 77.4948 12.974C77.6579 12.9521 77.8234 12.9915 77.9582 13.0844C78.093 13.1773 78.1871 13.3168 78.2217 13.475C79.2998 16.2114 80.3902 18.943 81.4929 21.6698C83.5242 26.7268 85.5595 31.7813 87.5989 36.8335C87.7306 37.1618 87.6789 37.5528 87.9862 37.8651C88.2626 37.1496 88.5303 36.4577 88.7984 35.7646C89.7327 33.2361 90.6676 30.7071 91.6031 28.1775C92.2691 26.3813 92.9386 24.5859 93.6118 22.7912C94.7873 19.6628 95.9705 16.5382 97.1357 13.4061C97.1678 13.2689 97.2511 13.1487 97.3692 13.0691C97.4873 12.9896 97.6314 12.9565 97.7731 12.9766C99.8525 12.9922 101.931 12.9833 104.012 12.9854C104.493 12.9854 104.485 12.9973 104.331 13.437Z" fill="#F9C067"/>
<path id="Path 4310" d="M193.85 21.9565C192.293 17.521 189.233 14.644 184.634 13.3712C183.191 12.9875 181.706 12.7807 180.211 12.7555C176.147 12.6451 172.337 13.4275 168.98 15.8403C166.493 17.6269 164.589 20.0868 163.501 22.9196C162.705 24.9852 162.312 27.1794 162.342 29.3879C162.342 32.7105 162.966 35.8757 164.792 38.7459C166.297 41.2218 168.515 43.2027 171.166 44.4373C175.936 46.6009 180.864 46.7181 185.844 45.2142C188.543 44.3933 190.986 42.9133 192.946 40.9125C193.192 40.6654 193.223 40.5232 192.961 40.2625C191.83 39.1375 190.714 37.9985 189.612 36.8456C189.391 36.6149 189.276 36.7313 189.123 36.8879C187.993 37.9564 186.663 38.7991 185.207 39.3692C183.113 40.269 180.81 40.5909 178.545 40.3002C176.056 40.0707 173.742 38.9418 172.051 37.132C170.961 35.9181 170.178 34.4683 169.766 32.9005C169.581 32.2544 169.587 32.2476 170.256 32.2476H194.109C194.27 32.2476 194.431 32.2417 194.592 32.2429C194.81 32.2451 194.894 32.1469 194.906 31.9285C195.125 28.5463 194.988 25.2025 193.849 21.9586M188.141 26.9942H179.007C176.021 26.9942 173.034 26.9942 170.048 26.9942C169.476 26.9942 169.472 26.9912 169.574 26.4563C169.774 25.2757 170.185 24.1394 170.789 23.1003C171.48 21.8984 172.443 20.8691 173.604 20.0923C174.764 19.3155 176.092 18.8121 177.482 18.6212C179.325 18.326 181.214 18.4718 182.987 19.0465C184.492 19.5526 185.806 20.4937 186.758 21.7466C187.917 23.193 188.379 24.8695 188.546 26.6599C188.578 27.0073 188.369 26.9929 188.14 26.9929" fill="#F9C067"/>
<path id="Path 4311" d="M154.837 21.9566C153.279 17.5207 150.221 14.6441 145.621 13.3725C144.178 12.9888 142.692 12.782 141.197 12.7568C137.133 12.6464 133.323 13.4288 129.966 15.8416C127.479 17.6283 125.575 20.0882 124.487 22.921C123.691 24.9865 123.298 27.1808 123.328 29.3893C123.328 32.7119 123.952 35.877 125.778 38.7473C127.283 41.2231 129.501 43.204 132.152 44.4387C136.922 46.6023 141.85 46.7195 146.83 45.2156C149.528 44.3946 151.972 42.9146 153.931 40.9138C154.178 40.6667 154.209 40.5245 153.947 40.2639C152.816 39.1388 151.7 37.9999 150.598 36.8469C150.377 36.6163 150.262 36.7327 150.109 36.8892C148.979 37.9577 147.649 38.8004 146.193 39.3706C144.099 40.2703 141.796 40.5922 139.531 40.3015C137.042 40.0721 134.728 38.9433 133.037 37.1334C131.947 35.9195 131.164 34.4696 130.752 32.9019C130.567 32.2557 130.572 32.2489 131.241 32.2489H155.094C155.255 32.2489 155.416 32.243 155.577 32.2443C155.795 32.2464 155.879 32.1482 155.891 31.9299C156.11 28.5476 155.973 25.2039 154.834 21.96M149.126 26.9955H139.994C137.007 26.9955 134.021 26.9955 131.034 26.9955C130.462 26.9955 130.458 26.9925 130.561 26.4577C130.761 25.2771 131.172 24.1407 131.776 23.1016C132.467 21.8998 133.43 20.8706 134.591 20.0939C135.752 19.3173 137.079 18.8141 138.47 18.6234C140.313 18.3281 142.201 18.474 143.975 19.0487C145.48 19.5547 146.794 20.4959 147.746 21.7488C148.905 23.1952 149.367 24.8717 149.534 26.6621C149.566 27.0095 149.357 26.9951 149.128 26.9951" fill="#F9C067"/>
<path id="Path 4312" d="M66.3074 21.9962C64.9215 19.2821 62.8391 16.9705 60.266 15.2901C59.0638 14.4677 57.7437 13.8259 56.3492 13.3859C55.8555 13.2374 55.3631 13.0846 54.8677 12.9407C53.9247 12.7032 52.966 12.531 51.9985 12.4253C50.9722 12.3615 49.9427 12.3615 48.9163 12.4253C48.8596 12.4142 48.8019 12.4089 48.7441 12.4097C44.998 12.733 41.4617 14.2497 38.6724 16.7292C36.8141 18.3664 35.3086 20.3534 34.2451 22.5725C32.8641 25.4398 32.358 28.6391 32.7881 31.7833C33.1398 34.1171 33.8281 36.3897 34.8322 38.5326C36.0912 41.2702 37.55 43.9147 39.197 46.4455C41.5583 50.0672 44.2022 53.5031 47.1047 56.7222C47.9655 57.7028 48.8381 58.6725 49.7225 59.6314C49.7994 59.7432 49.9026 59.8352 50.0235 59.8993C50.1443 59.9635 50.2791 59.9979 50.4164 59.9998C50.5537 60.0017 50.6895 59.9709 50.8121 59.9101C50.9347 59.8492 51.0405 59.7601 51.1205 59.6504C51.2647 59.5066 51.4071 59.3618 51.5432 59.2116C52.9552 57.7353 54.2849 56.1849 55.5263 54.5671C55.8313 54.2611 56.111 53.9315 56.3626 53.5816C56.4331 53.5088 56.5093 53.4415 56.5726 53.3628C58.8497 50.584 60.9397 47.6618 62.8292 44.615C64.7088 41.5234 66.4077 38.3468 67.4243 34.8617C68.7156 30.4347 68.4573 26.1363 66.3091 21.9979M60.2312 38.0201C59.2913 39.1081 58.1623 40.0233 56.8967 40.7228C56.6815 40.8413 56.4706 40.9721 56.258 41.0965C55.0673 41.6831 53.7932 42.0892 52.4789 42.3008C50.4913 42.6197 48.4553 42.4772 46.5337 41.8845C44.6121 41.2919 42.8581 40.2656 41.412 38.8876C40.6168 38.2065 39.9417 37.4008 39.414 36.5031C37.2567 32.5725 36.8642 28.5246 38.8028 24.4141C40.8481 20.0772 44.4533 17.8409 49.1957 17.2362C49.2673 17.2236 49.3381 17.2071 49.4079 17.1867C50.1083 17.0845 50.8213 17.0988 51.5169 17.229C52.6543 17.3349 53.774 17.5781 54.8509 17.953C55.2773 18.1636 55.7176 18.3457 56.1689 18.498C57.3528 19.1275 58.4489 19.9051 59.4297 20.8114C64.3567 25.4584 64.5048 33.1073 60.2316 38.018" fill="#F9C067"/>
</g>
</svg>
