<svg width="108" height="106" viewBox="0 0 108 106" fill="none" xmlns="http://www.w3.org/2000/svg">
<path d="M43.9226 9.37227C48.2708 5.48851 54.7538 5.20741 59.4218 8.70023L61.5601 10.3001C64.4172 12.438 67.9157 13.5422 71.4825 13.4319L74.1517 13.3494C79.9791 13.1693 85.126 17.1211 86.4568 22.7973L87.0664 25.3973C87.8809 28.8716 89.8512 31.9662 92.6543 34.1744L94.7521 35.827C99.3319 39.4348 100.735 45.7704 98.1054 50.9741L96.9011 53.3576C95.2919 56.5426 94.8119 60.1797 95.5399 63.6731L96.0846 66.2875C97.274 71.9951 94.2759 77.75 88.917 80.0463L86.4624 81.0981C83.1823 82.5035 80.4768 84.9812 78.7889 88.1252L77.5258 90.4781C74.7681 95.6148 68.7723 98.0963 63.1911 96.4107L60.6346 95.6386C57.2186 94.6069 53.5534 94.7658 50.2395 96.0893L47.7594 97.0798C42.3451 99.2422 36.157 97.289 32.965 92.4103L31.5029 90.1755C29.5493 87.1894 26.6394 84.9552 23.2501 83.8389L20.7136 83.0035C15.176 81.1797 11.6911 75.7059 12.3819 69.9168L12.6984 67.2651C13.1212 63.7218 12.3283 60.1399 10.4494 57.1062L9.04332 54.8358C5.97362 49.8792 6.82254 43.4459 11.0729 39.4553L13.0198 37.6274C15.6213 35.1848 17.3162 31.9313 17.827 28.3995L18.2093 25.7565C19.0438 19.9864 23.8293 15.6039 29.6504 15.279L32.3168 15.1301C35.8797 14.9313 39.2694 13.5284 41.9309 11.1512L43.9226 9.37227Z" stroke="#2C3441" stroke-width="3.5"/>
<path d="M63.0994 67.4557L55.36 60.3569L55.0682 55.0642L60.3454 54.8814L68.072 61.9634L68.3567 67.269L63.0994 67.4557ZM38.1766 68.3653L36.548 38.1414L66.7281 37.0375L67.5265 51.8851L52.2589 52.4431L53.0851 67.822L38.1766 68.3653Z" fill="#EB7373"/>
</svg>
