<svg width="125" height="125" viewBox="0 0 125 125" fill="none" xmlns="http://www.w3.org/2000/svg">
<rect x="0.5" y="0.5" width="124" height="124" rx="9.5" stroke="#DFDFDF"/>
<g clip-path="url(#clip0_1857_79717)">
<path d="M23.0852 55.8321C23.273 55.6371 23.3763 55.3803 23.3739 55.1143C23.3739 54.8206 23.2527 54.539 23.0371 54.3314C22.8215 54.1237 22.529 54.0071 22.2241 54.0071L15.0829 54.0444C13.9339 54.0445 12.8083 54.3578 11.8364 54.9481C10.8645 55.5384 10.086 56.3815 9.5909 57.38C9.09584 58.3785 8.90444 59.4915 9.03886 60.5904C9.17327 61.6892 9.628 62.729 10.3504 63.5894L12.497 65.7892L23.0852 55.8321Z" fill="url(#paint0_linear_1857_79717)"/>
<path d="M9.44478 68.6733C9.31682 68.7712 9.21286 68.8951 9.14037 69.0361C9.06787 69.1771 9.02861 69.3317 9.02539 69.4891C9.02571 69.7814 9.14657 70.0616 9.3614 70.2681C9.57622 70.4746 9.86743 70.5906 10.171 70.5905L17.2667 70.5958C18.4195 70.5979 19.549 70.2837 20.523 69.6899C21.497 69.0962 22.2751 68.2475 22.7662 67.2432C23.2573 66.239 23.441 65.1208 23.2958 64.0196C23.1507 62.9185 22.6826 61.8799 21.9465 61.0256C21.9465 61.0256 20.922 59.8567 19.8496 58.8696L9.44478 68.6733Z" fill="url(#paint1_linear_1857_79717)"/>
<path d="M23.0849 55.8286C23.2279 55.6682 23.3203 55.4717 23.3511 55.2623C23.3819 55.053 23.3498 54.8396 23.2586 54.6473C23.1674 54.455 23.0209 54.2918 22.8364 54.1771C22.6519 54.0624 22.4372 54.0009 22.2176 54L17.542 54.0612C16.8393 54.0614 16.1491 54.2408 15.5417 54.5812C14.9342 54.9215 14.4313 55.4105 14.0838 55.9987C13.7364 56.5869 13.5569 57.2533 13.5637 57.93C13.5704 58.6066 13.7631 59.2695 14.1222 59.8511C14.5385 60.5693 15.0553 61.2289 15.6581 61.8114L16.1665 62.3358L23.0849 55.8286Z" fill="url(#paint2_linear_1857_79717)"/>
<path d="M9.41674 68.6964C9.24019 68.8439 9.11452 69.0397 9.05649 69.2578C8.99847 69.4758 9.01084 69.7057 9.09196 69.9168C9.17308 70.1279 9.3191 70.3101 9.51054 70.4393C9.70199 70.5685 9.92977 70.6383 10.1635 70.6396L14.8307 70.6083C15.8913 70.5965 16.9042 70.1819 17.6491 69.4548C18.394 68.7277 18.8106 67.7469 18.8085 66.7256C18.8097 65.8742 18.5151 65.0469 17.9715 64.3755C17.4281 63.6497 16.8244 62.9676 16.1663 62.3359L9.41674 68.6964Z" fill="url(#paint3_linear_1857_79717)"/>
<path d="M9.41674 68.697C9.24019 68.8446 9.11452 69.0404 9.05649 69.2584C8.99847 69.4765 9.01084 69.7063 9.09196 69.9174C9.17308 70.1285 9.3191 70.3109 9.51054 70.4401C9.70199 70.5692 9.92977 70.6391 10.1635 70.6404L11.1699 70.6487C11.8689 70.6396 12.5359 70.3649 13.0257 69.8847C13.5155 69.4045 13.7886 68.7575 13.7855 68.0844C13.7865 67.4985 13.5748 66.9307 13.187 66.4791L12.4989 65.7922L9.41674 68.697Z" fill="url(#paint4_linear_1857_79717)"/>
<path d="M23.0975 55.8399C23.2403 55.6796 23.3325 55.4832 23.3632 55.274C23.3939 55.0648 23.3618 54.8515 23.2707 54.6593C23.1796 54.4671 23.0333 54.3041 22.849 54.1894C22.6647 54.0747 22.4502 54.0131 22.2308 54.012L21.2099 54.0323C20.5093 54.0441 19.8415 54.3209 19.3511 54.8028C18.8607 55.2848 18.5869 55.9333 18.5889 56.608C18.5881 57.1223 18.7512 57.6245 19.0561 58.0468C19.2909 58.347 19.5581 58.6223 19.8531 58.8684L23.0975 55.8399Z" fill="url(#paint5_linear_1857_79717)"/>
<path d="M34.3403 59.306C33.7591 59.0179 33.1177 58.8601 32.4642 58.8445C32.0618 58.8445 31.3713 59.0111 31.3713 59.4907C31.3713 60.1363 32.4642 60.229 32.9447 60.3211C34.5739 60.6352 35.8006 61.3735 35.8006 63.1263C35.8006 65.618 33.4404 66.6518 31.1619 66.6518C29.7606 66.6467 28.3878 66.2699 27.1943 65.5628L28.4592 63.2185C29.2745 63.7686 30.2271 64.0998 31.2194 64.1782C31.6606 64.1782 32.3123 63.9748 32.3123 63.4579C32.3123 62.7202 31.2194 62.6829 30.127 62.409C29.0347 62.1351 27.9417 61.6154 27.9417 59.9173C27.9417 57.5917 30.127 56.5578 32.2736 56.5578C33.3861 56.5364 34.4906 56.7441 35.5131 57.1669L34.3403 59.306Z" fill="#202124"/>
<path d="M48.0571 66.2865H44.7135V65.2784H44.6772C44.3532 65.7076 43.9232 66.0521 43.4259 66.2808C42.9287 66.5094 42.3801 66.615 41.8298 66.5878C39.0375 66.5878 37.0713 64.3407 37.0713 61.7406C37.0713 59.1405 39.0006 56.9117 41.7917 56.9117C42.3381 56.8979 42.8813 56.9965 43.385 57.2009C43.8887 57.4053 44.3414 57.7107 44.7129 58.0969V57.2123H48.0565L48.0571 66.2865ZM40.525 61.7581C40.5438 62.2947 40.7783 62.8034 41.1792 63.1767C41.58 63.5499 42.1158 63.7585 42.6734 63.7585C43.231 63.7585 43.7668 63.5499 44.1677 63.1767C44.5686 62.8034 44.8031 62.2947 44.8218 61.7581C44.8031 61.2215 44.5686 60.7128 44.1677 60.3396C43.7668 59.9663 43.231 59.7577 42.6734 59.7577C42.1158 59.7577 41.58 59.9663 41.1792 60.3396C40.7783 60.7128 40.5438 61.2215 40.525 61.7581Z" fill="#202124"/>
<path d="M60.6239 65.4024C60.6239 69.2589 58.6401 70.8154 55.1676 70.8154C52.9998 70.8154 50.0974 69.7362 49.8033 67.3482H53.5512C53.5984 67.4993 53.6785 67.639 53.7862 67.7579C53.8939 67.8769 54.0267 67.9724 54.1757 68.0381C54.4735 68.1773 54.8002 68.25 55.1313 68.2507C56.9317 68.2507 57.2809 67.1186 57.2809 65.6501V65.2259C56.9031 65.6269 56.4402 65.9451 55.9235 66.1587C55.4069 66.3724 54.8486 66.4765 54.2865 66.4642C51.5311 66.4642 49.6387 64.448 49.6387 61.8298C49.6387 59.1761 51.5861 56.9122 54.4704 56.9122C55.0048 56.883 55.5383 56.9823 56.0227 57.2016C56.5071 57.4209 56.927 57.753 57.2446 58.1679H57.2815V57.2128H60.6251L60.6239 65.4024ZM53.0918 61.6876C53.1105 62.2242 53.3451 62.7329 53.7459 63.1061C54.1468 63.4793 54.6826 63.688 55.2402 63.688C55.7978 63.688 56.3336 63.4793 56.7345 63.1061C57.1353 62.7329 57.3699 62.2242 57.3886 61.6876C57.3699 61.1509 57.1353 60.6424 56.7345 60.2692C56.3336 59.8959 55.7978 59.6871 55.2402 59.6871C54.6826 59.6871 54.1468 59.8959 53.7459 60.2692C53.3451 60.6424 53.1105 61.1509 53.0918 61.6876Z" fill="#202124"/>
<path d="M72.4002 62.2878H65.3637C65.3284 62.5607 65.3582 62.8379 65.4509 63.098C65.5436 63.3581 65.6968 63.5944 65.8988 63.7889C66.1008 63.9833 66.3462 64.1308 66.6163 64.2201C66.8865 64.3093 67.1743 64.3381 67.4577 64.304C67.779 64.3285 68.1008 64.2632 68.3844 64.1156C68.6679 63.9681 68.9012 63.7447 69.0559 63.4724H72.2707C72.1542 63.9603 71.9362 64.4204 71.6299 64.8248C71.3235 65.2293 70.9352 65.5697 70.4884 65.8255C69.5758 66.3407 68.5335 66.6039 67.4758 66.5865C64.3525 66.5865 62.0195 64.888 62.0195 61.757C62.0195 58.7327 64.1691 56.9104 67.2368 56.9104C70.5047 56.9104 72.3989 58.8562 72.3989 61.9516L72.4002 62.2878ZM69.2956 60.4306C69.1815 60.0197 68.9297 59.6564 68.5792 59.3974C68.2288 59.1383 67.7993 58.9979 67.3575 58.9979C66.9157 58.9979 66.4862 59.1383 66.1358 59.3974C65.7854 59.6564 65.5336 60.0197 65.4194 60.4306H69.2956Z" fill="#202124"/>
<path d="M77.2669 58.3794H77.3038C77.6189 57.893 78.0663 57.499 78.5975 57.2401C79.1287 56.9813 79.7234 56.8674 80.317 56.9109C82.8521 56.9109 83.8628 58.4499 83.8628 60.6789V66.2864H80.5173V61.8648C80.5173 60.9977 80.6644 59.4756 79.0111 59.4756C77.6518 59.4756 77.2657 60.4482 77.2657 61.5804V66.2859H73.9209V57.2111H77.2645L77.2669 58.3794Z" fill="#202124"/>
<path d="M95.7498 62.2879H88.7134C88.678 62.5608 88.7078 62.8379 88.8005 63.0981C88.8933 63.3582 89.0464 63.5944 89.2484 63.7889C89.4504 63.9834 89.6958 64.1308 89.9659 64.2201C90.2361 64.3094 90.5238 64.3381 90.8073 64.3041C91.1286 64.3286 91.4504 64.2632 91.734 64.1157C92.0175 63.9682 92.2508 63.7447 92.4055 63.4725H95.6203C95.5038 63.9603 95.2859 64.4203 94.9797 64.8248C94.6735 65.2292 94.2853 65.5697 93.8386 65.8256C92.9258 66.3408 91.8833 66.604 90.8254 66.5866C87.7021 66.5866 85.3691 64.888 85.3691 61.7571C85.3691 58.7327 87.5187 56.9105 90.587 56.9105C93.8549 56.9105 95.7491 58.8562 95.7491 61.9517L95.7498 62.2879ZM92.6452 60.4307C92.5311 60.0197 92.2792 59.6565 91.9288 59.3974C91.5784 59.1384 91.1489 58.9979 90.7071 58.9979C90.2653 58.9979 89.8359 59.1384 89.4854 59.3974C89.135 59.6565 88.8831 60.0197 88.769 60.4307H92.6452Z" fill="#202124"/>
<path d="M114.01 66.2858H110.667V59.8647H109.583V57.211H110.667V54.4873H114.01V57.211H115.903V59.8647H114.01V66.2858Z" fill="#202124"/>
<path d="M99.9219 67.5589H100.279V69.6409H99.9219V67.5589ZM99.9219 66.7718H100.279V67.1702H99.9219V66.7718ZM100.812 67.5491H101.146V67.846C101.245 67.7236 101.35 67.6357 101.461 67.5823C101.572 67.529 101.695 67.5023 101.83 67.5023C102.127 67.5023 102.327 67.6058 102.432 67.8128C102.489 67.9261 102.518 68.0882 102.518 68.2991V69.6409H102.16V68.3226C102.16 68.195 102.141 68.0921 102.104 68.014C102.041 67.8838 101.928 67.8187 101.764 67.8187C101.68 67.8187 101.612 67.8271 101.559 67.8441C101.462 67.8727 101.378 67.93 101.305 68.0159C101.246 68.0849 101.208 68.1566 101.189 68.2308C101.173 68.3037 101.164 68.4085 101.164 68.5452V69.6409H100.812V67.5491ZM103.127 67.2308C103.132 67.0849 103.158 66.9782 103.203 66.9105C103.285 66.7907 103.443 66.7308 103.678 66.7308C103.7 66.7308 103.723 66.7314 103.746 66.7327C103.77 66.734 103.796 66.736 103.826 66.7386V67.0589C103.79 67.0563 103.763 67.055 103.746 67.055C103.73 67.0537 103.715 67.053 103.701 67.053C103.594 67.053 103.531 67.081 103.51 67.137C103.489 67.1917 103.479 67.3323 103.479 67.5589H103.826V67.8362H103.475V69.6409H103.127V67.8362H102.836V67.5589H103.127V67.2308ZM104.982 69.4144C105.215 69.4144 105.375 69.3265 105.461 69.1507C105.548 68.9736 105.592 68.777 105.592 68.5609C105.592 68.3655 105.561 68.2067 105.498 68.0843C105.399 67.8916 105.229 67.7952 104.986 67.7952C104.771 67.7952 104.615 67.8773 104.518 68.0413C104.42 68.2054 104.371 68.4033 104.371 68.6351C104.371 68.8577 104.42 69.0433 104.518 69.1917C104.615 69.3401 104.77 69.4144 104.982 69.4144ZM104.996 67.4886C105.266 67.4886 105.493 67.5784 105.68 67.7581C105.866 67.9378 105.959 68.2021 105.959 68.5511C105.959 68.8883 105.877 69.167 105.713 69.387C105.549 69.6071 105.294 69.7171 104.949 69.7171C104.661 69.7171 104.433 69.6201 104.264 69.4261C104.094 69.2308 104.01 68.9691 104.01 68.6409C104.01 68.2894 104.099 68.0094 104.277 67.8011C104.456 67.5928 104.695 67.4886 104.996 67.4886ZM106.449 66.9651H106.805V67.5491H107.139V67.8362H106.805V69.2015C106.805 69.2744 106.829 69.3232 106.879 69.348C106.906 69.3623 106.952 69.3694 107.016 69.3694C107.033 69.3694 107.051 69.3694 107.07 69.3694C107.09 69.3681 107.113 69.3662 107.139 69.3636V69.6409C107.098 69.6526 107.056 69.6611 107.012 69.6663C106.969 69.6715 106.922 69.6741 106.871 69.6741C106.707 69.6741 106.596 69.6325 106.537 69.5491C106.479 69.4645 106.449 69.3551 106.449 69.221V67.8362H106.166V67.5491H106.449V66.9651ZM108.363 67.5023C108.512 67.5023 108.656 67.5374 108.795 67.6077C108.934 67.6767 109.04 67.7666 109.113 67.8773C109.184 67.9827 109.23 68.1058 109.254 68.2464C109.275 68.3428 109.285 68.4964 109.285 68.7073H107.752C107.758 68.9196 107.809 69.0901 107.902 69.2191C107.996 69.3467 108.141 69.4105 108.338 69.4105C108.521 69.4105 108.668 69.3499 108.777 69.2288C108.84 69.1585 108.884 69.0771 108.91 68.9847H109.256C109.247 69.0615 109.216 69.1474 109.164 69.2425C109.113 69.3362 109.056 69.4131 108.992 69.473C108.885 69.5771 108.753 69.6474 108.596 69.6839C108.511 69.7047 108.415 69.7151 108.309 69.7151C108.048 69.7151 107.827 69.6207 107.646 69.4319C107.465 69.2418 107.375 68.9762 107.375 68.6351C107.375 68.2991 107.466 68.0263 107.648 67.8167C107.831 67.6071 108.069 67.5023 108.363 67.5023ZM108.924 68.428C108.91 68.2757 108.876 68.154 108.824 68.0628C108.728 67.8935 108.567 67.8089 108.342 67.8089C108.18 67.8089 108.045 67.8675 107.936 67.9847C107.826 68.1006 107.768 68.2484 107.762 68.428H108.924ZM110.525 67.4886C110.761 67.4886 110.952 67.5459 111.1 67.6605C111.248 67.775 111.337 67.9723 111.367 68.2523H111.025C111.005 68.1234 110.957 68.0166 110.883 67.9319C110.809 67.846 110.689 67.803 110.525 67.803C110.301 67.803 110.141 67.9124 110.045 68.1312C109.982 68.2731 109.951 68.4482 109.951 68.6566C109.951 68.8662 109.995 69.0426 110.084 69.1859C110.173 69.3291 110.312 69.4007 110.502 69.4007C110.648 69.4007 110.763 69.3564 110.848 69.2679C110.934 69.178 110.993 69.0556 111.025 68.9007H111.367C111.328 69.178 111.23 69.3812 111.074 69.5101C110.918 69.6377 110.718 69.7015 110.475 69.7015C110.201 69.7015 109.983 69.6019 109.82 69.4026C109.658 69.2021 109.576 68.9521 109.576 68.6526C109.576 68.2855 109.665 67.9997 109.844 67.7952C110.022 67.5908 110.249 67.4886 110.525 67.4886ZM111.719 66.762H112.07V67.8323C112.154 67.7269 112.229 67.6526 112.295 67.6097C112.408 67.5355 112.549 67.4984 112.719 67.4984C113.022 67.4984 113.228 67.6045 113.336 67.8167C113.395 67.9326 113.424 68.0934 113.424 68.2991V69.6409H113.062V68.3226C113.062 68.1689 113.043 68.0563 113.004 67.9847C112.94 67.8701 112.82 67.8128 112.645 67.8128C112.499 67.8128 112.367 67.8629 112.248 67.9632C112.13 68.0635 112.07 68.2529 112.07 68.5316V69.6409H111.719V66.762Z" fill="#202124"/>
<path d="M96.2669 57.2427H100.147L104.397 61.567C104.41 61.577 104.421 61.59 104.429 61.6047C104.436 61.6195 104.44 61.6356 104.44 61.6521C104.44 61.6685 104.436 61.6849 104.429 61.6996C104.421 61.7144 104.41 61.7272 104.397 61.7372C104.298 61.8298 99.9216 66.2913 99.9216 66.2913H96.043L100.593 61.6807V61.6114L96.2669 57.2427Z" fill="url(#paint6_linear_1857_79717)"/>
<path d="M105.105 60.9712L108.843 57.2102H104.93L103.158 59.0139L105.105 60.9712Z" fill="#202124"/>
<path d="M105.077 62.3357L109.018 66.2982H105.105L103.13 64.2907L105.077 62.3357Z" fill="#202124"/>
</g>
<defs>
<linearGradient id="paint0_linear_1857_79717" x1="16.243" y1="65.4829" x2="16.1851" y2="54.0895" gradientUnits="userSpaceOnUse">
<stop stop-color="#774B9B"/>
<stop offset="0.872" stop-color="#7B6FB0"/>
<stop offset="1" stop-color="#7C75B4"/>
</linearGradient>
<linearGradient id="paint1_linear_1857_79717" x1="16.3423" y1="60.8982" x2="16.2462" y2="66.809" gradientUnits="userSpaceOnUse">
<stop stop-color="#F5973A"/>
<stop offset="0.27" stop-color="#F6A039"/>
<stop offset="0.725" stop-color="#FBBA37"/>
<stop offset="1" stop-color="#FFCE36"/>
</linearGradient>
<linearGradient id="paint2_linear_1857_79717" x1="18.4826" y1="61.5856" x2="18.4613" y2="54.2" gradientUnits="userSpaceOnUse">
<stop stop-color="#5780BE"/>
<stop offset="0.771" stop-color="#74A4D6"/>
<stop offset="1" stop-color="#7EB0DE"/>
</linearGradient>
<linearGradient id="paint3_linear_1857_79717" x1="9.02051" y1="66.4878" x2="18.8085" y2="66.4878" gradientUnits="userSpaceOnUse">
<stop stop-color="#EE5E51"/>
<stop offset="0.225" stop-color="#EB675A"/>
<stop offset="0.605" stop-color="#E58272"/>
<stop offset="1" stop-color="#DEA492"/>
</linearGradient>
<linearGradient id="paint4_linear_1857_79717" x1="11.4983" y1="65.8699" x2="11.3449" y2="70.4688" gradientUnits="userSpaceOnUse">
<stop stop-color="#EA1A64"/>
<stop offset="0.126" stop-color="#EA236A"/>
<stop offset="0.339" stop-color="#EC3E7D"/>
<stop offset="0.612" stop-color="#EF689B"/>
<stop offset="0.933" stop-color="#F3A3C4"/>
<stop offset="1" stop-color="#F4B1CE"/>
</linearGradient>
<linearGradient id="paint5_linear_1857_79717" x1="20.9578" y1="58.5721" x2="21.0021" y2="53.9586" gradientUnits="userSpaceOnUse">
<stop stop-color="#6DC4AE"/>
<stop offset="0.557" stop-color="#7CCCD2"/>
<stop offset="1" stop-color="#8AD4F2"/>
</linearGradient>
<linearGradient id="paint6_linear_1857_79717" x1="96.043" y1="61.767" x2="104.44" y2="61.767" gradientUnits="userSpaceOnUse">
<stop stop-color="#F5973A"/>
<stop offset="0.27" stop-color="#F6A039"/>
<stop offset="0.725" stop-color="#FBBA37"/>
<stop offset="1" stop-color="#FFCE36"/>
</linearGradient>
<clipPath id="clip0_1857_79717">
<rect width="107" height="17" fill="white" transform="translate(9 54)"/>
</clipPath>
</defs>
</svg>
