<svg width="107" height="106" viewBox="0 0 107 106" fill="none" xmlns="http://www.w3.org/2000/svg">
<path d="M43.4495 9.53939C47.7978 5.65562 54.2807 5.37453 58.9488 8.86735L61.087 10.4672C63.9442 12.6051 67.4427 13.7093 71.0094 13.599L73.6787 13.5165C79.506 13.3364 84.653 17.2882 85.9838 22.9644L86.5933 25.5645C87.4079 29.0387 89.3781 32.1334 92.1813 34.3416L94.2791 35.9941C98.8589 39.6019 100.261 45.9375 97.6323 51.1412L96.428 53.5247C94.8188 56.7098 94.3389 60.3468 95.0668 63.8402L95.6116 66.4546C96.8009 72.1622 93.8029 77.9171 88.444 80.2134L85.9893 81.2652C82.7093 82.6707 80.0038 85.1483 78.3159 88.2923L77.0527 90.6452C74.295 95.782 68.2992 98.2634 62.718 96.5778L60.1616 95.8057C56.7455 94.774 53.0803 94.9329 49.7664 96.2565L47.2864 97.2469C41.872 99.4093 35.6839 97.4561 32.492 92.5774L31.0299 90.3427C29.0762 87.3565 26.1664 85.1223 22.777 84.0061L20.2405 83.1707C14.703 81.3469 11.2181 75.873 11.9089 70.0839L12.2253 67.4322C12.6482 63.8889 11.8552 60.307 9.97635 57.2733L8.57026 55.0029C5.50057 50.0463 6.34949 43.613 10.5999 39.6224L12.5467 37.7945C15.1482 35.3519 16.8432 32.0984 17.354 28.5667L17.7362 25.9236C18.5707 20.1535 23.3563 15.771 29.1774 15.4461L31.8437 15.2973C35.4066 15.0984 38.7964 13.6955 41.4578 11.3184L43.4495 9.53939Z" stroke="#2C3441" stroke-width="3.5"/>
<path d="M50.6819 73.1737L50.1676 61.2611L54.1826 56.7776L58.566 60.8675L59.0836 72.7565L55.0526 77.2447L50.6819 73.1737ZM29.9426 53.8949L52.9 28.3225L78.0162 51.666L66.737 64.2273L54.0314 52.4178L42.348 65.4279L29.9426 53.8949Z" fill="#EB7373"/>
</svg>
