<svg width="31" height="37" viewBox="0 0 31 37" fill="000" xmlns="http://www.w3.org/2000/svg">
<g id="Mask group">
<mask id="mask0_2863_2781" style="mask-type:alpha" maskUnits="userSpaceOnUse" x="0" y="0" width="31" height="37">
<rect id="Rectangle 9" width="31" height="37" fill="#000"/>
</mask>
<g mask="url(#mask0_2863_2781)">
<g id="Group 7">
<g id="Group 5">
<path id="Line 4" d="M6 16.8457C5.72386 16.8457 5.5 17.0696 5.5 17.3457C5.5 17.6218 5.72386 17.8457 6 17.8457V16.8457ZM25.9454 17.6993C26.1407 17.504 26.1407 17.1874 25.9454 16.9921L22.7634 13.8102C22.5681 13.6149 22.2516 13.6149 22.0563 13.8102C21.861 14.0054 21.861 14.322 22.0563 14.5173L24.8847 17.3457L22.0563 20.1741C21.861 20.3694 21.861 20.686 22.0563 20.8812C22.2516 21.0765 22.5681 21.0765 22.7634 20.8812L25.9454 17.6993ZM6 17.8457H25.5918V16.8457H6V17.8457Z" fill="white"/>
</g>
</g>
</g>
</g>
</svg>
