<svg width="176" height="30" viewBox="0 0 176 30" fill="none" xmlns="http://www.w3.org/2000/svg">
<g id="HB lOGO" clip-path="url(#clip0_186_1602)">
<g id="Group 66">
<path id="HEXABELLS" d="M49.5504 23.4856V14.7788H41.9109V23.4856H37.8652V3.98179H41.9109V11.4177H49.5513V3.98179H53.6097V23.4856H49.5504ZM68.1834 14.964H58.6867V19.979H69.5063V23.4856H54.6945V3.98179H69.0327V7.43506H58.6867V11.5766H68.1834V14.964ZM85.4771 23.4856H80.5169L76.8044 16.8428L72.8765 23.4856H68.1281L74.4149 13.5494L68.4333 3.98179H73.3147L76.8035 10.3202L80.3847 3.98179H85.1068L79.1243 13.3895L85.4771 23.4856ZM96.3908 19.4768H89.1887L87.8359 23.4856H83.5647L90.5414 3.98179H95.1594L102.082 23.4856H97.6512L96.3908 19.4768ZM95.2499 16.1157L92.8051 8.43771L90.2852 16.1157H95.2499ZM110.554 23.4856H101.694V3.98179H111.191C113.587 4.01732 115.285 4.70984 116.284 6.05935C116.9 6.92966 117.218 7.9752 117.19 9.0402C117.24 10.0743 116.919 11.0924 116.284 11.9118C115.869 12.3779 115.363 12.7558 114.798 13.0228C115.724 13.3264 116.521 13.9306 117.062 14.739C117.59 15.597 117.856 16.5905 117.824 17.597C117.84 18.6961 117.536 19.7761 116.949 20.7062C116.588 21.303 116.116 21.8245 115.556 22.2418C114.898 22.7316 114.138 23.0664 113.331 23.2209C112.417 23.4032 111.487 23.4919 110.554 23.4856ZM110.464 14.898H105.594V20.0983H110.393C111.078 20.1302 111.761 20.0128 112.396 19.7541C112.832 19.5251 113.189 19.1705 113.421 18.7363C113.652 18.3021 113.747 17.8085 113.694 17.3197C113.729 16.8836 113.627 16.4473 113.401 16.0723C113.174 15.6973 112.836 15.4026 112.433 15.2295C111.805 14.989 111.135 14.8763 110.462 14.898H110.464ZM112.493 11.1801C112.769 10.9946 112.988 10.7376 113.129 10.4368C113.269 10.136 113.324 9.80274 113.289 9.47288C113.329 9.09943 113.247 8.72307 113.056 8.39972C112.864 8.07636 112.573 7.82327 112.226 7.67804C111.469 7.45479 110.681 7.35206 109.892 7.37364H105.594V11.6742H110.393C111.125 11.7043 111.85 11.5334 112.491 11.1801H112.493ZM131.922 14.964H122.423V19.979H133.247V23.4856H118.431V3.98179H132.769V7.43506H122.423V11.5766H131.92L131.922 14.964ZM133.497 3.98179H137.583V19.979H147.265V23.4856H133.496L133.497 3.98179ZM147.156 3.98179H151.242V19.979H160.923V23.4856H147.156L147.156 3.98179ZM167.911 20.6673C168.706 20.6915 169.499 20.5841 170.259 20.3494C170.759 20.2231 171.201 19.9306 171.512 19.5201C171.823 19.1096 171.985 18.6056 171.97 18.0911C171.978 17.7887 171.903 17.4898 171.754 17.2264C171.604 16.9631 171.386 16.7453 171.122 16.5962C170.286 16.156 169.387 15.8479 168.456 15.683L166.387 15.2196C164.905 14.9668 163.479 14.4611 162.169 13.7247C161.505 13.2493 160.974 12.6114 160.627 11.8721C160.281 11.1329 160.131 10.3172 160.193 9.50359C160.174 8.68308 160.335 7.86843 160.665 7.11657C160.995 6.3647 161.486 5.69376 162.102 5.15064C163.375 3.99504 165.247 3.41724 167.716 3.41724C169.607 3.36379 171.462 3.93859 172.989 5.05128C173.716 5.60773 174.302 6.32691 174.7 7.15081C175.097 7.97472 175.295 8.88028 175.277 9.79445H171.351C171.351 9.27628 171.208 8.76813 170.936 8.32654C170.664 7.88496 170.275 7.52725 169.812 7.29324C169.07 6.94432 168.257 6.77649 167.437 6.80366C166.553 6.75883 165.675 6.97905 164.917 7.43596C164.619 7.62424 164.376 7.88684 164.211 8.19782C164.045 8.50879 163.964 8.85737 163.976 9.20912C163.964 9.53082 164.045 9.8491 164.21 10.126C164.374 10.4029 164.615 10.6268 164.904 10.7709C165.718 11.1391 166.573 11.4101 167.451 11.5784L170.82 12.386C172.022 12.6183 173.16 13.1006 174.162 13.8014C174.75 14.2792 175.215 14.8895 175.52 15.582C175.824 16.2745 175.959 17.0292 175.914 17.784C175.928 18.6301 175.751 19.4685 175.395 20.2368C175.04 21.005 174.515 21.6833 173.86 22.221C172.209 23.492 170.151 24.1204 168.07 23.9887C165.927 24.111 163.806 23.497 162.062 22.249C161.344 21.681 160.771 20.9513 160.39 20.1197C160.01 19.2881 159.833 18.3784 159.873 17.4652H163.773C163.831 18.1846 164.083 18.875 164.503 19.4632C164.945 19.9046 165.481 20.2418 166.07 20.4501C166.66 20.6584 167.289 20.7326 167.911 20.6673Z" fill="white"/>
<path id="Union 1" d="M12.3806 27.3922L12.4087 20.0873L15.0454 17.4497L17.6612 20.0692L17.6352 27.3615L14.9892 30L12.3806 27.3922ZM0 15.0425L15.0789 0L30.0691 14.9539L22.6624 22.3428L15.0789 14.7778L7.40686 22.4304L0 15.0425Z" fill="#EB7373"/>
</g>
</g>
<defs>
<clipPath id="clip0_186_1602">
<rect width="175.909" height="30" fill="white"/>
</clipPath>
</defs>
</svg>
