<svg width="14" height="14" viewBox="0 0 14 14" fill="none" xmlns="http://www.w3.org/2000/svg">
<path d="M13.1874 0.459107C13.4559 0.727596 13.4785 1.14897 13.2548 1.44296L13.1877 1.5198L8.06191 6.64728L13.1906 11.776C13.4835 12.0689 13.4835 12.5438 13.1906 12.8367C12.9221 13.1051 12.5007 13.1275 12.2068 12.9038L12.13 12.8367L7.00125 7.70794L1.87677 12.8352C1.58396 13.1282 1.109 13.1284 0.816112 12.8355C0.547624 12.567 0.525067 12.1457 0.748796 11.8517L0.8159 11.7748L5.94059 6.64728L0.814769 1.52146C0.521871 1.22857 0.521885 0.753688 0.814769 0.460805C1.08326 0.192316 1.50466 0.169936 1.79866 0.393651L1.87543 0.460805L7.00125 5.58662L12.1268 0.459355C12.4196 0.166394 12.8946 0.166224 13.1874 0.459107Z" fill="#212121"/>
</svg>
