<svg width="36" height="36" viewBox="0 0 36 36" fill="none" xmlns="http://www.w3.org/2000/svg">
<path d="M5.5 0.960449C2.73858 0.960449 0.5 3.19903 0.5 5.96045V30.9604C0.5 33.7219 2.73858 35.9604 5.5 35.9604H30.5C33.2614 35.9604 35.5 33.7219 35.5 30.9604V5.96045C35.5 3.19903 33.2614 0.960449 30.5 0.960449H5.5ZM25.6779 5.52812C25.9319 5.52264 26.1968 5.52812 26.4703 5.54927C27.4759 5.54927 28.5253 5.64168 29.5677 5.73332L29.4552 9.87806H26.657C25.3443 9.84908 24.8708 10.3582 24.8286 11.8361V15.0911H29.5677L29.3802 19.5303H24.827V31.8909H20.202V19.5327H16.992V15.0934H20.202V11.2823C20.202 8.53485 21.3639 6.78595 23.6526 5.89936C24.3004 5.65633 24.9862 5.53063 25.6779 5.52812Z" fill="#1877F2"/>
</svg>
