<svg width="30" height="29" viewBox="0 0 30 29" fill="none" xmlns="http://www.w3.org/2000/svg">
<path id="Icon simple-kubernetes" d="M12.5415 17.3036L12.5501 17.3158L11.3223 20.2818C10.1442 19.5274 9.24778 18.4055 8.77202 17.0899L11.9404 16.5529L11.9454 16.5592C12.0416 16.5416 12.1407 16.5505 12.2323 16.5848C12.3238 16.619 12.4044 16.6775 12.4654 16.7539C12.5264 16.8303 12.5656 16.9218 12.5787 17.0187C12.5919 17.1155 12.5785 17.2142 12.5401 17.3041L12.5415 17.3036ZM11.5175 14.6884C11.6118 14.6626 11.6974 14.6116 11.765 14.541C11.8327 14.4704 11.88 14.3828 11.9018 14.2874C11.9236 14.1921 11.9192 14.0926 11.889 13.9996C11.8588 13.9066 11.804 13.8235 11.7303 13.7592L11.7326 13.7456L9.32211 11.5899C8.5868 12.7868 8.27109 14.1944 8.42483 15.5907L11.5153 14.697L11.5175 14.6857V14.6884ZM12.9247 12.2536C13.0039 12.3112 13.0971 12.3463 13.1946 12.355C13.2921 12.3638 13.3901 12.346 13.4782 12.3035C13.5664 12.2609 13.6413 12.1953 13.6951 12.1136C13.7489 12.0318 13.7795 11.937 13.7837 11.8393L13.7959 11.8329L13.9803 8.61267C12.5843 8.77565 11.2824 9.39916 10.2803 10.3847L12.9193 12.2568L12.9243 12.2545L12.9247 12.2536ZM13.859 15.6353L14.7477 16.0641L15.6351 15.6376L15.8565 14.679L15.2419 13.9125H14.2535L13.639 14.679L13.859 15.6367V15.6353ZM15.7027 11.8311C15.7069 11.929 15.7377 12.0239 15.7917 12.1057C15.8456 12.1875 15.9208 12.253 16.0091 12.2954C16.0974 12.3378 16.1956 12.3555 16.2931 12.3464C16.3907 12.3374 16.484 12.3021 16.563 12.2442L16.5729 12.2478L19.1958 10.3883C18.1973 9.41043 16.9052 8.78768 15.5183 8.61582L15.6986 11.8298L15.7027 11.8311ZM29.0703 19.1667L21.9746 27.9929C21.7899 28.2214 21.5563 28.4056 21.291 28.5319C21.0257 28.6583 20.7354 28.7235 20.4416 28.7229L9.05879 28.7265C8.76473 28.7268 8.47436 28.6611 8.20905 28.5343C7.94373 28.4075 7.71024 28.2228 7.52575 27.9938L0.425995 19.1694C0.243298 18.9409 0.114485 18.6742 0.0491444 18.389C-0.0161965 18.1038 -0.0163833 17.8076 0.0485979 17.5223L2.58081 6.51556C2.64669 6.22999 2.77631 5.96302 2.95996 5.73463C3.14361 5.50624 3.37654 5.32234 3.64131 5.1967L13.8946 0.296399C14.1604 0.16942 14.4512 0.103516 14.7457 0.103516C15.0402 0.103516 15.331 0.16942 15.5967 0.296399L25.8536 5.19445C26.1183 5.32025 26.3511 5.5042 26.5348 5.73256C26.7184 5.96093 26.8481 6.22782 26.9141 6.51331L29.4491 17.5196C29.5146 17.8049 29.5146 18.1014 29.449 18.3867C29.3834 18.672 29.2539 18.9387 29.0703 19.1667ZM25.0276 16.6386C24.9762 16.6264 24.9009 16.6065 24.8473 16.5966C24.652 16.5699 24.4554 16.5548 24.2584 16.5515C23.8867 16.5273 23.5182 16.4668 23.1582 16.3712C23.0466 16.3092 22.9546 16.2172 22.8926 16.1056L22.6455 16.033C22.912 14.0957 22.4576 12.128 21.3686 10.5037C21.4326 10.446 21.553 10.34 21.5859 10.3085C21.5772 10.1822 21.6187 10.0576 21.7014 9.96174C21.9839 9.71836 22.2897 9.50344 22.6144 9.32012C22.7899 9.23063 22.9602 9.13128 23.1244 9.02253C23.1636 8.99322 23.2177 8.94633 23.2597 8.91296C23.3313 8.86582 23.3924 8.80425 23.4389 8.73218C23.4854 8.66012 23.5164 8.57914 23.5298 8.49443C23.5433 8.40972 23.5389 8.32313 23.517 8.24019C23.4951 8.15726 23.4562 8.07981 23.4027 8.01278C23.3491 7.94575 23.2822 7.89062 23.2062 7.85091C23.1302 7.81121 23.0467 7.78779 22.9611 7.78217C22.8755 7.77654 22.7897 7.78883 22.7091 7.81825C22.6285 7.84767 22.555 7.89356 22.4931 7.95301C22.4512 7.98638 22.3948 8.02921 22.3579 8.06123C22.2147 8.19689 22.0792 8.3405 21.9521 8.49138C21.7009 8.76685 21.4239 9.0175 21.1247 9.23986C21.0067 9.28769 20.8778 9.30174 20.7522 9.28044L20.5187 9.44637C19.1745 8.03577 17.3641 7.16098 15.4236 6.98449L15.4087 6.71035C15.3044 6.63815 15.2325 6.5279 15.2085 6.40329C15.1955 6.03112 15.2189 5.65856 15.2784 5.29094C15.317 5.098 15.3449 4.90307 15.3618 4.70703C15.3618 4.65789 15.3618 4.58529 15.3618 4.53254C15.3709 4.44651 15.3617 4.35954 15.335 4.27727C15.3083 4.195 15.2645 4.11926 15.2067 4.05498C15.1488 3.99069 15.078 3.93929 14.999 3.90411C14.92 3.86892 14.8344 3.85074 14.7479 3.85074C14.6614 3.85074 14.5759 3.86892 14.4969 3.90411C14.4178 3.93929 14.3471 3.99069 14.2892 4.05498C14.2313 4.11926 14.1876 4.195 14.1609 4.27727C14.1341 4.35954 14.125 4.44651 14.134 4.53254V4.54967C14.134 4.60017 14.1318 4.66285 14.134 4.70703C14.1501 4.90312 14.1776 5.09809 14.2166 5.29094C14.2759 5.65903 14.299 6.03205 14.2855 6.40464C14.2503 6.52661 14.1812 6.63606 14.0862 6.72027L14.0714 6.97953C12.1182 7.13638 10.2932 8.01386 8.95103 9.44141C8.87648 9.39001 8.80268 9.33755 8.72964 9.28405C8.60796 9.32074 8.47671 9.30794 8.36441 9.24843C8.06494 9.02692 7.78783 8.77669 7.53703 8.5013C7.41025 8.35056 7.27475 8.20738 7.13122 8.0725C7.09425 8.04048 7.03654 7.9963 6.99596 7.96428C6.87441 7.86571 6.7244 7.8088 6.56806 7.80196C6.47524 7.79703 6.38257 7.81406 6.29756 7.85167C6.21256 7.88927 6.13763 7.94639 6.07884 8.01839C5.9792 8.15869 5.93915 8.33274 5.96746 8.50248C5.99576 8.67222 6.09011 8.82385 6.22989 8.92423L6.23846 8.93055L6.36606 9.03245C6.5297 9.14165 6.69968 9.24102 6.87512 9.33004C7.19929 9.51421 7.50505 9.72907 7.78817 9.97166C7.86112 10.076 7.90373 10.1985 7.91127 10.3256L8.10786 10.5015C7.02183 12.13 6.57545 14.1023 6.85437 16.0398L6.59872 16.1137C6.53219 16.2217 6.44181 16.313 6.3345 16.3806C5.97446 16.4762 5.60601 16.5366 5.23432 16.561C5.03699 16.5659 4.84009 16.5818 4.64455 16.6088C4.59946 16.6174 4.53408 16.6336 4.48087 16.6458L4.47592 16.648L4.46735 16.6503C4.38236 16.6615 4.30065 16.6903 4.22745 16.7349C4.15424 16.7795 4.09114 16.8389 4.0422 16.9092C3.99325 16.9796 3.95953 17.0594 3.9432 17.1436C3.92687 17.2277 3.92828 17.3143 3.94734 17.3979C3.96641 17.4815 4.00271 17.5602 4.05392 17.6289C4.10513 17.6976 4.17013 17.7549 4.24475 17.7971C4.31937 17.8393 4.40198 17.8654 4.48728 17.8739C4.57258 17.8823 4.6587 17.8728 4.74014 17.8461H4.74871L4.76088 17.8424L4.91959 17.8068C5.1069 17.7466 5.2907 17.676 5.47013 17.5954C5.81572 17.4562 6.17387 17.3505 6.53965 17.2797C6.6669 17.2872 6.78952 17.3301 6.8936 17.4037L7.16053 17.3586C7.76155 19.2143 9.02066 20.786 10.7005 21.7774L10.59 22.0452C10.6424 22.1528 10.6613 22.2736 10.6441 22.392C10.4912 22.742 10.3052 23.0765 10.0886 23.3911C9.96948 23.5482 9.85943 23.712 9.75903 23.8817C9.73423 23.9268 9.70357 23.9985 9.68057 24.0463C9.63692 24.1201 9.60915 24.2022 9.59901 24.2873C9.58887 24.3725 9.5966 24.4588 9.6217 24.5408C9.6468 24.6228 9.68872 24.6987 9.74478 24.7635C9.80085 24.8284 9.86982 24.8809 9.94731 24.9176C10.0248 24.9544 10.1091 24.9745 10.1948 24.9768C10.2805 24.9792 10.3658 24.9636 10.4451 24.9311C10.5245 24.8986 10.5962 24.85 10.6557 24.7882C10.7152 24.7265 10.7612 24.653 10.7907 24.5725V24.5716C10.8155 24.5238 10.847 24.4611 10.8669 24.4156C10.937 24.232 10.9971 24.0448 11.0468 23.8546C11.1527 23.4666 11.3129 23.0955 11.5225 22.7522C11.5954 22.6833 11.6875 22.6384 11.7867 22.6233L11.9256 22.3712C13.7477 23.0734 15.7648 23.0787 17.5906 22.3861L17.7209 22.6219C17.8471 22.6415 17.9605 22.71 18.0365 22.8126C18.2102 23.1422 18.351 23.488 18.4567 23.8452C18.5061 24.0357 18.5664 24.2233 18.6371 24.407C18.6569 24.4521 18.6899 24.5175 18.7133 24.5657C18.7428 24.6462 18.7888 24.7197 18.8483 24.7815C18.9078 24.8432 18.9795 24.8919 19.0588 24.9243C19.1382 24.9568 19.2235 24.9724 19.3092 24.9701C19.3949 24.9678 19.4792 24.9476 19.5567 24.9109C19.6342 24.8741 19.7031 24.8217 19.7592 24.7568C19.8153 24.6919 19.8572 24.616 19.8823 24.534C19.9074 24.452 19.9151 24.3657 19.905 24.2806C19.8948 24.1954 19.8671 24.1133 19.8234 24.0395C19.7986 23.9917 19.7679 23.9214 19.7436 23.8749C19.6426 23.7061 19.5326 23.5427 19.414 23.3857C19.2007 23.0796 19.0182 22.753 18.8693 22.4109C18.8371 22.2893 18.8532 22.16 18.9144 22.0502C18.8758 21.9694 18.8417 21.8864 18.8125 21.8017C20.4987 20.8024 21.7586 19.218 22.3525 17.3501C22.4309 17.3622 22.5689 17.387 22.6144 17.3952C22.708 17.3093 22.8315 17.2635 22.9585 17.2676C23.3242 17.3383 23.6824 17.444 24.028 17.5832C24.2069 17.6656 24.3907 17.7367 24.5785 17.796C24.6236 17.8082 24.6867 17.8194 24.7381 17.8303L24.7494 17.8339H24.758C24.8394 17.8606 24.9255 17.8701 25.0108 17.8617C25.0961 17.8533 25.1787 17.8271 25.2534 17.7849C25.328 17.7428 25.393 17.6855 25.4442 17.6167C25.4954 17.548 25.5317 17.4693 25.5508 17.3857C25.5698 17.3022 25.5712 17.2155 25.5549 17.1314C25.5386 17.0472 25.5049 16.9674 25.4559 16.8971C25.407 16.8267 25.3439 16.7673 25.2707 16.7227C25.1975 16.6781 25.1158 16.6493 25.0308 16.6381L25.0276 16.6386ZM20.158 11.5886L17.761 13.7344V13.7407C17.687 13.805 17.6318 13.8881 17.6014 13.9813C17.571 14.0745 17.5665 14.1742 17.5883 14.2698C17.6102 14.3654 17.6576 14.4532 17.7255 14.5239C17.7934 14.5947 17.8792 14.6456 17.9738 14.6713L17.9775 14.6835L21.0823 15.5781C21.2175 14.1826 20.8929 12.7812 20.158 11.5872V11.5886ZM15.2247 18.1342C15.1785 18.0479 15.1097 17.9759 15.0258 17.9256C14.9418 17.8754 14.8458 17.8488 14.7479 17.8488C14.6501 17.8488 14.5541 17.8754 14.4701 17.9256C14.3861 17.9759 14.3174 18.0479 14.2711 18.1342H14.2689L12.7106 20.9514C14.0355 21.4033 15.4727 21.4046 16.7984 20.955L15.2374 18.1328H15.2252L15.2247 18.1342ZM17.545 16.5457C17.4486 16.5279 17.3491 16.5366 17.2572 16.571C17.1654 16.6053 17.0846 16.664 17.0235 16.7408C16.9624 16.8175 16.9233 16.9094 16.9104 17.0067C16.8975 17.1039 16.9113 17.2028 16.9503 17.2928L16.9467 17.2978L18.188 20.2944C19.3742 19.5372 20.2743 18.4063 20.7459 17.0804L17.5505 16.5394L17.545 16.5457Z" fill="#B1B1B1"/>
</svg>
