<svg width="36" height="22" viewBox="0 0 36 22" fill="none" xmlns="http://www.w3.org/2000/svg">
<path id="Icon awesome-aws" d="M10.0823 8.22639C10.0422 9.49204 10.6748 10.0525 10.6901 10.4087C10.6826 10.4811 10.658 10.5507 10.6181 10.6117C10.5783 10.6726 10.5244 10.7232 10.461 10.7591L9.74593 11.2595C9.65308 11.3246 9.54358 11.3619 9.4303 11.3669C9.4064 11.3669 8.97264 11.4692 8.28593 9.93572C7.86692 10.4588 7.33377 10.879 6.7273 11.1643C6.12083 11.4496 5.45713 11.5923 4.78701 11.5815C3.8771 11.6311 1.41162 11.0652 1.54058 8.44011C1.4504 6.30108 3.4438 4.97184 5.50438 5.08457C6.39047 5.09726 7.27195 5.21486 8.13038 5.43491V4.56243C8.28052 3.08396 7.30885 1.93643 5.62612 2.10867C4.74283 2.12531 3.87166 2.31735 3.06324 2.67364C2.65203 2.86257 2.59927 2.83145 2.46265 2.83145C2.04873 2.83145 2.21917 1.63118 2.29853 1.47878C2.58981 1.12122 4.3023 0.453446 5.98323 0.462915C7.10687 0.363789 8.22441 0.710712 9.09439 1.42873C9.44812 1.8244 9.71799 2.28766 9.88771 2.79054C10.0574 3.29341 10.1235 3.82546 10.0818 4.35457V8.22639H10.0823ZM5.25278 10.0367C7.06492 10.0106 7.83234 8.92076 8.00728 8.33415C8.11578 7.83084 8.15432 7.31496 8.12181 6.80112C7.39833 6.62561 6.65689 6.53482 5.91244 6.53058C5.06566 6.467 3.51955 6.84621 3.57997 8.33415C3.55699 8.561 3.58425 8.79012 3.65983 9.00523C3.73542 9.22035 3.85745 9.41617 4.01727 9.57879C4.17709 9.7414 4.37077 9.86682 4.58454 9.94612C4.79831 10.0254 5.02692 10.0567 5.25413 10.0376L5.25278 10.0367ZM14.804 11.3249C14.7194 11.3337 14.6339 11.3257 14.5524 11.3013C14.4708 11.2768 14.395 11.2366 14.3291 11.1827C14.2632 11.1289 14.2086 11.0625 14.1685 10.9875C14.1284 10.9124 14.1035 10.8302 14.0952 10.7455L11.3128 1.54416C11.2587 1.38905 11.2227 1.22822 11.2055 1.06486C11.2003 1.03143 11.2018 0.997323 11.2099 0.96448C11.218 0.931637 11.2324 0.900703 11.2524 0.873444C11.2724 0.846186 11.2976 0.823138 11.3266 0.805616C11.3555 0.788095 11.3876 0.776443 11.421 0.771326C11.4345 0.771326 11.302 0.771326 12.6646 0.771326C12.7488 0.762192 12.8341 0.770032 12.9153 0.794383C12.9965 0.818733 13.072 0.859101 13.1374 0.913104C13.2027 0.967108 13.2566 1.03365 13.2958 1.10881C13.335 1.18397 13.3588 1.26623 13.3657 1.35072L15.3618 9.22061L17.215 1.35072C17.2222 1.26534 17.2467 1.18232 17.287 1.10672C17.3274 1.03112 17.3827 0.96453 17.4496 0.910996C17.5165 0.857463 17.5936 0.818111 17.6762 0.795339C17.7588 0.772567 17.8452 0.766851 17.9301 0.77854H18.8891C18.9744 0.765785 19.0614 0.771006 19.1445 0.793869C19.2276 0.816732 19.3051 0.85673 19.3718 0.911295C19.4386 0.965859 19.4932 1.03378 19.5321 1.1107C19.5711 1.18762 19.5935 1.27184 19.5979 1.35794L21.4655 9.32837L23.5261 1.35794C23.5449 1.1878 23.6297 1.03181 23.7622 0.923475C23.8947 0.815142 24.0644 0.763104 24.2349 0.77854H25.3369C25.3842 0.771326 25.6805 0.733451 25.6304 1.25784C25.6065 1.36109 25.8212 0.662209 22.6825 10.7523C22.6743 10.837 22.6495 10.9193 22.6094 10.9943C22.5692 11.0694 22.5147 11.1358 22.4488 11.1896C22.3829 11.2435 22.307 11.2838 22.2254 11.3081C22.1439 11.3325 22.0583 11.3405 21.9737 11.3317H20.929C20.8429 11.3405 20.7559 11.3318 20.6731 11.3063C20.5904 11.2807 20.5137 11.2388 20.4476 11.1829C20.3814 11.1271 20.3272 11.0585 20.2881 10.9813C20.2491 10.904 20.226 10.8197 20.2202 10.7334L18.367 3.06817L16.5355 10.7234C16.5301 10.81 16.5073 10.8947 16.4684 10.9722C16.4295 11.0498 16.3753 11.1187 16.3091 11.1748C16.2429 11.2309 16.166 11.273 16.0831 11.2987C16.0002 11.3243 15.913 11.3329 15.8267 11.324H14.804V11.3249ZM30.0866 11.6405C28.9807 11.6492 27.8865 11.4147 26.8812 10.9538C26.7507 10.8986 26.6396 10.8058 26.5619 10.6874C26.4842 10.5689 26.4434 10.43 26.4447 10.2883V9.68638C26.4447 9.21429 26.791 9.30087 26.938 9.35723C27.4532 9.59507 27.9933 9.77503 28.5482 9.89379C30.5961 10.3145 31.497 9.76528 31.7179 9.64354C31.8794 9.54607 32.0174 9.41423 32.1222 9.25739C32.227 9.10056 32.296 8.92257 32.3242 8.73608C32.3524 8.54959 32.3392 8.35917 32.2856 8.17834C32.2319 7.99752 32.1391 7.83073 32.0137 7.68983C31.4276 7.1988 31.1485 7.18032 29.0446 6.5175C28.7853 6.44536 26.6026 5.75685 26.5976 3.59166C26.5633 2.01354 27.9954 0.452094 30.4825 0.465169C31.1904 0.465169 33.0769 0.696027 33.5878 1.3381C33.6632 1.45513 33.7007 1.5926 33.6951 1.73173V2.29534C33.6951 2.54333 33.6049 2.66733 33.4246 2.66733C32.9935 2.61908 32.2292 2.04329 30.6773 2.06674C30.2922 2.04645 28.4481 2.11769 28.531 3.46225C28.5071 4.52185 30.019 4.91909 30.1908 4.96508C32.2283 5.57829 32.9096 5.67975 33.7181 6.61805C34.0339 7.06468 34.2232 7.58832 34.266 8.13365C34.3088 8.67898 34.2034 9.22573 33.9611 9.71614C32.8912 11.811 30.1339 11.6405 30.0871 11.6392L30.0866 11.6405ZM32.333 17.5022C28.4197 20.3924 22.7384 21.9308 17.8877 21.9308C11.3426 21.973 5.01847 19.5652 0.158591 15.181C-0.206181 14.8518 0.113502 14.4009 0.559435 14.6516C5.95118 17.7359 12.0558 19.3565 18.2673 19.3526C22.906 19.3278 27.494 18.3868 31.768 16.5837C32.4263 16.3041 32.9854 17.0197 32.3334 17.499L32.333 17.5022ZM33.9643 15.6418C33.4638 14.9979 30.6516 15.341 29.3927 15.4916C29.013 15.5367 28.949 15.2053 29.2926 14.9623C31.5317 13.3882 35.2092 13.8391 35.6317 14.3684C36.0542 14.8978 35.5172 18.5825 33.4223 20.3428C33.1004 20.6133 32.7911 20.4713 32.9358 20.1137C33.4065 18.9229 34.4652 16.2829 33.9647 15.6386L33.9643 15.6418Z" fill="#B1B1B1"/>
</svg>
