<svg width="39" height="28" viewBox="0 0 39 28" fill="none" xmlns="http://www.w3.org/2000/svg">
<path id="Icon awesome-docker" d="M21.0729 12.9793H17.0906V9.40011H21.0734L21.0729 12.9793ZM21.0729 0.669922H17.0906V4.32711H21.0734L21.0729 0.669922ZM25.7847 9.3947H21.802V12.9734H25.7847V9.3947ZM16.3674 5.05035H12.3851V8.67327H16.3678L16.3674 5.05035ZM21.0729 5.05035H17.0906V8.67327H21.0734L21.0729 5.05035ZM37.7505 11.0752C36.883 10.489 34.8824 10.2798 33.3462 10.5693C33.1474 9.12326 32.3398 7.86392 30.8699 6.73127L30.0263 6.17081L29.4658 7.01444C28.3571 8.6895 28.0559 11.449 29.2431 13.2683C28.3401 13.7231 27.3377 13.9448 26.3272 13.9131H0.1357C-0.11869 15.6358 -0.0146378 17.3924 0.44134 19.073C0.897318 20.7537 1.6954 22.322 2.7856 23.6799C5.02112 26.3248 8.37081 27.6685 12.7503 27.6685C22.234 27.6685 29.253 23.3002 32.5369 15.3654C33.8264 15.3893 36.6098 15.3713 38.0378 12.642C38.1279 12.4914 38.4354 11.8467 38.55 11.6117L37.7487 11.0756L37.7505 11.0752ZM6.95636 9.3947H2.97993V12.9734H6.96267V9.3947H6.95636ZM11.6619 9.3947H7.67914V12.9734H11.6619V9.3947ZM16.3674 9.3947H12.3851V12.9734H16.3678V9.3947H16.3674ZM11.6619 5.05035H7.67914V8.67327H11.6619V5.05035Z" fill="#B1B1B1"/>
</svg>
