<svg width="27" height="27" viewBox="0 0 27 27" fill="none" xmlns="http://www.w3.org/2000/svg">
<path id="Icon simple-ruby" d="M21.963 0.114788C25.268 0.686971 26.205 2.94549 26.1351 5.31223L26.1518 5.27841L24.6638 24.7705L5.32865 26.0952H5.34624C3.74241 26.0258 0.163223 25.8806 0 20.8793L1.7923 17.6103L4.86423 24.7867L5.41071 26.0637L8.46732 16.0989L8.4344 16.1066L8.45199 16.0741L18.5367 19.2953L17.0171 13.3778L15.9382 9.12814L25.5489 8.50816L24.8789 7.95221L17.9794 2.32777L21.9666 0.103516L21.963 0.114788ZM5.59107 5.5521C9.46875 1.70238 14.4782 -0.572824 16.4017 1.36782C18.3252 3.30846 16.2872 8.02029 12.3996 11.8678C8.51196 15.7152 3.56972 18.1158 1.65072 16.1796C-0.268281 14.2435 1.69987 9.40498 5.58656 5.55526L5.58972 5.5521H5.59107Z" fill="#B1B1B1"/>
</svg>
