<svg width="30" height="33" viewBox="0 0 30 33" fill="none" xmlns="http://www.w3.org/2000/svg">
<path id="Icon awesome-node-js" d="M14.5607 32.964C14.1166 32.9629 13.6806 32.846 13.2955 32.625L9.27216 30.2452C8.67247 29.9061 8.96556 29.7888 9.16124 29.7235C9.79991 29.5252 10.4109 29.2469 10.9797 28.8952C11.0274 28.8721 11.0804 28.8624 11.1332 28.867C11.186 28.8716 11.2366 28.8904 11.2795 28.9213L14.3704 30.7538C14.4271 30.7858 14.4911 30.8026 14.5562 30.8026C14.6213 30.8026 14.6853 30.7858 14.7419 30.7538L26.7853 23.8028C26.8404 23.7681 26.8859 23.72 26.9174 23.663C26.9489 23.606 26.9655 23.5419 26.9656 23.4768V9.57487C26.9655 9.50782 26.9481 9.44194 26.915 9.38363C26.8819 9.32532 26.8342 9.27657 26.7767 9.24211L14.7379 2.29836C14.6812 2.26632 14.6172 2.24947 14.5521 2.24947C14.487 2.24947 14.423 2.26632 14.3663 2.29836L2.34104 9.24887C2.28297 9.28272 2.23489 9.33133 2.20171 9.38978C2.16853 9.44823 2.15141 9.51443 2.15211 9.58163V23.4768C2.15166 23.5422 2.169 23.6065 2.20228 23.6628C2.23556 23.7191 2.28352 23.7653 2.34104 23.7965L5.64067 25.7006C7.43387 26.5938 8.52909 25.5441 8.52909 24.4832V10.7616C8.52908 10.7157 8.53823 10.6702 8.55601 10.6279C8.57379 10.5855 8.59984 10.5471 8.63263 10.515C8.66542 10.4828 8.7043 10.4575 8.74699 10.4406C8.78967 10.4236 8.83532 10.4153 8.88124 10.4162H10.4071C10.4995 10.4155 10.5885 10.4515 10.6545 10.5162C10.7205 10.5809 10.7581 10.6692 10.7592 10.7616V24.4872C10.7592 26.8738 9.45522 28.2432 7.19264 28.2432C6.49511 28.2432 5.94728 28.2432 4.42146 27.4866L1.26521 25.6672C0.880022 25.4443 0.560317 25.1238 0.338226 24.7381C0.116136 24.3525 -0.000514084 23.9151 1.70308e-06 23.47V9.57487C0.000226471 9.12989 0.117185 8.69276 0.339198 8.30713C0.561211 7.92149 0.880509 7.60085 1.26521 7.37722L13.2955 0.426254C13.6835 0.214487 14.1184 0.103516 14.5605 0.103516C15.0025 0.103516 15.4374 0.214487 15.8254 0.426254L27.8688 7.38353C28.2538 7.60638 28.5734 7.9266 28.7954 8.31203C29.0175 8.69747 29.1343 9.13455 29.134 9.57938V23.4768C29.1333 23.9219 29.0162 24.359 28.7944 24.7449C28.5725 25.1307 28.2536 25.4518 27.8692 25.6763L15.8254 32.625C15.4407 32.8468 15.0048 32.9638 14.5607 32.964ZM24.281 19.2646C24.281 16.6629 22.5225 15.973 18.8252 15.4825C15.0828 14.9865 14.7041 14.7326 14.7041 13.8593C14.7041 13.1356 15.0238 12.1702 17.7949 12.1702C20.2663 12.1702 21.1793 12.705 21.5572 14.3742C21.5743 14.4515 21.6171 14.5207 21.6788 14.5704C21.7404 14.6202 21.8171 14.6475 21.8963 14.6479H23.4613C23.5091 14.6483 23.5565 14.6386 23.6003 14.6195C23.6441 14.6004 23.6834 14.5723 23.7156 14.5369C23.7478 14.5007 23.7724 14.4584 23.7879 14.4124C23.8034 14.3665 23.8095 14.3179 23.8058 14.2696C23.5646 11.3938 21.6541 10.0573 17.794 10.0573C14.3578 10.0573 12.3103 11.5047 12.3103 13.935C12.3103 16.5691 14.351 17.2996 17.6439 17.6256C21.5888 18.0102 21.8954 18.5905 21.8954 19.3665C21.8954 20.7097 20.8132 21.2837 18.2765 21.2837C15.0878 21.2837 14.3902 20.4815 14.1553 18.8971C14.1428 18.8147 14.101 18.7397 14.0375 18.6857C13.9741 18.6318 13.8932 18.6026 13.8099 18.6035H12.2521C12.2067 18.6033 12.1617 18.6121 12.1197 18.6294C12.0776 18.6466 12.0395 18.6721 12.0074 18.7042C11.9752 18.7363 11.9498 18.7745 11.9325 18.8165C11.9153 18.8585 11.9065 18.9035 11.9067 18.9489C11.9067 20.978 13.0087 23.3961 18.2837 23.3961C22.0919 23.3898 24.2806 21.8833 24.2806 19.2619L24.281 19.2646Z" fill="#B1B1B1"/>
</svg>
