<svg width="36" height="36" viewBox="0 0 36 36" fill="none" xmlns="http://www.w3.org/2000/svg">
<path d="M31.9752 8.84814V5.31509C31.9927 5.19231 31.9815 5.06714 31.9423 4.94948C31.9032 4.83182 31.8373 4.72492 31.7498 4.63722C31.6623 4.54952 31.5557 4.48345 31.4383 4.44423C31.3209 4.40501 31.196 4.39372 31.0735 4.41126H27.6308C27.5083 4.39372 27.3834 4.40501 27.2661 4.44423C27.1487 4.48345 27.042 4.54952 26.9545 4.63722C26.867 4.72492 26.8011 4.83182 26.762 4.94948C26.7229 5.06714 26.7116 5.19231 26.7291 5.31509V8.84735C26.7291 9.39508 27.0297 9.66894 27.6308 9.66894H31.0735C31.6747 9.66894 31.9752 9.39534 31.9752 8.84814ZM4.84443 32.5096H31.0743C31.1968 32.5272 31.3217 32.5159 31.4391 32.4767C31.5564 32.4375 31.6631 32.3714 31.7506 32.2837C31.8381 32.196 31.904 32.0891 31.9431 31.9714C31.9823 31.8538 31.9935 31.7286 31.976 31.6058V16.735H28.2879C28.3892 17.304 28.4441 17.8802 28.452 18.4581C28.4736 19.8423 28.212 21.2162 27.6833 22.4951C27.1546 23.7739 26.3701 24.9307 25.3781 25.8939C24.4166 26.8887 23.2618 27.6753 21.985 28.2053C20.7083 28.7352 19.3368 28.9972 17.9551 28.975C16.5741 28.9967 15.2034 28.7345 13.9275 28.2046C12.6516 27.6747 11.4976 26.8882 10.5367 25.8939C9.54503 24.9305 8.76067 23.7737 8.23201 22.4949C7.70334 21.216 7.44156 19.8422 7.46281 18.4581C7.46064 17.8797 7.5156 17.3026 7.62689 16.735H4.02399V31.6058C4.02399 32.2084 4.29799 32.5096 4.84443 32.5096ZM18.0027 11.4774C17.0796 11.4617 16.1631 11.6359 15.3097 11.9891C14.4563 12.3423 13.6842 12.867 13.041 13.5309C12.3814 14.1686 11.8593 14.935 11.507 15.7829C11.1546 16.6307 10.9794 17.542 10.9923 18.4604C10.98 19.3788 11.1554 20.2899 11.5078 21.1377C11.8601 21.9855 12.3819 22.752 13.041 23.39C13.6841 24.0541 14.4561 24.579 15.3095 24.9322C16.163 25.2854 17.0796 25.4594 18.0027 25.4435C18.9255 25.4591 19.8417 25.2849 20.6947 24.9317C21.5476 24.5785 22.3193 24.0538 22.9621 23.39C23.6212 22.752 24.143 21.9855 24.4953 21.1377C24.8477 20.2899 25.0231 19.3788 25.0109 18.4604C25.0234 17.5419 24.8479 16.6305 24.4951 15.7826C24.1423 14.9347 23.6198 14.1684 22.9598 13.5309C22.3171 12.8676 21.5458 12.3432 20.6932 11.99C19.8407 11.6369 18.9251 11.4624 18.0027 11.4774ZM30.5 0.960449C33.2614 0.960449 35.5 3.19903 35.5 5.96045V30.9604C35.5 33.7219 33.2614 35.9604 30.5 35.9604H5.5C2.73858 35.9604 0.5 33.7219 0.5 30.9604V5.96045C0.5 3.19903 2.73858 0.960449 5.5 0.960449H30.5Z" fill="url(#paint0_linear_2446_4300)"/>
<defs>
<linearGradient id="paint0_linear_2446_4300" x1="2" y1="0.960449" x2="12" y2="43.9604" gradientUnits="userSpaceOnUse">
<stop stop-color="#B70000"/>
<stop offset="0.0001" stop-color="#515BD4"/>
<stop offset="0.25" stop-color="#8134AF"/>
<stop offset="0.505208" stop-color="#DD2A7B"/>
<stop offset="0.755208" stop-color="#FEDA77"/>
<stop offset="1" stop-color="#F58529"/>
</linearGradient>
</defs>
</svg>
