<svg width="36" height="36" viewBox="0 0 36 36" fill="none" xmlns="http://www.w3.org/2000/svg">
<path d="M5.5 0.960449C2.73858 0.960449 0.5 3.19903 0.5 5.96045V30.9604C0.5 33.7219 2.73858 35.9604 5.5 35.9604H30.5C33.2614 35.9604 35.5 33.7219 35.5 30.9604V5.96045C35.5 3.19903 33.2614 0.960449 30.5 0.960449H5.5ZM9.08302 7.8416C9.80249 7.82201 10.5008 8.08644 11.0268 8.57767C11.5528 9.06891 11.8643 9.74747 11.894 10.4666C11.8817 10.8267 11.7981 11.1807 11.6479 11.5082C11.4977 11.8357 11.2839 12.1301 11.019 12.3743C10.7541 12.6185 10.4433 12.8077 10.1047 12.9308C9.76614 13.054 9.40645 13.1086 9.04656 13.0916H9.00792C8.29424 13.1028 7.60447 12.8345 7.08592 12.3441C6.56738 11.8536 6.26117 11.1798 6.23271 10.4666C6.26699 9.74221 6.58529 9.06051 7.11867 8.56917C7.65205 8.07783 8.35827 7.81643 9.08302 7.8416ZM23.958 14.7971C24.7262 14.776 25.4904 14.913 26.2034 15.1997C26.9164 15.4863 27.5628 15.9164 28.1026 16.4633C29.3305 17.8326 29.725 19.7212 29.7687 21.6403V30.3743H24.7375V22.2353C24.7266 20.7099 24.2038 18.8557 22.1854 18.7937C21.6195 18.8125 21.0719 18.9981 20.6112 19.3273C20.1505 19.6564 19.7974 20.1144 19.5961 20.6436C19.458 21.0349 19.395 21.4488 19.4102 21.8635V30.3743H14.379C14.3979 26.1196 14.4249 21.8649 14.4154 17.6139C14.4154 16.4054 14.4033 15.5914 14.379 15.1719H19.4102V17.3164C19.827 16.6858 20.346 16.1291 20.9458 15.6692C21.8376 15.077 22.89 14.7735 23.9602 14.8L23.958 14.7971ZM6.53094 15.169H11.5622V30.3743H6.53094V15.169Z" fill="#0072B1"/>
</svg>
