<svg width="36" height="36" viewBox="0 0 36 36" fill="none" xmlns="http://www.w3.org/2000/svg">
<path fill-rule="evenodd" clip-rule="evenodd" d="M5.5 0.960449C2.73858 0.960449 0.5 3.19903 0.5 5.96045V30.9604C0.5 33.7219 2.73858 35.9604 5.5 35.9604H30.5C33.2614 35.9604 35.5 33.7219 35.5 30.9604V5.96045C35.5 3.19903 33.2614 0.960449 30.5 0.960449H5.5ZM14.6864 8.46033H8.07178L15.7573 19.3799L8.00016 28.4603H10.0835L16.6981 20.7162L22.1489 28.4603H28.7619L20.3244 16.4714L27.1668 8.46033H25.0835L19.3836 15.1351L14.6864 8.46033ZM23.0181 26.7937L11.2619 10.127H13.8156L25.5718 26.7937H23.0181Z" fill="#202124"/>
</svg>
