<svg width="13" height="14" viewBox="0 0 13 14" fill="none" xmlns="http://www.w3.org/2000/svg">
<path id="Vector" d="M10.7187 10.414L9.88705 11.2364C9.27409 11.8379 8.47884 12.6114 7.50087 13.5569C6.8898 14.1478 5.92031 14.1477 5.30931 13.5567L2.86341 11.1776C2.55602 10.8757 2.2987 10.6212 2.09144 10.414C-0.290896 8.03165 -0.290896 4.16909 2.09144 1.78675C4.47377 -0.595584 8.33633 -0.595584 10.7187 1.78675C13.101 4.16909 13.101 8.03165 10.7187 10.414ZM8.1567 6.29282C8.1567 5.3254 7.37245 4.54115 6.40505 4.54115C5.43766 4.54115 4.65339 5.3254 4.65339 6.29282C4.65339 7.26021 5.43766 8.04447 6.40505 8.04447C7.37245 8.04447 8.1567 7.26021 8.1567 6.29282Z" fill="#212121"/>
</svg>
