<svg width="30" height="32" viewBox="0 0 30 32" fill="none" xmlns="http://www.w3.org/2000/svg">
<path id="Icon simple-postgresql" d="M21.3719 0.55957C20.1804 0.568425 18.9959 0.7417 17.8518 1.07449L17.7711 1.10019C17.0497 0.972634 16.3194 0.902076 15.587 0.889173C14.244 0.845234 12.9149 1.17289 11.7462 1.83605C10.0129 1.22097 8.18026 0.933672 6.34185 0.98882C4.64174 1.01133 3.01627 1.69076 1.80586 2.88482C0.544715 4.21992 -0.122155 6.28591 0.0185235 9.09723C0.135601 10.3372 0.344791 11.5667 0.644363 12.7756C1.03922 14.5745 1.54841 16.3463 2.16883 18.0804C2.81135 19.8307 3.51565 21.4025 4.61538 22.4703C4.89748 22.77 5.23805 23.0086 5.61605 23.1715C5.99405 23.3344 6.40144 23.418 6.81303 23.4171C7.43564 23.3744 8.02651 23.1264 8.49306 22.7119C8.68571 22.9572 8.93267 23.1545 9.21448 23.2882C9.48768 23.4397 9.77988 23.554 10.0834 23.6282C10.8951 23.8434 11.7428 23.8868 12.5723 23.7558C12.9578 23.6877 13.3333 23.5719 13.69 23.4108C13.704 23.8324 13.7207 24.245 13.7351 24.663C13.7874 25.9868 13.8208 27.2096 14.218 28.2814C14.3837 28.9673 14.7011 29.6074 15.1469 30.1544C15.6069 30.6149 16.18 30.9465 16.8086 31.1158C17.4372 31.285 18.0992 31.2861 18.7283 31.1188C19.8145 30.8862 21.1956 30.4673 22.1127 29.1615C23.0199 27.8711 23.4289 26.0197 23.5105 23.0172C23.5308 22.8549 23.5556 22.7169 23.5808 22.5879L23.7968 22.6073H23.8225C25.0091 22.6814 26.1965 22.4757 27.289 22.0067C28.149 21.6811 28.8952 21.1113 29.4357 20.3673C29.6106 20.1264 29.7165 19.8424 29.7423 19.5458C29.7499 19.2992 29.7027 19.0541 29.6041 18.828C29.5056 18.6019 29.3581 18.4004 29.1724 18.2382C28.4121 17.6606 27.9342 17.8806 27.422 17.9866C26.9173 18.0982 26.403 18.1607 25.8862 18.1732C27.2738 15.8408 28.3315 13.3274 29.0294 10.7047C29.3677 9.47634 29.5607 8.21256 29.6043 6.93925C29.621 5.82645 29.5304 4.84125 28.863 3.98906C27.9905 2.90145 26.8811 2.02754 25.6194 1.43404C24.3577 0.840544 22.9771 0.543139 21.5829 0.56453C21.5126 0.56453 21.4422 0.561825 21.3719 0.56453V0.55957ZM21.3119 1.37749C23.4564 1.35675 26.1965 1.95734 28.1619 4.47197C28.6038 5.03649 28.7354 5.86207 28.7201 6.87928C28.6747 8.08464 28.4907 9.28076 28.1718 10.444C27.3865 13.3864 26.137 16.1848 24.4704 18.7337C24.5332 18.7783 24.601 18.8152 24.6724 18.8437C25.0431 18.997 25.8876 19.1287 27.5726 18.7824C27.7436 18.713 27.9287 18.6855 28.1125 18.7022C28.2962 18.7189 28.4734 18.7793 28.629 18.8784C28.707 18.9446 28.7687 19.0278 28.8093 19.1216C28.8499 19.2155 28.8683 19.3174 28.863 19.4195C28.8458 19.5745 28.7886 19.7224 28.6971 19.8488C28.2257 20.4421 27.6078 20.9022 26.9044 21.1839C26.046 21.5358 25.1267 21.7151 24.199 21.7114C23.7746 21.7281 23.3502 21.6794 22.9406 21.5671L22.9176 21.5581C22.7769 22.9108 22.4536 25.5868 22.2412 26.8069C22.1466 27.677 21.7882 28.4973 21.2141 29.1579C20.541 29.7835 19.6941 30.1907 18.7851 30.3257C17.4591 30.6107 16.4919 30.3041 15.8683 29.7788C15.3772 29.3293 15.0064 28.764 14.7898 28.1344C14.6612 27.7515 14.5813 27.354 14.5522 26.9512C14.4935 26.4426 14.4498 25.8204 14.4205 25.1193C14.3814 24.0452 14.3686 22.9707 14.3822 21.8958C13.8279 22.4035 13.1391 22.7407 12.3982 22.867C11.6863 22.9761 10.9594 22.937 10.2633 22.7521C10.032 22.694 9.80881 22.6076 9.59864 22.4951C9.36246 22.3894 9.16567 22.2119 9.03638 21.9878C8.95519 21.8392 8.92931 21.6667 8.96334 21.5008C9.00653 21.3328 9.1046 21.1839 9.24199 21.0779C9.56667 20.8503 9.94142 20.7043 10.3345 20.6523C11.253 20.4633 11.574 20.3339 11.7692 20.1797C12.0155 19.9304 12.2447 19.6648 12.4555 19.3848C12.454 19.3674 12.4526 19.3499 12.4514 19.3325C11.8569 19.3158 11.2747 19.1592 10.752 18.8753C10.5604 19.0773 9.57971 20.1121 8.38845 21.5482C8.19892 21.8156 7.95525 22.0402 7.67326 22.2072C7.39128 22.3743 7.07729 22.4802 6.75171 22.5181C6.4566 22.5142 6.16545 22.4496 5.89641 22.3283C5.62737 22.207 5.38623 22.0315 5.18801 21.8129C4.28983 20.9399 3.57291 19.4398 2.94797 17.7431C2.34146 16.0443 1.84357 14.3086 1.45732 12.5466C1.17307 11.3841 0.970727 10.2032 0.851774 9.01246C0.716506 6.35219 1.33964 4.55989 2.4069 3.42905C3.46553 2.39153 4.88445 1.80373 6.36664 1.7887C8.23943 1.73625 10.1041 2.055 11.8531 2.72656C12.9475 2.00796 14.2401 1.65134 15.5482 1.70709C16.2724 1.7173 16.993 1.8108 17.6958 1.98574L17.7215 1.97402C18.0311 1.86515 18.3466 1.77378 18.6666 1.70033C19.5344 1.49791 20.4217 1.39042 21.3128 1.37974L21.3119 1.37749ZM21.5063 2.23419H21.3196C20.5875 2.24437 19.8582 2.32653 19.1422 2.47947C20.5734 3.12469 21.8239 4.11198 22.7837 5.35436C23.3722 6.10459 23.8585 6.92955 24.2301 7.80767C24.3475 8.08102 24.444 8.36289 24.5187 8.65084C24.5444 8.74971 24.5615 8.85065 24.5696 8.95249C24.5747 9.01424 24.5695 9.0764 24.5543 9.13645C24.5543 9.14051 24.548 9.14908 24.5466 9.15314C24.585 10.2723 24.3077 11.0311 24.2761 12.0993C24.2504 12.8735 24.4488 13.7834 24.497 14.7762C24.5808 15.8092 24.346 16.8431 23.8243 17.7386C23.8753 17.7999 23.9213 17.8612 23.97 17.9226C25.4762 15.5422 26.6134 12.9475 27.3431 10.2267C27.6436 9.12899 27.8187 8.0007 27.8648 6.8635C27.9246 6.21822 27.7935 5.56957 27.4878 4.99816C25.7744 2.80547 23.4528 2.24771 21.5081 2.23193L21.5063 2.23419ZM15.3863 2.56108C14.1472 2.51719 12.9341 2.92338 11.9712 3.70455C11.1559 4.42399 10.5399 5.34147 10.1826 6.36842C9.82096 7.36077 9.60028 8.39891 9.52695 9.45253L9.54364 9.44216C10.0762 9.14535 10.6471 8.92351 11.2403 8.78295C11.8837 8.60435 12.5657 8.62178 13.199 8.833C13.5446 8.97808 13.8479 9.20818 14.0807 9.50191C14.3135 9.79564 14.4682 10.1435 14.5305 10.513C15.43 14.6743 14.2505 16.2218 13.8163 17.3896C13.6507 17.8133 13.5087 18.246 13.3911 18.6855C13.4453 18.6707 13.5004 18.6595 13.5561 18.6521C13.7941 18.6385 14.0316 18.686 14.246 18.7901C14.4564 18.8853 14.6449 19.023 14.7997 19.1945C14.9545 19.3659 15.0722 19.5675 15.1455 19.7865C15.1883 19.9032 15.2185 20.0242 15.2357 20.1473C15.2546 20.1992 15.2634 20.2543 15.2614 20.3096C15.213 21.9027 15.2186 23.4947 15.2781 25.0854C15.3074 25.773 15.3511 26.3786 15.4057 26.8561C15.4341 27.1821 15.4953 27.5045 15.5883 27.8183C15.7566 28.3152 16.0428 28.7638 16.4225 29.1259C16.8544 29.4866 17.4739 29.7314 18.6061 29.4866C19.348 29.3862 20.0423 29.0642 20.5982 28.5627C21.0522 28.0269 21.332 27.3653 21.4003 26.6663C21.6316 25.3249 22.0965 21.4359 22.1529 20.7019C22.1099 20.2556 22.1904 19.8061 22.3855 19.4024C22.5446 19.1167 22.7921 18.8903 23.0907 18.7572C23.1971 18.7096 23.3068 18.6698 23.419 18.6381C23.3201 18.4962 23.2165 18.3578 23.1083 18.2228C22.7583 17.7984 22.4717 17.3254 22.2575 16.8188C22.155 16.6084 22.0455 16.4026 21.9292 16.2015C21.7592 15.8949 21.5446 15.5116 21.3196 15.081C20.812 14.1542 20.4115 13.1726 20.1261 12.1552C19.8731 11.138 19.8362 10.0851 20.4868 9.34296C21.0617 8.68376 22.0712 8.41007 23.5862 8.56337C23.5412 8.4281 23.5146 8.31808 23.4393 8.13908C23.0967 7.33249 22.6495 6.5745 22.1091 5.88462C21.3448 4.85985 20.3531 4.02646 19.212 3.45006C18.071 2.87365 16.8117 2.56996 15.5333 2.56289H15.3863V2.56108ZM6.89825 2.62691C6.73593 2.62691 6.5736 2.63187 6.41264 2.64089C5.15011 2.64367 3.93788 3.136 3.03094 4.01431C2.15711 4.93954 1.58222 6.4559 1.70757 8.96692C1.83056 10.1077 2.02635 11.2395 2.29373 12.3554C2.67292 14.0802 3.1604 15.7793 3.75327 17.4428C4.35747 19.0872 5.08972 20.5183 5.78499 21.1951C5.89983 21.3323 6.04159 21.4445 6.20151 21.5247C6.36143 21.6049 6.53611 21.6514 6.71473 21.6614C6.92144 21.6288 7.11896 21.553 7.29439 21.439C7.46982 21.3249 7.61923 21.1752 7.73285 20.9994C8.47592 20.1031 9.2468 19.2313 10.0455 18.3843C9.47874 17.8922 9.04509 17.2653 8.78456 16.5614C8.52403 15.8575 8.44502 15.0994 8.55483 14.3569C8.66697 13.5202 8.7122 12.6758 8.6901 11.8319C8.67477 11.1519 8.62607 10.6997 8.62607 10.4174C8.62607 10.4093 8.62607 10.4012 8.62607 10.3931V10.3868V10.3791C8.62369 8.90781 8.87821 7.44738 9.37816 6.06362C9.73866 5.05189 10.3157 4.13106 11.069 3.36548C9.8775 2.96454 8.63885 2.7205 7.38431 2.63954C7.22259 2.63112 7.06072 2.62691 6.8987 2.62691H6.89825ZM22.7408 9.37543C21.8733 9.38715 21.3881 9.61034 21.1311 9.90297C20.7704 10.3182 20.7352 11.0464 20.9598 11.9433C21.2306 12.8943 21.6064 13.8122 22.0803 14.6802C22.2976 15.0982 22.5082 15.4738 22.6781 15.779C22.8146 16.0088 22.9391 16.2456 23.051 16.4883C23.1164 16.647 23.1917 16.8015 23.2765 16.9509C23.5763 16.2827 23.7004 15.5491 23.6372 14.8195C23.5921 13.9213 23.3842 13.0029 23.4149 12.0727C23.4496 10.9856 23.6642 10.2777 23.6854 9.43675C23.3715 9.39608 23.0552 9.37559 22.7386 9.37543H22.7408ZM12.2188 9.52242C11.9537 9.52492 11.6897 9.55668 11.4315 9.61711C10.9172 9.74203 10.4218 9.93491 9.95846 10.1906C9.8017 10.2747 9.6525 10.3722 9.51252 10.4819L9.48457 10.5076C9.49223 10.6943 9.52966 11.1465 9.54454 11.8121C9.5677 12.7019 9.5199 13.5923 9.4016 14.4746C9.09635 16.6596 10.6817 18.4686 12.5448 18.4713C12.6731 18.0018 12.8288 17.5402 13.011 17.0889C13.5295 15.6911 14.5508 14.6716 13.6909 10.6929C13.6696 10.4585 13.5831 10.2347 13.4413 10.0469C13.2995 9.85899 13.108 9.71451 12.8884 9.62973C12.6735 9.55374 12.4466 9.51738 12.2188 9.52242ZM22.3341 9.78303H22.3981C22.4756 9.78439 22.5526 9.79376 22.6281 9.81099C22.6906 9.82354 22.7504 9.84737 22.8044 9.88133C22.8294 9.89675 22.8508 9.91724 22.8673 9.94148C22.8839 9.96571 22.8952 9.99314 22.9004 10.022V10.0324C22.9029 10.0931 22.8872 10.1533 22.8553 10.2051C22.8176 10.2752 22.7703 10.3397 22.7147 10.3967C22.585 10.5393 22.4114 10.6346 22.2214 10.6672C22.0365 10.6896 21.8498 10.6427 21.6975 10.5356C21.6352 10.4937 21.5793 10.4429 21.5315 10.385C21.4901 10.3394 21.4622 10.2832 21.4508 10.2227C21.4481 10.1932 21.4515 10.1634 21.4607 10.1353C21.47 10.1071 21.4848 10.0812 21.5045 10.059C21.5465 10.0113 21.5973 9.97228 21.6542 9.944C21.8031 9.8669 21.9644 9.81668 22.1308 9.79566C22.1984 9.78587 22.2667 9.7803 22.335 9.77898L22.3341 9.78303ZM12.3428 9.99766C12.4137 9.99834 12.4845 10.0039 12.5547 10.0143C12.7305 10.0341 12.9009 10.087 13.057 10.1704C13.1218 10.2041 13.1795 10.25 13.227 10.3056C13.2528 10.3351 13.2723 10.3697 13.2842 10.4071C13.296 10.4445 13.3 10.4839 13.296 10.523C13.2836 10.5964 13.2502 10.6646 13.1999 10.7195C13.1477 10.7836 13.0861 10.8396 13.0173 10.8855C12.8512 11.0031 12.6472 11.0545 12.4451 11.0298C12.2386 10.9958 12.0496 10.8932 11.9086 10.7385C11.8486 10.6761 11.7979 10.6055 11.758 10.5288C11.716 10.4615 11.6976 10.3822 11.7057 10.3034C11.7186 10.243 11.7484 10.1875 11.7915 10.1434C11.8347 10.0992 11.8895 10.0683 11.9496 10.054C12.0762 10.0136 12.2091 9.99635 12.3419 10.0031L12.3428 9.99766ZM23.9199 19.3798H23.9163C23.7283 19.4475 23.5741 19.4759 23.4438 19.5331C23.312 19.5839 23.2035 19.6811 23.1385 19.8064C23.0206 20.0735 22.9761 20.3672 23.0096 20.6572C23.0673 20.6973 23.1311 20.7277 23.1985 20.7474C23.5226 20.8283 23.8566 20.8632 24.1904 20.8511C24.9947 20.8452 25.7912 20.6937 26.5414 20.4038C26.9785 20.2007 27.3842 19.9361 27.7462 19.6179C25.9665 19.9858 24.961 19.8884 24.3437 19.6332C24.1905 19.5695 24.0475 19.4833 23.9195 19.3776L23.9199 19.3798ZM13.6589 19.4998H13.6319C13.5642 19.5061 13.466 19.5291 13.2752 19.7401C12.9829 20.133 12.6598 20.5021 12.309 20.8439C11.9424 21.1352 11.4658 21.2912 10.514 21.4864C10.3107 21.5227 10.1128 21.5845 9.92509 21.6704C9.95109 21.6979 9.98158 21.7208 10.0153 21.738C10.1619 21.8159 10.3172 21.8765 10.4779 21.9184C11.059 22.0723 11.6653 22.1071 12.2603 22.0207C12.6757 21.9528 13.0725 21.7998 13.4259 21.5711C13.7793 21.3424 14.0815 21.0431 14.3136 20.6919C14.3671 20.6003 14.3976 20.4971 14.4026 20.3911C14.4076 20.2851 14.387 20.1795 14.3425 20.0832C14.2659 19.8707 14.1159 19.6926 13.9196 19.5809C13.8374 19.5413 13.7494 19.5154 13.6589 19.5043V19.4998Z" fill="#B1B1B1"/>
</svg>
