<svg width="24" height="28" viewBox="0 0 24 28" fill="none" xmlns="http://www.w3.org/2000/svg">
<path id="Icon awesome-android" d="M3.49062 10.798V17.886C3.49299 18.1083 3.45159 18.3288 3.36883 18.5348C3.28607 18.7408 3.1636 18.9281 3.00853 19.0858C2.85347 19.2436 2.66891 19.3686 2.46557 19.4537C2.26224 19.5388 2.04419 19.5822 1.82411 19.5814C1.36349 19.5865 0.918297 19.4139 0.579331 19.0989C0.240366 18.7839 0.0331676 18.3501 0 17.886V10.798C0.0357731 10.336 0.244147 9.90505 0.582874 9.59249C0.921602 9.27993 1.36533 9.10917 1.82411 9.11481C2.26552 9.11671 2.68831 9.29465 3.00044 9.6099C3.31256 9.92515 3.48875 10.3522 3.49062 10.798ZM4.14509 20.4083C4.14456 20.6464 4.1906 20.8822 4.28055 21.1023C4.37051 21.3223 4.50261 21.5222 4.66928 21.6906C4.83596 21.8589 5.03391 21.9923 5.25177 22.0832C5.46964 22.1741 5.70313 22.2205 5.93884 22.22H7.1442L7.16473 25.9602C7.16473 28.2187 10.5103 28.2007 10.5103 25.9602V22.22H12.7647V25.9602C12.7647 28.2065 16.1286 28.2146 16.1286 25.9602V22.22H17.3527C17.5875 22.2195 17.82 22.1722 18.0367 22.0808C18.2534 21.9894 18.4501 21.8557 18.6156 21.6875C18.7811 21.5192 18.9121 21.3196 19.0011 21.1001C19.0902 20.8806 19.1354 20.6455 19.1344 20.4083V9.42683H4.14509V20.4083ZM19.1737 8.833H4.07813C4.09904 7.55759 4.47062 6.31316 5.15135 5.23873C5.83209 4.1643 6.79518 3.30217 7.93304 2.74865L6.77545 0.587525C6.76032 0.560583 6.7506 0.530897 6.74683 0.50016C6.74307 0.469423 6.74533 0.438238 6.7535 0.408385C6.76166 0.378532 6.77557 0.350596 6.79443 0.326172C6.81328 0.301749 6.83672 0.281315 6.86339 0.266038C6.89007 0.250761 6.91946 0.240941 6.94989 0.237137C6.98033 0.233333 7.0112 0.235621 7.04076 0.243869C7.07032 0.252117 7.09798 0.266165 7.12216 0.285209C7.14634 0.304254 7.16657 0.327923 7.1817 0.354864L8.35759 2.53403C9.39232 2.07694 10.5095 1.84099 11.6388 1.84099C12.7682 1.84099 13.8854 2.07694 14.9201 2.53403L16.0897 0.361177C16.1049 0.334235 16.1251 0.310566 16.1493 0.291522C16.1735 0.272477 16.2011 0.25843 16.2307 0.250182C16.2602 0.241933 16.2911 0.239646 16.3215 0.24345C16.352 0.247253 16.3814 0.257074 16.408 0.272351C16.4347 0.287627 16.4581 0.308061 16.477 0.332485C16.4959 0.356909 16.5098 0.384845 16.5179 0.414698C16.5261 0.44455 16.5284 0.475735 16.5246 0.506472C16.5208 0.537209 16.5111 0.566896 16.496 0.593837L15.3388 2.74865C16.4718 3.30646 17.4298 4.17015 18.1067 5.24405C18.7835 6.31796 19.1528 7.56015 19.1737 8.833ZM8.82991 5.43552C8.82991 5.35096 8.81338 5.26722 8.78127 5.18912C8.74916 5.11102 8.7021 5.04009 8.6428 4.98039C8.58349 4.9207 8.51309 4.87342 8.43565 4.84126C8.35821 4.80911 8.27525 4.79271 8.19152 4.793C8.02566 4.79744 7.86806 4.8671 7.7523 4.98716C7.63655 5.10721 7.57177 5.26817 7.57177 5.43575C7.57177 5.60333 7.63655 5.76429 7.7523 5.88434C7.86806 6.0044 8.02566 6.07406 8.19152 6.0785C8.27529 6.0788 8.35829 6.06238 8.43576 6.03019C8.51322 5.99801 8.58364 5.95069 8.64295 5.89095C8.70227 5.83121 8.74932 5.76022 8.7814 5.68207C8.81348 5.60391 8.82997 5.52013 8.82991 5.43552ZM15.7027 5.43552C15.7009 5.31025 15.6624 5.18832 15.592 5.08515C15.5216 4.98198 15.4225 4.90221 15.3072 4.85592C15.192 4.80963 15.0657 4.79891 14.9444 4.8251C14.8231 4.85129 14.7122 4.91323 14.6257 5.00307C14.5393 5.09292 14.4811 5.20664 14.4587 5.32986C14.4362 5.45307 14.4504 5.58025 14.4995 5.69531C14.5486 5.81038 14.6303 5.90815 14.7345 5.97628C14.8386 6.0444 14.9603 6.07982 15.0844 6.07805C15.2503 6.07427 15.4081 6.00479 15.5237 5.8846C15.6394 5.76441 15.7037 5.60313 15.7027 5.43552ZM21.4482 9.11436C21.2292 9.11376 21.0122 9.1569 20.8098 9.24127C20.6073 9.32565 20.4234 9.44961 20.2685 9.60603C20.1136 9.76244 19.9909 9.94823 19.9074 10.1527C19.8238 10.3572 19.7811 10.5763 19.7817 10.7975V17.886C19.7809 18.1079 19.8233 18.3277 19.9066 18.533C19.99 18.7383 20.1125 18.9249 20.2672 19.0824C20.422 19.2398 20.6059 19.3649 20.8086 19.4505C21.0112 19.5362 21.2286 19.5806 21.4482 19.5814C21.9091 19.5875 22.3548 19.4152 22.694 19.1C23.0332 18.7848 23.2401 18.3504 23.2723 17.886V10.798C23.2397 10.3347 23.0322 9.90172 22.6927 9.58843C22.3532 9.27515 21.908 9.10545 21.4482 9.11436Z" fill="#B1B1B1"/>
</svg>
