<svg width="24" height="27" viewBox="0 0 24 27" fill="none" xmlns="http://www.w3.org/2000/svg">
<path id="Icon awesome-jenkins" d="M23.4665 22.0179C23.3955 21.4439 22.5022 20.8338 22.0357 20.3829C21.7768 20.1268 20.5625 19.1989 20.4933 18.8499C20.4223 18.5117 20.9844 17.7479 21.1683 17.3687C21.4039 16.8285 21.5957 16.2698 21.7415 15.6982C22.6955 12.3106 22.792 7.65694 21.429 4.87403C20.9116 3.81849 19.4705 2.36256 18.567 1.67269C16.4317 0.0467719 12.4942 -0.137643 9.9317 0.820504C9.22856 1.04989 8.54749 1.34327 7.89688 1.69704C6.21741 2.69126 4.43125 3.36264 3.93393 5.36641C2.70759 5.9183 2.33527 7.5086 2.39509 9.35365C2.47948 9.73058 2.5254 10.1152 2.53215 10.5016C2.49643 10.6707 2.26831 10.8912 2.22277 11.0039C1.63393 12.4238 2.10625 14.2842 2.78616 15.2937C3.01273 15.6349 3.30616 15.9255 3.64831 16.1476C3.99047 16.3697 4.37408 16.5186 4.77545 16.5851C4.81409 17.1265 4.95534 17.6553 5.19152 18.1429C5.34866 18.4914 5.9375 19.1168 5.7192 19.5628C5.60759 19.7882 4.65358 20.2702 4.33527 20.4646C3.26384 21.1053 2.4884 21.5048 1.49866 22.223C0.858932 22.6843 -0.140621 22.7456 0.0165217 23.8187C0.208193 24.6176 0.45752 25.4013 0.762504 26.1634C0.798218 26.2657 0.833486 26.3735 0.8692 26.4709H22.2826C22.5313 25.6868 22.7737 24.8874 23.0237 24.0519C23.196 23.4657 23.5411 22.627 23.4652 22.0174L23.4665 22.0179ZM9.19599 1.96352C9.28527 1.93782 9.36831 1.99959 9.44465 2.08661C9.43438 2.35309 9.17054 2.34813 8.99286 2.43515C8.71875 2.77873 8.31295 2.93745 7.97813 3.31665C7.63304 3.70081 7.24732 4.73651 6.79063 4.85419C6.56027 4.8667 6.32927 4.8581 6.10045 4.82849C5.57277 4.86456 5.20224 5.136 4.66429 5.21265C5.35447 3.67962 7.51161 2.44507 9.19599 1.96352ZM3.87813 6.76057C4.59845 5.9691 5.59618 5.49283 6.65893 5.43314C7.25268 6.95535 6.23259 8.76433 6.61429 10.4353C6.73081 10.9426 7.1317 11.7371 6.49241 11.7524C6.50759 10.3019 4.72634 9.37935 3.3817 10.2356C3.29241 9.13362 3.13304 7.58615 3.87902 6.76102L3.87813 6.76057ZM5.74018 17.0211C5.67364 16.7682 5.63457 16.5088 5.62366 16.2474C5.70491 15.8014 6.49152 15.6066 6.1817 14.9812C5.60849 14.9763 5.48125 15.5038 4.95893 15.5602C3.60402 15.6955 2.64509 13.7458 2.70581 12.5672C2.71435 12.3098 2.77449 12.0568 2.88257 11.8236C2.99066 11.5904 3.14445 11.3817 3.33466 11.2102C3.52486 11.0387 3.74752 10.908 3.98918 10.8259C4.23084 10.7437 4.48647 10.712 4.74063 10.7325C5.55268 10.8227 5.82634 11.7163 5.98393 12.5108C6.4509 12.5365 7.12545 12.4905 7.34911 12.1212C7.31875 11.2244 6.90268 10.5016 6.93304 9.67649C6.98393 8.12362 7.82099 6.7245 7.17679 5.19732C7.86697 3.61379 9.89152 2.36301 11.3938 1.60957C13.2509 0.671709 16.2094 1.41974 17.9563 2.42117C18.9558 2.9902 19.7018 4.09714 20.4071 5.01967C19.4179 4.72253 18.5768 5.23475 18.7277 6.05988C19.5549 5.29607 20.9705 6.04951 21.3915 6.90034C21.7933 7.71195 21.7875 8.91448 21.8482 10.1188C21.9955 13.0402 21.3205 16.0589 19.8643 18.1704C19.5359 18.7628 19.1084 19.2934 18.6009 19.7386C17.2817 20.6715 15.2821 21.5169 13.567 20.938C11.2987 20.1715 10.2688 18.642 9.02545 16.8993C9.06116 17.8579 9.7259 18.647 10.3853 19.3793C10.9311 20.0722 11.618 20.6386 12.3996 21.0399C11.7746 20.8911 10.8214 20.8451 10.5625 21.4087C9.11116 21.3113 7.76652 21.1625 7.07634 20.1683C6.46983 19.1971 6.01945 18.135 5.74197 17.0215L5.74018 17.0211ZM17.0054 23.3809C17.2812 23.2525 17.5825 23.1895 17.8862 23.1965C17.5809 23.0511 17.2366 23.0115 16.9067 23.0838C16.8842 22.9011 16.8291 22.7241 16.7442 22.5612C17.2799 22.3664 18.5455 21.1008 19.2612 21.521C19.6013 21.7207 19.7433 22.8638 19.7737 23.4175C19.8217 23.8211 19.7425 24.2297 19.5473 24.5853C18.6785 24.5698 17.8147 24.4487 16.9746 24.2245C16.9653 23.9424 16.9754 23.6599 17.0049 23.3791L17.0054 23.3809ZM16.1326 22.356C15.7884 22.4059 15.4376 22.3824 15.1029 22.2871C14.7682 22.1917 14.457 22.0266 14.1893 21.8024C14.1996 21.7613 14.2603 21.7767 14.2652 21.7307C15.1786 22.1405 16.3357 21.5616 17.2589 21.4795C16.8594 21.741 16.5183 22.0742 16.1326 22.356ZM15.5201 24.0577C15.4196 23.7216 15.3717 23.3717 15.3781 23.0207C16.6451 22.1716 16.8835 24.4883 15.5201 24.0577ZM10.2161 22.715C9.62724 22.6789 7.77545 21.9976 8.2625 21.5003C8.73929 21.8335 9.65804 21.7514 10.358 21.8745C10.3987 22.0999 10.2161 22.3971 10.2161 22.715ZM1.6759 25.7125C1.46211 25.068 1.21139 24.4366 0.925004 23.8215C2.4875 22.6018 4.2384 21.3154 6.11116 20.5669C6.25313 20.5105 7.2884 21.8686 7.44063 21.9814C8.34782 22.575 9.3016 23.0927 10.2924 23.5293C10.3902 24.1469 10.5379 24.7553 10.7339 25.3486C10.7696 25.4663 10.8049 25.5894 10.8455 25.7175H1.6759V25.7125ZM13.8848 26.0047H13.8442C13.8565 25.9943 13.8702 25.9857 13.8848 25.979V26.0047ZM14.2652 25.7125C14.3719 25.6408 14.4835 25.5691 14.5897 25.492C14.6455 25.5637 14.7013 25.6354 14.7522 25.7125H14.2652ZM15.0313 24.4464C14.4908 24.9065 13.9268 25.3376 13.3415 25.7377C13.0371 25.9068 11.9714 26.3374 11.6451 26.2603C11.4625 26.2193 11.4473 25.9898 11.371 25.7734C11.1012 25.1703 10.9166 24.5319 10.8228 23.8769C10.7821 22.9954 10.696 21.5192 11.6348 21.7041C12.4123 21.8712 13.1624 22.149 13.8625 22.5292C14.1834 22.7884 14.567 22.9565 14.9737 23.0162C14.9688 23.0878 14.9688 23.1595 14.9634 23.2366C14.6638 23.4364 14.1871 23.4314 13.8571 23.6005C14.2715 23.6142 14.678 23.7173 15.0496 23.9031C15.0446 24.0771 15.0344 24.2638 15.0295 24.4441L15.0313 24.4464ZM17.7411 25.7125H17.0308C17.0272 25.6322 16.993 25.5564 16.9354 25.501C16.8777 25.4456 16.801 25.4149 16.7214 25.4154C16.6422 25.416 16.5661 25.4471 16.5087 25.5023C16.4512 25.5574 16.4167 25.6326 16.4121 25.7125H15.5286C15.3908 25.49 15.24 25.276 15.0768 25.0718C15.1835 24.9591 15.2799 24.831 15.3813 24.7183C15.8379 24.9081 16.1321 24.4671 16.4826 24.5032C16.8844 24.5442 17.2031 25.1029 17.7714 25.0668L17.7411 25.7125ZM18.1826 25.7125C18.1929 25.5073 18.2027 25.3126 18.213 25.1232C18.5332 24.9748 18.8968 24.9529 19.2322 25.062C19.5676 25.1711 19.8503 25.4032 20.0246 25.7125H18.1826ZM22.4147 23.816C22.2982 24.39 22.1205 25.0461 21.9125 25.7175C21.9029 25.7133 21.8925 25.7116 21.8821 25.7125H20.4661C20.4964 25.6561 20.5268 25.5998 20.5625 25.5434C20.4286 25.2309 20.1058 25.0975 20.0094 24.7489C20.6232 23.5856 20.3393 19.9623 18.7813 20.7256C18.9996 20.4028 19.5728 20.1363 19.8366 19.7364C20.4964 20.2693 20.892 20.7766 21.5214 21.3456C21.8665 21.6531 22.5362 22.0273 22.6071 22.5296C22.5901 22.9643 22.5258 23.3957 22.4147 23.816ZM10.0232 6.92469C10.2973 6.16088 11.4036 5.14637 12.3067 5.28479C12.6973 5.34612 13.2201 5.70503 12.9259 6.19199C11.3933 5.83128 10.6321 6.83767 10.1656 7.88825C9.75447 7.7859 9.91652 7.21687 10.0232 6.92469ZM19.3647 10.1567C19.7808 9.97228 20.5013 10.1206 20.8665 9.88616C20.5582 9.28964 20.3963 8.627 20.3946 7.95408C20.4184 7.953 20.4422 7.95466 20.4656 7.95904C20.7713 8.6992 21.1343 9.41383 21.5513 10.0963C21.2621 10.7879 19.3388 11.398 19.3638 10.1576L19.3647 10.1567ZM14.4531 10.2969C14.108 9.73826 13.4888 8.63132 13.7174 7.97527C14.0473 8.58533 14.154 9.2256 14.6205 9.6819C14.8286 9.88706 15.2397 10.1432 15.0366 10.719C14.8945 10.9425 14.687 11.1159 14.4429 11.2149C13.7121 11.4354 12.0121 11.26 12.5857 10.3384C13.1897 10.3745 14.0013 10.7379 14.4531 10.2969ZM15.8371 13.8847C16.0299 14.2228 15.908 14.8433 16.4509 14.9402C17.4777 15.1143 18.6634 14.309 19.3973 14.0281C19.854 13.2489 19.3567 12.9671 18.9455 12.4648C18.1031 11.4399 16.9768 10.1689 17.0174 8.63628C17.3576 8.38513 17.3879 9.01548 17.4335 9.13226C17.875 10.1725 18.9759 11.4999 19.783 12.3868C19.9808 12.6073 20.3058 12.8174 20.3411 12.9608C20.4478 13.381 20.067 13.8833 20.1129 14.1651C19.0116 14.8775 17.7888 15.6567 15.9826 15.4772C15.7778 15.2706 15.651 14.9982 15.6241 14.7071C15.5972 14.4161 15.6719 14.1246 15.8353 13.8833L15.8371 13.8847ZM5.62366 13.413C5.27858 13.2133 5.19733 12.3368 4.79152 12.3165C4.21116 12.2804 4.31965 13.4541 4.31965 14.1358C3.92366 13.772 3.85268 12.6443 4.14108 12.0703C3.80625 11.9062 3.65893 12.2547 3.47634 12.3728C3.71563 10.6247 6.00402 11.5626 5.62366 13.413ZM20.8263 14.8911C20.3138 15.8749 19.5884 16.9616 18.0862 16.9922C18.0427 16.6623 18.0427 16.328 18.0862 15.998C19.2379 15.883 19.9433 15.2937 20.8263 14.8911ZM13.6259 15.5223C14.5848 16.0296 16.3455 16.0859 17.65 16.0449C17.7087 16.3728 17.7325 16.7061 17.721 17.0391C16.0464 17.1338 14.0674 16.7136 13.6259 15.5223ZM18.3045 17.9157C18.2161 18.1622 18.0384 18.3655 17.8071 18.4847C17.1933 18.7358 15.4933 18.9306 14.6406 18.4694C14.0978 18.1772 13.7527 17.5225 13.4531 17.137C13.3112 16.9525 12.5955 16.476 13.4429 16.476C14.1076 18.1519 16.3862 17.9639 18.304 17.9161L18.3045 17.9157Z" fill="#B1B1B1"/>
</svg>
