<svg width="25" height="18" viewBox="0 0 25 18" fill="none" xmlns="http://www.w3.org/2000/svg">
<path fill-rule="evenodd" clip-rule="evenodd" d="M10.8003 0.145764C10.9603 0.222717 11.0954 0.343155 11.1899 0.493251C11.2845 0.643347 11.3348 0.817019 11.3349 0.99433V16.0799C11.3347 16.2574 11.2843 16.4311 11.1895 16.5812C11.0948 16.7313 10.9595 16.8517 10.7993 16.9285C10.6391 17.0053 10.4604 17.0354 10.2838 17.0154C10.1072 16.9954 9.93983 16.9261 9.80093 16.8154L5.33686 13.2514H0.944577C0.69406 13.2514 0.453803 13.1521 0.27666 12.9752C0.0995176 12.7984 0 12.5586 0 12.3085V4.76573C0 4.51567 0.0995176 4.27586 0.27666 4.09904C0.453803 3.92222 0.69406 3.82288 0.944577 3.82288H5.33686L9.80093 0.258906C9.93992 0.148004 10.1075 0.0785449 10.2843 0.058528C10.4611 0.0385111 10.64 0.0687508 10.8003 0.145764ZM24.2832 4.09819C24.3712 4.18578 24.4409 4.28982 24.4886 4.40437C24.5362 4.51892 24.5607 4.64172 24.5607 4.76573C24.5607 4.88975 24.5362 5.01255 24.4886 5.1271C24.4409 5.24164 24.3712 5.34569 24.2832 5.43327L16.7266 12.9761C16.5492 13.1531 16.3086 13.2526 16.0578 13.2526C15.807 13.2526 15.5664 13.1531 15.3891 12.9761C15.2117 12.799 15.112 12.5589 15.112 12.3085C15.112 12.0582 15.2117 11.818 15.3891 11.641L22.9457 4.09819C23.0334 4.01039 23.1376 3.94073 23.2524 3.8932C23.3672 3.84566 23.4902 3.8212 23.6144 3.8212C23.7387 3.8212 23.8617 3.84566 23.9765 3.8932C24.0912 3.94073 24.1954 4.01039 24.2832 4.09819Z" fill="white"/>
<path fill-rule="evenodd" clip-rule="evenodd" d="M15.3883 4.09813C15.3004 4.18572 15.2306 4.28976 15.183 4.40431C15.1354 4.51886 15.1108 4.64165 15.1108 4.76567C15.1108 4.88969 15.1354 5.01249 15.183 5.12704C15.2306 5.24158 15.3004 5.34563 15.3883 5.43321L22.945 12.976C23.0328 13.0637 23.137 13.1332 23.2518 13.1807C23.3665 13.2281 23.4895 13.2525 23.6137 13.2525C23.7379 13.2525 23.8609 13.2281 23.9757 13.1807C24.0904 13.1332 24.1947 13.0637 24.2825 12.976C24.3703 12.8884 24.44 12.7843 24.4875 12.6697C24.535 12.5552 24.5595 12.4325 24.5595 12.3085C24.5595 12.1845 24.535 12.0617 24.4875 11.9472C24.44 11.8327 24.3703 11.7286 24.2825 11.6409L16.7259 4.09813C16.6381 4.01033 16.5339 3.94067 16.4191 3.89313C16.3044 3.8456 16.1813 3.82114 16.0571 3.82114C15.9329 3.82114 15.8098 3.8456 15.6951 3.89313C15.5803 3.94067 15.4761 4.01033 15.3883 4.09813Z" fill="white"/>
</svg>
