<svg width="17" height="19" viewBox="0 0 17 19" fill="none" xmlns="http://www.w3.org/2000/svg">
<path d="M17 1.58352V17.4169C16.9995 17.8366 16.8366 18.2391 16.5468 18.5359C16.2571 18.8327 15.8643 18.9997 15.4545 19.0002H11.9773C11.5675 18.9997 11.1747 18.8327 10.885 18.5359C10.5953 18.2391 10.4323 17.8366 10.4318 17.4169V1.58352C10.4323 1.16374 10.5953 0.76129 10.885 0.464461C11.1747 0.167632 11.5675 0.00066319 11.9773 0.000183105H15.4545C15.8643 0.00066319 16.2571 0.167632 16.5468 0.464461C16.8366 0.76129 16.9995 1.16374 17 1.58352ZM5.02273 0.000183105H1.54545C1.13572 0.00066319 0.742898 0.167632 0.453171 0.464461C0.163443 0.76129 0.000468599 1.16374 0 1.58352V17.4169C0.000468599 17.8366 0.163443 18.2391 0.453171 18.5359C0.742898 18.8327 1.13572 18.9997 1.54545 19.0002H5.02273C5.43246 18.9997 5.82528 18.8327 6.11501 18.5359C6.40474 18.2391 6.56771 17.8366 6.56818 17.4169V1.58352C6.56771 1.16374 6.40474 0.76129 6.11501 0.464461C5.82528 0.167632 5.43246 0.00066319 5.02273 0.000183105Z" fill="white"/>
</svg>
