<svg width="26" height="18" viewBox="0 0 26 18" fill="none" xmlns="http://www.w3.org/2000/svg">
<path fill-rule="evenodd" clip-rule="evenodd" d="M11.2534 0.23521C11.4132 0.312086 11.5482 0.432402 11.6426 0.582349C11.7371 0.732295 11.7873 0.905793 11.7875 1.08293V16.1535C11.7872 16.3307 11.7369 16.5043 11.6422 16.6542C11.5475 16.8042 11.4124 16.9244 11.2524 17.0012C11.0923 17.0779 10.9138 17.108 10.7374 17.088C10.5609 17.068 10.3938 16.9987 10.255 16.8881L5.79539 13.3277H1.4075C1.15723 13.3277 0.917216 13.2285 0.740251 13.0519C0.563285 12.8752 0.463867 12.6356 0.463867 12.3858V4.85056C0.463867 4.60075 0.563285 4.36117 0.740251 4.18453C0.917216 4.00789 1.15723 3.90865 1.4075 3.90865H5.79539L10.255 0.348239C10.3938 0.237447 10.5612 0.168057 10.7379 0.148061C10.9145 0.128064 11.0932 0.158273 11.2534 0.23521Z" fill="white"/>
<path fill-rule="evenodd" clip-rule="evenodd" d="M15.6743 5.58923C15.5502 5.58908 15.4273 5.61336 15.3126 5.66069C15.1979 5.70803 15.0937 5.77748 15.006 5.86508C14.9182 5.95267 14.8486 6.05669 14.8012 6.17117C14.7538 6.28565 14.7294 6.40834 14.7296 6.53222L14.7296 11.1991C14.7296 11.3229 14.754 11.4456 14.8015 11.56C14.849 11.6744 14.9186 11.7783 15.0063 11.8659C15.094 11.9535 15.1982 12.0229 15.3128 12.0703C15.4274 12.1177 15.5503 12.1421 15.6743 12.1421C15.7984 12.1421 15.9212 12.1177 16.0358 12.0703C16.1505 12.0229 16.2546 11.9535 16.3423 11.8659C16.4301 11.7783 16.4996 11.6744 16.5471 11.56C16.5946 11.4456 16.619 11.3229 16.619 11.1991L16.619 6.53222C16.6192 6.40834 16.5949 6.28565 16.5474 6.17117C16.5 6.05669 16.4304 5.95267 16.3427 5.86508C16.2549 5.77748 16.1507 5.70803 16.036 5.66069C15.9213 5.61336 15.7984 5.58908 15.6743 5.58923Z" fill="white"/>
<path fill-rule="evenodd" clip-rule="evenodd" d="M19.6743 3.59286C19.5502 3.59271 19.4273 3.61699 19.3126 3.66433C19.1979 3.71166 19.0937 3.78111 19.006 3.86871C18.9182 3.95631 18.8486 4.06032 18.8012 4.1748C18.7538 4.28928 18.7294 4.41197 18.7296 4.53585L18.7296 13.195C18.7296 13.3188 18.754 13.4414 18.8015 13.5558C18.849 13.6702 18.9186 13.7742 19.0063 13.8618C19.094 13.9493 19.1982 14.0188 19.3128 14.0662C19.4274 14.1136 19.5503 14.1379 19.6743 14.1379C19.7984 14.1379 19.9212 14.1136 20.0358 14.0662C20.1505 14.0188 20.2546 13.9493 20.3423 13.8618C20.4301 13.7742 20.4996 13.6702 20.5471 13.5558C20.5946 13.4414 20.619 13.3188 20.619 13.195L20.619 4.53585C20.6192 4.41197 20.5949 4.28928 20.5474 4.1748C20.5 4.06032 20.4304 3.95631 20.3427 3.86871C20.2549 3.78111 20.1507 3.71166 20.036 3.66433C19.9213 3.61699 19.7984 3.59271 19.6743 3.59286Z" fill="white"/>
</svg>
