<svg width="90" height="28" viewBox="0 0 90 28" fill="none" xmlns="http://www.w3.org/2000/svg">
<path d="M9.47893 8.86766C9.38057 8.82976 9.27406 8.81697 9.16931 8.83049C6.56255 8.82932 3.95572 8.829 1.34882 8.82952C1.03842 8.82952 1.03783 8.82952 1.03783 8.53423C1.03783 7.80947 1.04236 7.08472 1.03428 6.36015C1.03231 6.18995 1.07879 6.13283 1.25921 6.1338C5.30007 6.15032 9.34086 6.16252 13.3816 6.1704C13.5392 6.1704 13.5908 6.21997 13.589 6.37429C13.5823 6.98693 13.5848 7.59958 13.5876 8.21242C13.5912 8.31789 13.5538 8.42075 13.4828 8.49996C13.0137 9.04212 12.5587 9.59532 12.0772 10.1265C11.8188 10.4109 11.5546 10.6913 11.3175 10.992C10.3373 12.2351 9.27094 13.4077 8.24855 14.6161C7.4562 15.5524 6.66148 16.4872 5.84747 17.4056C5.56622 17.7229 5.28713 18.0419 5.01021 18.3625C4.97338 18.4051 4.8944 18.4462 4.92296 18.5042C4.95487 18.5701 5.04251 18.5408 5.10554 18.5412C5.97661 18.5469 6.84774 18.551 7.71894 18.5536C9.67536 18.559 11.6318 18.5638 13.5882 18.5679C13.8499 18.5679 13.8503 18.5697 13.8503 18.8237C13.8503 19.5617 13.8444 20.2996 13.8547 21.0371C13.857 21.2145 13.8019 21.2573 13.628 21.2565C9.92221 21.2407 6.21656 21.2284 2.51105 21.2195C2.00192 21.2182 1.4924 21.2133 0.983271 21.2195C0.832207 21.2214 0.770954 21.1864 0.773514 21.0232C0.782574 20.3976 0.779423 19.7714 0.77509 19.145C0.774255 19.0401 0.815104 18.9391 0.88893 18.8634C1.82447 17.7878 2.78088 16.7287 3.68372 15.6269C5.14946 13.8374 6.68768 12.1088 8.19005 10.3501C8.61075 9.85769 9.03046 9.36413 9.47932 8.86747" fill="#F9C067"/>
<path d="M54.3458 10.5229V20.7419C54.3458 21.0182 54.3458 21.0186 54.0634 21.0188C53.1253 21.0188 52.1868 21.0143 51.2487 21.0226C51.0639 21.0244 51.0107 20.9708 51.0107 20.7891C51.0149 13.9368 51.0149 7.08458 51.0107 0.232402C51.0107 0.0465171 51.0708 4.58363e-05 51.2514 0.00120762C52.2031 0.00856556 53.1547 0.0081783 54.1061 4.58364e-05C54.303 -0.00189046 54.3501 0.0571667 54.3497 0.244601C54.3443 3.67056 54.343 7.09665 54.3456 10.5229" fill="#F9C067"/>
<path d="M48.5141 6.14863C48.0541 7.45292 47.4977 8.72004 46.9789 10.0019C45.9864 12.4545 44.9888 14.9051 43.9861 17.3536C43.1803 19.3248 42.3713 21.2948 41.5591 23.2638C41.5394 23.312 41.5124 23.3577 41.4887 23.4042C41.3694 23.6974 41.2227 23.9793 41.0507 24.2461C40.6823 24.8875 40.1642 25.4338 39.5391 25.8398C38.9139 26.2459 38.1996 26.5001 37.4549 26.5816C36.1569 26.7845 34.8284 26.5074 33.7261 25.8036C33.5459 25.6874 33.4029 25.5296 33.2259 25.4111C33.1215 25.3412 33.1963 25.2719 33.2312 25.2084C33.6059 24.5263 33.9821 23.8447 34.3595 23.1637C34.5266 22.8624 34.5297 22.8604 34.8145 23.0442C35.2759 23.3658 35.8183 23.5564 36.3825 23.5953C37.3503 23.6379 38.0729 23.2179 38.5821 22.4279C38.8683 21.9218 39.1234 21.3993 39.3461 20.8632C39.3904 20.7714 39.3449 20.6982 39.3112 20.62C38.0376 17.6483 36.7642 14.6764 35.4913 11.7043C34.8543 10.2178 34.2089 8.73534 33.5826 7.24497C33.4201 6.85771 33.2897 6.45747 33.1156 6.07428C33.0468 5.92344 33.155 5.94319 33.2389 5.94261C33.6611 5.94106 34.0834 5.94261 34.5053 5.94145C35.082 5.94145 35.6581 5.94977 36.2344 5.9368C36.309 5.92675 36.3847 5.94478 36.4464 5.98729C36.5081 6.02981 36.5512 6.09366 36.567 6.16606C37.0603 7.4182 37.5593 8.66815 38.0639 9.9159C38.9934 12.2299 39.9247 14.5428 40.8579 16.8546C40.9182 17.0049 40.8945 17.1838 41.0352 17.3267C41.1616 16.9993 41.2841 16.6827 41.4068 16.3655C41.8343 15.2085 42.2621 14.0513 42.6902 12.8937C42.9949 12.0718 43.3013 11.2503 43.6094 10.429C44.1473 8.99751 44.6887 7.56775 45.2218 6.1345C45.2365 6.07175 45.2747 6.01671 45.3287 5.98031C45.3827 5.94391 45.4487 5.92879 45.5135 5.93796C46.465 5.94513 47.4163 5.94106 48.3682 5.94203C48.5886 5.94203 48.5849 5.94745 48.5141 6.14863Z" fill="#F9C067"/>
<path d="M89.4772 10.0469C88.7644 8.0173 87.3643 6.70081 85.26 6.11837C84.5998 5.94279 83.92 5.84816 83.2361 5.83664C81.3763 5.78611 79.633 6.14413 78.097 7.24821C76.959 8.06576 76.0878 9.19139 75.5897 10.4876C75.2257 11.4328 75.0457 12.4369 75.0593 13.4475C75.0593 14.9678 75.3451 16.4162 76.1806 17.7296C76.869 18.8625 77.8842 19.7689 79.0973 20.3339C81.2797 21.3239 83.5347 21.3776 85.8135 20.6894C87.0485 20.3138 88.1666 19.6365 89.0632 18.721C89.1761 18.6079 89.1901 18.5428 89.0703 18.4236C88.5527 17.9088 88.0419 17.3876 87.5378 16.86C87.4366 16.7545 87.384 16.8077 87.3143 16.8794C86.7972 17.3683 86.1885 17.7539 85.522 18.0148C84.5641 18.4265 83.5103 18.5738 82.4737 18.4408C81.3348 18.3358 80.2761 17.8192 79.5022 16.9911C79.0034 16.4356 78.6452 15.7722 78.4566 15.0548C78.3719 14.7591 78.3745 14.756 78.6807 14.756H89.5956C89.6693 14.756 89.7429 14.7533 89.8168 14.7539C89.9164 14.7549 89.9546 14.7099 89.9604 14.61C90.0606 13.0623 89.998 11.5323 89.4768 10.0479M86.8648 12.3521H82.6852C81.3186 12.3521 79.952 12.3521 78.5854 12.3521C78.3236 12.3521 78.3219 12.3507 78.3687 12.106C78.4601 11.5658 78.6484 11.0458 78.9248 10.5703C79.2408 10.0203 79.6814 9.54932 80.2126 9.19387C80.7437 8.83842 81.3511 8.60808 81.9874 8.52074C82.8307 8.38562 83.6948 8.45237 84.5063 8.71534C85.195 8.94692 85.7965 9.37757 86.232 9.95089C86.7622 10.6127 86.9737 11.3799 87.0499 12.1991C87.0647 12.3581 86.969 12.3515 86.8644 12.3515" fill="#F9C067"/>
<path d="M71.6251 10.0473C70.9123 8.01751 69.5129 6.70121 67.4079 6.11935C66.7475 5.94375 66.0676 5.84912 65.3836 5.83762C63.5237 5.78708 61.7807 6.1451 60.2444 7.24918C59.1064 8.06674 58.2352 9.19236 57.7372 10.4886C57.3731 11.4338 57.1932 12.4379 57.2068 13.4484C57.2068 14.9688 57.4924 16.4172 58.328 17.7306C59.0165 18.8635 60.0316 19.7699 61.2448 20.3349C63.4272 21.3249 65.6824 21.3786 67.9609 20.6904C69.196 20.3147 70.314 19.6375 71.2107 18.722C71.3234 18.6089 71.3375 18.5438 71.2178 18.4245C70.7003 17.9097 70.1895 17.3886 69.6853 16.861C69.5842 16.7554 69.5317 16.8087 69.4617 16.8803C68.9447 17.3693 68.336 17.7549 67.6694 18.0158C66.7116 18.4275 65.6578 18.5748 64.6212 18.4418C63.4822 18.3368 62.4234 17.8202 61.6495 16.9921C61.1507 16.4366 60.7924 15.7732 60.6039 15.0558C60.5192 14.7601 60.5215 14.757 60.828 14.757H71.7429C71.8165 14.757 71.8902 14.7543 71.9639 14.7549C72.0635 14.7558 72.1017 14.7109 72.1072 14.611C72.2077 13.0633 72.1451 11.5332 71.6237 10.0489M69.0117 12.3531H64.8329C63.4663 12.3531 62.0997 12.3531 60.7333 12.3531C60.4713 12.3531 60.4695 12.3517 60.5166 12.107C60.6079 11.5667 60.7962 11.0468 61.0726 10.5713C61.3887 10.0213 61.8295 9.55037 62.3607 9.19498C62.8919 8.8396 63.4993 8.60935 64.1357 8.52211C64.979 8.38699 65.843 8.45374 66.6545 8.7167C67.3433 8.94826 67.9449 9.37891 68.3805 9.95226C68.9107 10.6141 69.1222 11.3812 69.1984 12.2005C69.2132 12.3595 69.1177 12.3529 69.0129 12.3529" fill="#F9C067"/>
<path d="M31.1152 10.0655C30.481 8.82355 29.5281 7.76581 28.3507 6.99686C27.8006 6.62054 27.1966 6.32688 26.5584 6.12552C26.3325 6.05756 26.1072 5.98766 25.8805 5.92182C25.449 5.81314 25.0103 5.73434 24.5676 5.68598C24.098 5.65676 23.6269 5.65676 23.1572 5.68598C23.1313 5.68088 23.1049 5.67848 23.0785 5.67882C21.3643 5.82677 19.7461 6.52077 18.4697 7.65539C17.6194 8.40455 16.9305 9.31376 16.4438 10.3292C15.8119 11.6413 15.5803 13.1052 15.7771 14.544C15.9381 15.6119 16.253 16.6518 16.7125 17.6324C17.2886 18.8851 17.9561 20.0952 18.7098 21.2533C19.7903 22.9105 21.0001 24.4827 22.3283 25.9558C22.7222 26.4045 23.1215 26.8482 23.5261 27.287C23.5613 27.3381 23.6086 27.3802 23.6639 27.4096C23.7192 27.4389 23.7808 27.4547 23.8437 27.4555C23.9065 27.4564 23.9686 27.4423 24.0247 27.4145C24.0808 27.3866 24.1292 27.3459 24.1658 27.2957C24.2318 27.2298 24.297 27.1636 24.3593 27.0949C25.0054 26.4193 25.6138 25.7099 26.1819 24.9696C26.3215 24.8296 26.4494 24.6788 26.5646 24.5186C26.5969 24.4853 26.6317 24.4545 26.6607 24.4185C27.7027 23.147 28.659 21.8098 29.5236 20.4156C30.3837 19.0009 31.1611 17.5474 31.6263 15.9526C32.2172 13.9269 32.099 11.96 31.116 10.0663M28.3348 17.3979C27.9047 17.8957 27.3881 18.3145 26.809 18.6346C26.7105 18.6888 26.614 18.7486 26.5167 18.8056C25.9719 19.074 25.3888 19.2598 24.7874 19.3566C23.8779 19.5026 22.9463 19.4374 22.067 19.1662C21.1877 18.895 20.3851 18.4254 19.7233 17.7948C19.3595 17.4832 19.0506 17.1145 18.8091 16.7037C17.8219 14.9051 17.6423 13.0528 18.5294 11.1719C19.4653 9.1874 21.115 8.16406 23.2851 7.88736C23.3178 7.8816 23.3502 7.87404 23.3822 7.86471C23.7027 7.81794 24.0289 7.82449 24.3472 7.88407C24.8677 7.93254 25.3801 8.04381 25.8728 8.21537C26.0679 8.31175 26.2694 8.39508 26.4759 8.46477C27.0177 8.75282 27.5192 9.10863 27.9681 9.52334C30.2226 11.6498 30.2904 15.1498 28.335 17.3969" fill="#F9C067"/>
</svg>
