<svg width="105" height="104" viewBox="0 0 105 104" fill="none" xmlns="http://www.w3.org/2000/svg">
<g id="star">
<path id="Star 1" d="M45.1239 8.40499C49.7087 4.80356 56.1965 4.93241 60.6347 8.71303L62.6676 10.4448C65.3841 12.7588 68.8058 14.0817 72.3724 14.1969L75.0416 14.2831C80.8687 14.4713 85.7558 18.7402 86.7255 24.4892L87.1697 27.1225C87.7632 30.6413 89.5341 33.8541 92.1922 36.2349L94.1814 38.0167C98.5243 41.9064 99.524 48.318 96.5715 53.3453L95.2191 55.648C93.412 58.7251 92.7033 62.3246 93.2092 65.857L93.5878 68.5005C94.4143 74.2718 91.0589 79.8259 85.5657 81.7792L83.0495 82.6739C79.6873 83.8695 76.8307 86.1713 74.9476 89.2025L73.5384 91.4709C70.4619 96.4233 64.3213 98.5211 58.8577 96.4865L56.3551 95.5545C53.011 94.3091 49.3431 94.2363 45.9522 95.3479L43.4146 96.1798C37.8745 97.9959 31.8221 95.6559 28.9446 90.5853L27.6265 88.2627C25.8653 85.1592 23.1024 82.7457 19.7903 81.4176L17.3116 80.4237C11.9003 78.2539 8.76797 72.5709 9.82299 66.837L10.3062 64.2106C10.952 60.701 10.3868 57.0762 8.70326 53.9299L7.44335 51.5752C4.69278 46.4347 5.94625 40.0679 10.4401 36.3536L12.4986 34.6523C15.2491 32.3789 17.1461 29.2388 17.8789 25.7464L18.4273 23.1328C19.6245 17.4269 24.6772 13.3553 30.5072 13.3987L33.1777 13.4185C36.746 13.445 40.2176 12.259 43.0238 10.0546L45.1239 8.40499Z" stroke="#2C3441" stroke-width="3.5"/>
<path id="Union 1" d="M35.422 63.2323L44.0207 54.9717L50.039 55.0204L49.8677 61.0132L41.289 69.2607L35.2567 69.2029L35.422 63.2323ZM36.1783 34.9265L70.5423 35.248L69.6295 69.525L52.748 69.3652L53.2104 52.025L35.725 51.8587L36.1783 34.9265Z" fill="#EB7373"/>
</g>
</svg>
