<svg width="107" height="106" viewBox="0 0 107 106" fill="none" xmlns="http://www.w3.org/2000/svg">
<g id="star">
<path id="Star 1" d="M43.4489 9.53939C47.7972 5.65562 54.2801 5.37453 58.9482 8.86735L61.0864 10.4672C63.9436 12.6051 67.4421 13.7093 71.0088 13.599L73.6781 13.5165C79.5055 13.3364 84.6524 17.2882 85.9832 22.9644L86.5928 25.5645C87.4073 29.0387 89.3775 32.1334 92.1807 34.3416L94.2785 35.9941C98.8583 39.6019 100.261 45.9375 97.6317 51.1412L96.4274 53.5247C94.8182 56.7098 94.3383 60.3468 95.0662 63.8402L95.611 66.4546C96.8003 72.1622 93.8023 77.9171 88.4434 80.2134L85.9887 81.2652C82.7087 82.6707 80.0032 85.1483 78.3153 88.2923L77.0521 90.6452C74.2945 95.782 68.2986 98.2634 62.7174 96.5778L60.161 95.8057C56.7449 94.774 53.0798 94.9329 49.7658 96.2565L47.2858 97.2469C41.8715 99.4093 35.6833 97.4561 32.4914 92.5774L31.0293 90.3427C29.0756 87.3565 26.1658 85.1223 22.7764 84.0061L20.2399 83.1707C14.7024 81.3469 11.2175 75.873 11.9083 70.0839L12.2248 67.4322C12.6476 63.8889 11.8546 60.307 9.97577 57.2733L8.56968 55.0029C5.49999 50.0463 6.34891 43.613 10.5993 39.6224L12.5462 37.7945C15.1477 35.3519 16.8426 32.0984 17.3534 28.5667L17.7356 25.9236C18.5701 20.1535 23.3557 15.771 29.1768 15.4461L31.8431 15.2973C35.406 15.0984 38.7958 13.6955 41.4572 11.3184L43.4489 9.53939Z" stroke="#2C3441" stroke-width="3.5"/>
<path id="Union 1" d="M50.6812 73.1737L50.167 61.2611L54.182 56.7776L58.5654 60.8675L59.083 72.7565L55.052 77.2447L50.6812 73.1737ZM29.942 53.8949L52.8994 28.3225L78.0156 51.666L66.7363 64.2273L54.0308 52.4178L42.3474 65.4279L29.942 53.8949Z" fill="#EB7373"/>
</g>
</svg>
