<svg width="430" height="518" viewBox="0 0 430 518" fill="none" xmlns="http://www.w3.org/2000/svg">
<rect width="430" height="517.825" rx="10" fill="#FAF1E9"/>
<mask id="mask0_1770_45427" style="mask-type:alpha" maskUnits="userSpaceOnUse" x="0" y="0" width="430" height="518">
<rect width="430" height="518" rx="10" fill="#FAF1E9"/>
</mask>
<g mask="url(#mask0_1770_45427)">
<g opacity="0.5">
<rect x="-0.2922" y="-0.643909" width="391.214" height="314.131" transform="matrix(0.351709 -0.936109 -0.936109 -0.351709 318.589 286.231)" stroke="#FFA111"/>
<rect x="-0.2922" y="-0.643909" width="391.214" height="291.46" transform="matrix(0.351709 -0.936109 -0.936109 -0.351709 307.98 282.243)" stroke="#FFA111"/>
<rect x="-0.2922" y="-0.643909" width="368.542" height="291.46" transform="matrix(0.351709 -0.936109 -0.936109 -0.351709 311.964 271.633)" stroke="#FFA111"/>
<rect x="-0.2922" y="-0.643909" width="368.542" height="268.789" transform="matrix(0.351709 -0.936109 -0.936109 -0.351709 301.355 267.646)" stroke="#FFA111"/>
<rect x="-0.2922" y="-0.643909" width="345.871" height="268.789" transform="matrix(0.351709 -0.936109 -0.936109 -0.351709 305.339 257.034)" stroke="#FFA111"/>
<rect x="-0.2922" y="-0.643909" width="345.871" height="246.117" transform="matrix(0.351709 -0.936109 -0.936109 -0.351709 294.73 253.047)" stroke="#FFA111"/>
<rect x="-0.2922" y="-0.643909" width="323.2" height="246.117" transform="matrix(0.351709 -0.936109 -0.936109 -0.351709 298.714 242.437)" stroke="#FFA111"/>
<rect x="-0.2922" y="-0.643909" width="323.2" height="223.446" transform="matrix(0.351709 -0.936109 -0.936109 -0.351709 288.105 238.449)" stroke="#FFA111"/>
<rect x="-0.2922" y="-0.643909" width="300.528" height="223.446" transform="matrix(0.351709 -0.936109 -0.936109 -0.351709 292.089 227.838)" stroke="#FFA111"/>
<rect x="-0.2922" y="-0.643909" width="299.935" height="202.726" transform="matrix(0.351709 -0.936109 -0.936109 -0.351709 282.738 223.93)" stroke="#FFA111"/>
<rect x="-0.2922" y="-0.643909" width="279.252" height="202.726" transform="matrix(0.351709 -0.936109 -0.936109 -0.351709 286.371 214.249)" stroke="#FFA111"/>
<rect x="-0.2922" y="-0.643909" width="279.252" height="182.043" transform="matrix(0.351709 -0.936109 -0.936109 -0.351709 276.695 210.612)" stroke="#FFA111"/>
<rect x="-0.2922" y="-0.643909" width="258.569" height="182.043" transform="matrix(0.351709 -0.936109 -0.936109 -0.351709 280.328 200.931)" stroke="#FFA111"/>
<rect x="-0.2922" y="-0.643909" width="258.569" height="161.36" transform="matrix(0.351709 -0.936109 -0.936109 -0.351709 270.652 197.294)" stroke="#FFA111"/>
<rect x="-0.2922" y="-0.643909" width="237.887" height="161.36" transform="matrix(0.351709 -0.936109 -0.936109 -0.351709 274.289 187.613)" stroke="#FFA111"/>
<rect x="-0.2922" y="-0.643909" width="237.887" height="140.677" transform="matrix(0.351709 -0.936109 -0.936109 -0.351709 264.605 183.976)" stroke="#FFA111"/>
<rect x="-0.2922" y="-0.643909" width="217.204" height="140.677" transform="matrix(0.351709 -0.936109 -0.936109 -0.351709 268.242 174.295)" stroke="#FFA111"/>
<rect x="-0.2922" y="-0.643909" width="217.204" height="119.994" transform="matrix(0.351709 -0.936109 -0.936109 -0.351709 258.562 170.658)" stroke="#FFA111"/>
<rect x="-0.2922" y="-0.643909" width="196.521" height="119.994" transform="matrix(0.351709 -0.936109 -0.936109 -0.351709 262.199 160.978)" stroke="#FFA111"/>
<rect x="-0.2922" y="-0.643909" width="196.521" height="99.3117" transform="matrix(0.351709 -0.936109 -0.936109 -0.351709 252.519 157.341)" stroke="#FFA111"/>
<rect x="-0.2922" y="-0.643909" width="175.838" height="99.3117" transform="matrix(0.351709 -0.936109 -0.936109 -0.351709 256.156 147.66)" stroke="#FFA111"/>
<rect x="-0.2922" y="-0.643909" width="413.885" height="314.131" transform="matrix(0.351709 -0.936109 -0.936109 -0.351709 314.605 296.843)" stroke="#FFA111"/>
<rect opacity="0.9" x="-0.2922" y="-0.643909" width="413.885" height="336.803" transform="matrix(0.351709 -0.936109 -0.936109 -0.351709 325.214 300.83)" stroke="#FFA111"/>
<rect opacity="0.9" x="-0.2922" y="-0.643909" width="436.556" height="336.803" transform="matrix(0.351709 -0.936109 -0.936109 -0.351709 321.226 311.441)" stroke="#FFA111"/>
<rect opacity="0.8" x="-0.2922" y="-0.643909" width="436.556" height="359.474" transform="matrix(0.351709 -0.936109 -0.936109 -0.351709 331.839 315.428)" stroke="#FFA111"/>
<rect opacity="0.8" x="-0.2922" y="-0.643909" width="459.228" height="359.474" transform="matrix(0.351709 -0.936109 -0.936109 -0.351709 327.851 326.038)" stroke="#FFA111"/>
<rect opacity="0.7" x="-0.2922" y="-0.643909" width="459.228" height="382.145" transform="matrix(0.351709 -0.936109 -0.936109 -0.351709 338.464 330.026)" stroke="#FFA111"/>
<rect opacity="0.7" x="-0.2922" y="-0.643909" width="481.899" height="382.145" transform="matrix(0.351709 -0.936109 -0.936109 -0.351709 334.476 340.637)" stroke="#FFA111"/>
<rect opacity="0.6" x="-0.2922" y="-0.643909" width="481.899" height="404.816" transform="matrix(0.351709 -0.936109 -0.936109 -0.351709 345.089 344.624)" stroke="#FFA111"/>
<rect opacity="0.6" x="-0.2922" y="-0.643909" width="504.57" height="404.816" transform="matrix(0.351709 -0.936109 -0.936109 -0.351709 341.101 355.235)" stroke="#FFA111"/>
<rect opacity="0.5" x="-0.2922" y="-0.643909" width="504.57" height="427.488" transform="matrix(0.351709 -0.936109 -0.936109 -0.351709 351.714 359.222)" stroke="#FFA111"/>
<rect opacity="0.5" x="-0.2922" y="-0.643909" width="527.242" height="427.488" transform="matrix(0.351709 -0.936109 -0.936109 -0.351709 347.726 369.834)" stroke="#FFA111"/>
<rect opacity="0.4" x="-0.2922" y="-0.643909" width="527.242" height="450.159" transform="matrix(0.351709 -0.936109 -0.936109 -0.351709 358.336 373.82)" stroke="#FFA111"/>
<rect opacity="0.4" x="-0.2922" y="-0.643909" width="549.913" height="450.159" transform="matrix(0.351709 -0.936109 -0.936109 -0.351709 354.351 384.432)" stroke="#FFA111"/>
<rect opacity="0.3" x="-0.2922" y="-0.643909" width="549.913" height="472.83" transform="matrix(0.351709 -0.936109 -0.936109 -0.351709 364.961 388.419)" stroke="#FFA111"/>
<rect opacity="0.3" x="-0.2922" y="-0.643909" width="572.584" height="472.83" transform="matrix(0.351709 -0.936109 -0.936109 -0.351709 360.976 399.03)" stroke="#FFA111"/>
<rect opacity="0.2" x="-0.2922" y="-0.643909" width="572.584" height="495.502" transform="matrix(0.351709 -0.936109 -0.936109 -0.351709 371.586 403.017)" stroke="#FFA111"/>
<rect opacity="0.2" x="-0.2922" y="-0.643909" width="595.255" height="495.502" transform="matrix(0.351709 -0.936109 -0.936109 -0.351709 367.601 413.628)" stroke="#FFA111"/>
<rect opacity="0.1" x="-0.2922" y="-0.643909" width="595.255" height="518.173" transform="matrix(0.351709 -0.936109 -0.936109 -0.351709 378.211 417.615)" stroke="#FFA111"/>
</g>
</g>
</svg>
