<svg width="175" height="29" viewBox="0 0 175 29" fill="none" xmlns="http://www.w3.org/2000/svg">
<path d="M23.0374 3.12495C23.3446 2.79217 23.5135 2.35411 23.5096 1.90033C23.5096 1.39942 23.3114 0.919012 22.9588 0.56481C22.6061 0.210607 22.1278 0.0117187 21.629 0.0117187L9.94963 0.0753036C8.07028 0.0754298 6.22936 0.609917 4.6398 1.61687C3.05024 2.62383 1.77699 4.0621 0.967312 5.76542C0.15763 7.46874 -0.155401 9.36745 0.064436 11.242C0.284273 13.1165 1.02799 14.8901 2.20956 16.3579L5.72032 20.1106L23.0374 3.12495Z" fill="url(#paint0_linear_3446_58663)"/>
<path d="M0.728893 25.0307C0.519599 25.1976 0.349584 25.409 0.231014 25.6495C0.112443 25.8901 0.048235 26.1539 0.0429688 26.4223C0.0434935 26.9209 0.241166 27.3989 0.592514 27.7512C0.943863 28.1035 1.42013 28.3014 1.91662 28.3012L13.5218 28.3101C15.4071 28.3138 17.2545 27.7778 18.8475 26.7649C20.4405 25.7521 21.7131 24.3043 22.5163 22.5911C23.3194 20.878 23.6199 18.9705 23.3825 17.092C23.1451 15.2136 22.3796 13.4419 21.1757 11.9846C21.1757 11.9846 19.5 9.99058 17.7461 8.30664L0.728893 25.0307Z" fill="url(#paint1_linear_3446_58663)"/>
<path d="M23.0372 3.1193C23.2712 2.8457 23.4223 2.51051 23.4727 2.15339C23.523 1.79627 23.4705 1.43233 23.3213 1.10424C23.1721 0.776152 22.9325 0.497812 22.6308 0.302149C22.3291 0.106487 21.978 0.00157333 21.6189 0L13.9718 0.104357C12.8225 0.104673 11.6937 0.41084 10.7002 0.99139C9.70676 1.57194 8.88411 2.40614 8.31588 3.40955C7.74766 4.41297 7.45413 5.54977 7.46514 6.70407C7.47616 7.85837 7.79133 8.98907 8.37861 9.98136C9.05943 11.2064 9.90469 12.3316 10.8907 13.3254L11.7221 14.2199L23.0372 3.1193Z" fill="url(#paint2_linear_3446_58663)"/>
<path d="M0.683203 25.0709C0.394443 25.3226 0.188913 25.6566 0.0940121 26.0286C-0.000888471 26.4005 0.0193485 26.7926 0.152022 27.1527C0.284695 27.5128 0.523504 27.8238 0.836617 28.0441C1.14973 28.2644 1.52227 28.3835 1.90458 28.3858L9.53775 28.3324C11.2724 28.3122 12.929 27.605 14.1473 26.3647C15.3656 25.1244 16.0471 23.4512 16.0436 21.7089C16.0456 20.2566 15.5637 18.8454 14.6747 17.6999C13.7859 16.4618 12.7985 15.2983 11.7222 14.2207L0.683203 25.0709Z" fill="url(#paint3_linear_3446_58663)"/>
<path d="M0.683203 25.0705C0.394443 25.3221 0.188913 25.6562 0.0940121 26.0281C-0.000888467 26.4001 0.0193485 26.7922 0.152022 27.1523C0.284695 27.5124 0.523504 27.8236 0.836617 28.0439C1.14973 28.2643 1.52227 28.3834 1.90458 28.3856L3.55059 28.3997C4.69374 28.3843 5.78455 27.9156 6.58569 27.0965C7.38683 26.2773 7.83346 25.1736 7.8284 24.0255C7.82995 23.0259 7.4837 22.0573 6.84951 21.2869L5.72414 20.1152L0.683203 25.0705Z" fill="url(#paint4_linear_3446_58663)"/>
<path d="M23.0575 3.13786C23.2911 2.8643 23.4419 2.5293 23.4921 2.17244C23.5423 1.81557 23.4898 1.45164 23.3408 1.12377C23.1918 0.795904 22.9525 0.517853 22.6511 0.322166C22.3498 0.126479 21.9989 0.0214545 21.6401 0.0195312L19.9703 0.0542359C18.8244 0.0743381 17.7324 0.546491 16.9302 1.36865C16.1281 2.1908 15.6803 3.29709 15.6836 4.44814C15.6824 5.32548 15.9491 6.18209 16.4477 6.90247C16.8318 7.41453 17.2687 7.88427 17.7512 8.304L23.0575 3.13786Z" fill="url(#paint5_linear_3446_58663)"/>
<path d="M41.4451 9.05194C40.4945 8.56046 39.4456 8.29131 38.3768 8.26466C37.7186 8.26466 36.5893 8.54884 36.5893 9.36695C36.5893 10.4684 38.3768 10.6265 39.1627 10.7835C41.8272 11.3193 43.8334 12.5788 43.8334 15.5689C43.8334 19.8195 39.9733 21.583 36.2468 21.583C33.9549 21.5743 31.7097 20.9316 29.7578 19.7252L31.8264 15.7262C33.1599 16.6646 34.718 17.2297 36.3408 17.3634C37.0624 17.3634 38.1284 17.0163 38.1284 16.1346C38.1284 14.8761 36.3408 14.8125 34.5543 14.3453C32.7677 13.8781 30.9802 12.9915 30.9802 10.0948C30.9802 6.12749 34.5543 4.3639 38.065 4.3639C39.8846 4.32732 41.691 4.68165 43.3633 5.40285L41.4451 9.05194Z" fill="#202124"/>
<path d="M63.8815 20.9593H58.413V19.2396H58.3536C57.8238 19.9717 57.1204 20.5595 56.3072 20.9496C55.494 21.3396 54.5967 21.5197 53.6967 21.4733C49.1299 21.4733 45.9141 17.6401 45.9141 13.2046C45.9141 8.76913 49.0695 4.96699 53.6343 4.96699C54.528 4.9436 55.4164 5.11172 56.2403 5.46038C57.0641 5.80903 57.8045 6.33014 58.412 6.98884V5.47979H63.8805L63.8815 20.9593ZM51.5627 13.2345C51.5933 14.1499 51.9769 15.0176 52.6325 15.6543C53.2881 16.291 54.1644 16.6469 55.0764 16.6469C55.9884 16.6469 56.8647 16.291 57.5203 15.6543C58.1759 15.0176 58.5595 14.1499 58.5901 13.2345C58.5595 12.319 58.1759 11.4513 57.5203 10.8146C56.8647 10.1779 55.9884 9.822 55.0764 9.822C54.1644 9.822 53.2881 10.1779 52.6325 10.8146C51.9769 11.4513 51.5933 12.319 51.5627 13.2345Z" fill="#202124"/>
<path d="M84.4313 19.4527C84.4313 26.0314 81.1868 28.6866 75.5075 28.6866C71.9621 28.6866 67.2151 26.8457 66.7341 22.772H72.8638C72.941 23.0298 73.072 23.268 73.2482 23.471C73.4243 23.6739 73.6415 23.8368 73.8852 23.9488C74.3723 24.1863 74.9066 24.3104 75.4481 24.3116C78.3927 24.3116 78.9638 22.3803 78.9638 19.8753V19.1516C78.3459 19.8356 77.5888 20.3784 76.7438 20.7429C75.8989 21.1073 74.9857 21.285 74.0664 21.2639C69.5599 21.2639 66.4648 17.8246 66.4648 13.3583C66.4648 8.83136 69.65 4.96948 74.3672 4.96948C75.2412 4.91955 76.1138 5.08907 76.906 5.46311C77.6982 5.83715 78.3851 6.4037 78.9044 7.11146H78.9648V5.48228H84.4333L84.4313 19.4527ZM72.1125 13.1156C72.1431 14.031 72.5267 14.8988 73.1823 15.5355C73.8379 16.1722 74.7142 16.5281 75.6262 16.5281C76.5382 16.5281 77.4145 16.1722 78.0701 15.5355C78.7257 14.8988 79.1093 14.031 79.1399 13.1156C79.1093 12.2002 78.7257 11.3327 78.0701 10.696C77.4145 10.0593 76.5382 9.70315 75.6262 9.70315C74.7142 9.70315 73.8379 10.0593 73.1823 10.696C72.5267 11.3327 72.1431 12.2002 72.1125 13.1156Z" fill="#202124"/>
<path d="M103.693 14.138L92.1844 14.138C92.1265 14.6036 92.1753 15.0764 92.3269 15.5202C92.4786 15.9639 92.7291 16.3669 93.0594 16.6987C93.3898 17.0304 93.7911 17.282 94.233 17.4343C94.6748 17.5866 95.1455 17.6355 95.609 17.5775C96.1345 17.6193 96.6608 17.5078 97.1246 17.2561C97.5884 17.0045 97.9698 16.6233 98.223 16.1589H103.481C103.29 16.9911 102.934 17.776 102.433 18.4659C101.932 19.1559 101.297 19.7366 100.566 20.173C99.0732 21.0518 97.3686 21.5008 95.6387 21.4712C90.5305 21.4712 86.7148 18.5736 86.7148 13.2326C86.7148 8.0734 90.2305 4.96484 95.2477 4.96484C100.593 4.96484 103.691 8.28413 103.691 13.5646L103.693 14.138ZM98.6149 10.97C98.4283 10.2689 98.0164 9.64925 97.4433 9.20731C96.8702 8.76537 96.1678 8.52584 95.4452 8.52584C94.7226 8.52584 94.0202 8.76537 93.4471 9.20731C92.8739 9.64925 92.4621 10.2689 92.2754 10.97H98.6149Z" fill="#202124"/>
<path d="M111.652 7.47147H111.713C112.228 6.64173 112.96 5.96962 113.829 5.52801C114.697 5.0864 115.67 4.89215 116.641 4.96642C120.787 4.96642 122.44 7.5918 122.44 11.3941V20.9599H116.968V13.4171C116.968 11.938 117.209 9.3414 114.505 9.3414C112.282 9.3414 111.65 11.0005 111.65 12.932V20.959H106.18V5.4785H111.648L111.652 7.47147Z" fill="#202124"/>
<path d="M141.884 14.138L130.376 14.138C130.318 14.6036 130.367 15.0764 130.518 15.5202C130.67 15.9639 130.92 16.3669 131.251 16.6987C131.581 17.0304 131.983 17.282 132.424 17.4343C132.866 17.5866 133.337 17.6355 133.8 17.5775C134.326 17.6193 134.852 17.5078 135.316 17.2561C135.78 17.0045 136.161 16.6233 136.414 16.1589H141.672C141.482 16.991 141.125 17.7758 140.624 18.4657C140.124 19.1556 139.489 19.7364 138.758 20.173C137.265 21.0519 135.56 21.5009 133.83 21.4712C128.722 21.4712 124.906 18.5736 124.906 13.2326C124.906 8.0734 128.422 4.96484 133.44 4.96484C138.785 4.96484 141.883 8.28413 141.883 13.5646L141.884 14.138ZM136.806 10.97C136.62 10.2689 136.208 9.64925 135.635 9.20731C135.062 8.76537 134.359 8.52584 133.637 8.52584C132.914 8.52584 132.212 8.76537 131.638 9.20731C131.065 9.64925 130.653 10.2689 130.467 10.97H136.806Z" fill="#202124"/>
<path d="M171.749 20.9588H166.281V10.0052H164.508V5.47833H166.281V0.832031L171.749 0.832031V5.47833L174.844 5.47833V10.0052H171.749V20.9588Z" fill="#202124"/>
<path d="M148.539 21.7773H148.896V23.8594H148.539V21.7773ZM148.539 20.9902H148.896V21.3887H148.539V20.9902ZM149.43 21.7676H149.764V22.0645C149.863 21.9421 149.967 21.8542 150.078 21.8008C150.189 21.7474 150.312 21.7207 150.447 21.7207C150.744 21.7207 150.945 21.8242 151.049 22.0312C151.106 22.1445 151.135 22.3066 151.135 22.5176V23.8594H150.777V22.541C150.777 22.4134 150.758 22.3105 150.721 22.2324C150.658 22.1022 150.545 22.0371 150.381 22.0371C150.298 22.0371 150.229 22.0456 150.176 22.0625C150.079 22.0911 149.995 22.1484 149.922 22.2344C149.863 22.3034 149.825 22.375 149.807 22.4492C149.79 22.5221 149.781 22.627 149.781 22.7637V23.8594H149.43V21.7676ZM151.744 21.4492C151.749 21.3034 151.775 21.1966 151.82 21.1289C151.902 21.0091 152.061 20.9492 152.295 20.9492C152.317 20.9492 152.34 20.9499 152.363 20.9512C152.387 20.9525 152.413 20.9544 152.443 20.957V21.2773C152.407 21.2747 152.38 21.2734 152.363 21.2734C152.348 21.2721 152.333 21.2715 152.318 21.2715C152.212 21.2715 152.148 21.2995 152.127 21.3555C152.106 21.4102 152.096 21.5508 152.096 21.7773H152.443V22.0547H152.092V23.8594H151.744V22.0547H151.453V21.7773H151.744V21.4492ZM153.6 23.6328C153.833 23.6328 153.992 23.5449 154.078 23.3691C154.165 23.1921 154.209 22.9954 154.209 22.7793C154.209 22.584 154.178 22.4251 154.115 22.3027C154.016 22.11 153.846 22.0137 153.604 22.0137C153.389 22.0137 153.232 22.0957 153.135 22.2598C153.037 22.4238 152.988 22.6217 152.988 22.8535C152.988 23.0762 153.037 23.2617 153.135 23.4102C153.232 23.5586 153.387 23.6328 153.6 23.6328ZM153.613 21.707C153.883 21.707 154.111 21.7969 154.297 21.9766C154.483 22.1562 154.576 22.4206 154.576 22.7695C154.576 23.1068 154.494 23.3854 154.33 23.6055C154.166 23.8255 153.911 23.9355 153.566 23.9355C153.279 23.9355 153.05 23.8385 152.881 23.6445C152.712 23.4492 152.627 23.1875 152.627 22.8594C152.627 22.5078 152.716 22.2279 152.895 22.0195C153.073 21.8112 153.312 21.707 153.613 21.707ZM155.066 21.1836H155.422V21.7676H155.756V22.0547H155.422V23.4199C155.422 23.4928 155.447 23.5417 155.496 23.5664C155.523 23.5807 155.569 23.5879 155.633 23.5879C155.65 23.5879 155.668 23.5879 155.688 23.5879C155.707 23.5866 155.73 23.5846 155.756 23.582V23.8594C155.715 23.8711 155.673 23.8796 155.629 23.8848C155.586 23.89 155.539 23.8926 155.488 23.8926C155.324 23.8926 155.213 23.8509 155.154 23.7676C155.096 23.6829 155.066 23.5736 155.066 23.4395V22.0547H154.783V21.7676H155.066V21.1836ZM156.98 21.7207C157.129 21.7207 157.273 21.7559 157.412 21.8262C157.551 21.8952 157.658 21.985 157.73 22.0957C157.801 22.2012 157.848 22.3242 157.871 22.4648C157.892 22.5612 157.902 22.7148 157.902 22.9258H156.369C156.376 23.138 156.426 23.3086 156.52 23.4375C156.613 23.5651 156.758 23.6289 156.955 23.6289C157.139 23.6289 157.285 23.5684 157.395 23.4473C157.457 23.377 157.501 23.2956 157.527 23.2031H157.873C157.864 23.2799 157.833 23.3659 157.781 23.4609C157.73 23.5547 157.673 23.6315 157.609 23.6914C157.503 23.7956 157.37 23.8659 157.213 23.9023C157.128 23.9232 157.033 23.9336 156.926 23.9336C156.665 23.9336 156.445 23.8392 156.264 23.6504C156.083 23.4603 155.992 23.1947 155.992 22.8535C155.992 22.5176 156.083 22.2448 156.266 22.0352C156.448 21.8255 156.686 21.7207 156.98 21.7207ZM157.541 22.6465C157.527 22.4941 157.493 22.3724 157.441 22.2812C157.345 22.112 157.184 22.0273 156.959 22.0273C156.798 22.0273 156.662 22.0859 156.553 22.2031C156.443 22.319 156.385 22.4668 156.379 22.6465H157.541ZM159.143 21.707C159.378 21.707 159.57 21.7643 159.717 21.8789C159.865 21.9935 159.954 22.1908 159.984 22.4707H159.643C159.622 22.3418 159.574 22.235 159.5 22.1504C159.426 22.0645 159.307 22.0215 159.143 22.0215C158.919 22.0215 158.758 22.1309 158.662 22.3496C158.6 22.4915 158.568 22.6667 158.568 22.875C158.568 23.0846 158.613 23.2611 158.701 23.4043C158.79 23.5475 158.929 23.6191 159.119 23.6191C159.265 23.6191 159.38 23.5749 159.465 23.4863C159.551 23.3965 159.61 23.2741 159.643 23.1191H159.984C159.945 23.3965 159.848 23.5996 159.691 23.7285C159.535 23.8561 159.335 23.9199 159.092 23.9199C158.818 23.9199 158.6 23.8203 158.438 23.6211C158.275 23.4206 158.193 23.1706 158.193 22.8711C158.193 22.5039 158.283 22.2181 158.461 22.0137C158.639 21.8092 158.867 21.707 159.143 21.707ZM160.336 20.9805H160.688V22.0508C160.771 21.9453 160.846 21.8711 160.912 21.8281C161.025 21.7539 161.167 21.7168 161.336 21.7168C161.639 21.7168 161.845 21.8229 161.953 22.0352C162.012 22.151 162.041 22.3118 162.041 22.5176V23.8594H161.68V22.541C161.68 22.3874 161.66 22.2747 161.621 22.2031C161.557 22.0885 161.438 22.0312 161.262 22.0312C161.116 22.0312 160.984 22.0814 160.865 22.1816C160.747 22.2819 160.688 22.4714 160.688 22.75V23.8594H160.336V20.9805Z" fill="#202124"/>
<path d="M142.726 5.5332H149.072L156.022 12.91C156.044 12.9271 156.062 12.9492 156.075 12.9743C156.087 12.9995 156.094 13.0271 156.094 13.0551C156.094 13.0832 156.087 13.111 156.075 13.1362C156.062 13.1614 156.044 13.1832 156.022 13.2003C155.86 13.3583 148.703 20.969 148.703 20.969H142.359L149.8 13.1039V12.9857L142.726 5.5332Z" fill="url(#paint6_linear_3446_58663)"/>
<path d="M157.184 11.8923L163.297 5.47656L156.898 5.47656L154 8.55339L157.184 11.8923Z" fill="#202124"/>
<path d="M157.133 14.2207L163.579 20.9804H157.18L153.949 17.5558L157.133 14.2207Z" fill="#202124"/>
<defs>
<linearGradient id="paint0_linear_3446_58663" x1="11.8469" y1="19.588" x2="11.7438" y2="0.15221" gradientUnits="userSpaceOnUse">
<stop stop-color="#774B9B"/>
<stop offset="0.872" stop-color="#7B6FB0"/>
<stop offset="1" stop-color="#7C75B4"/>
</linearGradient>
<linearGradient id="paint1_linear_3446_58663" x1="12.0098" y1="11.7672" x2="11.8389" y2="21.8501" gradientUnits="userSpaceOnUse">
<stop stop-color="#F5973A"/>
<stop offset="0.27" stop-color="#F6A039"/>
<stop offset="0.725" stop-color="#FBBA37"/>
<stop offset="1" stop-color="#FFCE36"/>
</linearGradient>
<linearGradient id="paint2_linear_3446_58663" x1="15.5101" y1="12.9402" x2="15.4722" y2="0.341247" gradientUnits="userSpaceOnUse">
<stop stop-color="#5780BE"/>
<stop offset="0.771" stop-color="#74A4D6"/>
<stop offset="1" stop-color="#7EB0DE"/>
</linearGradient>
<linearGradient id="paint3_linear_3446_58663" x1="0.0351563" y1="21.3033" x2="16.0436" y2="21.3033" gradientUnits="userSpaceOnUse">
<stop stop-color="#EE5E51"/>
<stop offset="0.225" stop-color="#EB675A"/>
<stop offset="0.605" stop-color="#E58272"/>
<stop offset="1" stop-color="#DEA492"/>
</linearGradient>
<linearGradient id="paint4_linear_3446_58663" x1="4.08766" y1="20.2478" x2="3.8147" y2="28.0921" gradientUnits="userSpaceOnUse">
<stop stop-color="#EA1A64"/>
<stop offset="0.126" stop-color="#EA236A"/>
<stop offset="0.339" stop-color="#EC3E7D"/>
<stop offset="0.612" stop-color="#EF689B"/>
<stop offset="0.933" stop-color="#F3A3C4"/>
<stop offset="1" stop-color="#F4B1CE"/>
</linearGradient>
<linearGradient id="paint5_linear_3446_58663" x1="19.558" y1="7.79865" x2="19.6369" y2="-0.0715128" gradientUnits="userSpaceOnUse">
<stop stop-color="#6DC4AE"/>
<stop offset="0.557" stop-color="#7CCCD2"/>
<stop offset="1" stop-color="#8AD4F2"/>
</linearGradient>
<linearGradient id="paint6_linear_3446_58663" x1="142.359" y1="13.2511" x2="156.094" y2="13.2511" gradientUnits="userSpaceOnUse">
<stop stop-color="#F5973A"/>
<stop offset="0.27" stop-color="#F6A039"/>
<stop offset="0.725" stop-color="#FBBA37"/>
<stop offset="1" stop-color="#FFCE36"/>
</linearGradient>
</defs>
</svg>
