<svg width="31" height="38" viewBox="0 0 31 38" fill="none" xmlns="http://www.w3.org/2000/svg">
<g id="Mask group">
<mask id="mask0_2710_7954" style="mask-type:alpha" maskUnits="userSpaceOnUse" x="0" y="0" width="31" height="38">
<rect id="Rectangle 9" y="0.863281" width="31" height="37" fill="#D9D9D9"/>
</mask>
<g mask="url(#mask0_2710_7954)">
<g id="Group 7">
<g id="Group 5">
<path id="Line 4" d="M6 17.709C5.72386 17.709 5.5 17.9328 5.5 18.209C5.5 18.4851 5.72386 18.709 6 18.709V17.709ZM25.9454 18.5625C26.1407 18.3673 26.1407 18.0507 25.9454 17.8554L22.7634 14.6735C22.5681 14.4782 22.2516 14.4782 22.0563 14.6735C21.861 14.8687 21.861 15.1853 22.0563 15.3806L24.8847 18.209L22.0563 21.0374C21.861 21.2327 21.861 21.5493 22.0563 21.7445C22.2516 21.9398 22.5681 21.9398 22.7634 21.7445L25.9454 18.5625ZM6 18.709H25.5918V17.709H6V18.709Z" fill="white"/>
</g>
</g>
</g>
</g>
</svg>
