<svg width="178" height="181" viewBox="0 0 178 181" fill="none" xmlns="http://www.w3.org/2000/svg">
<path d="M102.021 109.038L92.6249 99.5711L92.5579 92.8268L99.2522 92.8973L108.634 102.343L108.691 109.103L102.021 109.038ZM70.403 108.764L70.0684 70.2539L108.357 70.5824L108.519 89.5008L89.1495 89.3341L89.3167 108.929L70.403 108.764Z" fill="#202124"/>
<path d="M98.244 113.761L88.8476 104.294L88.7806 97.5495L95.4748 97.62L104.856 107.065L104.914 113.825L98.244 113.761ZM66.6257 113.487L66.291 74.9766L104.579 75.3051L104.742 94.2235L85.3722 94.0567L85.5394 113.652L66.6257 113.487Z" fill="#EB7373"/>
<path d="M162.004 91.5453C163.021 91.6327 163.894 91.9126 164.624 92.3849C165.365 92.8703 165.914 93.4956 166.269 94.2609C166.625 95.0262 166.762 95.8811 166.681 96.8256C166.578 98.0212 166.206 98.9828 165.566 99.7106C164.936 100.451 164.083 100.914 163.007 101.098L163.197 98.8926C163.703 98.7554 164.11 98.5014 164.419 98.1305C164.728 97.7596 164.908 97.2753 164.959 96.6775C165.031 95.8406 164.79 95.1453 164.235 94.5918C163.692 94.0512 162.888 93.7351 161.824 93.6436C160.76 93.552 159.908 93.7256 159.268 94.1644C158.627 94.6151 158.27 95.2589 158.198 96.0959C158.096 97.2795 158.549 98.1073 159.556 98.5794L159.367 100.785C158.387 100.412 157.632 99.805 157.102 98.9645C156.584 98.125 156.376 97.1194 156.477 95.9477C156.558 95.0032 156.839 94.1843 157.32 93.491C157.813 92.7987 158.461 92.2763 159.262 91.9237C160.074 91.584 160.988 91.4579 162.004 91.5453Z" fill="#202124"/>
<path d="M161.957 112.872C162.349 113.309 162.603 113.803 162.72 114.355C162.844 114.922 162.804 115.532 162.6 116.185L160.573 115.551L160.729 115.053C160.969 114.286 160.957 113.641 160.693 113.118C160.425 112.607 159.81 112.201 158.848 111.9L153.866 110.343L154.478 108.384L163.944 111.343L163.332 113.302L161.957 112.872Z" fill="#202124"/>
<path d="M150.066 130.694C149.745 130.506 149.467 130.316 149.232 130.124L153.049 123.577C152.334 123.23 151.637 123.164 150.956 123.378C150.275 123.593 149.742 124.032 149.355 124.695C148.799 125.649 148.805 126.555 149.374 127.415L148.258 129.327C147.622 128.609 147.249 127.759 147.14 126.779C147.035 125.815 147.276 124.83 147.862 123.825C148.34 123.006 148.95 122.375 149.694 121.934C150.442 121.509 151.256 121.303 152.137 121.317C153.023 121.347 153.906 121.619 154.787 122.132C155.668 122.646 156.338 123.273 156.796 124.012C157.258 124.768 157.483 125.573 157.471 126.427C157.453 127.292 157.2 128.144 156.71 128.983C156.238 129.792 155.642 130.41 154.921 130.837C154.2 131.263 153.415 131.466 152.567 131.443C151.729 131.427 150.895 131.177 150.066 130.694ZM151.705 129.17C152.364 129.54 153.023 129.612 153.683 129.386C154.343 129.159 154.87 128.709 155.262 128.035C155.619 127.424 155.727 126.785 155.587 126.12C155.458 125.461 155.085 124.897 154.47 124.427L151.705 129.17Z" fill="#202124"/>
<path d="M144.284 138.219C144.979 138.933 145.447 139.707 145.69 140.542C145.925 141.386 145.934 142.205 145.72 142.999C145.505 143.811 145.088 144.518 144.468 145.12C143.909 145.664 143.314 146.025 142.684 146.203C142.053 146.398 141.454 146.453 140.887 146.369L141.891 147.401L140.407 148.844L133.492 141.734L134.976 140.291L136.005 141.349C135.928 140.771 135.996 140.161 136.209 139.519C136.421 138.877 136.803 138.288 137.353 137.753C137.964 137.159 138.674 136.77 139.483 136.586C140.3 136.411 141.131 136.456 141.976 136.723C142.82 137.006 143.59 137.505 144.284 138.219ZM138.439 143.853C138.916 144.343 139.434 144.668 139.992 144.829C140.541 144.998 141.071 145.018 141.582 144.889C142.093 144.761 142.538 144.512 142.916 144.144C143.295 143.776 143.555 143.338 143.698 142.831C143.849 142.333 143.852 141.802 143.708 141.24C143.562 140.695 143.251 140.177 142.774 139.687C142.298 139.197 141.78 138.863 141.223 138.685C140.657 138.516 140.114 138.492 139.594 138.612C139.075 138.749 138.63 138.997 138.26 139.357C137.882 139.725 137.621 140.163 137.478 140.67C137.335 141.177 137.341 141.707 137.494 142.261C137.648 142.832 137.963 143.362 138.439 143.853Z" fill="#202124"/>
<path d="M128.091 155.613L125.274 150.901C125.083 150.581 124.873 150.393 124.642 150.335C124.408 150.293 124.11 150.38 123.75 150.596L122.668 151.242L121.791 149.775L123.181 148.943C123.974 148.469 124.693 148.291 125.337 148.41C125.981 148.528 126.552 149.004 127.051 149.839L129.868 154.551L130.872 153.95L131.731 155.387L130.727 155.988L131.992 158.104L130.215 159.166L128.95 157.05L126.88 158.287L126.021 156.851L128.091 155.613Z" fill="#202124"/>
<path d="M117.811 163.951C118.158 163.817 118.494 163.823 118.82 163.967C119.146 164.112 119.376 164.357 119.51 164.704C119.644 165.051 119.638 165.388 119.494 165.714C119.349 166.039 119.104 166.269 118.757 166.403C118.421 166.533 118.09 166.525 117.764 166.381C117.438 166.237 117.208 165.991 117.075 165.644C116.941 165.297 116.946 164.96 117.09 164.634C117.235 164.309 117.475 164.081 117.811 163.951ZM116.397 163.088L112.828 153.835L114.742 153.096L118.312 162.35L116.397 163.088Z" fill="#202124"/>
<path d="M101.305 158.867L99.8759 167.303L97.728 167.664L99.8115 157.256L102.226 156.85L107.58 166.008L105.414 166.372L101.305 158.867Z" fill="#202124"/>
<path d="M78.571 162.635C78.6042 162.264 78.6581 161.932 78.7327 161.637L86.2804 162.314C86.2914 161.52 86.0553 160.86 85.5723 160.335C85.0892 159.809 84.4652 159.513 83.7003 159.444C82.6007 159.345 81.7826 159.736 81.2459 160.616L79.0408 160.418C79.421 159.536 80.0317 158.838 80.8731 158.323C81.7014 157.819 82.6952 157.619 83.8545 157.723C84.7988 157.807 85.6286 158.093 86.3441 158.578C87.0466 159.075 87.5787 159.725 87.9404 160.529C88.2891 161.343 88.4179 162.258 88.3269 163.274C88.2358 164.29 87.9528 165.162 87.4779 165.891C86.99 166.63 86.3567 167.176 85.5782 167.528C84.7877 167.879 83.9084 168.011 82.9403 167.924C82.0081 167.84 81.1956 167.563 80.5029 167.091C79.8103 166.619 79.294 165.995 78.954 165.217C78.613 164.452 78.4853 163.591 78.571 162.635ZM80.6466 163.471C80.5911 164.226 80.8059 164.853 81.2911 165.355C81.7763 165.856 82.4073 166.141 83.1842 166.211C83.8894 166.274 84.5133 166.101 85.056 165.692C85.5976 165.295 85.9505 164.718 86.1147 163.962L80.6466 163.471Z" fill="#202124"/>
<path d="M67.1812 158.961C66.7794 159.872 66.237 160.597 65.5538 161.135C64.8597 161.668 64.104 161.984 63.2867 162.083C62.4536 162.188 61.6363 162.064 60.8348 161.71C60.2418 161.449 59.718 161.061 59.2632 160.545C58.7926 160.036 58.4814 159.493 58.3298 158.914L56.3984 163.295L54.5043 162.46L59.8776 150.272L61.7717 151.107L61.169 152.474C61.6701 152.171 62.258 151.997 62.9329 151.954C63.5968 151.905 64.2801 152.036 64.9829 152.346C65.7734 152.694 66.411 153.212 66.8956 153.897C67.3643 154.589 67.6335 155.377 67.7031 156.26C67.757 157.149 67.583 158.049 67.1812 158.961ZM59.7676 155.653C59.4916 156.279 59.3838 156.881 59.444 157.458C59.4932 158.03 59.6732 158.529 59.984 158.955C60.2947 159.38 60.6917 159.7 61.1748 159.913C61.6579 160.126 62.1614 160.203 62.6851 160.146C63.204 160.099 63.6969 159.903 64.1637 159.558C64.6148 159.219 64.9782 158.737 65.2542 158.111C65.5301 157.485 65.6459 156.881 65.6015 156.297C65.5461 155.709 65.3655 155.196 65.0595 154.76C64.7378 154.33 64.3409 154.01 63.8687 153.802C63.3856 153.589 62.8821 153.512 62.3584 153.569C61.8346 153.627 61.3448 153.83 60.889 154.18C60.4173 154.536 60.0435 155.027 59.7676 155.653Z" fill="#202124"/>
<path d="M41.4589 143.711C41.6948 143.423 41.9263 143.179 42.1537 142.977L48.0142 147.781C48.4699 147.131 48.6457 146.453 48.5417 145.747C48.4377 145.041 48.0887 144.444 47.4947 143.957C46.6409 143.258 45.7448 143.12 44.8064 143.546L43.0942 142.142C43.9044 141.627 44.8021 141.393 45.7874 141.441C46.7557 141.49 47.69 141.883 48.5902 142.621C49.3234 143.222 49.8491 143.925 50.1675 144.729C50.469 145.534 50.5434 146.371 50.3906 147.239C50.2209 148.109 49.8127 148.938 49.1661 149.727C48.5195 150.515 47.7949 151.077 46.9925 151.413C46.1732 151.75 45.3427 151.845 44.5011 151.698C43.6502 151.543 42.8488 151.158 42.0971 150.542C41.3733 149.948 40.8576 149.262 40.5502 148.482C40.2427 147.703 40.1671 146.896 40.3232 146.062C40.4718 145.237 40.8503 144.454 41.4589 143.711ZM42.7047 145.57C42.2347 146.162 42.0593 146.802 42.1785 147.49C42.2978 148.177 42.659 148.768 43.2622 149.263C43.8098 149.711 44.423 149.919 45.1018 149.886C45.7731 149.862 46.3893 149.584 46.9504 149.051L42.7047 145.57Z" fill="#202124"/>
<path d="M34.9662 131.305L26.7769 133.783L25.4969 132.021L35.7429 129.251L37.1816 131.231L31.3679 140.104L30.0773 138.327L34.9662 131.305Z" fill="#202124"/>
<path d="M21.4666 112.63C21.8132 112.494 22.1349 112.395 22.4318 112.33L25.1881 119.389C25.904 119.045 26.3895 118.54 26.6446 117.874C26.8997 117.207 26.8876 116.516 26.6082 115.801C26.2067 114.772 25.4926 114.214 24.466 114.125L23.6607 112.063C24.6194 112.011 25.5166 112.246 26.3524 112.77C27.1727 113.287 27.7945 114.088 28.2179 115.172C28.5627 116.055 28.6769 116.925 28.5607 117.782C28.4289 118.633 28.0839 119.399 27.5256 120.08C26.9518 120.755 26.1898 121.278 25.2397 121.649C24.2895 122.02 23.3826 122.155 22.5188 122.055C21.6394 121.947 20.8688 121.623 20.207 121.083C19.5408 120.531 19.0309 119.803 18.6774 118.898C18.3369 118.026 18.2236 117.175 18.3374 116.344C18.4512 115.514 18.7804 114.774 19.3251 114.123C19.8585 113.477 20.5724 112.979 21.4666 112.63ZM21.6421 114.861C20.9423 115.147 20.476 115.619 20.2433 116.276C20.0105 116.934 20.036 117.626 20.3197 118.353C20.5773 119.012 21.0101 119.494 21.6181 119.798C22.215 120.106 22.8887 120.165 23.639 119.975L21.6421 114.861Z" fill="#202124"/>
<path d="M10.8066 102.34L23.9503 100.18L24.283 102.205L11.1393 104.365L10.8066 102.34Z" fill="#202124"/>
<path d="M23.3845 87.4866C23.341 88.4215 23.0919 89.2569 22.6372 89.9925C22.1705 90.7276 21.5435 91.293 20.7562 91.6888C19.957 92.0841 19.0479 92.258 18.029 92.2105C17.0221 92.1637 16.1394 91.9003 15.3809 91.4205C14.6224 90.9407 14.0512 90.3075 13.6674 89.5208C13.2836 88.734 13.1137 87.8672 13.1578 86.9202C13.2019 85.9733 13.4516 85.126 13.9069 84.3783C14.3621 83.6307 14.9897 83.0533 15.7895 82.646C16.5893 82.2388 17.4926 82.0586 18.4995 82.1055C19.5065 82.1524 20.3889 82.4217 21.1468 82.9135C21.9048 83.4053 22.4811 84.0568 22.8758 84.8681C23.259 85.6667 23.4286 86.5396 23.3845 87.4866ZM21.6045 87.4037C21.629 86.8762 21.526 86.3789 21.2955 85.9117C21.0656 85.4325 20.7056 85.0373 20.2155 84.7262C19.7254 84.415 19.1208 84.2427 18.4016 84.2092C17.6824 84.1757 17.0706 84.2854 16.5663 84.5382C16.05 84.7905 15.6554 85.1385 15.3824 85.5823C15.1095 86.0261 14.9608 86.5117 14.9362 87.0391C14.9116 87.5665 15.0146 88.0638 15.2451 88.5311C15.4762 88.9863 15.8373 89.3575 16.3285 89.6447C16.8077 89.9313 17.4069 90.0913 18.1261 90.1248C19.193 90.1745 20.0326 89.9433 20.6451 89.4312C21.2462 88.9066 21.5659 88.2308 21.6045 87.4037Z" fill="#202124"/>
<path d="M17.4626 69.4284C17.1383 68.9553 16.9217 68.385 16.8129 67.7176C16.7042 67.0501 16.768 66.3573 17.0043 65.6392C17.2744 64.8185 17.7254 64.1395 18.3571 63.602C18.9811 63.0494 19.7217 62.6994 20.5787 62.552C21.4358 62.4045 22.3373 62.4865 23.2834 62.7979C24.2295 63.1093 25.0149 63.5826 25.6396 64.2177C26.253 64.8491 26.658 65.5762 26.8546 66.3989C27.0436 67.2065 27.003 68.0206 26.7329 68.8413C26.4965 69.5594 26.144 70.1508 25.6752 70.6156C25.195 71.0765 24.6802 71.4124 24.1307 71.6232L29.9781 73.5478L29.3366 75.497L15.4362 70.9217L16.0777 68.9726L17.4626 69.4284ZM22.6306 64.7812C21.9809 64.5674 21.3774 64.5203 20.82 64.6401C20.255 64.7447 19.7796 64.9798 19.3939 65.3456C19.0006 65.6962 18.7214 66.1222 18.5563 66.6238C18.395 67.1139 18.3665 67.6225 18.471 68.1496C18.5792 68.6653 18.8276 69.1387 19.2163 69.5698C19.6088 69.9896 20.1299 70.3063 20.7796 70.5202C21.4293 70.734 22.0423 70.7905 22.6188 70.6897C23.1875 70.5737 23.6686 70.3404 24.0619 69.9898C24.459 69.6278 24.7382 69.2017 24.8995 68.7116C25.0646 68.2101 25.0931 67.7015 24.9849 67.1858C24.869 66.655 24.6092 66.1778 24.2053 65.7543C23.8052 65.3194 23.2803 64.9951 22.6306 64.7812Z" fill="#202124"/>
<path d="M30.6801 40.6122C31.1482 39.9883 31.6955 39.5288 32.3219 39.2338C32.9556 38.9291 33.6312 38.8284 34.3488 38.9318C35.0736 39.0255 35.7959 39.3425 36.5158 39.8826L41.1951 43.3936L39.9744 45.0205L35.5398 41.6932C34.8295 41.1603 34.154 40.9309 33.5132 41.0052C32.8628 41.0723 32.3071 41.413 31.8462 42.0273C31.3852 42.6416 31.2099 43.2751 31.3202 43.928C31.4281 44.564 31.8371 45.1485 32.5474 45.6814L36.9819 49.0087L35.7612 50.6357L31.3267 47.3084C30.6164 46.7754 29.9408 46.5461 29.3 46.6204C28.6496 46.6874 28.0939 47.0281 27.633 47.6424C27.1721 48.2567 26.9968 48.8903 27.107 49.5431C27.2149 50.1791 27.624 50.7636 28.3343 51.2966L32.7688 54.6239L31.5373 56.2652L23.6041 50.3128L24.8356 48.6715L25.7427 49.352C25.618 48.8384 25.6193 48.3068 25.7466 47.7572C25.8739 47.2077 26.114 46.6977 26.4669 46.2274C26.9422 45.5939 27.5015 45.1284 28.1448 44.8309C28.7881 44.5335 29.4649 44.4412 30.1753 44.5541C29.8754 43.9541 29.7771 43.2953 29.8805 42.5777C29.9742 41.8529 30.2407 41.1977 30.6801 40.6122Z" fill="#202124"/>
<path d="M52.5456 27.8368C52.7584 28.1419 52.931 28.4312 53.0633 28.7047L46.8481 33.0404C47.3505 33.6556 47.9555 34.009 48.6632 34.1006C49.3708 34.1922 50.0396 34.0183 50.6695 33.5789C51.5749 32.9472 51.9503 32.1221 51.7957 31.1033L53.6115 29.8366C53.8872 30.7562 53.8685 31.6837 53.5554 32.6191C53.2452 33.5378 52.6128 34.3301 51.6581 34.9961C50.8806 35.5385 50.0617 35.8537 49.2014 35.9418C48.344 36.0132 47.5185 35.8575 46.7248 35.4748C45.934 35.0754 45.2469 34.4574 44.6633 33.6208C44.0797 32.7843 43.7355 31.9343 43.6307 31.071C43.5289 30.191 43.663 29.3659 44.0329 28.5958C44.4126 27.8188 45.0011 27.1522 45.7983 26.5961C46.5659 26.0606 47.3666 25.7507 48.2004 25.6665C49.0342 25.5823 49.8313 25.7286 50.5916 26.1054C51.345 26.4723 51.9963 27.0494 52.5456 27.8368ZM50.4181 28.5309C49.9757 27.9177 49.4075 27.5752 48.7136 27.5033C48.0196 27.4314 47.3528 27.6185 46.7131 28.0648C46.1324 28.4699 45.7659 29.0036 45.6134 29.666C45.4541 30.3185 45.5548 30.9871 45.9154 31.6719L50.4181 28.5309Z" fill="#202124"/>
<path d="M64.5681 16.7936C65.302 16.5295 66.0117 16.4463 66.6973 16.5439C67.3941 16.6375 68.014 16.9246 68.5568 17.4052C69.0996 17.8858 69.5233 18.5495 69.8281 19.3963L71.8089 24.9008L69.895 25.5895L68.0178 20.373C67.7171 19.5374 67.2787 18.9746 66.7024 18.6846C66.1221 18.3833 65.4707 18.3627 64.748 18.6227C64.0254 18.8828 63.5308 19.3158 63.2643 19.9219C63.005 20.5126 63.0257 21.2257 63.3264 22.0612L65.2036 27.2777L63.2728 27.9726L59.9145 18.6404L61.8453 17.9456L62.2293 19.0126C62.4073 18.515 62.7004 18.0715 63.1088 17.6822C63.5284 17.2889 64.0148 16.9927 64.5681 16.7936Z" fill="#202124"/>
<path d="M81.7895 14.5946L82.4495 20.0448C82.4943 20.4141 82.6101 20.672 82.7971 20.8186C82.9945 20.9518 83.3017 20.9932 83.7187 20.9427L84.9696 20.7912L85.1751 22.4888L83.5669 22.6836C82.6496 22.7947 81.9208 22.6654 81.3804 22.2956C80.84 21.9259 80.5114 21.2586 80.3945 20.2937L79.7345 14.8435L78.573 14.9841L78.3717 13.3223L79.5332 13.1816L79.2367 10.7335L81.2917 10.4846L81.5882 12.9327L83.9827 12.6427L84.184 14.3046L81.7895 14.5946Z" fill="#202124"/>
<path d="M96.7777 15.1321C96.9627 14.1535 97.327 13.3247 97.8706 12.6459C98.426 11.9693 99.0905 11.4904 99.8642 11.2092C100.652 10.9185 101.47 10.8534 102.319 11.0139C103.086 11.1588 103.723 11.4381 104.231 11.8516C104.753 12.2556 105.143 12.714 105.4 13.2267L105.667 11.8118L107.701 12.1963L105.859 21.9417L103.825 21.5571L104.099 20.1068C103.67 20.502 103.132 20.7972 102.484 20.9923C101.837 21.1874 101.136 21.2136 100.381 21.0709C99.544 20.9126 98.8177 20.5555 98.2023 19.9995C97.5891 19.4317 97.1486 18.7256 96.8808 17.8811C96.627 17.0271 96.5927 16.1108 96.7777 15.1321ZM104.748 16.6756C104.875 16.0035 104.844 15.3931 104.654 14.8444C104.477 14.2979 104.188 13.8526 103.789 13.5085C103.39 13.1643 102.931 12.9432 102.413 12.8451C101.894 12.7471 101.386 12.7854 100.889 12.96C100.394 13.1229 99.9582 13.4253 99.5815 13.867C99.2189 14.2991 98.9741 14.8513 98.847 15.5234C98.72 16.1955 98.7441 16.8106 98.9194 17.3689C99.1066 17.9295 99.3985 18.3877 99.7953 18.7436C100.206 19.0899 100.665 19.311 101.172 19.4069C101.691 19.505 102.199 19.4667 102.696 19.292C103.193 19.1173 103.624 18.808 103.989 18.364C104.368 17.9105 104.621 17.3477 104.748 16.6756Z" fill="#202124"/>
<path d="M122.948 17.5607C123.634 17.9058 124.17 18.3499 124.555 18.8928C124.956 19.4304 125.204 19.9784 125.299 20.5368L125.947 19.2504L127.796 20.1806L123.266 29.1855C122.856 30.0002 122.321 30.6376 121.66 31.0975C120.993 31.5681 120.241 31.8212 119.404 31.8568C118.577 31.8977 117.714 31.6917 116.813 31.2387C115.613 30.6348 114.758 29.8492 114.251 28.882C113.738 27.9255 113.671 26.9379 114.049 25.9192L115.866 26.8332C115.773 27.3643 115.882 27.8824 116.192 28.3876C116.508 28.9089 116.981 29.3286 117.614 29.6468C118.354 30.0189 119.062 30.093 119.739 29.8693C120.426 29.6509 120.985 29.1129 121.417 28.2553L122.161 26.7759C121.64 27.0376 121.038 27.1784 120.357 27.1982C119.691 27.2127 119.021 27.0501 118.346 26.7104C117.574 26.3221 116.963 25.7732 116.514 25.0638C116.081 24.349 115.852 23.5488 115.828 22.6633C115.819 21.7724 116.039 20.8821 116.486 19.9923C116.934 19.1025 117.512 18.4063 118.222 17.9035C118.942 17.4062 119.713 17.1289 120.534 17.0719C121.372 17.0095 122.176 17.1725 122.948 17.5607ZM123.722 23.6724C124.029 23.0614 124.168 22.466 124.137 21.8864C124.117 21.3121 123.962 20.8046 123.674 20.3638C123.385 19.9231 123.005 19.584 122.533 19.3468C122.061 19.1095 121.563 19.0063 121.037 19.0373C120.516 19.0575 120.014 19.228 119.53 19.5488C119.062 19.8643 118.675 20.3276 118.368 20.9387C118.06 21.5497 117.914 22.1477 117.928 22.7327C117.954 23.3231 118.108 23.844 118.392 24.2955C118.691 24.7417 119.071 25.0807 119.532 25.3125C120.004 25.5498 120.503 25.653 121.029 25.6221C121.555 25.5911 122.054 25.4125 122.527 25.0863C123.017 24.7548 123.415 24.2835 123.722 23.6724Z" fill="#202124"/>
<path d="M141.4 36.5294C141.15 36.8048 140.907 37.0373 140.669 37.2271L135.06 32.1313C134.572 32.7579 134.362 33.4263 134.43 34.1366C134.498 34.847 134.817 35.4603 135.385 35.9768C136.202 36.7192 137.09 36.9017 138.049 36.5244L139.688 38.0132C138.852 38.4865 137.944 38.6745 136.962 38.5771C135.998 38.4789 135.085 38.0385 134.223 37.2558C133.521 36.6183 133.032 35.8899 132.755 35.0707C132.495 34.2507 132.463 33.4112 132.66 32.5523C132.873 31.6925 133.323 30.8852 134.009 30.1302C134.695 29.3753 135.447 28.8507 136.265 28.5567C137.101 28.2618 137.935 28.209 138.768 28.3985C139.61 28.596 140.391 29.0215 141.11 29.6751C141.803 30.3045 142.283 31.0163 142.55 31.8105C142.818 32.6047 142.852 33.4144 142.654 34.2394C142.464 35.0555 142.046 35.8189 141.4 36.5294ZM140.251 34.6095C140.75 34.0418 140.958 33.4117 140.874 32.7192C140.79 32.0266 140.459 31.4181 139.882 30.8936C139.358 30.4175 138.756 30.1788 138.076 30.1774C137.404 30.1671 136.775 30.4139 136.187 30.9178L140.251 34.6095Z" fill="#202124"/>
<path d="M154.841 45.7959C155.261 46.4527 155.5 47.1262 155.557 47.8163C155.621 48.5165 155.479 49.1847 155.131 49.8207C154.783 50.4568 154.23 51.0175 153.472 51.5028L148.546 54.6578L147.449 52.9449L152.118 49.955C152.865 49.4761 153.317 48.9235 153.471 48.2972C153.636 47.6645 153.511 47.0247 153.097 46.378C152.683 45.7312 152.151 45.3453 151.501 45.2202C150.867 45.0987 150.177 45.2774 149.429 45.7563L144.76 48.7462L143.653 47.0181L152.005 41.6693L153.112 43.3973L152.157 44.0089C152.682 44.0718 153.179 44.2591 153.65 44.5706C154.127 44.8923 154.523 45.3007 154.841 45.7959Z" fill="#202124"/>
<path d="M156.857 60.4088C157.827 60.094 158.741 60.0122 159.597 60.1633C160.469 60.3222 161.217 60.6849 161.843 61.2516C162.468 61.8183 162.927 62.5525 163.219 63.4542C163.59 64.5957 163.621 65.6262 163.314 66.5459C163.022 67.4733 162.416 68.2312 161.497 68.8196L160.814 66.7136C161.226 66.3906 161.503 65.9981 161.643 65.5363C161.783 65.0744 161.761 64.5582 161.576 63.9874C161.316 63.1884 160.824 62.6418 160.098 62.3475C159.386 62.061 158.523 62.0824 157.507 62.412C156.491 62.7415 155.774 63.2329 155.355 63.886C154.94 64.5505 154.862 65.2823 155.121 66.0813C155.487 67.2114 156.226 67.7979 157.338 67.8411L158.021 69.947C156.973 69.9841 156.042 69.7185 155.227 69.1503C154.423 68.5784 153.84 67.7331 153.477 66.6145C153.185 65.7128 153.125 64.849 153.299 64.0231C153.484 63.1935 153.877 62.4605 154.478 61.824C155.094 61.1952 155.887 60.7235 156.857 60.4088Z" fill="#202124"/>
<path d="M167.059 87.0973L152.112 81.9807L151.973 79.8613L156.918 81.5572L166.398 77.021L166.547 79.3021L159.186 82.5809L166.92 84.9779L167.059 87.0973Z" fill="#202124"/>
<path d="M159.226 94.2126C160.242 94.3 161.115 94.5799 161.846 95.0522C162.587 95.5375 163.135 96.1628 163.491 96.9281C163.847 97.6934 163.984 98.5483 163.903 99.4928C163.8 100.688 163.428 101.65 162.787 102.378C162.157 103.119 161.305 103.581 160.229 103.766L160.419 101.56C160.924 101.423 161.332 101.169 161.64 100.798C161.949 100.427 162.13 99.9425 162.181 99.3447C162.253 98.5078 162.012 97.8126 161.457 97.259C160.913 96.7184 160.11 96.4023 159.045 96.3108C157.981 96.2193 157.129 96.3929 156.489 96.8316C155.848 97.2824 155.492 97.9262 155.42 98.7631C155.318 99.9467 155.771 100.775 156.778 101.247L156.588 103.452C155.609 103.079 154.854 102.472 154.324 101.632C153.806 100.792 153.598 99.7867 153.698 98.615C153.78 97.6705 154.061 96.8516 154.542 96.1583C155.035 95.466 155.682 94.9435 156.483 94.5909C157.296 94.2512 158.21 94.1251 159.226 94.2126Z" fill="white"/>
<path d="M159.179 115.539C159.571 115.976 159.825 116.47 159.941 117.022C160.066 117.589 160.026 118.199 159.822 118.852L157.795 118.218L157.951 117.72C158.19 116.953 158.178 116.308 157.914 115.785C157.647 115.274 157.032 114.868 156.07 114.567L151.087 113.01L151.7 111.051L161.166 114.01L160.554 115.969L159.179 115.539Z" fill="white"/>
<path d="M147.289 133.361C146.967 133.174 146.689 132.984 146.454 132.791L150.271 126.245C149.557 125.898 148.859 125.831 148.179 126.046C147.498 126.26 146.964 126.699 146.578 127.362C146.021 128.316 146.028 129.223 146.596 130.082L145.481 131.995C144.844 131.276 144.471 130.427 144.362 129.446C144.258 128.482 144.498 127.498 145.085 126.492C145.562 125.673 146.173 125.043 146.916 124.601C147.664 124.176 148.479 123.97 149.36 123.984C150.245 124.014 151.129 124.286 152.01 124.8C152.891 125.314 153.56 125.94 154.018 126.679C154.481 127.435 154.706 128.24 154.694 129.094C154.676 129.959 154.422 130.811 153.933 131.651C153.461 132.46 152.865 133.077 152.144 133.504C151.422 133.931 150.638 134.133 149.79 134.111C148.952 134.095 148.118 133.845 147.289 133.361ZM148.927 131.837C149.587 132.208 150.246 132.28 150.906 132.053C151.566 131.827 152.092 131.377 152.485 130.703C152.842 130.091 152.95 129.453 152.81 128.788C152.68 128.129 152.308 127.564 151.693 127.095L148.927 131.837Z" fill="white"/>
<path d="M141.506 140.886C142.2 141.6 142.669 142.374 142.912 143.209C143.146 144.053 143.156 144.872 142.941 145.666C142.726 146.478 142.309 147.185 141.69 147.787C141.131 148.331 140.536 148.692 139.905 148.87C139.275 149.065 138.676 149.12 138.108 149.036L139.112 150.068L137.628 151.511L130.714 144.401L132.197 142.958L133.227 144.016C133.15 143.438 133.218 142.828 133.43 142.186C133.643 141.544 134.024 140.955 134.575 140.42C135.186 139.826 135.896 139.437 136.704 139.253C137.521 139.078 138.352 139.123 139.197 139.39C140.042 139.673 140.811 140.172 141.506 140.886ZM135.661 146.52C136.138 147.01 136.655 147.335 137.213 147.496C137.762 147.665 138.293 147.685 138.804 147.556C139.315 147.428 139.759 147.179 140.138 146.811C140.516 146.443 140.777 146.005 140.92 145.498C141.071 145 141.074 144.469 140.929 143.907C140.784 143.362 140.473 142.844 139.996 142.354C139.519 141.864 139.002 141.53 138.444 141.352C137.878 141.183 137.335 141.159 136.816 141.279C136.297 141.416 135.852 141.664 135.482 142.024C135.103 142.392 134.843 142.83 134.7 143.337C134.557 143.844 134.562 144.374 134.716 144.928C134.869 145.499 135.184 146.029 135.661 146.52Z" fill="white"/>
<path d="M125.313 158.28L122.496 153.568C122.305 153.248 122.094 153.06 121.864 153.002C121.629 152.96 121.332 153.047 120.971 153.263L119.89 153.909L119.012 152.442L120.403 151.61C121.196 151.136 121.915 150.958 122.558 151.077C123.202 151.195 123.774 151.671 124.273 152.506L127.09 157.218L128.094 156.617L128.953 158.054L127.949 158.655L129.214 160.771L127.437 161.833L126.172 159.717L124.102 160.954L123.243 159.518L125.313 158.28Z" fill="white"/>
<path d="M115.032 166.619C115.38 166.485 115.716 166.49 116.042 166.635C116.368 166.779 116.597 167.025 116.731 167.372C116.865 167.719 116.86 168.055 116.716 168.381C116.571 168.707 116.325 168.937 115.978 169.071C115.642 169.2 115.312 169.193 114.986 169.048C114.66 168.904 114.43 168.658 114.296 168.311C114.162 167.964 114.168 167.628 114.312 167.302C114.456 166.976 114.697 166.748 115.032 166.619ZM113.619 165.756L110.049 156.502L111.964 155.764L115.534 165.017L113.619 165.756Z" fill="white"/>
<path d="M98.5278 161.534L97.0985 169.97L94.9507 170.331L97.0342 159.923L99.4483 159.518L104.802 168.675L102.637 169.039L98.5278 161.534Z" fill="white"/>
<path d="M75.7937 165.302C75.8269 164.931 75.8808 164.599 75.9553 164.304L83.5031 164.981C83.514 164.187 83.278 163.527 82.7949 163.002C82.3119 162.476 81.6879 162.18 80.923 162.111C79.8234 162.012 79.0052 162.403 78.4686 163.283L76.2634 163.085C76.6436 162.203 77.2544 161.505 78.0957 160.99C78.924 160.486 79.9178 160.286 81.0772 160.39C82.0214 160.474 82.8513 160.76 83.5668 161.245C84.2692 161.742 84.8013 162.392 85.163 163.196C85.5117 164.01 85.6406 164.925 85.5495 165.941C85.4585 166.957 85.1755 167.829 84.7006 168.558C84.2126 169.297 83.5794 169.843 82.8009 170.195C82.0104 170.546 81.1311 170.678 80.163 170.591C79.2307 170.507 78.4183 170.23 77.7256 169.758C77.0329 169.286 76.5166 168.662 76.1767 167.884C75.8356 167.119 75.708 166.258 75.7937 165.302ZM77.8693 166.138C77.8137 166.893 78.0286 167.52 78.5138 168.021C78.9989 168.523 79.63 168.808 80.4069 168.878C81.112 168.941 81.736 168.768 82.2787 168.359C82.8203 167.962 83.1732 167.385 83.3374 166.628L77.8693 166.138Z" fill="white"/>
<path d="M64.4029 161.628C64.0011 162.54 63.4586 163.264 62.7755 163.803C62.0814 164.336 61.3257 164.652 60.5084 164.751C59.6753 164.855 58.858 164.731 58.0564 164.378C57.4635 164.116 56.9396 163.728 56.4848 163.213C56.0142 162.704 55.7031 162.16 55.5515 161.582L53.62 165.963L51.7259 165.128L57.0992 152.94L58.9933 153.775L58.3907 155.142C58.8917 154.838 59.4797 154.665 60.1546 154.621C60.8185 154.573 61.5018 154.704 62.2045 155.013C62.9951 155.362 63.6327 155.879 64.1172 156.565C64.586 157.257 64.8552 158.044 64.9248 158.927C64.9787 159.817 64.8047 160.717 64.4029 161.628ZM56.9892 158.321C56.7133 158.946 56.6055 159.548 56.6657 160.125C56.7149 160.698 56.8949 161.197 57.2057 161.622C57.5164 162.048 57.9134 162.367 58.3965 162.58C58.8796 162.793 59.3831 162.871 59.9068 162.813C60.4257 162.767 60.9186 162.571 61.3854 162.226C61.8364 161.887 62.1999 161.405 62.4758 160.779C62.7518 160.153 62.8675 159.548 62.8232 158.965C62.7678 158.376 62.5871 157.864 62.2812 157.427C61.9595 156.997 61.5625 156.678 61.0904 156.47C60.6073 156.257 60.1038 156.179 59.5801 156.237C59.0563 156.294 58.5665 156.498 58.1107 156.848C57.639 157.204 57.2652 157.695 56.9892 158.321Z" fill="white"/>
<path d="M38.6806 146.378C38.9164 146.091 39.148 145.846 39.3753 145.644L45.2359 150.449C45.6916 149.798 45.8674 149.12 45.7634 148.414C45.6593 147.708 45.3103 147.112 44.7164 146.625C43.8626 145.925 42.9665 145.788 42.0281 146.213L40.3158 144.809C41.126 144.294 42.0238 144.06 43.009 144.108C43.9774 144.157 44.9117 144.55 45.8119 145.288C46.545 145.889 47.0708 146.592 47.3892 147.396C47.6907 148.202 47.7651 149.039 47.6123 149.906C47.4426 150.776 47.0344 151.605 46.3878 152.394C45.7411 153.183 45.0166 153.745 44.2142 154.08C43.3949 154.417 42.5644 154.512 41.7228 154.365C40.8718 154.211 40.0705 153.825 39.3188 153.209C38.5949 152.616 38.0793 151.929 37.7719 151.15C37.4644 150.37 37.3888 149.563 37.5449 148.729C37.6934 147.904 38.072 147.121 38.6806 146.378ZM39.9263 148.237C39.4563 148.83 39.281 149.47 39.4002 150.157C39.5195 150.844 39.8807 151.435 40.4839 151.93C41.0314 152.379 41.6446 152.586 42.3235 152.553C42.9948 152.529 43.611 152.251 44.1721 151.718L39.9263 148.237Z" fill="white"/>
<path d="M32.1888 133.973L23.9995 136.451L22.7196 134.688L32.9656 131.918L34.4042 133.899L28.5905 142.771L27.3 140.994L32.1888 133.973Z" fill="white"/>
<path d="M18.6893 115.296C19.0358 115.161 19.3575 115.061 19.6545 114.997L22.4108 122.056C23.1267 121.712 23.6122 121.207 23.8673 120.54C24.1223 119.874 24.1102 119.183 23.8309 118.468C23.4293 117.439 22.7153 116.881 21.6887 116.792L20.8834 114.73C21.8421 114.677 22.7393 114.913 23.5751 115.437C24.3953 115.954 25.0171 116.755 25.4405 117.839C25.7853 118.722 25.8996 119.592 25.7833 120.449C25.6515 121.299 25.3065 122.065 24.7482 122.747C24.1744 123.422 23.4125 123.945 22.4623 124.316C21.5122 124.687 20.6052 124.822 19.7414 124.721C18.8621 124.614 18.0915 124.29 17.4296 123.75C16.7634 123.198 16.2536 122.47 15.9 121.564C15.5596 120.692 15.4463 119.841 15.5601 119.011C15.6739 118.181 16.0031 117.44 16.5477 116.79C17.0812 116.143 17.7951 115.646 18.6893 115.296ZM18.8648 117.527C18.1649 117.814 17.6986 118.286 17.4659 118.943C17.2332 119.601 17.2587 120.293 17.5424 121.02C17.7999 121.679 18.2327 122.161 18.8408 122.464C19.4377 122.772 20.1113 122.831 20.8616 122.641L18.8648 117.527Z" fill="white"/>
<path d="M8.02826 105.007L21.172 102.847L21.5047 104.872L8.36099 107.032L8.02826 105.007Z" fill="white"/>
<path d="M20.6062 90.1538C20.5627 91.0888 20.3135 91.9241 19.8588 92.6597C19.3921 93.3948 18.7652 93.9603 17.9779 94.3561C17.1786 94.7513 16.2696 94.9252 15.2507 94.8778C14.2438 94.8309 13.3611 94.5676 12.6026 94.0878C11.8441 93.6079 11.2729 92.9747 10.8891 92.188C10.5052 91.4013 10.3354 90.5344 10.3795 89.5875C10.4236 88.6405 10.6733 87.7932 11.1285 87.0456C11.5838 86.2979 12.2113 85.7205 13.0111 85.3133C13.811 84.906 14.7143 84.7258 15.7212 84.7727C16.7281 84.8196 17.6106 85.089 18.3685 85.5808C19.1265 86.0725 19.7028 86.7241 20.0975 87.5353C20.4807 88.334 20.6503 89.2068 20.6062 90.1538ZM18.8261 90.0709C18.8507 89.5435 18.7477 89.0461 18.5172 88.5789C18.2872 88.0997 17.9272 87.7045 17.4372 87.3934C16.9471 87.0823 16.3425 86.9099 15.6233 86.8765C14.904 86.843 14.2923 86.9526 13.788 87.2054C13.2717 87.4577 12.8771 87.8057 12.6041 88.2495C12.3312 88.6933 12.1824 89.1789 12.1579 89.7063C12.1333 90.2338 12.2363 90.7311 12.4668 91.1983C12.6979 91.6535 13.059 92.0247 13.5502 92.3119C14.0294 92.5985 14.6286 92.7586 15.3478 92.792C16.4146 92.8417 17.2543 92.6105 17.8668 92.0985C18.4678 91.5739 18.7876 90.898 18.8261 90.0709Z" fill="white"/>
<path d="M14.6853 72.0954C14.3609 71.6223 14.1444 71.052 14.0356 70.3846C13.9268 69.7171 13.9906 69.0243 14.227 68.3062C14.4971 67.4855 14.948 66.8064 15.5797 66.269C16.2038 65.7164 16.9443 65.3664 17.8014 65.2189C18.6584 65.0715 19.56 65.1535 20.5061 65.4649C21.4521 65.7763 22.2375 66.2495 22.8623 66.8847C23.4756 67.5161 23.8806 68.2432 24.0773 69.0659C24.2662 69.8735 24.2257 70.6876 23.9556 71.5083C23.7192 72.2264 23.3666 72.8178 22.8978 73.2825C22.4176 73.7435 21.9028 74.0794 21.3534 74.2902L27.2008 76.2148L26.5592 78.164L12.6588 73.5887L13.3004 71.6396L14.6853 72.0954ZM19.8533 67.4482C19.2036 67.2344 18.6 67.1873 18.0426 67.3071C17.4776 67.4116 17.0023 67.6468 16.6166 68.0126C16.2232 68.3632 15.944 68.7892 15.779 69.2908C15.6176 69.7809 15.5892 70.2895 15.6936 70.8166C15.8018 71.3323 16.0503 71.8057 16.439 72.2368C16.8314 72.6565 17.3525 72.9733 18.0022 73.1872C18.6519 73.401 19.265 73.4575 19.8414 73.3567C20.4102 73.2407 20.8913 73.0074 21.2846 72.6568C21.6817 72.2948 21.9609 71.8687 22.1222 71.3786C22.2873 70.8771 22.3157 70.3685 22.2075 69.8528C22.0917 69.322 21.8318 68.8448 21.428 68.4213C21.0279 67.9864 20.503 67.6621 19.8533 67.4482Z" fill="white"/>
<path d="M27.9017 43.2797C28.3699 42.6558 28.9172 42.1963 29.5436 41.9013C30.1773 41.5966 30.8529 41.4959 31.5705 41.5993C32.2953 41.693 33.0176 42.01 33.7375 42.5501L38.4168 46.0611L37.196 47.688L32.7615 44.3607C32.0512 43.8278 31.3757 43.5984 30.7349 43.6727C30.0844 43.7398 29.5288 44.0804 29.0678 44.6948C28.6069 45.3091 28.4316 45.9426 28.5419 46.5954C28.6497 47.2315 29.0588 47.816 29.7691 48.3489L34.2036 51.6762L32.9829 53.3032L28.5484 49.9759C27.8381 49.4429 27.1625 49.2136 26.5217 49.2878C25.8713 49.3549 25.3156 49.6956 24.8547 50.3099C24.3938 50.9242 24.2185 51.5578 24.3287 52.2106C24.4366 52.8466 24.8457 53.4311 25.556 53.964L29.9905 57.2913L28.759 58.9327L20.8258 52.9803L22.0573 51.3389L22.9644 52.0195C22.8397 51.5059 22.841 50.9743 22.9683 50.4247C23.0956 49.8751 23.3357 49.3652 23.6886 48.8949C24.1639 48.2614 24.7232 47.7959 25.3665 47.4984C26.0097 47.2009 26.6866 47.1087 27.3969 47.2216C27.0971 46.6216 26.9988 45.9627 27.1021 45.2452C27.1959 44.5204 27.4624 43.8652 27.9017 43.2797Z" fill="white"/>
<path d="M49.7682 30.5043C49.9811 30.8094 50.1536 31.0987 50.2859 31.3722L44.0708 35.7079C44.5731 36.3231 45.1781 36.6765 45.8858 36.7681C46.5935 36.8597 47.2623 36.6858 47.8921 36.2464C48.7976 35.6147 49.173 34.7895 49.0183 33.7708L50.8341 32.5041C51.1099 33.4237 51.0912 34.3512 50.778 35.2866C50.4679 36.2053 49.8355 36.9976 48.8808 37.6636C48.1033 38.206 47.2844 38.5212 46.424 38.6093C45.5667 38.6807 44.7411 38.525 43.9474 38.1423C43.1567 37.7429 42.4695 37.1249 41.8859 36.2883C41.3024 35.4518 40.9582 34.6018 40.8534 33.7385C40.7516 32.8585 40.8856 32.0334 41.2555 31.2633C41.6353 30.4863 42.2237 29.8197 43.0209 29.2636C43.7886 28.7281 44.5893 28.4182 45.4231 28.334C46.2569 28.2498 47.0539 28.3961 47.8142 28.7729C48.5676 29.1398 49.219 29.7169 49.7682 30.5043ZM47.6407 31.1983C47.1983 30.5852 46.6302 30.2426 45.9362 30.1707C45.2423 30.0988 44.5755 30.286 43.9358 30.7323C43.3551 31.1374 42.9885 31.6711 42.8361 32.3334C42.6767 32.9859 42.7774 33.6546 43.1381 34.3394L47.6407 31.1983Z" fill="white"/>
<path d="M61.7898 19.4609C62.5237 19.1967 63.2334 19.1135 63.919 19.2111C64.6158 19.3047 65.2356 19.5918 65.7784 20.0724C66.3212 20.553 66.745 21.2167 67.0497 22.0636L69.0306 27.568L67.1167 28.2567L65.2395 23.0402C64.9388 22.2047 64.5004 21.6419 63.9241 21.3519C63.3438 21.0505 62.6924 21.0299 61.9697 21.29C61.2471 21.55 60.7525 21.9831 60.486 22.5891C60.2267 23.1798 60.2474 23.8929 60.548 24.7285L62.4252 29.945L60.4945 30.6398L57.1362 21.3077L59.067 20.6128L59.451 21.6799C59.629 21.1822 59.9221 20.7387 60.3304 20.3495C60.75 19.9562 61.2365 19.66 61.7898 19.4609Z" fill="white"/>
<path d="M79.0111 17.2618L79.6712 22.712C79.7159 23.0813 79.8318 23.3393 80.0188 23.4858C80.2162 23.6191 80.5234 23.6604 80.9404 23.6099L82.1912 23.4584L82.3968 25.156L80.7886 25.3508C79.8713 25.4619 79.1424 25.3326 78.6021 24.9629C78.0617 24.5932 77.7331 23.9258 77.6162 22.9609L76.9562 17.5107L75.7946 17.6514L75.5934 15.9895L76.7549 15.8489L76.4584 13.4007L78.5134 13.1519L78.8099 15.6L81.2044 15.31L81.4056 16.9718L79.0111 17.2618Z" fill="white"/>
<path d="M94.0004 17.7996C94.1854 16.8209 94.5497 15.9922 95.0933 15.3134C95.6486 14.6367 96.3132 14.1579 97.0869 13.8767C97.8746 13.586 98.6929 13.5209 99.5419 13.6814C100.308 13.8263 100.946 14.1055 101.454 14.5191C101.976 14.9231 102.365 15.3815 102.622 15.8942L102.89 14.4793L104.924 14.8638L103.081 24.6092L101.047 24.2246L101.322 22.7743C100.893 23.1695 100.355 23.4647 99.707 23.6598C99.0595 23.8549 98.3584 23.8811 97.6038 23.7384C96.7666 23.5801 96.0403 23.223 95.4249 22.667C94.8117 22.0992 94.3712 21.3931 94.1034 20.5486C93.8497 19.6946 93.8153 18.7783 94.0004 17.7996ZM101.97 19.3431C102.097 18.671 102.066 18.0606 101.877 17.5119C101.699 16.9654 101.411 16.5201 101.012 16.1759C100.613 15.8318 100.154 15.6107 99.6353 15.5126C99.1165 15.4145 98.6085 15.4528 98.1114 15.6275C97.6166 15.7904 97.1808 16.0927 96.8042 16.5345C96.4416 16.9666 96.1968 17.5187 96.0697 18.1908C95.9426 18.8629 95.9668 19.4781 96.1421 20.0364C96.3292 20.5969 96.6212 21.0552 97.018 21.4111C97.4288 21.7574 97.8877 21.9785 98.3947 22.0744C98.9135 22.1725 99.4215 22.1342 99.9186 21.9595C100.416 21.7848 100.847 21.4755 101.211 21.0315C101.59 20.578 101.843 20.0152 101.97 19.3431Z" fill="white"/>
<path d="M120.17 20.2279C120.856 20.5731 121.391 21.0171 121.776 21.56C122.178 22.0977 122.426 22.6457 122.521 23.204L123.168 21.9176L125.017 22.8478L120.488 31.8527C120.078 32.6675 119.542 33.3048 118.881 33.7647C118.215 34.2354 117.463 34.4885 116.625 34.524C115.799 34.565 114.935 34.3589 114.035 33.906C112.834 33.302 111.98 32.5165 111.473 31.5492C110.96 30.5928 110.892 29.6051 111.271 28.5864L113.088 29.5004C112.995 30.0315 113.104 30.5496 113.414 31.0548C113.729 31.5762 114.203 31.9959 114.836 32.314C115.575 32.6861 116.284 32.7603 116.96 32.5365C117.648 32.3181 118.207 31.7801 118.639 30.9225L119.383 29.4431C118.862 29.7049 118.26 29.8456 117.579 29.8654C116.913 29.8799 116.243 29.7173 115.567 29.3776C114.795 28.9893 114.185 28.4405 113.736 27.731C113.303 27.0162 113.074 26.216 113.049 25.3305C113.041 24.4396 113.26 23.5493 113.708 22.6595C114.155 21.7698 114.734 21.0735 115.444 20.5707C116.164 20.0734 116.935 19.7962 117.756 19.7391C118.593 19.6768 119.398 19.8397 120.17 20.2279ZM120.944 26.3397C121.251 25.7286 121.389 25.1333 121.359 24.5536C121.339 23.9793 121.184 23.4718 120.895 23.031C120.607 22.5903 120.226 22.2513 119.755 22.014C119.283 21.7767 118.784 21.6736 118.258 21.7045C117.738 21.7247 117.235 21.8952 116.752 22.2161C116.284 22.5316 115.897 22.9948 115.589 23.6059C115.282 24.2169 115.135 24.815 115.15 25.4C115.176 25.9903 115.33 26.5113 115.613 26.9628C115.913 27.4089 116.293 27.7479 116.754 27.9798C117.226 28.2171 117.724 28.3202 118.25 28.2893C118.776 28.2584 119.276 28.0798 119.749 27.7536C120.238 27.422 120.636 26.9507 120.944 26.3397Z" fill="white"/>
<path d="M138.622 39.1964C138.372 39.4718 138.128 39.7043 137.891 39.8941L132.282 34.7983C131.794 35.4249 131.584 36.0933 131.652 36.8036C131.72 37.514 132.038 38.1273 132.607 38.6438C133.424 39.3861 134.312 39.5687 135.271 39.1914L136.909 40.6802C136.074 41.1535 135.166 41.3415 134.184 41.2441C133.219 41.1459 132.306 40.7055 131.445 39.9228C130.743 39.2853 130.254 38.5569 129.976 37.7377C129.716 36.9177 129.685 36.0782 129.881 35.2192C130.095 34.3595 130.545 33.5522 131.231 32.7972C131.916 32.0422 132.669 31.5177 133.487 31.2236C134.322 30.9288 135.157 30.876 135.99 31.0654C136.832 31.263 137.612 31.6885 138.332 32.3421C139.025 32.9715 139.505 33.6833 139.772 34.4775C140.04 35.2717 140.074 36.0814 139.876 36.9064C139.686 37.7225 139.268 38.4859 138.622 39.1964ZM137.472 37.2764C137.972 36.7088 138.18 36.0787 138.095 35.3862C138.011 34.6936 137.681 34.0851 137.103 33.5606C136.579 33.0845 135.977 32.8457 135.298 32.8443C134.626 32.8341 133.997 33.0809 133.409 33.5848L137.472 37.2764Z" fill="white"/>
<path d="M152.062 48.4629C152.483 49.1197 152.722 49.7932 152.779 50.4833C152.843 51.1835 152.701 51.8517 152.353 52.4877C152.005 53.1238 151.452 53.6845 150.694 54.1698L145.768 57.3248L144.671 55.6119L149.339 52.622C150.087 52.1431 150.538 51.5905 150.693 50.9642C150.858 50.3315 150.733 49.6917 150.319 49.045C149.905 48.3982 149.373 48.0123 148.722 47.8871C148.089 47.7656 147.398 47.9443 146.65 48.4232L141.982 51.4131L140.875 49.6851L149.227 44.3363L150.334 46.0643L149.379 46.6759C149.904 46.7388 150.401 46.9261 150.871 47.2376C151.348 47.5593 151.745 47.9677 152.062 48.4629Z" fill="white"/>
<path d="M154.079 63.076C155.049 62.7613 155.962 62.6794 156.819 62.8306C157.69 62.9894 158.439 63.3522 159.064 63.9188C159.69 64.4855 160.149 65.2197 160.441 66.1215C160.811 67.2629 160.843 68.2935 160.536 69.2132C160.244 70.1405 159.638 70.8984 158.719 71.4868L158.035 69.3808C158.448 69.0578 158.724 68.6654 158.865 68.2035C159.005 67.7417 158.982 67.2254 158.797 66.6547C158.538 65.8557 158.045 65.309 157.319 65.0147C156.608 64.7282 155.745 64.7497 154.729 65.0792C153.713 65.4088 152.995 65.9001 152.577 66.5532C152.161 67.2178 152.083 67.9496 152.342 68.7486C152.709 69.8786 153.448 70.4652 154.56 70.5083L155.243 72.6143C154.195 72.6514 153.264 72.3858 152.449 71.8176C151.645 71.2456 151.062 70.4004 150.699 69.2818C150.406 68.38 150.347 67.5162 150.52 66.6903C150.706 65.8608 151.099 65.1277 151.699 64.4912C152.316 63.8625 153.109 63.3907 154.079 63.076Z" fill="white"/>
<path d="M164.28 89.7645L149.333 84.648L149.194 82.5285L154.14 84.2244L163.619 79.6882L163.769 81.9693L156.408 85.2482L164.141 87.6451L164.28 89.7645Z" fill="white"/>
</svg>
