<svg width="55" height="56" viewBox="0 0 55 56" fill="none" xmlns="http://www.w3.org/2000/svg">
<g id="Frame 3103">
<rect id="Rectangle 44173" x="9.75" y="13.1943" width="35.5" height="30.5" rx="4.25" stroke="#2C3441" stroke-width="1.5"/>
<line id="Line 31" x1="10" y1="19.6943" x2="45" y2="19.6943" stroke="#2C3441" stroke-width="1.5"/>
<circle id="Ellipse 22" cx="14" cy="16.4443" r="1.5" stroke="#2C3441"/>
<circle id="Ellipse 23" cx="19" cy="16.4443" r="1.5" stroke="#2C3441"/>
<circle id="Ellipse 24" cx="24" cy="16.4443" r="1.5" stroke="#2C3441"/>
<path id="Vector" d="M27.5097 22.4443C28.1761 22.4521 28.8399 22.5304 29.4904 22.6779C29.7743 22.7423 29.9866 22.983 30.0189 23.2769L30.1734 24.6863C30.2434 25.3334 30.7808 25.8236 31.4215 25.8243C31.5937 25.8245 31.764 25.7881 31.9232 25.7165L33.1948 25.1486C33.4593 25.0304 33.7684 25.0948 33.9658 25.3092C34.8848 26.3071 35.5692 27.5039 35.9676 28.8095C36.0535 29.091 35.9546 29.397 35.7213 29.5719L34.5941 30.4166C34.2725 30.6568 34.0826 31.0382 34.0826 31.4439C34.0826 31.8495 34.2725 32.2309 34.5948 32.4717L35.7229 33.3166C35.9563 33.4915 36.0553 33.7975 35.9694 34.0791C35.5712 35.3845 34.8871 36.5812 33.9687 37.5792C33.7715 37.7936 33.4627 37.8582 33.1982 37.7403L31.9214 37.1716C31.556 37.0091 31.1365 37.0329 30.7913 37.2358C30.4461 37.4386 30.2163 37.7963 30.1725 38.1992L30.019 39.6084C29.9873 39.899 29.7795 40.1381 29.4997 40.2058C28.1847 40.5239 26.8145 40.5239 25.4994 40.2058C25.2196 40.1381 25.0118 39.899 24.9802 39.6084L24.8269 38.2013C24.7819 37.7991 24.5518 37.4425 24.2068 37.2404C23.8619 37.0382 23.443 37.0145 23.079 37.1761L21.8018 37.7449C21.5373 37.8628 21.2284 37.7982 21.0312 37.5837C20.1122 36.5845 19.4281 35.3864 19.0305 34.0796C18.9448 33.7981 19.0438 33.4923 19.2771 33.3176L20.406 32.472C20.7275 32.2318 20.9174 31.8504 20.9174 31.4448C20.9174 31.0391 20.7275 30.6577 20.4055 30.4172L19.2774 29.5731C19.0437 29.3983 18.9447 29.0921 19.0306 28.8104C19.429 27.5048 20.1134 26.308 21.0324 25.3101C21.2298 25.0958 21.5389 25.0313 21.8033 25.1495L23.0748 25.7173C23.4406 25.8806 23.8612 25.8559 24.208 25.6499C24.5533 25.4463 24.7832 25.0882 24.8276 24.6852L24.982 23.2769C25.0143 22.9828 25.2268 22.7421 25.511 22.6778C26.1622 22.5306 26.8267 22.4523 27.5097 22.4443ZM27.5099 23.8289C27.0976 23.8338 26.6866 23.87 26.28 23.937L26.1811 24.839C26.0887 25.6785 25.6101 26.4237 24.8932 26.8465C24.1719 27.275 23.2925 27.3265 22.5273 26.9851L21.7117 26.6209C21.1924 27.2616 20.7791 27.9841 20.488 28.7597L21.2123 29.3017C21.8831 29.8028 22.2793 30.5985 22.2793 31.4448C22.2793 32.291 21.8831 33.0868 21.2131 33.5873L20.4876 34.1307C20.7784 34.9078 21.1918 35.6315 21.7114 36.2735L22.5332 35.9075C23.2942 35.5698 24.1676 35.6192 24.887 36.0407C25.6063 36.4623 26.0861 37.2059 26.1803 38.0468L26.2793 38.955C27.087 39.0947 27.9122 39.0947 28.7199 38.955L28.8188 38.0469C28.9104 37.2063 29.3897 36.4601 30.1098 36.037C30.83 35.6137 31.7053 35.5641 32.4676 35.9033L33.2887 36.269C33.8079 35.628 34.2211 34.9054 34.5122 34.1296L33.7876 33.5869C33.1168 33.0859 32.7207 32.2901 32.7207 31.4439C32.7207 30.5976 33.1168 29.8018 33.7868 29.3014L34.5103 28.7592C34.2193 27.9834 33.8059 27.2608 33.2865 26.6199L32.4726 26.9835C32.1409 27.1327 31.7821 27.2095 31.4197 27.2089C30.0853 27.2075 28.9654 26.1861 28.8198 24.8386L28.7209 23.9367C28.3164 23.8698 27.9095 23.8337 27.5099 23.8289ZM27.4983 27.9828C29.3788 27.9828 30.9031 29.5326 30.9031 31.4444C30.9031 33.3561 29.3788 34.9059 27.4983 34.9059C25.6179 34.9059 24.0936 33.3561 24.0936 31.4444C24.0936 29.5326 25.6179 27.9828 27.4983 27.9828ZM27.4983 29.3674C26.3701 29.3674 25.4555 30.2972 25.4555 31.4444C25.4555 32.5914 26.3701 33.5213 27.4983 33.5213C28.6265 33.5213 29.5412 32.5914 29.5412 31.4444C29.5412 30.2972 28.6265 29.3674 27.4983 29.3674Z" fill="#E82726"/>
</g>
</svg>
