<svg width="278" height="635" viewBox="0 0 278 635" fill="none" xmlns="http://www.w3.org/2000/svg">
<rect width="278" height="635" fill="#F6F6F6"/>
<mask id="mask0_1857_71575" style="mask-type:alpha" maskUnits="userSpaceOnUse" x="155" y="477" width="123" height="158">
<rect x="155" y="477" width="123" height="158" fill="white"/>
</mask>
<g mask="url(#mask0_1857_71575)">
<g opacity="0.5">
<rect x="180.402" y="504.622" width="110.191" height="94.8273" rx="3.25" stroke="#DFDFDF" stroke-width="3.5"/>
<line x1="181.727" y1="525.705" x2="289.272" y2="525.705" stroke="#DFDFDF" stroke-width="3.5"/>
<circle cx="194.017" cy="515.163" r="4.39545" stroke="#DFDFDF" stroke-width="3.5"/>
<circle cx="209.38" cy="515.163" r="4.39545" stroke="#DFDFDF" stroke-width="3.5"/>
<circle cx="224.747" cy="515.163" r="4.39545" stroke="#DFDFDF" stroke-width="3.5"/>
<path d="M253.698 543.989L253.698 543.988C253.597 543.878 253.451 543.853 253.331 543.907L252.62 542.315L253.331 543.907L249.427 545.65C249.427 545.651 249.426 545.651 249.425 545.651C248.712 545.972 247.944 546.137 247.165 546.136M253.698 543.989L229.392 536.424C231.266 536.001 233.178 535.775 235.148 535.75C237.065 535.774 238.975 536 240.847 536.424C240.976 536.454 241.099 536.572 241.118 536.749L241.593 541.077L243.333 540.889L241.593 541.08L241.593 541.079C241.903 543.931 244.282 546.132 247.165 546.136M253.698 543.989C256.343 546.86 258.315 550.307 259.463 554.069L253.698 543.989ZM247.165 546.136L247.168 544.389L247.166 546.136C247.166 546.136 247.165 546.136 247.165 546.136ZM259.336 568.808L259.336 568.808L255.871 566.213C255.871 566.213 255.871 566.213 255.871 566.213C254.433 565.139 253.595 563.445 253.595 561.653C253.595 559.863 254.432 558.169 255.867 557.096C255.867 557.096 255.867 557.096 255.867 557.096C255.868 557.095 255.868 557.095 255.869 557.094L259.33 554.501C259.45 554.411 259.514 554.238 259.463 554.069L259.336 568.808ZM259.336 568.808C259.456 568.898 259.52 569.071 259.468 569.24C258.321 573.002 256.35 576.448 253.707 579.32L253.707 579.321C253.605 579.431 253.46 579.456 253.34 579.402L253.339 579.402M259.336 568.808L253.339 579.402M253.339 579.402L249.416 577.654L249.415 577.654M253.339 579.402L249.415 577.654M249.415 577.654C247.776 576.925 245.892 577.032 244.345 577.941C242.8 578.849 241.784 580.441 241.59 582.221L241.119 586.551C241.099 586.726 240.979 586.844 240.851 586.875L240.851 586.875M249.415 577.654L240.851 586.875M240.851 586.875C237.081 587.787 233.153 587.787 229.382 586.875C229.255 586.844 229.134 586.726 229.115 586.551L228.644 582.227L228.644 582.222M240.851 586.875L228.644 582.222M228.644 582.222C228.445 580.446 227.427 578.859 225.884 577.954C224.339 577.049 222.459 576.941 220.823 577.667L220.822 577.668M228.644 582.222L220.822 577.668M220.822 577.668L216.897 579.416L216.897 579.416M220.822 577.668L216.897 579.416M216.897 579.416C216.776 579.47 216.631 579.445 216.529 579.335L216.529 579.334M216.897 579.416L216.529 579.334M216.529 579.334C213.884 576.459 211.914 573.008 210.768 569.242L210.768 569.242M216.529 579.334L210.768 569.242M210.768 569.242C210.716 569.073 210.781 568.901 210.9 568.811L210.901 568.811M210.768 569.242L210.901 568.811M210.901 568.811L214.367 566.214M210.901 568.811L214.367 566.214M210.901 554.504L210.901 554.504L214.366 557.096L210.901 554.504ZM210.901 554.504C210.781 554.414 210.716 554.241 210.768 554.072C211.916 550.31 213.887 546.863 216.532 543.991L216.532 543.991M210.901 554.504L216.532 543.991M216.532 543.991C216.634 543.881 216.78 543.856 216.9 543.91L216.9 543.91M216.532 543.991L216.9 543.91M216.9 543.91L220.807 545.655L220.808 545.655M216.9 543.91L220.808 545.655M220.808 545.655C222.452 546.389 224.343 546.276 225.894 545.356C227.436 544.446 228.45 542.855 228.646 541.077L228.646 541.076M220.808 545.655L228.646 541.076M228.646 541.076L229.121 536.749M228.646 541.076L229.121 536.749M214.367 566.214C214.368 566.214 214.368 566.214 214.369 566.213M214.367 566.214L214.369 566.213M214.369 566.213C215.804 565.141 216.642 563.447 216.642 561.656C216.642 559.865 215.803 558.171 214.367 557.097L214.369 566.213ZM229.121 536.749C229.121 536.749 229.121 536.749 229.121 536.749M229.121 536.749L229.121 536.749M229.121 536.749C229.14 536.572 229.263 536.454 229.392 536.424L229.121 536.749ZM235.17 536.504L235.149 536.504L235.128 536.504C233.772 536.521 232.421 536.64 231.085 536.86L229.775 537.076L229.63 538.396L229.326 541.167C229.326 541.167 229.326 541.167 229.326 541.167C229.101 543.207 227.94 545.005 226.219 546.019L226.215 546.022C224.486 547.049 222.383 547.172 220.551 546.354L218.046 545.235L216.819 544.687L215.973 545.732C214.258 547.847 212.894 550.232 211.934 552.791L211.472 554.02L212.524 554.807L214.75 556.472L214.751 556.473C216.364 557.678 217.326 559.601 217.326 561.656C217.326 563.711 216.364 565.634 214.753 566.837L214.751 566.839L212.522 568.508L211.472 569.294L211.932 570.522C212.891 573.086 214.255 575.475 215.971 577.594L216.816 578.639L218.043 578.092L220.567 576.968C222.389 576.159 224.479 576.277 226.204 577.288C227.93 578.299 229.094 580.091 229.324 582.134C229.324 582.135 229.324 582.136 229.324 582.137L229.627 584.922L229.77 586.233L231.069 586.457C233.748 586.92 236.486 586.92 239.165 586.457L240.463 586.233L240.606 584.922L240.91 582.132L240.91 582.132C241.133 580.091 242.295 578.291 244.024 577.275L244.024 577.275C245.751 576.26 247.845 576.142 249.671 576.955L252.193 578.078L253.42 578.624L254.265 577.581C255.979 575.464 257.343 573.08 258.303 570.52L258.764 569.292L257.714 568.505L255.487 566.837L255.486 566.836C253.872 565.631 252.91 563.708 252.91 561.653C252.91 559.597 253.873 557.675 255.483 556.472L255.485 556.47L257.709 554.804L258.758 554.018L258.298 552.789C257.337 550.23 255.973 547.845 254.258 545.729L253.412 544.685L252.185 545.233L249.684 546.35L249.68 546.352C248.886 546.708 248.029 546.892 247.165 546.89L247.164 546.89C243.979 546.887 241.267 544.444 240.913 541.169L240.913 541.166L240.609 538.395L240.465 537.076L239.155 536.859C237.827 536.639 236.488 536.52 235.17 536.504ZM235.113 552.768C239.897 552.768 243.825 556.719 243.825 561.655C243.825 566.59 239.897 570.541 235.113 570.541C230.329 570.541 226.401 566.59 226.401 561.655C226.401 556.719 230.329 552.768 235.113 552.768ZM235.113 553.523C230.653 553.523 227.086 557.191 227.086 561.655C227.086 566.118 230.653 569.786 235.113 569.786C239.573 569.786 243.14 566.118 243.14 561.655C243.14 557.191 239.573 553.523 235.113 553.523Z" stroke="#DFDFDF" stroke-width="3.5"/>
</g>
</g>
<line x1="41.75" y1="78" x2="41.75" y2="635" stroke="#DFDFDF" stroke-width="1.5"/>
<circle cx="41" cy="573" r="5" fill="#2C3441"/>
<path d="M67.104 579L64.448 574.44H62.688V579H61.232V567.848H64.832C65.6747 567.848 66.384 567.992 66.96 568.28C67.5467 568.568 67.984 568.957 68.272 569.448C68.56 569.939 68.704 570.499 68.704 571.128C68.704 571.896 68.48 572.573 68.032 573.16C67.5947 573.747 66.9333 574.136 66.048 574.328L68.848 579H67.104ZM62.688 573.272H64.832C65.6213 573.272 66.2133 573.08 66.608 572.696C67.0027 572.301 67.2 571.779 67.2 571.128C67.2 570.467 67.0027 569.955 66.608 569.592C66.224 569.229 65.632 569.048 64.832 569.048H62.688V573.272ZM78.7424 570.232V579H77.2864V577.704C77.009 578.152 76.6197 578.504 76.1184 578.76C75.6277 579.005 75.0837 579.128 74.4864 579.128C73.8037 579.128 73.1904 578.989 72.6464 578.712C72.1024 578.424 71.6704 577.997 71.3504 577.432C71.041 576.867 70.8864 576.179 70.8864 575.368V570.232H72.3264V575.176C72.3264 576.04 72.545 576.707 72.9824 577.176C73.4197 577.635 74.017 577.864 74.7744 577.864C75.553 577.864 76.1664 577.624 76.6144 577.144C77.0624 576.664 77.2864 575.965 77.2864 575.048V570.232H78.7424ZM84.3048 579.144C83.6328 579.144 83.0301 579.032 82.4968 578.808C81.9634 578.573 81.5421 578.253 81.2328 577.848C80.9234 577.432 80.7528 576.957 80.7208 576.424H82.2248C82.2674 576.861 82.4701 577.219 82.8328 577.496C83.2061 577.773 83.6914 577.912 84.2888 577.912C84.8434 577.912 85.2808 577.789 85.6008 577.544C85.9208 577.299 86.0808 576.989 86.0808 576.616C86.0808 576.232 85.9101 575.949 85.5688 575.768C85.2274 575.576 84.6994 575.389 83.9848 575.208C83.3341 575.037 82.8008 574.867 82.3848 574.696C81.9794 574.515 81.6274 574.253 81.3288 573.912C81.0408 573.56 80.8968 573.101 80.8968 572.536C80.8968 572.088 81.0301 571.677 81.2968 571.304C81.5634 570.931 81.9421 570.637 82.4328 570.424C82.9234 570.2 83.4834 570.088 84.1128 570.088C85.0834 570.088 85.8674 570.333 86.4648 570.824C87.0621 571.315 87.3821 571.987 87.4248 572.84H85.9688C85.9368 572.381 85.7501 572.013 85.4088 571.736C85.0781 571.459 84.6301 571.32 84.0648 571.32C83.5421 571.32 83.1261 571.432 82.8168 571.656C82.5074 571.88 82.3528 572.173 82.3528 572.536C82.3528 572.824 82.4434 573.064 82.6248 573.256C82.8168 573.437 83.0514 573.587 83.3288 573.704C83.6168 573.811 84.0114 573.933 84.5128 574.072C85.1421 574.243 85.6541 574.413 86.0488 574.584C86.4434 574.744 86.7794 574.989 87.0568 575.32C87.3448 575.651 87.4941 576.083 87.5048 576.616C87.5048 577.096 87.3714 577.528 87.1048 577.912C86.8381 578.296 86.4594 578.6 85.9688 578.824C85.4888 579.037 84.9341 579.144 84.3048 579.144ZM91.3361 571.432V576.6C91.3361 577.027 91.4268 577.331 91.6081 577.512C91.7895 577.683 92.1041 577.768 92.5521 577.768H93.6241V579H92.3121C91.5015 579 90.8935 578.813 90.4881 578.44C90.0828 578.067 89.8801 577.453 89.8801 576.6V571.432H88.7441V570.232H89.8801V568.024H91.3361V570.232H93.6241V571.432H91.3361Z" fill="#2C3441"/>
<circle cx="41" cy="519" r="5" fill="#2C3441"/>
<path d="M70 525H68.544L62.688 516.12V525H61.232V513.832H62.688L68.544 522.696V513.832H70V525ZM76.306 525.144C75.4847 525.144 74.738 524.957 74.066 524.584C73.4047 524.211 72.882 523.683 72.498 523C72.1247 522.307 71.938 521.507 71.938 520.6C71.938 519.704 72.13 518.915 72.514 518.232C72.9087 517.539 73.442 517.011 74.114 516.648C74.786 516.275 75.538 516.088 76.37 516.088C77.202 516.088 77.954 516.275 78.626 516.648C79.298 517.011 79.826 517.533 80.21 518.216C80.6047 518.899 80.802 519.693 80.802 520.6C80.802 521.507 80.5993 522.307 80.194 523C79.7993 523.683 79.2607 524.211 78.578 524.584C77.8953 524.957 77.138 525.144 76.306 525.144ZM76.306 523.864C76.8287 523.864 77.3193 523.741 77.778 523.496C78.2367 523.251 78.6047 522.883 78.882 522.392C79.17 521.901 79.314 521.304 79.314 520.6C79.314 519.896 79.1753 519.299 78.898 518.808C78.6207 518.317 78.258 517.955 77.81 517.72C77.362 517.475 76.8767 517.352 76.354 517.352C75.8207 517.352 75.33 517.475 74.882 517.72C74.4447 517.955 74.0927 518.317 73.826 518.808C73.5593 519.299 73.426 519.896 73.426 520.6C73.426 521.315 73.554 521.917 73.81 522.408C74.0767 522.899 74.4287 523.267 74.866 523.512C75.3033 523.747 75.7833 523.864 76.306 523.864ZM82.1724 520.584C82.1724 519.688 82.3537 518.904 82.7164 518.232C83.079 517.549 83.575 517.021 84.2044 516.648C84.8444 516.275 85.559 516.088 86.3484 516.088C87.031 516.088 87.6657 516.248 88.2524 516.568C88.839 516.877 89.287 517.288 89.5964 517.8V513.16H91.0684V525H89.5964V523.352C89.3084 523.875 88.8817 524.307 88.3164 524.648C87.751 524.979 87.0897 525.144 86.3324 525.144C85.5537 525.144 84.8444 524.952 84.2044 524.568C83.575 524.184 83.079 523.645 82.7164 522.952C82.3537 522.259 82.1724 521.469 82.1724 520.584ZM89.5964 520.6C89.5964 519.939 89.463 519.363 89.1964 518.872C88.9297 518.381 88.567 518.008 88.1084 517.752C87.6604 517.485 87.1644 517.352 86.6204 517.352C86.0764 517.352 85.5804 517.48 85.1324 517.736C84.6844 517.992 84.327 518.365 84.0604 518.856C83.7937 519.347 83.6604 519.923 83.6604 520.584C83.6604 521.256 83.7937 521.843 84.0604 522.344C84.327 522.835 84.6844 523.213 85.1324 523.48C85.5804 523.736 86.0764 523.864 86.6204 523.864C87.1644 523.864 87.6604 523.736 88.1084 523.48C88.567 523.213 88.9297 522.835 89.1964 522.344C89.463 521.843 89.5964 521.261 89.5964 520.6ZM101.529 520.28C101.529 520.557 101.513 520.851 101.481 521.16H94.4729C94.5262 522.024 94.8195 522.701 95.3529 523.192C95.8969 523.672 96.5529 523.912 97.3209 523.912C97.9502 523.912 98.4729 523.768 98.8889 523.48C99.3155 523.181 99.6142 522.787 99.7849 522.296H101.353C101.118 523.139 100.649 523.827 99.9449 524.36C99.2409 524.883 98.3662 525.144 97.3209 525.144C96.4889 525.144 95.7422 524.957 95.0809 524.584C94.4302 524.211 93.9182 523.683 93.5449 523C93.1715 522.307 92.9849 521.507 92.9849 520.6C92.9849 519.693 93.1662 518.899 93.5289 518.216C93.8915 517.533 94.3982 517.011 95.0489 516.648C95.7102 516.275 96.4675 516.088 97.3209 516.088C98.1529 516.088 98.8889 516.269 99.5289 516.632C100.169 516.995 100.66 517.496 101.001 518.136C101.353 518.765 101.529 519.48 101.529 520.28ZM100.025 519.976C100.025 519.421 99.9022 518.947 99.6569 518.552C99.4115 518.147 99.0755 517.843 98.6489 517.64C98.2329 517.427 97.7689 517.32 97.2569 517.32C96.5209 517.32 95.8915 517.555 95.3689 518.024C94.8569 518.493 94.5635 519.144 94.4889 519.976H100.025ZM103.915 525.096C103.637 525.096 103.403 525 103.211 524.808C103.019 524.616 102.923 524.381 102.923 524.104C102.923 523.827 103.019 523.592 103.211 523.4C103.403 523.208 103.637 523.112 103.915 523.112C104.181 523.112 104.405 523.208 104.587 523.4C104.779 523.592 104.875 523.827 104.875 524.104C104.875 524.381 104.779 524.616 104.587 524.808C104.405 525 104.181 525.096 103.915 525.096ZM107.594 514.808C107.317 514.808 107.082 514.712 106.89 514.52C106.709 514.328 106.618 514.093 106.618 513.816C106.618 513.539 106.709 513.304 106.89 513.112C107.082 512.92 107.317 512.824 107.594 512.824C107.871 512.824 108.101 512.92 108.282 513.112C108.474 513.304 108.57 513.539 108.57 513.816C108.57 514.093 108.474 514.328 108.282 514.52C108.101 514.712 107.871 514.808 107.594 514.808ZM108.314 526.904C108.314 527.683 108.117 528.253 107.722 528.616C107.327 528.979 106.751 529.16 105.994 529.16H105.146V527.928H105.754C106.159 527.928 106.442 527.848 106.602 527.688C106.773 527.528 106.858 527.256 106.858 526.872V516.232H108.314V526.904ZM113.883 525.144C113.211 525.144 112.608 525.032 112.075 524.808C111.542 524.573 111.12 524.253 110.811 523.848C110.502 523.432 110.331 522.957 110.299 522.424H111.803C111.846 522.861 112.048 523.219 112.411 523.496C112.784 523.773 113.27 523.912 113.867 523.912C114.422 523.912 114.859 523.789 115.179 523.544C115.499 523.299 115.659 522.989 115.659 522.616C115.659 522.232 115.488 521.949 115.147 521.768C114.806 521.576 114.278 521.389 113.563 521.208C112.912 521.037 112.379 520.867 111.963 520.696C111.558 520.515 111.206 520.253 110.907 519.912C110.619 519.56 110.475 519.101 110.475 518.536C110.475 518.088 110.608 517.677 110.875 517.304C111.142 516.931 111.52 516.637 112.011 516.424C112.502 516.2 113.062 516.088 113.691 516.088C114.662 516.088 115.446 516.333 116.043 516.824C116.64 517.315 116.96 517.987 117.003 518.84H115.547C115.515 518.381 115.328 518.013 114.987 517.736C114.656 517.459 114.208 517.32 113.643 517.32C113.12 517.32 112.704 517.432 112.395 517.656C112.086 517.88 111.931 518.173 111.931 518.536C111.931 518.824 112.022 519.064 112.203 519.256C112.395 519.437 112.63 519.587 112.907 519.704C113.195 519.811 113.59 519.933 114.091 520.072C114.72 520.243 115.232 520.413 115.627 520.584C116.022 520.744 116.358 520.989 116.635 521.32C116.923 521.651 117.072 522.083 117.083 522.616C117.083 523.096 116.95 523.528 116.683 523.912C116.416 524.296 116.038 524.6 115.547 524.824C115.067 525.037 114.512 525.144 113.883 525.144Z" fill="#2C3441"/>
<circle cx="41" cy="465" r="5" fill="#2C3441"/>
<path d="M69.68 463.08C69.3707 462.429 68.9227 461.928 68.336 461.576C67.7493 461.213 67.0667 461.032 66.288 461.032C65.5093 461.032 64.8053 461.213 64.176 461.576C63.5573 461.928 63.0667 462.44 62.704 463.112C62.352 463.773 62.176 464.541 62.176 465.416C62.176 466.291 62.352 467.059 62.704 467.72C63.0667 468.381 63.5573 468.893 64.176 469.256C64.8053 469.608 65.5093 469.784 66.288 469.784C67.376 469.784 68.272 469.459 68.976 468.808C69.68 468.157 70.0907 467.277 70.208 466.168H65.76V464.984H71.76V466.104C71.6747 467.021 71.3867 467.864 70.896 468.632C70.4053 469.389 69.76 469.992 68.96 470.44C68.16 470.877 67.2693 471.096 66.288 471.096C65.2533 471.096 64.3093 470.856 63.456 470.376C62.6027 469.885 61.9253 469.208 61.424 468.344C60.9333 467.48 60.688 466.504 60.688 465.416C60.688 464.328 60.9333 463.352 61.424 462.488C61.9253 461.613 62.6027 460.936 63.456 460.456C64.3093 459.965 65.2533 459.72 66.288 459.72C67.472 459.72 68.5173 460.013 69.424 460.6C70.3413 461.187 71.008 462.013 71.424 463.08H69.68ZM77.5091 471.144C76.6878 471.144 75.9411 470.957 75.2691 470.584C74.6078 470.211 74.0851 469.683 73.7011 469C73.3278 468.307 73.1411 467.507 73.1411 466.6C73.1411 465.704 73.3331 464.915 73.7171 464.232C74.1118 463.539 74.6451 463.011 75.3171 462.648C75.9891 462.275 76.7411 462.088 77.5731 462.088C78.4051 462.088 79.1571 462.275 79.8291 462.648C80.5011 463.011 81.0291 463.533 81.4131 464.216C81.8078 464.899 82.0051 465.693 82.0051 466.6C82.0051 467.507 81.8025 468.307 81.3971 469C81.0025 469.683 80.4638 470.211 79.7811 470.584C79.0985 470.957 78.3411 471.144 77.5091 471.144ZM77.5091 469.864C78.0318 469.864 78.5225 469.741 78.9811 469.496C79.4398 469.251 79.8078 468.883 80.0851 468.392C80.3731 467.901 80.5171 467.304 80.5171 466.6C80.5171 465.896 80.3785 465.299 80.1011 464.808C79.8238 464.317 79.4611 463.955 79.0131 463.72C78.5651 463.475 78.0798 463.352 77.5571 463.352C77.0238 463.352 76.5331 463.475 76.0851 463.72C75.6478 463.955 75.2958 464.317 75.0291 464.808C74.7625 465.299 74.6291 465.896 74.6291 466.6C74.6291 467.315 74.7571 467.917 75.0131 468.408C75.2798 468.899 75.6318 469.267 76.0691 469.512C76.5065 469.747 76.9865 469.864 77.5091 469.864Z" fill="#2C3441"/>
<circle cx="41" cy="411" r="5" fill="#2C3441"/>
<path d="M68.688 409.112C68.688 410.04 68.368 410.813 67.728 411.432C67.0987 412.04 66.1333 412.344 64.832 412.344H62.688V417H61.232V405.848H64.832C66.0907 405.848 67.0453 406.152 67.696 406.76C68.3573 407.368 68.688 408.152 68.688 409.112ZM64.832 411.144C65.6427 411.144 66.24 410.968 66.624 410.616C67.008 410.264 67.2 409.763 67.2 409.112C67.2 407.736 66.4107 407.048 64.832 407.048H62.688V411.144H64.832ZM78.0496 408.232L72.7696 421.128H71.2656L72.9936 416.904L69.4576 408.232H71.0736L73.8256 415.336L76.5456 408.232H78.0496ZM81.2893 409.432V414.6C81.2893 415.027 81.3799 415.331 81.5613 415.512C81.7426 415.683 82.0573 415.768 82.5052 415.768H83.5773V417H82.2653C81.4546 417 80.8466 416.813 80.4413 416.44C80.0359 416.067 79.8333 415.453 79.8333 414.6V409.432H78.6973V408.232H79.8333V406.024H81.2893V408.232H83.5773V409.432H81.2893ZM89.6934 408.072C90.3547 408.072 90.952 408.216 91.4854 408.504C92.0187 408.781 92.4347 409.203 92.7334 409.768C93.0427 410.333 93.1974 411.021 93.1974 411.832V417H91.7574V412.04C91.7574 411.165 91.5387 410.499 91.1014 410.04C90.664 409.571 90.0667 409.336 89.3094 409.336C88.5414 409.336 87.928 409.576 87.4694 410.056C87.0214 410.536 86.7974 411.235 86.7974 412.152V417H85.3414V405.16H86.7974V409.48C87.0854 409.032 87.48 408.685 87.9814 408.44C88.4934 408.195 89.064 408.072 89.6934 408.072ZM99.3998 417.144C98.5784 417.144 97.8318 416.957 97.1598 416.584C96.4984 416.211 95.9758 415.683 95.5918 415C95.2184 414.307 95.0318 413.507 95.0318 412.6C95.0318 411.704 95.2238 410.915 95.6078 410.232C96.0024 409.539 96.5358 409.011 97.2078 408.648C97.8798 408.275 98.6318 408.088 99.4638 408.088C100.296 408.088 101.048 408.275 101.72 408.648C102.392 409.011 102.92 409.533 103.304 410.216C103.698 410.899 103.896 411.693 103.896 412.6C103.896 413.507 103.693 414.307 103.288 415C102.893 415.683 102.354 416.211 101.672 416.584C100.989 416.957 100.232 417.144 99.3998 417.144ZM99.3998 415.864C99.9224 415.864 100.413 415.741 100.872 415.496C101.33 415.251 101.698 414.883 101.976 414.392C102.264 413.901 102.408 413.304 102.408 412.6C102.408 411.896 102.269 411.299 101.992 410.808C101.714 410.317 101.352 409.955 100.904 409.72C100.456 409.475 99.9704 409.352 99.4478 409.352C98.9144 409.352 98.4238 409.475 97.9758 409.72C97.5384 409.955 97.1864 410.317 96.9198 410.808C96.6531 411.299 96.5198 411.896 96.5198 412.6C96.5198 413.315 96.6478 413.917 96.9038 414.408C97.1704 414.899 97.5224 415.267 97.9598 415.512C98.3971 415.747 98.8771 415.864 99.3998 415.864ZM110.082 408.072C111.149 408.072 112.013 408.397 112.674 409.048C113.335 409.688 113.666 410.616 113.666 411.832V417H112.226V412.04C112.226 411.165 112.007 410.499 111.57 410.04C111.133 409.571 110.535 409.336 109.778 409.336C109.01 409.336 108.397 409.576 107.938 410.056C107.49 410.536 107.266 411.235 107.266 412.152V417H105.81V408.232H107.266V409.48C107.554 409.032 107.943 408.685 108.434 408.44C108.935 408.195 109.485 408.072 110.082 408.072Z" fill="#2C3441"/>
<circle cx="41" cy="357" r="5" fill="#2C3441"/>
<path d="M67.104 363L64.448 358.44H62.688V363H61.232V351.848H64.832C65.6747 351.848 66.384 351.992 66.96 352.28C67.5467 352.568 67.984 352.957 68.272 353.448C68.56 353.939 68.704 354.499 68.704 355.128C68.704 355.896 68.48 356.573 68.032 357.16C67.5947 357.747 66.9333 358.136 66.048 358.328L68.848 363H67.104ZM62.688 357.272H64.832C65.6213 357.272 66.2133 357.08 66.608 356.696C67.0027 356.301 67.2 355.779 67.2 355.128C67.2 354.467 67.0027 353.955 66.608 353.592C66.224 353.229 65.632 353.048 64.832 353.048H62.688V357.272ZM78.7424 354.232V363H77.2864V361.704C77.009 362.152 76.6197 362.504 76.1184 362.76C75.6277 363.005 75.0837 363.128 74.4864 363.128C73.8037 363.128 73.1904 362.989 72.6464 362.712C72.1024 362.424 71.6704 361.997 71.3504 361.432C71.041 360.867 70.8864 360.179 70.8864 359.368V354.232H72.3264V359.176C72.3264 360.04 72.545 360.707 72.9824 361.176C73.4197 361.635 74.017 361.864 74.7744 361.864C75.553 361.864 76.1664 361.624 76.6144 361.144C77.0624 360.664 77.2864 359.965 77.2864 359.048V354.232H78.7424ZM82.6568 355.864C82.9554 355.341 83.3928 354.915 83.9688 354.584C84.5448 354.253 85.2008 354.088 85.9368 354.088C86.7261 354.088 87.4354 354.275 88.0648 354.648C88.6941 355.021 89.1901 355.549 89.5528 356.232C89.9154 356.904 90.0968 357.688 90.0968 358.584C90.0968 359.469 89.9154 360.259 89.5528 360.952C89.1901 361.645 88.6887 362.184 88.0487 362.568C87.4194 362.952 86.7154 363.144 85.9368 363.144C85.1794 363.144 84.5128 362.979 83.9368 362.648C83.3714 362.317 82.9448 361.896 82.6568 361.384V363H81.2008V351.16H82.6568V355.864ZM88.6088 358.584C88.6088 357.923 88.4754 357.347 88.2088 356.856C87.9421 356.365 87.5794 355.992 87.1208 355.736C86.6728 355.48 86.1768 355.352 85.6328 355.352C85.0994 355.352 84.6034 355.485 84.1448 355.752C83.6968 356.008 83.3341 356.387 83.0568 356.888C82.7901 357.379 82.6568 357.949 82.6568 358.6C82.6568 359.261 82.7901 359.843 83.0568 360.344C83.3341 360.835 83.6968 361.213 84.1448 361.48C84.6034 361.736 85.0994 361.864 85.6328 361.864C86.1768 361.864 86.6728 361.736 87.1208 361.48C87.5794 361.213 87.9421 360.835 88.2088 360.344C88.4754 359.843 88.6088 359.256 88.6088 358.584ZM99.5653 354.232L94.2853 367.128H92.7812L94.5093 362.904L90.9733 354.232H92.5893L95.3413 361.336L98.0613 354.232H99.5653Z" fill="#2C3441"/>
<circle cx="41" cy="303" r="5" fill="#2C3441"/>
<path d="M68.688 301.112C68.688 302.04 68.368 302.813 67.728 303.432C67.0987 304.04 66.1333 304.344 64.832 304.344H62.688V309H61.232V297.848H64.832C66.0907 297.848 67.0453 298.152 67.696 298.76C68.3573 299.368 68.688 300.152 68.688 301.112ZM64.832 303.144C65.6427 303.144 66.24 302.968 66.624 302.616C67.008 302.264 67.2 301.763 67.2 301.112C67.2 299.736 66.4107 299.048 64.832 299.048H62.688V303.144H64.832ZM79.0896 297.848V309H77.6336V303.944H71.9536V309H70.4976V297.848H71.9536V302.744H77.6336V297.848H79.0896ZM89.0318 301.112C89.0318 302.04 88.7118 302.813 88.0718 303.432C87.4424 304.04 86.4771 304.344 85.1758 304.344H83.0318V309H81.5758V297.848H85.1758C86.4344 297.848 87.3891 298.152 88.0398 298.76C88.7011 299.368 89.0318 300.152 89.0318 301.112ZM85.1758 303.144C85.9864 303.144 86.5838 302.968 86.9678 302.616C87.3518 302.264 87.5438 301.763 87.5438 301.112C87.5438 299.736 86.7544 299.048 85.1758 299.048H83.0318V303.144H85.1758Z" fill="#2C3441"/>
<circle cx="41" cy="249" r="5" fill="#2C3441"/>
<path d="M61.696 255.096C61.4187 255.096 61.184 255 60.992 254.808C60.8 254.616 60.704 254.381 60.704 254.104C60.704 253.827 60.8 253.592 60.992 253.4C61.184 253.208 61.4187 253.112 61.696 253.112C61.9627 253.112 62.1867 253.208 62.368 253.4C62.56 253.592 62.656 253.827 62.656 254.104C62.656 254.381 62.56 254.616 62.368 254.808C62.1867 255 61.9627 255.096 61.696 255.096ZM73.3594 255H71.9034L66.0474 246.12V255H64.5914V243.832H66.0474L71.9034 252.696V243.832H73.3594V255ZM83.8414 250.28C83.8414 250.557 83.8254 250.851 83.7934 251.16H76.7854C76.8387 252.024 77.132 252.701 77.6654 253.192C78.2094 253.672 78.8654 253.912 79.6334 253.912C80.2627 253.912 80.7854 253.768 81.2014 253.48C81.628 253.181 81.9267 252.787 82.0974 252.296H83.6654C83.4307 253.139 82.9614 253.827 82.2574 254.36C81.5534 254.883 80.6787 255.144 79.6334 255.144C78.8014 255.144 78.0547 254.957 77.3934 254.584C76.7427 254.211 76.2307 253.683 75.8574 253C75.484 252.307 75.2974 251.507 75.2974 250.6C75.2974 249.693 75.4787 248.899 75.8414 248.216C76.204 247.533 76.7107 247.011 77.3614 246.648C78.0227 246.275 78.78 246.088 79.6334 246.088C80.4654 246.088 81.2014 246.269 81.8414 246.632C82.4814 246.995 82.972 247.496 83.3134 248.136C83.6654 248.765 83.8414 249.48 83.8414 250.28ZM82.3374 249.976C82.3374 249.421 82.2147 248.947 81.9694 248.552C81.724 248.147 81.388 247.843 80.9614 247.64C80.5454 247.427 80.0814 247.32 79.5694 247.32C78.8334 247.32 78.204 247.555 77.6814 248.024C77.1694 248.493 76.876 249.144 76.8014 249.976H82.3374ZM87.5393 247.432V252.6C87.5393 253.027 87.6299 253.331 87.8113 253.512C87.9926 253.683 88.3073 253.768 88.7552 253.768H89.8273V255H88.5153C87.7046 255 87.0966 254.813 86.6913 254.44C86.2859 254.067 86.0833 253.453 86.0833 252.6V247.432H84.9473V246.232H86.0833V244.024H87.5393V246.232H89.8273V247.432H87.5393Z" fill="#2C3441"/>
<circle cx="41" cy="195" r="5" fill="#2C3441"/>
<path d="M67.28 201L62.688 195.912V201H61.232V189.848H62.688V195.016L67.296 189.848H69.136L64.08 195.432L69.184 201H67.28ZM74.6341 201.144C73.8128 201.144 73.0661 200.957 72.3941 200.584C71.7328 200.211 71.2101 199.683 70.8261 199C70.4528 198.307 70.2661 197.507 70.2661 196.6C70.2661 195.704 70.4581 194.915 70.8421 194.232C71.2368 193.539 71.7701 193.011 72.4421 192.648C73.1141 192.275 73.8661 192.088 74.6981 192.088C75.5301 192.088 76.2821 192.275 76.9541 192.648C77.6261 193.011 78.1541 193.533 78.5381 194.216C78.9328 194.899 79.1301 195.693 79.1301 196.6C79.1301 197.507 78.9275 198.307 78.5221 199C78.1275 199.683 77.5888 200.211 76.9061 200.584C76.2235 200.957 75.4661 201.144 74.6341 201.144ZM74.6341 199.864C75.1568 199.864 75.6475 199.741 76.1061 199.496C76.5648 199.251 76.9328 198.883 77.2101 198.392C77.4981 197.901 77.6421 197.304 77.6421 196.6C77.6421 195.896 77.5035 195.299 77.2261 194.808C76.9488 194.317 76.5861 193.955 76.1381 193.72C75.6901 193.475 75.2048 193.352 74.6821 193.352C74.1488 193.352 73.6581 193.475 73.2101 193.72C72.7728 193.955 72.4208 194.317 72.1541 194.808C71.8875 195.299 71.7541 195.896 71.7541 196.6C71.7541 197.315 71.8821 197.917 72.1381 198.408C72.4048 198.899 72.7568 199.267 73.1941 199.512C73.6315 199.747 74.1115 199.864 74.6341 199.864ZM82.8205 193.432V198.6C82.8205 199.027 82.9112 199.331 83.0925 199.512C83.2738 199.683 83.5885 199.768 84.0365 199.768H85.1085V201H83.7965C82.9858 201 82.3778 200.813 81.9725 200.44C81.5672 200.067 81.3645 199.453 81.3645 198.6V193.432H80.2285V192.232H81.3645V190.024H82.8205V192.232H85.1085V193.432H82.8205ZM88.3286 189.16V201H86.8726V189.16H88.3286ZM91.5621 190.808C91.2848 190.808 91.0501 190.712 90.8581 190.52C90.6661 190.328 90.5701 190.093 90.5701 189.816C90.5701 189.539 90.6661 189.304 90.8581 189.112C91.0501 188.92 91.2848 188.824 91.5621 188.824C91.8288 188.824 92.0528 188.92 92.2341 189.112C92.4261 189.304 92.5221 189.539 92.5221 189.816C92.5221 190.093 92.4261 190.328 92.2341 190.52C92.0528 190.712 91.8288 190.808 91.5621 190.808ZM92.2661 192.232V201H90.8101V192.232H92.2661ZM99.0196 192.072C100.086 192.072 100.95 192.397 101.612 193.048C102.273 193.688 102.604 194.616 102.604 195.832V201H101.164V196.04C101.164 195.165 100.945 194.499 100.508 194.04C100.07 193.571 99.473 193.336 98.7156 193.336C97.9476 193.336 97.3343 193.576 96.8756 194.056C96.4276 194.536 96.2036 195.235 96.2036 196.152V201H94.7476V192.232H96.2036V193.48C96.4916 193.032 96.881 192.685 97.3716 192.44C97.873 192.195 98.4223 192.072 99.0196 192.072Z" fill="#2C3441"/>
<circle cx="41" cy="141" r="5" fill="#2C3441"/>
<path d="M66.848 135.848V144.088C66.848 145.005 66.5653 145.741 66 146.296C65.4347 146.84 64.688 147.112 63.76 147.112C62.8213 147.112 62.0693 146.835 61.504 146.28C60.9387 145.715 60.656 144.947 60.656 143.976H62.112C62.1227 144.52 62.2613 144.963 62.528 145.304C62.8053 145.645 63.216 145.816 63.76 145.816C64.304 145.816 64.7093 145.656 64.976 145.336C65.2427 145.005 65.376 144.589 65.376 144.088V135.848H66.848ZM69.1724 142.584C69.1724 141.688 69.3537 140.904 69.7164 140.232C70.079 139.549 70.575 139.021 71.2044 138.648C71.8444 138.275 72.5537 138.088 73.3324 138.088C74.1004 138.088 74.767 138.253 75.3324 138.584C75.8977 138.915 76.319 139.331 76.5964 139.832V138.232H78.0684V147H76.5964V145.368C76.3084 145.88 75.8764 146.307 75.3004 146.648C74.735 146.979 74.0737 147.144 73.3164 147.144C72.5377 147.144 71.8337 146.952 71.2044 146.568C70.575 146.184 70.079 145.645 69.7164 144.952C69.3537 144.259 69.1724 143.469 69.1724 142.584ZM76.5964 142.6C76.5964 141.939 76.463 141.363 76.1964 140.872C75.9297 140.381 75.567 140.008 75.1084 139.752C74.6604 139.485 74.1644 139.352 73.6204 139.352C73.0764 139.352 72.5804 139.48 72.1324 139.736C71.6844 139.992 71.327 140.365 71.0604 140.856C70.7937 141.347 70.6604 141.923 70.6604 142.584C70.6604 143.256 70.7937 143.843 71.0604 144.344C71.327 144.835 71.6844 145.213 72.1324 145.48C72.5804 145.736 73.0764 145.864 73.6204 145.864C74.1644 145.864 74.6604 145.736 75.1084 145.48C75.567 145.213 75.9297 144.835 76.1964 144.344C76.463 143.843 76.5964 143.261 76.5964 142.6ZM83.7929 145.656L86.5129 138.232H88.0649L84.6249 147H82.9289L79.4889 138.232H81.0569L83.7929 145.656ZM88.9536 142.584C88.9536 141.688 89.135 140.904 89.4976 140.232C89.8603 139.549 90.3563 139.021 90.9856 138.648C91.6256 138.275 92.335 138.088 93.1136 138.088C93.8816 138.088 94.5483 138.253 95.1136 138.584C95.679 138.915 96.1003 139.331 96.3776 139.832V138.232H97.8496V147H96.3776V145.368C96.0896 145.88 95.6576 146.307 95.0816 146.648C94.5163 146.979 93.855 147.144 93.0976 147.144C92.319 147.144 91.615 146.952 90.9856 146.568C90.3563 146.184 89.8603 145.645 89.4976 144.952C89.135 144.259 88.9536 143.469 88.9536 142.584ZM96.3776 142.6C96.3776 141.939 96.2443 141.363 95.9776 140.872C95.711 140.381 95.3483 140.008 94.8896 139.752C94.4416 139.485 93.9456 139.352 93.4016 139.352C92.8576 139.352 92.3616 139.48 91.9136 139.736C91.4656 139.992 91.1083 140.365 90.8416 140.856C90.575 141.347 90.4416 141.923 90.4416 142.584C90.4416 143.256 90.575 143.843 90.8416 144.344C91.1083 144.835 91.4656 145.213 91.9136 145.48C92.3616 145.736 92.8576 145.864 93.4016 145.864C93.9456 145.864 94.4416 145.736 94.8896 145.48C95.3483 145.213 95.711 144.835 95.9776 144.344C96.2443 143.843 96.3776 143.261 96.3776 142.6Z" fill="#2C3441"/>
<rect width="79" height="79" fill="white"/>
<rect x="21.75" y="24.75" width="35.5" height="30.5" rx="4.25" stroke="#2C3441" stroke-width="1.5"/>
<line x1="22" y1="31.25" x2="57" y2="31.25" stroke="#2C3441" stroke-width="1.5"/>
<circle cx="26" cy="28" r="1.5" stroke="#2C3441"/>
<circle cx="31" cy="28" r="1.5" stroke="#2C3441"/>
<circle cx="36" cy="28" r="1.5" stroke="#2C3441"/>
<path d="M39.5097 34C40.1761 34.0078 40.8399 34.0861 41.4904 34.2336C41.7743 34.298 41.9866 34.5386 42.0189 34.8326L42.1734 36.242C42.2434 36.8891 42.7808 37.3792 43.4215 37.3799C43.5937 37.3802 43.764 37.3437 43.9232 37.2722L45.1948 36.7042C45.4593 36.5861 45.7684 36.6505 45.9658 36.8649C46.8848 37.8628 47.5692 39.0595 47.9676 40.3652C48.0535 40.6467 47.9546 40.9527 47.7213 41.1276L46.5941 41.9723C46.2725 42.2125 46.0826 42.5939 46.0826 42.9996C46.0826 43.4052 46.2725 43.7866 46.5948 44.0273L47.7229 44.8723C47.9563 45.0471 48.0553 45.3531 47.9694 45.6348C47.5712 46.9402 46.8871 48.1369 45.9687 49.1349C45.7715 49.3492 45.4627 49.4139 45.1982 49.296L43.9214 48.7273C43.556 48.5647 43.1365 48.5885 42.7913 48.7914C42.4461 48.9942 42.2163 49.3519 42.1725 49.7548L42.019 51.1641C41.9873 51.4547 41.7795 51.6938 41.4997 51.7614C40.1847 52.0795 38.8145 52.0795 37.4994 51.7614C37.2196 51.6938 37.0118 51.4547 36.9802 51.1641L36.8269 49.757C36.7819 49.3548 36.5518 48.9982 36.2068 48.796C35.8619 48.5939 35.443 48.5702 35.079 48.7318L33.8018 49.3006C33.5373 49.4185 33.2284 49.3539 33.0312 49.1393C32.1122 48.1402 31.4281 46.942 31.0305 45.6352C30.9448 45.3538 31.0438 45.048 31.2771 44.8732L32.406 44.0277C32.7275 43.7875 32.9174 43.4061 32.9174 43.0005C32.9174 42.5948 32.7275 42.2134 32.4055 41.9729L31.2774 41.1288C31.0437 40.954 30.9447 40.6478 31.0306 40.3661C31.429 39.0605 32.1134 37.8637 33.0324 36.8658C33.2298 36.6514 33.5389 36.587 33.8033 36.7051L35.0748 37.273C35.4406 37.4362 35.8612 37.4116 36.208 37.2056C36.5533 37.0019 36.7832 36.6439 36.8276 36.2409L36.982 34.8326C37.0143 34.5385 37.2268 34.2977 37.511 34.2335C38.1622 34.0862 38.8267 34.008 39.5097 34ZM39.5099 35.3845C39.0976 35.3895 38.6866 35.4256 38.28 35.4926L38.1811 36.3946C38.0887 37.2342 37.6101 37.9794 36.8932 38.4022C36.1719 38.8306 35.2925 38.8822 34.5273 38.5408L33.7117 38.1765C33.1924 38.8173 32.7791 39.5397 32.488 40.3154L33.2123 40.8574C33.8831 41.3584 34.2793 42.1542 34.2793 43.0005C34.2793 43.8467 33.8831 44.6425 33.2131 45.143L32.4876 45.6864C32.7784 46.4634 33.1918 47.1872 33.7114 47.8292L34.5332 47.4632C35.2942 47.1254 36.1676 47.1748 36.887 47.5964C37.6063 48.018 38.0861 48.7616 38.1803 49.6024L38.2793 50.5107C39.087 50.6503 39.9122 50.6503 40.7199 50.5107L40.8188 49.6025C40.9104 48.762 41.3897 48.0158 42.1098 47.5926C42.83 47.1694 43.7053 47.1197 44.4676 47.459L45.2887 47.8247C45.8079 47.1837 46.2211 46.4611 46.5122 45.6853L45.7876 45.1426C45.1168 44.6415 44.7207 43.8457 44.7207 42.9996C44.7207 42.1533 45.1168 41.3575 45.7868 40.8571L46.5103 40.3149C46.2193 39.539 45.8059 38.8165 45.2865 38.1756L44.4726 38.5391C44.1409 38.6883 43.7821 38.7651 43.4197 38.7645C42.0853 38.7631 40.9654 37.7417 40.8198 36.3943L40.7209 35.4923C40.3164 35.4254 39.9095 35.3893 39.5099 35.3845ZM39.4983 39.5384C41.3788 39.5384 42.9031 41.0882 42.9031 43C42.9031 44.9117 41.3788 46.4616 39.4983 46.4616C37.6179 46.4616 36.0936 44.9117 36.0936 43C36.0936 41.0882 37.6179 39.5384 39.4983 39.5384ZM39.4983 40.923C38.3701 40.923 37.4555 41.8529 37.4555 43C37.4555 44.147 38.3701 45.077 39.4983 45.077C40.6265 45.077 41.5412 44.147 41.5412 43C41.5412 41.8529 40.6265 40.923 39.4983 40.923Z" fill="#E82726"/>
<path d="M100.248 25.58C99.96 25.0253 99.56 24.6093 99.048 24.332C98.536 24.044 97.944 23.9 97.272 23.9C96.536 23.9 95.88 24.0653 95.304 24.396C94.728 24.7267 94.2747 25.196 93.944 25.804C93.624 26.412 93.464 27.116 93.464 27.916C93.464 28.716 93.624 29.4253 93.944 30.044C94.2747 30.652 94.728 31.1213 95.304 31.452C95.88 31.7827 96.536 31.948 97.272 31.948C98.264 31.948 99.0693 31.6707 99.688 31.116C100.307 30.5613 100.685 29.8093 100.824 28.86H96.648V27.404H102.776V28.828C102.659 29.692 102.349 30.4867 101.848 31.212C101.357 31.9373 100.712 32.5187 99.912 32.956C99.1227 33.3827 98.2427 33.596 97.272 33.596C96.2267 33.596 95.272 33.356 94.408 32.876C93.544 32.3853 92.856 31.708 92.344 30.844C91.8427 29.98 91.592 29.004 91.592 27.916C91.592 26.828 91.8427 25.852 92.344 24.988C92.856 24.124 93.544 23.452 94.408 22.972C95.2827 22.4813 96.2373 22.236 97.272 22.236C98.456 22.236 99.5067 22.5293 100.424 23.116C101.352 23.692 102.024 24.5133 102.44 25.58H100.248ZM113.455 28.876C113.455 29.2067 113.434 29.5053 113.391 29.772H106.655C106.708 30.476 106.97 31.0413 107.439 31.468C107.908 31.8947 108.484 32.108 109.167 32.108C110.148 32.108 110.842 31.6973 111.247 30.876H113.215C112.948 31.6867 112.463 32.3533 111.759 32.876C111.066 33.388 110.202 33.644 109.167 33.644C108.324 33.644 107.567 33.4573 106.895 33.084C106.234 32.7 105.711 32.1667 105.327 31.484C104.954 30.7907 104.767 29.9907 104.767 29.084C104.767 28.1773 104.948 27.3827 105.311 26.7C105.684 26.0067 106.202 25.4733 106.863 25.1C107.535 24.7267 108.303 24.54 109.167 24.54C109.999 24.54 110.74 24.7213 111.391 25.084C112.042 25.4467 112.548 25.9587 112.911 26.62C113.274 27.2707 113.455 28.0227 113.455 28.876ZM111.551 28.3C111.54 27.628 111.3 27.0893 110.831 26.684C110.362 26.2787 109.78 26.076 109.087 26.076C108.458 26.076 107.919 26.2787 107.471 26.684C107.023 27.0787 106.756 27.6173 106.671 28.3H111.551ZM120.498 24.54C121.191 24.54 121.81 24.684 122.354 24.972C122.909 25.26 123.341 25.6867 123.65 26.252C123.959 26.8173 124.114 27.5 124.114 28.3V33.5H122.306V28.572C122.306 27.7827 122.109 27.18 121.714 26.764C121.319 26.3373 120.781 26.124 120.098 26.124C119.415 26.124 118.871 26.3373 118.466 26.764C118.071 27.18 117.874 27.7827 117.874 28.572V33.5H116.05V24.684H117.874V25.692C118.173 25.3293 118.551 25.0467 119.01 24.844C119.479 24.6413 119.975 24.54 120.498 24.54ZM135.321 28.876C135.321 29.2067 135.299 29.5053 135.257 29.772H128.521C128.574 30.476 128.835 31.0413 129.305 31.468C129.774 31.8947 130.35 32.108 131.033 32.108C132.014 32.108 132.707 31.6973 133.113 30.876H135.081C134.814 31.6867 134.329 32.3533 133.625 32.876C132.931 33.388 132.067 33.644 131.033 33.644C130.19 33.644 129.433 33.4573 128.761 33.084C128.099 32.7 127.577 32.1667 127.193 31.484C126.819 30.7907 126.633 29.9907 126.633 29.084C126.633 28.1773 126.814 27.3827 127.177 26.7C127.55 26.0067 128.067 25.4733 128.729 25.1C129.401 24.7267 130.169 24.54 131.033 24.54C131.865 24.54 132.606 24.7213 133.257 25.084C133.907 25.4467 134.414 25.9587 134.777 26.62C135.139 27.2707 135.321 28.0227 135.321 28.876ZM133.417 28.3C133.406 27.628 133.166 27.0893 132.697 26.684C132.227 26.2787 131.646 26.076 130.953 26.076C130.323 26.076 129.785 26.2787 129.337 26.684C128.889 27.0787 128.622 27.6173 128.537 28.3H133.417ZM139.74 25.964C140.006 25.516 140.358 25.1693 140.796 24.924C141.244 24.668 141.772 24.54 142.38 24.54V26.428H141.916C141.201 26.428 140.657 26.6093 140.284 26.972C139.921 27.3347 139.74 27.964 139.74 28.86V33.5H137.916V24.684H139.74V25.964ZM144.248 29.052C144.248 28.1667 144.43 27.3827 144.792 26.7C145.166 26.0173 145.667 25.4893 146.296 25.116C146.936 24.732 147.64 24.54 148.408 24.54C149.102 24.54 149.704 24.6787 150.216 24.956C150.739 25.2227 151.155 25.5587 151.464 25.964V24.684H153.304V33.5H151.464V32.188C151.155 32.604 150.734 32.9507 150.2 33.228C149.667 33.5053 149.059 33.644 148.376 33.644C147.619 33.644 146.926 33.452 146.296 33.068C145.667 32.6733 145.166 32.1293 144.792 31.436C144.43 30.732 144.248 29.9373 144.248 29.052ZM151.464 29.084C151.464 28.476 151.336 27.948 151.08 27.5C150.835 27.052 150.51 26.7107 150.104 26.476C149.699 26.2413 149.262 26.124 148.792 26.124C148.323 26.124 147.886 26.2413 147.48 26.476C147.075 26.7 146.744 27.036 146.488 27.484C146.243 27.9213 146.12 28.444 146.12 29.052C146.12 29.66 146.243 30.1933 146.488 30.652C146.744 31.1107 147.075 31.4627 147.48 31.708C147.896 31.9427 148.334 32.06 148.792 32.06C149.262 32.06 149.699 31.9427 150.104 31.708C150.51 31.4733 150.835 31.132 151.08 30.684C151.336 30.2253 151.464 29.692 151.464 29.084ZM158.324 21.66V33.5H156.5V21.66H158.324ZM99.384 46.38V47.868H96.424V57.5H94.6V47.868H91.624V46.38H99.384ZM110.111 52.876C110.111 53.2067 110.09 53.5053 110.047 53.772H103.311C103.365 54.476 103.626 55.0413 104.095 55.468C104.565 55.8947 105.141 56.108 105.823 56.108C106.805 56.108 107.498 55.6973 107.903 54.876H109.871C109.605 55.6867 109.119 56.3533 108.415 56.876C107.722 57.388 106.858 57.644 105.823 57.644C104.981 57.644 104.223 57.4573 103.551 57.084C102.89 56.7 102.367 56.1667 101.983 55.484C101.61 54.7907 101.423 53.9907 101.423 53.084C101.423 52.1773 101.605 51.3827 101.967 50.7C102.341 50.0067 102.858 49.4733 103.519 49.1C104.191 48.7267 104.959 48.54 105.823 48.54C106.655 48.54 107.397 48.7213 108.047 49.084C108.698 49.4467 109.205 49.9587 109.567 50.62C109.93 51.2707 110.111 52.0227 110.111 52.876ZM108.207 52.3C108.197 51.628 107.957 51.0893 107.487 50.684C107.018 50.2787 106.437 50.076 105.743 50.076C105.114 50.076 104.575 50.2787 104.127 50.684C103.679 51.0787 103.413 51.6173 103.327 52.3H108.207ZM112.098 53.084C112.098 52.1773 112.28 51.3827 112.642 50.7C113.016 50.0067 113.528 49.4733 114.178 49.1C114.829 48.7267 115.576 48.54 116.418 48.54C117.485 48.54 118.365 48.796 119.058 49.308C119.762 49.8093 120.237 50.5293 120.482 51.468H118.514C118.354 51.0307 118.098 50.6893 117.746 50.444C117.394 50.1987 116.952 50.076 116.418 50.076C115.672 50.076 115.074 50.3427 114.626 50.876C114.189 51.3987 113.97 52.1347 113.97 53.084C113.97 54.0333 114.189 54.7747 114.626 55.308C115.074 55.8413 115.672 56.108 116.418 56.108C117.474 56.108 118.173 55.644 118.514 54.716H120.482C120.226 55.612 119.746 56.3267 119.042 56.86C118.338 57.3827 117.464 57.644 116.418 57.644C115.576 57.644 114.829 57.4573 114.178 57.084C113.528 56.7 113.016 56.1667 112.642 55.484C112.28 54.7907 112.098 53.9907 112.098 53.084ZM127.66 48.54C128.332 48.54 128.929 48.684 129.452 48.972C129.985 49.26 130.401 49.6867 130.7 50.252C131.009 50.8173 131.164 51.5 131.164 52.3V57.5H129.356V52.572C129.356 51.7827 129.159 51.18 128.764 50.764C128.369 50.3373 127.831 50.124 127.148 50.124C126.465 50.124 125.921 50.3373 125.516 50.764C125.121 51.18 124.924 51.7827 124.924 52.572V57.5H123.1V45.66H124.924V49.708C125.233 49.3347 125.623 49.0467 126.092 48.844C126.572 48.6413 127.095 48.54 127.66 48.54ZM138.739 48.54C139.432 48.54 140.051 48.684 140.595 48.972C141.149 49.26 141.581 49.6867 141.891 50.252C142.2 50.8173 142.355 51.5 142.355 52.3V57.5H140.547V52.572C140.547 51.7827 140.349 51.18 139.955 50.764C139.56 50.3373 139.021 50.124 138.339 50.124C137.656 50.124 137.112 50.3373 136.707 50.764C136.312 51.18 136.115 51.7827 136.115 52.572V57.5H134.291V48.684H136.115V49.692C136.413 49.3293 136.792 49.0467 137.251 48.844C137.72 48.6413 138.216 48.54 138.739 48.54ZM149.305 57.644C148.473 57.644 147.721 57.4573 147.049 57.084C146.377 56.7 145.849 56.1667 145.465 55.484C145.081 54.7907 144.889 53.9907 144.889 53.084C144.889 52.188 145.087 51.3933 145.481 50.7C145.876 50.0067 146.415 49.4733 147.097 49.1C147.78 48.7267 148.543 48.54 149.385 48.54C150.228 48.54 150.991 48.7267 151.673 49.1C152.356 49.4733 152.895 50.0067 153.289 50.7C153.684 51.3933 153.881 52.188 153.881 53.084C153.881 53.98 153.679 54.7747 153.273 55.468C152.868 56.1613 152.313 56.7 151.609 57.084C150.916 57.4573 150.148 57.644 149.305 57.644ZM149.305 56.06C149.775 56.06 150.212 55.948 150.617 55.724C151.033 55.5 151.369 55.164 151.625 54.716C151.881 54.268 152.009 53.724 152.009 53.084C152.009 52.444 151.887 51.9053 151.641 51.468C151.396 51.02 151.071 50.684 150.665 50.46C150.26 50.236 149.823 50.124 149.353 50.124C148.884 50.124 148.447 50.236 148.041 50.46C147.647 50.684 147.332 51.02 147.097 51.468C146.863 51.9053 146.745 52.444 146.745 53.084C146.745 54.0333 146.985 54.7693 147.465 55.292C147.956 55.804 148.569 56.06 149.305 56.06ZM158.308 45.66V57.5H156.484V45.66H158.308ZM165.327 57.644C164.495 57.644 163.743 57.4573 163.071 57.084C162.399 56.7 161.871 56.1667 161.487 55.484C161.103 54.7907 160.911 53.9907 160.911 53.084C160.911 52.188 161.108 51.3933 161.503 50.7C161.898 50.0067 162.436 49.4733 163.119 49.1C163.802 48.7267 164.564 48.54 165.407 48.54C166.25 48.54 167.012 48.7267 167.695 49.1C168.378 49.4733 168.916 50.0067 169.311 50.7C169.706 51.3933 169.903 52.188 169.903 53.084C169.903 53.98 169.7 54.7747 169.295 55.468C168.89 56.1613 168.335 56.7 167.631 57.084C166.938 57.4573 166.17 57.644 165.327 57.644ZM165.327 56.06C165.796 56.06 166.234 55.948 166.639 55.724C167.055 55.5 167.391 55.164 167.647 54.716C167.903 54.268 168.031 53.724 168.031 53.084C168.031 52.444 167.908 51.9053 167.663 51.468C167.418 51.02 167.092 50.684 166.687 50.46C166.282 50.236 165.844 50.124 165.375 50.124C164.906 50.124 164.468 50.236 164.063 50.46C163.668 50.684 163.354 51.02 163.119 51.468C162.884 51.9053 162.767 52.444 162.767 53.084C162.767 54.0333 163.007 54.7693 163.487 55.292C163.978 55.804 164.591 56.06 165.327 56.06ZM176.058 48.54C176.741 48.54 177.344 48.6787 177.866 48.956C178.4 49.2227 178.816 49.5587 179.114 49.964V48.684H180.954V57.644C180.954 58.4547 180.784 59.1747 180.442 59.804C180.101 60.444 179.605 60.9453 178.954 61.308C178.314 61.6707 177.546 61.852 176.65 61.852C175.456 61.852 174.464 61.5693 173.674 61.004C172.885 60.4493 172.437 59.692 172.33 58.732H174.138C174.277 59.1907 174.57 59.5587 175.018 59.836C175.477 60.124 176.021 60.268 176.65 60.268C177.386 60.268 177.978 60.044 178.426 59.596C178.885 59.148 179.114 58.4973 179.114 57.644V56.172C178.805 56.588 178.384 56.94 177.85 57.228C177.328 57.5053 176.73 57.644 176.058 57.644C175.29 57.644 174.586 57.452 173.946 57.068C173.317 56.6733 172.816 56.1293 172.442 55.436C172.08 54.732 171.898 53.9373 171.898 53.052C171.898 52.1667 172.08 51.3827 172.442 50.7C172.816 50.0173 173.317 49.4893 173.946 49.116C174.586 48.732 175.29 48.54 176.058 48.54ZM179.114 53.084C179.114 52.476 178.986 51.948 178.73 51.5C178.485 51.052 178.16 50.7107 177.754 50.476C177.349 50.2413 176.912 50.124 176.442 50.124C175.973 50.124 175.536 50.2413 175.13 50.476C174.725 50.7 174.394 51.036 174.138 51.484C173.893 51.9213 173.77 52.444 173.77 53.052C173.77 53.66 173.893 54.1933 174.138 54.652C174.394 55.1107 174.725 55.4627 175.13 55.708C175.546 55.9427 175.984 56.06 176.442 56.06C176.912 56.06 177.349 55.9427 177.754 55.708C178.16 55.4733 178.485 55.132 178.73 54.684C178.986 54.2253 179.114 53.692 179.114 53.084ZM185.078 47.516C184.747 47.516 184.47 47.404 184.246 47.18C184.022 46.956 183.91 46.6787 183.91 46.348C183.91 46.0173 184.022 45.74 184.246 45.516C184.47 45.292 184.747 45.18 185.078 45.18C185.398 45.18 185.67 45.292 185.894 45.516C186.118 45.74 186.23 46.0173 186.23 46.348C186.23 46.6787 186.118 46.956 185.894 47.18C185.67 47.404 185.398 47.516 185.078 47.516ZM185.974 48.684V57.5H184.15V48.684H185.974ZM197.249 52.876C197.249 53.2067 197.227 53.5053 197.185 53.772H190.449C190.502 54.476 190.763 55.0413 191.233 55.468C191.702 55.8947 192.278 56.108 192.961 56.108C193.942 56.108 194.635 55.6973 195.041 54.876H197.009C196.742 55.6867 196.257 56.3533 195.553 56.876C194.859 57.388 193.995 57.644 192.961 57.644C192.118 57.644 191.361 57.4573 190.689 57.084C190.027 56.7 189.505 56.1667 189.121 55.484C188.747 54.7907 188.561 53.9907 188.561 53.084C188.561 52.1773 188.742 51.3827 189.105 50.7C189.478 50.0067 189.995 49.4733 190.657 49.1C191.329 48.7267 192.097 48.54 192.961 48.54C193.793 48.54 194.534 48.7213 195.185 49.084C195.835 49.4467 196.342 49.9587 196.705 50.62C197.067 51.2707 197.249 52.0227 197.249 52.876ZM195.345 52.3C195.334 51.628 195.094 51.0893 194.625 50.684C194.155 50.2787 193.574 50.076 192.881 50.076C192.251 50.076 191.713 50.2787 191.265 50.684C190.817 51.0787 190.55 51.6173 190.465 52.3H195.345ZM203.044 57.644C202.35 57.644 201.726 57.5213 201.172 57.276C200.628 57.02 200.196 56.6787 199.876 56.252C199.556 55.8147 199.385 55.3293 199.364 54.796H201.252C201.284 55.1693 201.46 55.484 201.78 55.74C202.11 55.9853 202.521 56.108 203.012 56.108C203.524 56.108 203.918 56.012 204.196 55.82C204.484 55.6173 204.628 55.3613 204.628 55.052C204.628 54.7213 204.468 54.476 204.148 54.316C203.838 54.156 203.342 53.98 202.66 53.788C201.998 53.6067 201.46 53.4307 201.044 53.26C200.628 53.0893 200.265 52.828 199.956 52.476C199.657 52.124 199.508 51.66 199.508 51.084C199.508 50.6147 199.646 50.188 199.924 49.804C200.201 49.4093 200.596 49.1 201.108 48.876C201.63 48.652 202.228 48.54 202.9 48.54C203.902 48.54 204.708 48.796 205.316 49.308C205.934 49.8093 206.265 50.4973 206.308 51.372H204.484C204.452 50.9773 204.292 50.6627 204.004 50.428C203.716 50.1933 203.326 50.076 202.836 50.076C202.356 50.076 201.988 50.1667 201.732 50.348C201.476 50.5293 201.348 50.7693 201.348 51.068C201.348 51.3027 201.433 51.5 201.604 51.66C201.774 51.82 201.982 51.948 202.228 52.044C202.473 52.1293 202.836 52.2413 203.316 52.38C203.956 52.5507 204.478 52.7267 204.884 52.908C205.3 53.0787 205.657 53.3347 205.956 53.676C206.254 54.0173 206.409 54.4707 206.42 55.036C206.42 55.5373 206.281 55.9853 206.004 56.38C205.726 56.7747 205.332 57.084 204.82 57.308C204.318 57.532 203.726 57.644 203.044 57.644Z" fill="#2C3441"/>
</svg>
