<svg width="278" height="478" viewBox="0 0 278 478" fill="none" xmlns="http://www.w3.org/2000/svg">
<rect width="278" height="477" fill="#F6F6F6"/>
<path d="M40.9998 79L41 477.5" stroke="#DFDFDF" stroke-width="1.5"/>
<mask id="mask0_1851_71567" style="mask-type:alpha" maskUnits="userSpaceOnUse" x="158" y="309" width="120" height="168">
<rect x="158" y="309" width="120" height="168" fill="white"/>
</mask>
<g mask="url(#mask0_1851_71567)">
<g opacity="0.5">
<mask id="path-4-inside-1_1851_71567" fill="white">
<rect x="209.082" y="343" width="53" height="100" rx="3"/>
</mask>
<rect x="209.082" y="343" width="53" height="100" rx="3" stroke="#DFDFDF" stroke-width="7" mask="url(#path-4-inside-1_1851_71567)"/>
<mask id="path-5-inside-2_1851_71567" fill="white">
<rect x="215.082" y="395" width="19" height="19" rx="2"/>
</mask>
<rect x="215.082" y="395" width="19" height="19" rx="2" stroke="#DFDFDF" stroke-width="7" mask="url(#path-5-inside-2_1851_71567)"/>
<mask id="path-6-inside-3_1851_71567" fill="white">
<rect x="236.082" y="395" width="19" height="19" rx="2"/>
</mask>
<rect x="236.082" y="395" width="19" height="19" rx="2" stroke="#DFDFDF" stroke-width="7" mask="url(#path-6-inside-3_1851_71567)"/>
<mask id="path-7-inside-4_1851_71567" fill="white">
<rect x="236.082" y="374" width="19" height="19" rx="2"/>
</mask>
<rect x="236.082" y="374" width="19" height="19" rx="2" stroke="#DFDFDF" stroke-width="7" mask="url(#path-7-inside-4_1851_71567)"/>
<mask id="path-8-inside-5_1851_71567" fill="white">
<rect x="215.082" y="374" width="19" height="19" rx="2"/>
</mask>
<rect x="215.082" y="374" width="19" height="19" rx="2" stroke="#DFDFDF" stroke-width="7" mask="url(#path-8-inside-5_1851_71567)"/>
<line x1="223.082" y1="351.25" x2="238.082" y2="351.25" stroke="#DFDFDF" stroke-width="3.5"/>
<line x1="241.082" y1="351.25" x2="246.082" y2="351.25" stroke="#DFDFDF" stroke-width="3.5"/>
<line x1="212.082" y1="359.25" x2="260.082" y2="359.25" stroke="#DFDFDF" stroke-width="3.5"/>
<line x1="212.082" y1="428.25" x2="260.082" y2="428.25" stroke="#DFDFDF" stroke-width="3.5"/>
<circle cx="236.082" cy="435" r="5" fill="#DFDFDF"/>
</g>
</g>
<circle cx="41" cy="411" r="5" fill="#2C3441"/>
<path d="M62.688 405.848V417H61.232V405.848H62.688ZM70.2255 417.112C69.1908 417.112 68.2468 416.872 67.3935 416.392C66.5402 415.901 65.8628 415.224 65.3615 414.36C64.8708 413.485 64.6255 412.504 64.6255 411.416C64.6255 410.328 64.8708 409.352 65.3615 408.488C65.8628 407.613 66.5402 406.936 67.3935 406.456C68.2468 405.965 69.1908 405.72 70.2255 405.72C71.2708 405.72 72.2202 405.965 73.0735 406.456C73.9268 406.936 74.5988 407.608 75.0895 408.472C75.5802 409.336 75.8255 410.317 75.8255 411.416C75.8255 412.515 75.5802 413.496 75.0895 414.36C74.5988 415.224 73.9268 415.901 73.0735 416.392C72.2202 416.872 71.2708 417.112 70.2255 417.112ZM70.2255 415.848C71.0042 415.848 71.7028 415.667 72.3215 415.304C72.9508 414.941 73.4415 414.424 73.7935 413.752C74.1562 413.08 74.3375 412.301 74.3375 411.416C74.3375 410.52 74.1562 409.741 73.7935 409.08C73.4415 408.408 72.9562 407.891 72.3375 407.528C71.7188 407.165 71.0148 406.984 70.2255 406.984C69.4362 406.984 68.7322 407.165 68.1135 407.528C67.4948 407.891 67.0042 408.408 66.6415 409.08C66.2895 409.741 66.1135 410.52 66.1135 411.416C66.1135 412.301 66.2895 413.08 66.6415 413.752C67.0042 414.424 67.4948 414.941 68.1135 415.304C68.7428 415.667 69.4468 415.848 70.2255 415.848ZM81.2836 417.112C80.5476 417.112 79.8863 416.984 79.2996 416.728C78.7236 416.461 78.2703 416.099 77.9396 415.64C77.609 415.171 77.4383 414.632 77.4276 414.024H78.9796C79.033 414.547 79.2463 414.989 79.6196 415.352C80.0036 415.704 80.5583 415.88 81.2836 415.88C81.977 415.88 82.521 415.709 82.9156 415.368C83.321 415.016 83.5236 414.568 83.5236 414.024C83.5236 413.597 83.4063 413.251 83.1716 412.984C82.937 412.717 82.6436 412.515 82.2916 412.376C81.9396 412.237 81.465 412.088 80.8676 411.928C80.1316 411.736 79.5396 411.544 79.0916 411.352C78.6543 411.16 78.2756 410.861 77.9556 410.456C77.6463 410.04 77.4916 409.485 77.4916 408.792C77.4916 408.184 77.6463 407.645 77.9556 407.176C78.265 406.707 78.697 406.344 79.2516 406.088C79.817 405.832 80.4623 405.704 81.1876 405.704C82.233 405.704 83.0863 405.965 83.7476 406.488C84.4196 407.011 84.7983 407.704 84.8836 408.568H83.2836C83.2303 408.141 83.0063 407.768 82.6116 407.448C82.217 407.117 81.6943 406.952 81.0436 406.952C80.4356 406.952 79.9396 407.112 79.5556 407.432C79.1716 407.741 78.9796 408.179 78.9796 408.744C78.9796 409.149 79.0916 409.48 79.3156 409.736C79.5503 409.992 79.833 410.189 80.1636 410.328C80.505 410.456 80.9796 410.605 81.5876 410.776C82.3236 410.979 82.9156 411.181 83.3636 411.384C83.8116 411.576 84.1956 411.88 84.5156 412.296C84.8356 412.701 84.9956 413.256 84.9956 413.96C84.9956 414.504 84.8516 415.016 84.5636 415.496C84.2756 415.976 83.849 416.365 83.2836 416.664C82.7183 416.963 82.0516 417.112 81.2836 417.112ZM92.5783 401.928L88.1943 419.72H86.7543L91.1223 401.928H92.5783ZM98.2836 417.112C97.5476 417.112 96.8863 416.984 96.2996 416.728C95.7236 416.461 95.2703 416.099 94.9396 415.64C94.609 415.171 94.4383 414.632 94.4276 414.024H95.9796C96.033 414.547 96.2463 414.989 96.6196 415.352C97.0036 415.704 97.5583 415.88 98.2836 415.88C98.977 415.88 99.521 415.709 99.9156 415.368C100.321 415.016 100.524 414.568 100.524 414.024C100.524 413.597 100.406 413.251 100.172 412.984C99.937 412.717 99.6436 412.515 99.2916 412.376C98.9396 412.237 98.465 412.088 97.8676 411.928C97.1316 411.736 96.5396 411.544 96.0916 411.352C95.6543 411.16 95.2756 410.861 94.9556 410.456C94.6463 410.04 94.4916 409.485 94.4916 408.792C94.4916 408.184 94.6463 407.645 94.9556 407.176C95.265 406.707 95.697 406.344 96.2516 406.088C96.817 405.832 97.4623 405.704 98.1876 405.704C99.233 405.704 100.086 405.965 100.748 406.488C101.42 407.011 101.798 407.704 101.884 408.568H100.284C100.23 408.141 100.006 407.768 99.6116 407.448C99.217 407.117 98.6943 406.952 98.0436 406.952C97.4356 406.952 96.9396 407.112 96.5556 407.432C96.1716 407.741 95.9796 408.179 95.9796 408.744C95.9796 409.149 96.0916 409.48 96.3156 409.736C96.5503 409.992 96.833 410.189 97.1636 410.328C97.505 410.456 97.9796 410.605 98.5876 410.776C99.3236 410.979 99.9156 411.181 100.364 411.384C100.812 411.576 101.196 411.88 101.516 412.296C101.836 412.701 101.996 413.256 101.996 413.96C101.996 414.504 101.852 415.016 101.564 415.496C101.276 415.976 100.849 416.365 100.284 416.664C99.7183 416.963 99.0516 417.112 98.2836 417.112ZM115.818 408.232L113.082 417H111.578L109.466 410.04L107.354 417H105.85L103.098 408.232H104.586L106.602 415.592L108.778 408.232H110.266L112.394 415.608L114.378 408.232H115.818ZM118.015 406.808C117.738 406.808 117.503 406.712 117.311 406.52C117.119 406.328 117.023 406.093 117.023 405.816C117.023 405.539 117.119 405.304 117.311 405.112C117.503 404.92 117.738 404.824 118.015 404.824C118.282 404.824 118.506 404.92 118.687 405.112C118.879 405.304 118.975 405.539 118.975 405.816C118.975 406.093 118.879 406.328 118.687 406.52C118.506 406.712 118.282 406.808 118.015 406.808ZM118.719 408.232V417H117.263V408.232H118.719ZM124.769 409.432H122.929V417H121.473V409.432H120.337V408.232H121.473V407.608C121.473 406.627 121.723 405.912 122.225 405.464C122.737 405.005 123.553 404.776 124.673 404.776V405.992C124.033 405.992 123.579 406.12 123.313 406.376C123.057 406.621 122.929 407.032 122.929 407.608V408.232H124.769V409.432ZM128.242 409.432V414.6C128.242 415.027 128.333 415.331 128.514 415.512C128.696 415.683 129.01 415.768 129.458 415.768H130.53V417H129.218C128.408 417 127.8 416.813 127.394 416.44C126.989 416.067 126.786 415.453 126.786 414.6V409.432H125.65V408.232H126.786V406.024H128.242V408.232H130.53V409.432H128.242Z" fill="#2C3441"/>
<circle cx="41" cy="357" r="5" fill="#2C3441"/>
<path d="M67.824 360.52H62.96L62.064 363H60.528L64.56 351.912H66.24L70.256 363H68.72L67.824 360.52ZM67.408 359.336L65.392 353.704L63.376 359.336H67.408ZM76.2853 354.072C77.3519 354.072 78.2159 354.397 78.8773 355.048C79.5386 355.688 79.8693 356.616 79.8693 357.832V363H78.4293V358.04C78.4293 357.165 78.2106 356.499 77.7733 356.04C77.3359 355.571 76.7386 355.336 75.9813 355.336C75.2133 355.336 74.5999 355.576 74.1413 356.056C73.6933 356.536 73.4693 357.235 73.4693 358.152V363H72.0133V354.232H73.4693V355.48C73.7573 355.032 74.1466 354.685 74.6373 354.44C75.1386 354.195 75.6879 354.072 76.2853 354.072ZM81.7036 358.584C81.7036 357.688 81.885 356.904 82.2476 356.232C82.6103 355.549 83.1063 355.021 83.7356 354.648C84.3756 354.275 85.0903 354.088 85.8796 354.088C86.5623 354.088 87.197 354.248 87.7836 354.568C88.3703 354.877 88.8183 355.288 89.1276 355.8V351.16H90.5996V363H89.1276V361.352C88.8396 361.875 88.413 362.307 87.8476 362.648C87.2823 362.979 86.621 363.144 85.8636 363.144C85.085 363.144 84.3756 362.952 83.7356 362.568C83.1063 362.184 82.6103 361.645 82.2476 360.952C81.885 360.259 81.7036 359.469 81.7036 358.584ZM89.1276 358.6C89.1276 357.939 88.9943 357.363 88.7276 356.872C88.461 356.381 88.0983 356.008 87.6396 355.752C87.1916 355.485 86.6956 355.352 86.1516 355.352C85.6076 355.352 85.1116 355.48 84.6636 355.736C84.2156 355.992 83.8583 356.365 83.5916 356.856C83.325 357.347 83.1916 357.923 83.1916 358.584C83.1916 359.256 83.325 359.843 83.5916 360.344C83.8583 360.835 84.2156 361.213 84.6636 361.48C85.1116 361.736 85.6076 361.864 86.1516 361.864C86.6956 361.864 87.1916 361.736 87.6396 361.48C88.0983 361.213 88.461 360.835 88.7276 360.344C88.9943 359.843 89.1276 359.261 89.1276 358.6ZM94.5161 355.656C94.7721 355.155 95.1348 354.765 95.6041 354.488C96.0841 354.211 96.6655 354.072 97.3481 354.072V355.576H96.9641C95.3321 355.576 94.5161 356.461 94.5161 358.232V363H93.0601V354.232H94.5161V355.656ZM102.853 363.144C102.032 363.144 101.285 362.957 100.613 362.584C99.9515 362.211 99.4289 361.683 99.0449 361C98.6715 360.307 98.4849 359.507 98.4849 358.6C98.4849 357.704 98.6769 356.915 99.0609 356.232C99.4555 355.539 99.9889 355.011 100.661 354.648C101.333 354.275 102.085 354.088 102.917 354.088C103.749 354.088 104.501 354.275 105.173 354.648C105.845 355.011 106.373 355.533 106.757 356.216C107.152 356.899 107.349 357.693 107.349 358.6C107.349 359.507 107.146 360.307 106.741 361C106.346 361.683 105.808 362.211 105.125 362.584C104.442 362.957 103.685 363.144 102.853 363.144ZM102.853 361.864C103.376 361.864 103.866 361.741 104.325 361.496C104.784 361.251 105.152 360.883 105.429 360.392C105.717 359.901 105.861 359.304 105.861 358.6C105.861 357.896 105.722 357.299 105.445 356.808C105.168 356.317 104.805 355.955 104.357 355.72C103.909 355.475 103.424 355.352 102.901 355.352C102.368 355.352 101.877 355.475 101.429 355.72C100.992 355.955 100.64 356.317 100.373 356.808C100.106 357.299 99.9729 357.896 99.9729 358.6C99.9729 359.315 100.101 359.917 100.357 360.408C100.624 360.899 100.976 361.267 101.413 361.512C101.85 361.747 102.33 361.864 102.853 361.864ZM110.015 352.808C109.738 352.808 109.503 352.712 109.311 352.52C109.119 352.328 109.023 352.093 109.023 351.816C109.023 351.539 109.119 351.304 109.311 351.112C109.503 350.92 109.738 350.824 110.015 350.824C110.282 350.824 110.506 350.92 110.687 351.112C110.879 351.304 110.975 351.539 110.975 351.816C110.975 352.093 110.879 352.328 110.687 352.52C110.506 352.712 110.282 352.808 110.015 352.808ZM110.719 354.232V363H109.263V354.232H110.719ZM112.657 358.584C112.657 357.688 112.838 356.904 113.201 356.232C113.563 355.549 114.059 355.021 114.689 354.648C115.329 354.275 116.043 354.088 116.833 354.088C117.515 354.088 118.15 354.248 118.737 354.568C119.323 354.877 119.771 355.288 120.081 355.8V351.16H121.553V363H120.081V361.352C119.793 361.875 119.366 362.307 118.801 362.648C118.235 362.979 117.574 363.144 116.817 363.144C116.038 363.144 115.329 362.952 114.689 362.568C114.059 362.184 113.563 361.645 113.201 360.952C112.838 360.259 112.657 359.469 112.657 358.584ZM120.081 358.6C120.081 357.939 119.947 357.363 119.681 356.872C119.414 356.381 119.051 356.008 118.593 355.752C118.145 355.485 117.649 355.352 117.105 355.352C116.561 355.352 116.065 355.48 115.617 355.736C115.169 355.992 114.811 356.365 114.545 356.856C114.278 357.347 114.145 357.923 114.145 358.584C114.145 359.256 114.278 359.843 114.545 360.344C114.811 360.835 115.169 361.213 115.617 361.48C116.065 361.736 116.561 361.864 117.105 361.864C117.649 361.864 118.145 361.736 118.593 361.48C119.051 361.213 119.414 360.835 119.681 360.344C119.947 359.843 120.081 359.261 120.081 358.6Z" fill="#2C3441"/>
<circle cx="41" cy="303" r="5" fill="#2C3441"/>
<path d="M65.792 303.432L69.216 309H67.568L64.896 304.648L62.352 309H60.736L64.144 303.432L60.72 297.848H62.352L65.04 302.216L67.6 297.848H69.232L65.792 303.432ZM70.6255 304.584C70.6255 303.688 70.8068 302.904 71.1695 302.232C71.5322 301.549 72.0282 301.021 72.6575 300.648C73.2975 300.275 74.0068 300.088 74.7855 300.088C75.5535 300.088 76.2202 300.253 76.7855 300.584C77.3508 300.915 77.7722 301.331 78.0495 301.832V300.232H79.5215V309H78.0495V307.368C77.7615 307.88 77.3295 308.307 76.7535 308.648C76.1882 308.979 75.5268 309.144 74.7695 309.144C73.9908 309.144 73.2868 308.952 72.6575 308.568C72.0282 308.184 71.5322 307.645 71.1695 306.952C70.8068 306.259 70.6255 305.469 70.6255 304.584ZM78.0495 304.6C78.0495 303.939 77.9162 303.363 77.6495 302.872C77.3828 302.381 77.0202 302.008 76.5615 301.752C76.1135 301.485 75.6175 301.352 75.0735 301.352C74.5295 301.352 74.0335 301.48 73.5855 301.736C73.1375 301.992 72.7802 302.365 72.5135 302.856C72.2468 303.347 72.1135 303.923 72.1135 304.584C72.1135 305.256 72.2468 305.843 72.5135 306.344C72.7802 306.835 73.1375 307.213 73.5855 307.48C74.0335 307.736 74.5295 307.864 75.0735 307.864C75.6175 307.864 76.1135 307.736 76.5615 307.48C77.0202 307.213 77.3828 306.835 77.6495 306.344C77.9162 305.843 78.0495 305.261 78.0495 304.6ZM92.526 300.072C93.2087 300.072 93.8167 300.216 94.35 300.504C94.8833 300.781 95.3047 301.203 95.614 301.768C95.9233 302.333 96.078 303.021 96.078 303.832V309H94.638V304.04C94.638 303.165 94.4193 302.499 93.982 302.04C93.5553 301.571 92.974 301.336 92.238 301.336C91.4807 301.336 90.878 301.581 90.43 302.072C89.982 302.552 89.758 303.251 89.758 304.168V309H88.318V304.04C88.318 303.165 88.0993 302.499 87.662 302.04C87.2353 301.571 86.654 301.336 85.918 301.336C85.1607 301.336 84.558 301.581 84.11 302.072C83.662 302.552 83.438 303.251 83.438 304.168V309H81.982V300.232H83.438V301.496C83.726 301.037 84.11 300.685 84.59 300.44C85.0807 300.195 85.6193 300.072 86.206 300.072C86.942 300.072 87.5927 300.237 88.158 300.568C88.7233 300.899 89.1447 301.384 89.422 302.024C89.6673 301.405 90.0727 300.925 90.638 300.584C91.2033 300.243 91.8327 300.072 92.526 300.072ZM97.9224 304.584C97.9224 303.688 98.1037 302.904 98.4664 302.232C98.829 301.549 99.325 301.021 99.9544 300.648C100.594 300.275 101.304 300.088 102.082 300.088C102.85 300.088 103.517 300.253 104.082 300.584C104.648 300.915 105.069 301.331 105.346 301.832V300.232H106.818V309H105.346V307.368C105.058 307.88 104.626 308.307 104.05 308.648C103.485 308.979 102.824 309.144 102.066 309.144C101.288 309.144 100.584 308.952 99.9544 308.568C99.325 308.184 98.829 307.645 98.4664 306.952C98.1037 306.259 97.9224 305.469 97.9224 304.584ZM105.346 304.6C105.346 303.939 105.213 303.363 104.946 302.872C104.68 302.381 104.317 302.008 103.858 301.752C103.41 301.485 102.914 301.352 102.37 301.352C101.826 301.352 101.33 301.48 100.882 301.736C100.434 301.992 100.077 302.365 99.8104 302.856C99.5437 303.347 99.4104 303.923 99.4104 304.584C99.4104 305.256 99.5437 305.843 99.8104 306.344C100.077 306.835 100.434 307.213 100.882 307.48C101.33 307.736 101.826 307.864 102.37 307.864C102.914 307.864 103.41 307.736 103.858 307.48C104.317 307.213 104.68 306.835 104.946 306.344C105.213 305.843 105.346 305.261 105.346 304.6ZM110.735 301.656C110.991 301.155 111.354 300.765 111.823 300.488C112.303 300.211 112.884 300.072 113.567 300.072V301.576H113.183C111.551 301.576 110.735 302.461 110.735 304.232V309H109.279V300.232H110.735V301.656ZM116 298.808C115.722 298.808 115.488 298.712 115.296 298.52C115.104 298.328 115.008 298.093 115.008 297.816C115.008 297.539 115.104 297.304 115.296 297.112C115.488 296.92 115.722 296.824 116 296.824C116.266 296.824 116.49 296.92 116.672 297.112C116.864 297.304 116.96 297.539 116.96 297.816C116.96 298.093 116.864 298.328 116.672 298.52C116.49 298.712 116.266 298.808 116 298.808ZM116.704 300.232V309H115.248V300.232H116.704ZM123.457 300.072C124.524 300.072 125.388 300.397 126.049 301.048C126.71 301.688 127.041 302.616 127.041 303.832V309H125.601V304.04C125.601 303.165 125.382 302.499 124.945 302.04C124.508 301.571 123.91 301.336 123.153 301.336C122.385 301.336 121.772 301.576 121.313 302.056C120.865 302.536 120.641 303.235 120.641 304.152V309H119.185V300.232H120.641V301.48C120.929 301.032 121.318 300.685 121.809 300.44C122.31 300.195 122.86 300.072 123.457 300.072Z" fill="#2C3441"/>
<circle cx="41" cy="249" r="5" fill="#2C3441"/>
<path d="M62.688 243.848V255H61.232V243.848H62.688ZM68.9935 255.144C68.1722 255.144 67.4255 254.957 66.7535 254.584C66.0922 254.211 65.5695 253.683 65.1855 253C64.8122 252.307 64.6255 251.507 64.6255 250.6C64.6255 249.704 64.8175 248.915 65.2015 248.232C65.5962 247.539 66.1295 247.011 66.8015 246.648C67.4735 246.275 68.2255 246.088 69.0575 246.088C69.8895 246.088 70.6415 246.275 71.3135 246.648C71.9855 247.011 72.5135 247.533 72.8975 248.216C73.2922 248.899 73.4895 249.693 73.4895 250.6C73.4895 251.507 73.2868 252.307 72.8815 253C72.4868 253.683 71.9482 254.211 71.2655 254.584C70.5828 254.957 69.8255 255.144 68.9935 255.144ZM68.9935 253.864C69.5162 253.864 70.0068 253.741 70.4655 253.496C70.9242 253.251 71.2922 252.883 71.5695 252.392C71.8575 251.901 72.0015 251.304 72.0015 250.6C72.0015 249.896 71.8628 249.299 71.5855 248.808C71.3082 248.317 70.9455 247.955 70.4975 247.72C70.0495 247.475 69.5642 247.352 69.0415 247.352C68.5082 247.352 68.0175 247.475 67.5695 247.72C67.1322 247.955 66.7802 248.317 66.5135 248.808C66.2468 249.299 66.1135 249.896 66.1135 250.6C66.1135 251.315 66.2415 251.917 66.4975 252.408C66.7642 252.899 67.1162 253.267 67.5535 253.512C67.9908 253.747 68.4708 253.864 68.9935 253.864ZM79.6759 246.072C80.7425 246.072 81.6065 246.397 82.2679 247.048C82.9292 247.688 83.2599 248.616 83.2599 249.832V255H81.8199V250.04C81.8199 249.165 81.6012 248.499 81.1639 248.04C80.7265 247.571 80.1292 247.336 79.3719 247.336C78.6039 247.336 77.9905 247.576 77.5319 248.056C77.0839 248.536 76.8599 249.235 76.8599 250.152V255H75.4039V246.232H76.8599V247.48C77.1479 247.032 77.5372 246.685 78.0279 246.44C78.5292 246.195 79.0785 246.072 79.6759 246.072ZM86.3903 244.808C86.1129 244.808 85.8783 244.712 85.6863 244.52C85.4943 244.328 85.3983 244.093 85.3983 243.816C85.3983 243.539 85.4943 243.304 85.6863 243.112C85.8783 242.92 86.1129 242.824 86.3903 242.824C86.6569 242.824 86.8809 242.92 87.0623 243.112C87.2543 243.304 87.3503 243.539 87.3503 243.816C87.3503 244.093 87.2543 244.328 87.0623 244.52C86.8809 244.712 86.6569 244.808 86.3903 244.808ZM87.0943 246.232V255H85.6383V246.232H87.0943ZM89.0318 250.6C89.0318 249.693 89.2131 248.904 89.5758 248.232C89.9384 247.549 90.4398 247.021 91.0798 246.648C91.7304 246.275 92.4718 246.088 93.3038 246.088C94.3811 246.088 95.2664 246.349 95.9598 246.872C96.6638 247.395 97.1278 248.12 97.3518 249.048H95.7838C95.6344 248.515 95.3411 248.093 94.9038 247.784C94.4771 247.475 93.9438 247.32 93.3038 247.32C92.4718 247.32 91.7998 247.608 91.2878 248.184C90.7758 248.749 90.5198 249.555 90.5198 250.6C90.5198 251.656 90.7758 252.472 91.2878 253.048C91.7998 253.624 92.4718 253.912 93.3038 253.912C93.9438 253.912 94.4771 253.763 94.9038 253.464C95.3304 253.165 95.6238 252.739 95.7838 252.184H97.3518C97.1171 253.08 96.6478 253.8 95.9438 254.344C95.2398 254.877 94.3598 255.144 93.3038 255.144C92.4718 255.144 91.7304 254.957 91.0798 254.584C90.4398 254.211 89.9384 253.683 89.5758 253C89.2131 252.317 89.0318 251.517 89.0318 250.6Z" fill="#2C3441"/>
<circle cx="41" cy="195" r="5" fill="#2C3441"/>
<path d="M67.104 201L64.448 196.44H62.688V201H61.232V189.848H64.832C65.6747 189.848 66.384 189.992 66.96 190.28C67.5467 190.568 67.984 190.957 68.272 191.448C68.56 191.939 68.704 192.499 68.704 193.128C68.704 193.896 68.48 194.573 68.032 195.16C67.5947 195.747 66.9333 196.136 66.048 196.328L68.848 201H67.104ZM62.688 195.272H64.832C65.6213 195.272 66.2133 195.08 66.608 194.696C67.0027 194.301 67.2 193.779 67.2 193.128C67.2 192.467 67.0027 191.955 66.608 191.592C66.224 191.229 65.632 191.048 64.832 191.048H62.688V195.272ZM78.9664 196.28C78.9664 196.557 78.9504 196.851 78.9184 197.16H71.9104C71.9637 198.024 72.257 198.701 72.7904 199.192C73.3344 199.672 73.9904 199.912 74.7584 199.912C75.3877 199.912 75.9104 199.768 76.3264 199.48C76.753 199.181 77.0517 198.787 77.2224 198.296H78.7904C78.5557 199.139 78.0864 199.827 77.3824 200.36C76.6784 200.883 75.8037 201.144 74.7584 201.144C73.9264 201.144 73.1797 200.957 72.5184 200.584C71.8677 200.211 71.3557 199.683 70.9824 199C70.609 198.307 70.4224 197.507 70.4224 196.6C70.4224 195.693 70.6037 194.899 70.9664 194.216C71.329 193.533 71.8357 193.011 72.4864 192.648C73.1477 192.275 73.905 192.088 74.7584 192.088C75.5904 192.088 76.3264 192.269 76.9664 192.632C77.6064 192.995 78.097 193.496 78.4384 194.136C78.7904 194.765 78.9664 195.48 78.9664 196.28ZM77.4624 195.976C77.4624 195.421 77.3397 194.947 77.0944 194.552C76.849 194.147 76.513 193.843 76.0864 193.64C75.6704 193.427 75.2064 193.32 74.6944 193.32C73.9584 193.32 73.329 193.555 72.8064 194.024C72.2944 194.493 72.001 195.144 71.9264 195.976H77.4624ZM80.3443 196.584C80.3443 195.688 80.5256 194.904 80.8883 194.232C81.2509 193.549 81.7469 193.021 82.3763 192.648C83.0163 192.275 83.7256 192.088 84.5043 192.088C85.2723 192.088 85.9389 192.253 86.5043 192.584C87.0696 192.915 87.4909 193.331 87.7683 193.832V192.232H89.2403V201H87.7683V199.368C87.4803 199.88 87.0483 200.307 86.4723 200.648C85.9069 200.979 85.2456 201.144 84.4883 201.144C83.7096 201.144 83.0056 200.952 82.3763 200.568C81.7469 200.184 81.2509 199.645 80.8883 198.952C80.5256 198.259 80.3443 197.469 80.3443 196.584ZM87.7683 196.6C87.7683 195.939 87.6349 195.363 87.3683 194.872C87.1016 194.381 86.7389 194.008 86.2803 193.752C85.8323 193.485 85.3363 193.352 84.7923 193.352C84.2483 193.352 83.7523 193.48 83.3043 193.736C82.8563 193.992 82.4989 194.365 82.2323 194.856C81.9656 195.347 81.8323 195.923 81.8323 196.584C81.8323 197.256 81.9656 197.843 82.2323 198.344C82.4989 198.835 82.8563 199.213 83.3043 199.48C83.7523 199.736 84.2483 199.864 84.7923 199.864C85.3363 199.864 85.8323 199.736 86.2803 199.48C86.7389 199.213 87.1016 198.835 87.3683 198.344C87.6349 197.843 87.7683 197.261 87.7683 196.6ZM91.1568 196.6C91.1568 195.693 91.3381 194.904 91.7008 194.232C92.0634 193.549 92.5648 193.021 93.2048 192.648C93.8554 192.275 94.5968 192.088 95.4288 192.088C96.5061 192.088 97.3914 192.349 98.0848 192.872C98.7888 193.395 99.2528 194.12 99.4768 195.048H97.9088C97.7594 194.515 97.4661 194.093 97.0288 193.784C96.6021 193.475 96.0688 193.32 95.4288 193.32C94.5968 193.32 93.9248 193.608 93.4128 194.184C92.9008 194.749 92.6448 195.555 92.6448 196.6C92.6448 197.656 92.9008 198.472 93.4128 199.048C93.9248 199.624 94.5968 199.912 95.4288 199.912C96.0688 199.912 96.6021 199.763 97.0288 199.464C97.4554 199.165 97.7488 198.739 97.9088 198.184H99.4768C99.2421 199.08 98.7728 199.8 98.0688 200.344C97.3648 200.877 96.4848 201.144 95.4288 201.144C94.5968 201.144 93.8554 200.957 93.2048 200.584C92.5648 200.211 92.0634 199.683 91.7008 199C91.3381 198.317 91.1568 197.517 91.1568 196.6ZM103.196 193.432V198.6C103.196 199.027 103.286 199.331 103.468 199.512C103.649 199.683 103.964 199.768 104.411 199.768H105.484V201H104.172C103.361 201 102.753 200.813 102.348 200.44C101.942 200.067 101.74 199.453 101.74 198.6V193.432H100.604V192.232H101.74V190.024H103.196V192.232H105.484V193.432H103.196ZM120.281 201H118.825L112.969 192.12V201H111.513V189.832H112.969L118.825 198.696V189.832H120.281V201ZM122.219 196.584C122.219 195.688 122.401 194.904 122.763 194.232C123.126 193.549 123.622 193.021 124.251 192.648C124.891 192.275 125.601 192.088 126.379 192.088C127.147 192.088 127.814 192.253 128.379 192.584C128.945 192.915 129.366 193.331 129.643 193.832V192.232H131.115V201H129.643V199.368C129.355 199.88 128.923 200.307 128.347 200.648C127.782 200.979 127.121 201.144 126.363 201.144C125.585 201.144 124.881 200.952 124.251 200.568C123.622 200.184 123.126 199.645 122.763 198.952C122.401 198.259 122.219 197.469 122.219 196.584ZM129.643 196.6C129.643 195.939 129.51 195.363 129.243 194.872C128.977 194.381 128.614 194.008 128.155 193.752C127.707 193.485 127.211 193.352 126.667 193.352C126.123 193.352 125.627 193.48 125.179 193.736C124.731 193.992 124.374 194.365 124.107 194.856C123.841 195.347 123.707 195.923 123.707 196.584C123.707 197.256 123.841 197.843 124.107 198.344C124.374 198.835 124.731 199.213 125.179 199.48C125.627 199.736 126.123 199.864 126.667 199.864C127.211 199.864 127.707 199.736 128.155 199.48C128.614 199.213 128.977 198.835 129.243 198.344C129.51 197.843 129.643 197.261 129.643 196.6ZM135.352 193.432V198.6C135.352 199.027 135.442 199.331 135.624 199.512C135.805 199.683 136.12 199.768 136.568 199.768H137.64V201H136.328C135.517 201 134.909 200.813 134.504 200.44C134.098 200.067 133.896 199.453 133.896 198.6V193.432H132.76V192.232H133.896V190.024H135.352V192.232H137.64V193.432H135.352ZM140.156 190.808C139.879 190.808 139.644 190.712 139.452 190.52C139.26 190.328 139.164 190.093 139.164 189.816C139.164 189.539 139.26 189.304 139.452 189.112C139.644 188.92 139.879 188.824 140.156 188.824C140.423 188.824 140.647 188.92 140.828 189.112C141.02 189.304 141.116 189.539 141.116 189.816C141.116 190.093 141.02 190.328 140.828 190.52C140.647 190.712 140.423 190.808 140.156 190.808ZM140.86 192.232V201H139.404V192.232H140.86ZM146.605 199.656L149.325 192.232H150.877L147.437 201H145.741L142.301 192.232H143.869L146.605 199.656ZM160.31 196.28C160.31 196.557 160.294 196.851 160.262 197.16H153.254C153.307 198.024 153.601 198.701 154.134 199.192C154.678 199.672 155.334 199.912 156.102 199.912C156.731 199.912 157.254 199.768 157.67 199.48C158.097 199.181 158.395 198.787 158.566 198.296H160.134C159.899 199.139 159.43 199.827 158.726 200.36C158.022 200.883 157.147 201.144 156.102 201.144C155.27 201.144 154.523 200.957 153.862 200.584C153.211 200.211 152.699 199.683 152.326 199C151.953 198.307 151.766 197.507 151.766 196.6C151.766 195.693 151.947 194.899 152.31 194.216C152.673 193.533 153.179 193.011 153.83 192.648C154.491 192.275 155.249 192.088 156.102 192.088C156.934 192.088 157.67 192.269 158.31 192.632C158.95 192.995 159.441 193.496 159.782 194.136C160.134 194.765 160.31 195.48 160.31 196.28ZM158.806 195.976C158.806 195.421 158.683 194.947 158.438 194.552C158.193 194.147 157.857 193.843 157.43 193.64C157.014 193.427 156.55 193.32 156.038 193.32C155.302 193.32 154.673 193.555 154.15 194.024C153.638 194.493 153.345 195.144 153.27 195.976H158.806Z" fill="#2C3441"/>
<circle cx="41" cy="141" r="5" fill="#2C3441"/>
<path d="M67.536 135.848V137.032H62.688V140.792H66.624V141.976H62.688V147H61.232V135.848H67.536ZM70.7505 135.16V147H69.2945V135.16H70.7505ZM81.008 138.232V147H79.552V145.704C79.2747 146.152 78.8853 146.504 78.384 146.76C77.8933 147.005 77.3493 147.128 76.752 147.128C76.0693 147.128 75.456 146.989 74.912 146.712C74.368 146.424 73.936 145.997 73.616 145.432C73.3067 144.867 73.152 144.179 73.152 143.368V138.232H74.592V143.176C74.592 144.04 74.8107 144.707 75.248 145.176C75.6853 145.635 76.2827 145.864 77.04 145.864C77.8187 145.864 78.432 145.624 78.88 145.144C79.328 144.664 79.552 143.965 79.552 143.048V138.232H81.008ZM85.2424 139.432V144.6C85.2424 145.027 85.333 145.331 85.5144 145.512C85.6957 145.683 86.0104 145.768 86.4584 145.768H87.5304V147H86.2184C85.4077 147 84.7997 146.813 84.3944 146.44C83.989 146.067 83.7864 145.453 83.7864 144.6V139.432H82.6504V138.232H83.7864V136.024H85.2424V138.232H87.5304V139.432H85.2424ZM91.0705 139.432V144.6C91.0705 145.027 91.1612 145.331 91.3425 145.512C91.5238 145.683 91.8385 145.768 92.2865 145.768H93.3585V147H92.0465C91.2358 147 90.6278 146.813 90.2225 146.44C89.8172 146.067 89.6145 145.453 89.6145 144.6V139.432H88.4785V138.232H89.6145V136.024H91.0705V138.232H93.3585V139.432H91.0705ZM103.123 142.28C103.123 142.557 103.107 142.851 103.075 143.16H96.0666C96.12 144.024 96.4133 144.701 96.9466 145.192C97.4906 145.672 98.1466 145.912 98.9146 145.912C99.544 145.912 100.067 145.768 100.483 145.48C100.909 145.181 101.208 144.787 101.379 144.296H102.947C102.712 145.139 102.243 145.827 101.539 146.36C100.835 146.883 99.96 147.144 98.9146 147.144C98.0826 147.144 97.336 146.957 96.6746 146.584C96.024 146.211 95.512 145.683 95.1386 145C94.7653 144.307 94.5786 143.507 94.5786 142.6C94.5786 141.693 94.76 140.899 95.1226 140.216C95.4853 139.533 95.992 139.011 96.6426 138.648C97.304 138.275 98.0613 138.088 98.9146 138.088C99.7466 138.088 100.483 138.269 101.123 138.632C101.763 138.995 102.253 139.496 102.595 140.136C102.947 140.765 103.123 141.48 103.123 142.28ZM101.619 141.976C101.619 141.421 101.496 140.947 101.251 140.552C101.005 140.147 100.669 139.843 100.243 139.64C99.8266 139.427 99.3626 139.32 98.8506 139.32C98.1146 139.32 97.4853 139.555 96.9626 140.024C96.4506 140.493 96.1573 141.144 96.0826 141.976H101.619ZM106.501 139.656C106.757 139.155 107.119 138.765 107.589 138.488C108.069 138.211 108.65 138.072 109.333 138.072V139.576H108.949C107.317 139.576 106.501 140.461 106.501 142.232V147H105.045V138.232H106.501V139.656Z" fill="#2C3441"/>
<rect width="79" height="79" fill="white"/>
<rect x="29.75" y="21.75" width="18.5" height="36.5" rx="2.25" stroke="#2C3441" stroke-width="1.5"/>
<rect x="32.75" y="41.75" width="5.5" height="5.5" rx="1.25" stroke="#E82726" stroke-width="1.5"/>
<rect x="40.75" y="41.75" width="5.5" height="5.5" rx="1.25" stroke="#2C3441" stroke-width="1.5"/>
<rect x="40.75" y="33.75" width="5.5" height="5.5" rx="1.25" stroke="#E82726" stroke-width="1.5"/>
<rect x="32.75" y="33.75" width="5.5" height="5.5" rx="1.25" stroke="#2C3441" stroke-width="1.5"/>
<line x1="34" y1="24.25" x2="40" y2="24.25" stroke="#2C3441" stroke-width="1.5"/>
<line x1="41" y1="24.25" x2="43" y2="24.25" stroke="#2C3441" stroke-width="1.5"/>
<line x1="30" y1="27.25" x2="48" y2="27.25" stroke="#2C3441" stroke-width="1.5"/>
<line x1="30" y1="53.25" x2="48" y2="53.25" stroke="#2C3441" stroke-width="1.5"/>
<circle cx="39" cy="56" r="2" fill="#2C3441"/>
<path d="M103.105 23.075V33.5H101.395V26.36L98.215 33.5H97.03L93.835 26.36V33.5H92.125V23.075H93.97L97.63 31.25L101.275 23.075H103.105ZM109.688 33.635C108.908 33.635 108.203 33.46 107.573 33.11C106.943 32.75 106.448 32.25 106.088 31.61C105.728 30.96 105.548 30.21 105.548 29.36C105.548 28.52 105.733 27.775 106.103 27.125C106.473 26.475 106.978 25.975 107.618 25.625C108.258 25.275 108.973 25.1 109.763 25.1C110.553 25.1 111.268 25.275 111.908 25.625C112.548 25.975 113.053 26.475 113.423 27.125C113.793 27.775 113.978 28.52 113.978 29.36C113.978 30.2 113.788 30.945 113.408 31.595C113.028 32.245 112.508 32.75 111.848 33.11C111.198 33.46 110.478 33.635 109.688 33.635ZM109.688 32.15C110.128 32.15 110.538 32.045 110.918 31.835C111.308 31.625 111.623 31.31 111.863 30.89C112.103 30.47 112.223 29.96 112.223 29.36C112.223 28.76 112.108 28.255 111.878 27.845C111.648 27.425 111.343 27.11 110.963 26.9C110.583 26.69 110.173 26.585 109.733 26.585C109.293 26.585 108.883 26.69 108.503 26.9C108.133 27.11 107.838 27.425 107.618 27.845C107.398 28.255 107.288 28.76 107.288 29.36C107.288 30.25 107.513 30.94 107.963 31.43C108.423 31.91 108.998 32.15 109.688 32.15ZM118.128 26.465C118.418 26.065 118.813 25.74 119.313 25.49C119.823 25.23 120.388 25.1 121.008 25.1C121.738 25.1 122.398 25.275 122.988 25.625C123.578 25.975 124.043 26.475 124.383 27.125C124.723 27.765 124.893 28.5 124.893 29.33C124.893 30.16 124.723 30.905 124.383 31.565C124.043 32.215 123.573 32.725 122.973 33.095C122.383 33.455 121.728 33.635 121.008 33.635C120.368 33.635 119.798 33.51 119.298 33.26C118.808 33.01 118.418 32.69 118.128 32.3V33.5H116.418V22.4H118.128V26.465ZM123.153 29.33C123.153 28.76 123.033 28.27 122.793 27.86C122.563 27.44 122.253 27.125 121.863 26.915C121.483 26.695 121.073 26.585 120.633 26.585C120.203 26.585 119.793 26.695 119.403 26.915C119.023 27.135 118.713 27.455 118.473 27.875C118.243 28.295 118.128 28.79 118.128 29.36C118.128 29.93 118.243 30.43 118.473 30.86C118.713 31.28 119.023 31.6 119.403 31.82C119.793 32.04 120.203 32.15 120.633 32.15C121.073 32.15 121.483 32.04 121.863 31.82C122.253 31.59 122.563 31.26 122.793 30.83C123.033 30.4 123.153 29.9 123.153 29.33ZM128.204 24.14C127.894 24.14 127.634 24.035 127.424 23.825C127.214 23.615 127.109 23.355 127.109 23.045C127.109 22.735 127.214 22.475 127.424 22.265C127.634 22.055 127.894 21.95 128.204 21.95C128.504 21.95 128.759 22.055 128.969 22.265C129.179 22.475 129.284 22.735 129.284 23.045C129.284 23.355 129.179 23.615 128.969 23.825C128.759 24.035 128.504 24.14 128.204 24.14ZM129.044 25.235V33.5H127.334V25.235H129.044ZM133.749 22.4V33.5H132.039V22.4H133.749ZM144.319 29.165C144.319 29.475 144.299 29.755 144.259 30.005H137.944C137.994 30.665 138.239 31.195 138.679 31.595C139.119 31.995 139.659 32.195 140.299 32.195C141.219 32.195 141.869 31.81 142.249 31.04H144.094C143.844 31.8 143.389 32.425 142.729 32.915C142.079 33.395 141.269 33.635 140.299 33.635C139.509 33.635 138.799 33.46 138.169 33.11C137.549 32.75 137.059 32.25 136.699 31.61C136.349 30.96 136.174 30.21 136.174 29.36C136.174 28.51 136.344 27.765 136.684 27.125C137.034 26.475 137.519 25.975 138.139 25.625C138.769 25.275 139.489 25.1 140.299 25.1C141.079 25.1 141.774 25.27 142.384 25.61C142.994 25.95 143.469 26.43 143.809 27.05C144.149 27.66 144.319 28.365 144.319 29.165ZM142.534 28.625C142.524 27.995 142.299 27.49 141.859 27.11C141.419 26.73 140.874 26.54 140.224 26.54C139.634 26.54 139.129 26.73 138.709 27.11C138.289 27.48 138.039 27.985 137.959 28.625H142.534ZM98.86 46.075V47.47H96.085V56.5H94.375V47.47H91.585V46.075H98.86ZM108.917 52.165C108.917 52.475 108.897 52.755 108.857 53.005H102.542C102.592 53.665 102.837 54.195 103.277 54.595C103.717 54.995 104.257 55.195 104.897 55.195C105.817 55.195 106.467 54.81 106.847 54.04H108.692C108.442 54.8 107.987 55.425 107.327 55.915C106.677 56.395 105.867 56.635 104.897 56.635C104.107 56.635 103.397 56.46 102.767 56.11C102.147 55.75 101.657 55.25 101.297 54.61C100.947 53.96 100.772 53.21 100.772 52.36C100.772 51.51 100.942 50.765 101.282 50.125C101.632 49.475 102.117 48.975 102.737 48.625C103.367 48.275 104.087 48.1 104.897 48.1C105.677 48.1 106.372 48.27 106.982 48.61C107.592 48.95 108.067 49.43 108.407 50.05C108.747 50.66 108.917 51.365 108.917 52.165ZM107.132 51.625C107.122 50.995 106.897 50.49 106.457 50.11C106.017 49.73 105.472 49.54 104.822 49.54C104.232 49.54 103.727 49.73 103.307 50.11C102.887 50.48 102.637 50.985 102.557 51.625H107.132ZM110.78 52.36C110.78 51.51 110.95 50.765 111.29 50.125C111.64 49.475 112.12 48.975 112.73 48.625C113.34 48.275 114.04 48.1 114.83 48.1C115.83 48.1 116.655 48.34 117.305 48.82C117.965 49.29 118.41 49.965 118.64 50.845H116.795C116.645 50.435 116.405 50.115 116.075 49.885C115.745 49.655 115.33 49.54 114.83 49.54C114.13 49.54 113.57 49.79 113.15 50.29C112.74 50.78 112.535 51.47 112.535 52.36C112.535 53.25 112.74 53.945 113.15 54.445C113.57 54.945 114.13 55.195 114.83 55.195C115.82 55.195 116.475 54.76 116.795 53.89H118.64C118.4 54.73 117.95 55.4 117.29 55.9C116.63 56.39 115.81 56.635 114.83 56.635C114.04 56.635 113.34 56.46 112.73 56.11C112.12 55.75 111.64 55.25 111.29 54.61C110.95 53.96 110.78 53.21 110.78 52.36ZM125.369 48.1C125.999 48.1 126.559 48.235 127.049 48.505C127.549 48.775 127.939 49.175 128.219 49.705C128.509 50.235 128.654 50.875 128.654 51.625V56.5H126.959V51.88C126.959 51.14 126.774 50.575 126.404 50.185C126.034 49.785 125.529 49.585 124.889 49.585C124.249 49.585 123.739 49.785 123.359 50.185C122.989 50.575 122.804 51.14 122.804 51.88V56.5H121.094V45.4H122.804V49.195C123.094 48.845 123.459 48.575 123.899 48.385C124.349 48.195 124.839 48.1 125.369 48.1ZM135.755 48.1C136.405 48.1 136.985 48.235 137.495 48.505C138.015 48.775 138.42 49.175 138.71 49.705C139 50.235 139.145 50.875 139.145 51.625V56.5H137.45V51.88C137.45 51.14 137.265 50.575 136.895 50.185C136.525 49.785 136.02 49.585 135.38 49.585C134.74 49.585 134.23 49.785 133.85 50.185C133.48 50.575 133.295 51.14 133.295 51.88V56.5H131.585V48.235H133.295V49.18C133.575 48.84 133.93 48.575 134.36 48.385C134.8 48.195 135.265 48.1 135.755 48.1ZM145.661 56.635C144.881 56.635 144.176 56.46 143.546 56.11C142.916 55.75 142.421 55.25 142.061 54.61C141.701 53.96 141.521 53.21 141.521 52.36C141.521 51.52 141.706 50.775 142.076 50.125C142.446 49.475 142.951 48.975 143.591 48.625C144.231 48.275 144.946 48.1 145.736 48.1C146.526 48.1 147.241 48.275 147.881 48.625C148.521 48.975 149.026 49.475 149.396 50.125C149.766 50.775 149.951 51.52 149.951 52.36C149.951 53.2 149.761 53.945 149.381 54.595C149.001 55.245 148.481 55.75 147.821 56.11C147.171 56.46 146.451 56.635 145.661 56.635ZM145.661 55.15C146.101 55.15 146.511 55.045 146.891 54.835C147.281 54.625 147.596 54.31 147.836 53.89C148.076 53.47 148.196 52.96 148.196 52.36C148.196 51.76 148.081 51.255 147.851 50.845C147.621 50.425 147.316 50.11 146.936 49.9C146.556 49.69 146.146 49.585 145.706 49.585C145.266 49.585 144.856 49.69 144.476 49.9C144.106 50.11 143.811 50.425 143.591 50.845C143.371 51.255 143.261 51.76 143.261 52.36C143.261 53.25 143.486 53.94 143.936 54.43C144.396 54.91 144.971 55.15 145.661 55.15ZM154.102 45.4V56.5H152.392V45.4H154.102ZM160.682 56.635C159.902 56.635 159.197 56.46 158.567 56.11C157.937 55.75 157.442 55.25 157.082 54.61C156.722 53.96 156.542 53.21 156.542 52.36C156.542 51.52 156.727 50.775 157.097 50.125C157.467 49.475 157.972 48.975 158.612 48.625C159.252 48.275 159.967 48.1 160.757 48.1C161.547 48.1 162.262 48.275 162.902 48.625C163.542 48.975 164.047 49.475 164.417 50.125C164.787 50.775 164.972 51.52 164.972 52.36C164.972 53.2 164.782 53.945 164.402 54.595C164.022 55.245 163.502 55.75 162.842 56.11C162.192 56.46 161.472 56.635 160.682 56.635ZM160.682 55.15C161.122 55.15 161.532 55.045 161.912 54.835C162.302 54.625 162.617 54.31 162.857 53.89C163.097 53.47 163.217 52.96 163.217 52.36C163.217 51.76 163.102 51.255 162.872 50.845C162.642 50.425 162.337 50.11 161.957 49.9C161.577 49.69 161.167 49.585 160.727 49.585C160.287 49.585 159.877 49.69 159.497 49.9C159.127 50.11 158.832 50.425 158.612 50.845C158.392 51.255 158.282 51.76 158.282 52.36C158.282 53.25 158.507 53.94 158.957 54.43C159.417 54.91 159.992 55.15 160.682 55.15ZM170.742 48.1C171.382 48.1 171.947 48.23 172.437 48.49C172.937 48.74 173.327 49.055 173.607 49.435V48.235H175.332V56.635C175.332 57.395 175.172 58.07 174.852 58.66C174.532 59.26 174.067 59.73 173.457 60.07C172.857 60.41 172.137 60.58 171.297 60.58C170.177 60.58 169.247 60.315 168.507 59.785C167.767 59.265 167.347 58.555 167.247 57.655H168.942C169.072 58.085 169.347 58.43 169.767 58.69C170.197 58.96 170.707 59.095 171.297 59.095C171.987 59.095 172.542 58.885 172.962 58.465C173.392 58.045 173.607 57.435 173.607 56.635V55.255C173.317 55.645 172.922 55.975 172.422 56.245C171.932 56.505 171.372 56.635 170.742 56.635C170.022 56.635 169.362 56.455 168.762 56.095C168.172 55.725 167.702 55.215 167.352 54.565C167.012 53.905 166.842 53.16 166.842 52.33C166.842 51.5 167.012 50.765 167.352 50.125C167.702 49.485 168.172 48.99 168.762 48.64C169.362 48.28 170.022 48.1 170.742 48.1ZM173.607 52.36C173.607 51.79 173.487 51.295 173.247 50.875C173.017 50.455 172.712 50.135 172.332 49.915C171.952 49.695 171.542 49.585 171.102 49.585C170.662 49.585 170.252 49.695 169.872 49.915C169.492 50.125 169.182 50.44 168.942 50.86C168.712 51.27 168.597 51.76 168.597 52.33C168.597 52.9 168.712 53.4 168.942 53.83C169.182 54.26 169.492 54.59 169.872 54.82C170.262 55.04 170.672 55.15 171.102 55.15C171.542 55.15 171.952 55.04 172.332 54.82C172.712 54.6 173.017 54.28 173.247 53.86C173.487 53.43 173.607 52.93 173.607 52.36ZM179.198 47.14C178.888 47.14 178.628 47.035 178.418 46.825C178.208 46.615 178.103 46.355 178.103 46.045C178.103 45.735 178.208 45.475 178.418 45.265C178.628 45.055 178.888 44.95 179.198 44.95C179.498 44.95 179.753 45.055 179.963 45.265C180.173 45.475 180.278 45.735 180.278 46.045C180.278 46.355 180.173 46.615 179.963 46.825C179.753 47.035 179.498 47.14 179.198 47.14ZM180.038 48.235V56.5H178.328V48.235H180.038ZM190.608 52.165C190.608 52.475 190.588 52.755 190.548 53.005H184.233C184.283 53.665 184.528 54.195 184.968 54.595C185.408 54.995 185.948 55.195 186.588 55.195C187.508 55.195 188.158 54.81 188.538 54.04H190.383C190.133 54.8 189.678 55.425 189.018 55.915C188.368 56.395 187.558 56.635 186.588 56.635C185.798 56.635 185.088 56.46 184.458 56.11C183.838 55.75 183.348 55.25 182.988 54.61C182.638 53.96 182.463 53.21 182.463 52.36C182.463 51.51 182.633 50.765 182.973 50.125C183.323 49.475 183.808 48.975 184.428 48.625C185.058 48.275 185.778 48.1 186.588 48.1C187.368 48.1 188.063 48.27 188.673 48.61C189.283 48.95 189.758 49.43 190.098 50.05C190.438 50.66 190.608 51.365 190.608 52.165ZM188.823 51.625C188.813 50.995 188.588 50.49 188.148 50.11C187.708 49.73 187.163 49.54 186.513 49.54C185.923 49.54 185.418 49.73 184.998 50.11C184.578 50.48 184.328 50.985 184.248 51.625H188.823ZM196.041 56.635C195.391 56.635 194.806 56.52 194.286 56.29C193.776 56.05 193.371 55.73 193.071 55.33C192.771 54.92 192.611 54.465 192.591 53.965H194.361C194.391 54.315 194.556 54.61 194.856 54.85C195.166 55.08 195.551 55.195 196.011 55.195C196.491 55.195 196.861 55.105 197.121 54.925C197.391 54.735 197.526 54.495 197.526 54.205C197.526 53.895 197.376 53.665 197.076 53.515C196.786 53.365 196.321 53.2 195.681 53.02C195.061 52.85 194.556 52.685 194.166 52.525C193.776 52.365 193.436 52.12 193.146 51.79C192.866 51.46 192.726 51.025 192.726 50.485C192.726 50.045 192.856 49.645 193.116 49.285C193.376 48.915 193.746 48.625 194.226 48.415C194.716 48.205 195.276 48.1 195.906 48.1C196.846 48.1 197.601 48.34 198.171 48.82C198.751 49.29 199.061 49.935 199.101 50.755H197.391C197.361 50.385 197.211 50.09 196.941 49.87C196.671 49.65 196.306 49.54 195.846 49.54C195.396 49.54 195.051 49.625 194.811 49.795C194.571 49.965 194.451 50.19 194.451 50.47C194.451 50.69 194.531 50.875 194.691 51.025C194.851 51.175 195.046 51.295 195.276 51.385C195.506 51.465 195.846 51.57 196.296 51.7C196.896 51.86 197.386 52.025 197.766 52.195C198.156 52.355 198.491 52.595 198.771 52.915C199.051 53.235 199.196 53.66 199.206 54.19C199.206 54.66 199.076 55.08 198.816 55.45C198.556 55.82 198.186 56.11 197.706 56.32C197.236 56.53 196.681 56.635 196.041 56.635Z" fill="#2C3441"/>
</svg>
