<svg width="278" height="635" viewBox="0 0 278 635" fill="none" xmlns="http://www.w3.org/2000/svg">
<rect width="278" height="635" fill="#F6F6F6"/>
<line x1="40.75" y1="78" x2="40.75" y2="635" stroke="#DFDFDF" stroke-width="1.5"/>
<mask id="mask0_1851_71502" style="mask-type:alpha" maskUnits="userSpaceOnUse" x="128" y="471" width="150" height="164">
<rect x="128" y="471" width="150" height="164" fill="white"/>
</mask>
<g mask="url(#mask0_1851_71502)">
<g opacity="0.5">
<rect x="189.75" y="544.75" width="37.5" height="45.5" rx="3.25" stroke="#DFDFDF" stroke-width="3.5"/>
<rect x="172.75" y="500.75" width="123.5" height="106.5" rx="3.25" stroke="#DFDFDF" stroke-width="3.5"/>
<line x1="174" y1="525.25" x2="295" y2="525.25" stroke="#DFDFDF" stroke-width="3.5"/>
<line x1="240" y1="545.25" x2="281" y2="545.25" stroke="#DFDFDF" stroke-width="3.5"/>
<line x1="240" y1="558.25" x2="281" y2="558.25" stroke="#DFDFDF" stroke-width="3.5"/>
<line x1="240" y1="572.25" x2="281" y2="572.25" stroke="#DFDFDF" stroke-width="3.5"/>
<line x1="240" y1="586.25" x2="281" y2="586.25" stroke="#DFDFDF" stroke-width="3.5"/>
<circle cx="188" cy="512" r="4.25" stroke="#DFDFDF" stroke-width="3.5"/>
<circle cx="204" cy="512" r="4.25" stroke="#DFDFDF" stroke-width="3.5"/>
<circle cx="220" cy="512" r="4.25" stroke="#DFDFDF" stroke-width="3.5"/>
</g>
</g>
<circle cx="41" cy="573" r="5" fill="#2C3441"/>
<path d="M67.104 579L64.448 574.44H62.688V579H61.232V567.848H64.832C65.6747 567.848 66.384 567.992 66.96 568.28C67.5467 568.568 67.984 568.957 68.272 569.448C68.56 569.939 68.704 570.499 68.704 571.128C68.704 571.896 68.48 572.573 68.032 573.16C67.5947 573.747 66.9333 574.136 66.048 574.328L68.848 579H67.104ZM62.688 573.272H64.832C65.6213 573.272 66.2133 573.08 66.608 572.696C67.0027 572.301 67.2 571.779 67.2 571.128C67.2 570.467 67.0027 569.955 66.608 569.592C66.224 569.229 65.632 569.048 64.832 569.048H62.688V573.272ZM78.9664 574.28C78.9664 574.557 78.9504 574.851 78.9184 575.16H71.9104C71.9637 576.024 72.257 576.701 72.7904 577.192C73.3344 577.672 73.9904 577.912 74.7584 577.912C75.3877 577.912 75.9104 577.768 76.3264 577.48C76.753 577.181 77.0517 576.787 77.2224 576.296H78.7904C78.5557 577.139 78.0864 577.827 77.3824 578.36C76.6784 578.883 75.8037 579.144 74.7584 579.144C73.9264 579.144 73.1797 578.957 72.5184 578.584C71.8677 578.211 71.3557 577.683 70.9824 577C70.609 576.307 70.4224 575.507 70.4224 574.6C70.4224 573.693 70.6037 572.899 70.9664 572.216C71.329 571.533 71.8357 571.011 72.4864 570.648C73.1477 570.275 73.905 570.088 74.7584 570.088C75.5904 570.088 76.3264 570.269 76.9664 570.632C77.6064 570.995 78.097 571.496 78.4384 572.136C78.7904 572.765 78.9664 573.48 78.9664 574.28ZM77.4624 573.976C77.4624 573.421 77.3397 572.947 77.0944 572.552C76.849 572.147 76.513 571.843 76.0864 571.64C75.6704 571.427 75.2064 571.32 74.6944 571.32C73.9584 571.32 73.329 571.555 72.8064 572.024C72.2944 572.493 72.001 573.144 71.9264 573.976H77.4624ZM84.1523 577.656L86.8723 570.232H88.4243L84.9843 579H83.2883L79.8483 570.232H81.4163L84.1523 577.656ZM97.857 574.28C97.857 574.557 97.841 574.851 97.809 575.16H90.801C90.8543 576.024 91.1477 576.701 91.681 577.192C92.225 577.672 92.881 577.912 93.649 577.912C94.2783 577.912 94.801 577.768 95.217 577.48C95.6437 577.181 95.9423 576.787 96.113 576.296H97.681C97.4463 577.139 96.977 577.827 96.273 578.36C95.569 578.883 94.6943 579.144 93.649 579.144C92.817 579.144 92.0703 578.957 91.409 578.584C90.7583 578.211 90.2463 577.683 89.873 577C89.4997 576.307 89.313 575.507 89.313 574.6C89.313 573.693 89.4943 572.899 89.857 572.216C90.2197 571.533 90.7263 571.011 91.377 570.648C92.0383 570.275 92.7957 570.088 93.649 570.088C94.481 570.088 95.217 570.269 95.857 570.632C96.497 570.995 96.9877 571.496 97.329 572.136C97.681 572.765 97.857 573.48 97.857 574.28ZM96.353 573.976C96.353 573.421 96.2303 572.947 95.985 572.552C95.7397 572.147 95.4037 571.843 94.977 571.64C94.561 571.427 94.097 571.32 93.585 571.32C92.849 571.32 92.2197 571.555 91.697 572.024C91.185 572.493 90.8917 573.144 90.817 573.976H96.353ZM101.235 567.16V579H99.7789V567.16H101.235Z" fill="#2C3441"/>
<circle cx="41" cy="519" r="5" fill="#2C3441"/>
<path d="M64.768 525.112C64.032 525.112 63.3707 524.984 62.784 524.728C62.208 524.461 61.7547 524.099 61.424 523.64C61.0933 523.171 60.9227 522.632 60.912 522.024H62.464C62.5173 522.547 62.7307 522.989 63.104 523.352C63.488 523.704 64.0427 523.88 64.768 523.88C65.4613 523.88 66.0053 523.709 66.4 523.368C66.8053 523.016 67.008 522.568 67.008 522.024C67.008 521.597 66.8907 521.251 66.656 520.984C66.4213 520.717 66.128 520.515 65.776 520.376C65.424 520.237 64.9493 520.088 64.352 519.928C63.616 519.736 63.024 519.544 62.576 519.352C62.1387 519.16 61.76 518.861 61.44 518.456C61.1307 518.04 60.976 517.485 60.976 516.792C60.976 516.184 61.1307 515.645 61.44 515.176C61.7493 514.707 62.1813 514.344 62.736 514.088C63.3013 513.832 63.9467 513.704 64.672 513.704C65.7173 513.704 66.5707 513.965 67.232 514.488C67.904 515.011 68.2827 515.704 68.368 516.568H66.768C66.7147 516.141 66.4907 515.768 66.096 515.448C65.7013 515.117 65.1787 514.952 64.528 514.952C63.92 514.952 63.424 515.112 63.04 515.432C62.656 515.741 62.464 516.179 62.464 516.744C62.464 517.149 62.576 517.48 62.8 517.736C63.0347 517.992 63.3173 518.189 63.648 518.328C63.9893 518.456 64.464 518.605 65.072 518.776C65.808 518.979 66.4 519.181 66.848 519.384C67.296 519.576 67.68 519.88 68 520.296C68.32 520.701 68.48 521.256 68.48 521.96C68.48 522.504 68.336 523.016 68.048 523.496C67.76 523.976 67.3333 524.365 66.768 524.664C66.2027 524.963 65.536 525.112 64.768 525.112ZM72.0786 517.848C72.3666 517.347 72.7933 516.931 73.3586 516.6C73.9346 516.259 74.6013 516.088 75.3586 516.088C76.1373 516.088 76.8413 516.275 77.4706 516.648C78.1106 517.021 78.612 517.549 78.9746 518.232C79.3373 518.904 79.5186 519.688 79.5186 520.584C79.5186 521.469 79.3373 522.259 78.9746 522.952C78.612 523.645 78.1106 524.184 77.4706 524.568C76.8413 524.952 76.1373 525.144 75.3586 525.144C74.612 525.144 73.9506 524.979 73.3746 524.648C72.8093 524.307 72.3773 523.885 72.0786 523.384V529.16H70.6226V516.232H72.0786V517.848ZM78.0306 520.584C78.0306 519.923 77.8973 519.347 77.6306 518.856C77.364 518.365 77.0013 517.992 76.5426 517.736C76.0946 517.48 75.5986 517.352 75.0546 517.352C74.5213 517.352 74.0253 517.485 73.5666 517.752C73.1186 518.008 72.756 518.387 72.4786 518.888C72.212 519.379 72.0786 519.949 72.0786 520.6C72.0786 521.261 72.212 521.843 72.4786 522.344C72.756 522.835 73.1186 523.213 73.5666 523.48C74.0253 523.736 74.5213 523.864 75.0546 523.864C75.5986 523.864 76.0946 523.736 76.5426 523.48C77.0013 523.213 77.364 522.835 77.6306 522.344C77.8973 521.843 78.0306 521.256 78.0306 520.584ZM82.8911 517.656C83.1471 517.155 83.5098 516.765 83.9791 516.488C84.4591 516.211 85.0405 516.072 85.7231 516.072V517.576H85.3391C83.7071 517.576 82.8911 518.461 82.8911 520.232V525H81.4351V516.232H82.8911V517.656ZM88.1559 514.808C87.8785 514.808 87.6439 514.712 87.4519 514.52C87.2599 514.328 87.1639 514.093 87.1639 513.816C87.1639 513.539 87.2599 513.304 87.4519 513.112C87.6439 512.92 87.8785 512.824 88.1559 512.824C88.4225 512.824 88.6465 512.92 88.8279 513.112C89.0199 513.304 89.1159 513.539 89.1159 513.816C89.1159 514.093 89.0199 514.328 88.8279 514.52C88.6465 514.712 88.4225 514.808 88.1559 514.808ZM88.8599 516.232V525H87.4039V516.232H88.8599ZM95.6134 516.072C96.68 516.072 97.544 516.397 98.2054 517.048C98.8667 517.688 99.1974 518.616 99.1974 519.832V525H97.7574V520.04C97.7574 519.165 97.5387 518.499 97.1014 518.04C96.664 517.571 96.0667 517.336 95.3094 517.336C94.5414 517.336 93.928 517.576 93.4694 518.056C93.0214 518.536 92.7974 519.235 92.7974 520.152V525H91.3414V516.232H92.7974V517.48C93.0854 517.032 93.4747 516.685 93.9654 516.44C94.4667 516.195 95.016 516.072 95.6134 516.072ZM105.192 516.088C105.949 516.088 106.61 516.253 107.176 516.584C107.752 516.915 108.178 517.331 108.456 517.832V516.232H109.928V525.192C109.928 525.992 109.757 526.701 109.416 527.32C109.074 527.949 108.584 528.44 107.944 528.792C107.314 529.144 106.578 529.32 105.736 529.32C104.584 529.32 103.624 529.048 102.856 528.504C102.088 527.96 101.634 527.219 101.496 526.28H102.936C103.096 526.813 103.426 527.24 103.928 527.56C104.429 527.891 105.032 528.056 105.736 528.056C106.536 528.056 107.186 527.805 107.688 527.304C108.2 526.803 108.456 526.099 108.456 525.192V523.352C108.168 523.864 107.741 524.291 107.176 524.632C106.61 524.973 105.949 525.144 105.192 525.144C104.413 525.144 103.704 524.952 103.064 524.568C102.434 524.184 101.938 523.645 101.576 522.952C101.213 522.259 101.032 521.469 101.032 520.584C101.032 519.688 101.213 518.904 101.576 518.232C101.938 517.549 102.434 517.021 103.064 516.648C103.704 516.275 104.413 516.088 105.192 516.088ZM108.456 520.6C108.456 519.939 108.322 519.363 108.056 518.872C107.789 518.381 107.426 518.008 106.968 517.752C106.52 517.485 106.024 517.352 105.48 517.352C104.936 517.352 104.44 517.48 103.992 517.736C103.544 517.992 103.186 518.365 102.92 518.856C102.653 519.347 102.52 519.923 102.52 520.584C102.52 521.256 102.653 521.843 102.92 522.344C103.186 522.835 103.544 523.213 103.992 523.48C104.44 523.736 104.936 523.864 105.48 523.864C106.024 523.864 106.52 523.736 106.968 523.48C107.426 523.213 107.789 522.835 108.056 522.344C108.322 521.843 108.456 521.261 108.456 520.6Z" fill="#2C3441"/>
<circle cx="41" cy="465" r="5" fill="#2C3441"/>
<path d="M67.104 471L64.448 466.44H62.688V471H61.232V459.848H64.832C65.6747 459.848 66.384 459.992 66.96 460.28C67.5467 460.568 67.984 460.957 68.272 461.448C68.56 461.939 68.704 462.499 68.704 463.128C68.704 463.896 68.48 464.573 68.032 465.16C67.5947 465.747 66.9333 466.136 66.048 466.328L68.848 471H67.104ZM62.688 465.272H64.832C65.6213 465.272 66.2133 465.08 66.608 464.696C67.0027 464.301 67.2 463.779 67.2 463.128C67.2 462.467 67.0027 461.955 66.608 461.592C66.224 461.229 65.632 461.048 64.832 461.048H62.688V465.272ZM70.4224 466.584C70.4224 465.688 70.6037 464.904 70.9664 464.232C71.329 463.549 71.825 463.021 72.4544 462.648C73.0944 462.275 73.8037 462.088 74.5824 462.088C75.3504 462.088 76.017 462.253 76.5824 462.584C77.1477 462.915 77.569 463.331 77.8464 463.832V462.232H79.3184V471H77.8464V469.368C77.5584 469.88 77.1264 470.307 76.5504 470.648C75.985 470.979 75.3237 471.144 74.5664 471.144C73.7877 471.144 73.0837 470.952 72.4544 470.568C71.825 470.184 71.329 469.645 70.9664 468.952C70.6037 468.259 70.4224 467.469 70.4224 466.584ZM77.8464 466.6C77.8464 465.939 77.713 465.363 77.4464 464.872C77.1797 464.381 76.817 464.008 76.3584 463.752C75.9104 463.485 75.4144 463.352 74.8704 463.352C74.3264 463.352 73.8304 463.48 73.3824 463.736C72.9344 463.992 72.577 464.365 72.3104 464.856C72.0437 465.347 71.9104 465.923 71.9104 466.584C71.9104 467.256 72.0437 467.843 72.3104 468.344C72.577 468.835 72.9344 469.213 73.3824 469.48C73.8304 469.736 74.3264 469.864 74.8704 469.864C75.4144 469.864 75.9104 469.736 76.3584 469.48C76.817 469.213 77.1797 468.835 77.4464 468.344C77.713 467.843 77.8464 467.261 77.8464 466.6ZM82.5309 460.808C82.2535 460.808 82.0189 460.712 81.8269 460.52C81.6349 460.328 81.5389 460.093 81.5389 459.816C81.5389 459.539 81.6349 459.304 81.8269 459.112C82.0189 458.92 82.2535 458.824 82.5309 458.824C82.7975 458.824 83.0215 458.92 83.2029 459.112C83.3949 459.304 83.4909 459.539 83.4909 459.816C83.4909 460.093 83.3949 460.328 83.2029 460.52C83.0215 460.712 82.7975 460.808 82.5309 460.808ZM83.2349 462.232V471H81.7789V462.232H83.2349ZM87.1724 459.16V471H85.7164V459.16H87.1724ZM92.7579 471.144C92.0859 471.144 91.4832 471.032 90.9499 470.808C90.4165 470.573 89.9952 470.253 89.6859 469.848C89.3765 469.432 89.2059 468.957 89.1739 468.424H90.6779C90.7205 468.861 90.9232 469.219 91.2859 469.496C91.6592 469.773 92.1445 469.912 92.7419 469.912C93.2965 469.912 93.7339 469.789 94.0539 469.544C94.3739 469.299 94.5339 468.989 94.5339 468.616C94.5339 468.232 94.3632 467.949 94.0219 467.768C93.6805 467.576 93.1525 467.389 92.4379 467.208C91.7872 467.037 91.2539 466.867 90.8379 466.696C90.4325 466.515 90.0805 466.253 89.7819 465.912C89.4939 465.56 89.3499 465.101 89.3499 464.536C89.3499 464.088 89.4832 463.677 89.7499 463.304C90.0165 462.931 90.3952 462.637 90.8859 462.424C91.3765 462.2 91.9365 462.088 92.5659 462.088C93.5365 462.088 94.3205 462.333 94.9179 462.824C95.5152 463.315 95.8352 463.987 95.8779 464.84H94.4219C94.3899 464.381 94.2032 464.013 93.8619 463.736C93.5312 463.459 93.0832 463.32 92.5179 463.32C91.9952 463.32 91.5792 463.432 91.2699 463.656C90.9605 463.88 90.8059 464.173 90.8059 464.536C90.8059 464.824 90.8965 465.064 91.0779 465.256C91.2699 465.437 91.5045 465.587 91.7819 465.704C92.0699 465.811 92.4645 465.933 92.9659 466.072C93.5952 466.243 94.1072 466.413 94.5019 466.584C94.8965 466.744 95.2325 466.989 95.5099 467.32C95.7979 467.651 95.9472 468.083 95.9579 468.616C95.9579 469.096 95.8245 469.528 95.5579 469.912C95.2912 470.296 94.9125 470.6 94.4219 470.824C93.9419 471.037 93.3872 471.144 92.7579 471.144Z" fill="#2C3441"/>
<circle cx="41" cy="411" r="5" fill="#2C3441"/>
<path d="M62.688 407.032V410.76H66.752V411.96H62.688V415.8H67.232V417H61.232V405.832H67.232V407.032H62.688ZM74.0111 417L71.9311 413.736L69.9311 417H68.4111L71.2431 412.648L68.4111 408.232H70.0591L72.1391 411.48L74.1231 408.232H75.6431L72.8271 412.568L75.6591 417H74.0111ZM78.5474 409.848C78.8354 409.347 79.262 408.931 79.8274 408.6C80.4034 408.259 81.07 408.088 81.8274 408.088C82.606 408.088 83.31 408.275 83.9394 408.648C84.5794 409.021 85.0807 409.549 85.4434 410.232C85.806 410.904 85.9874 411.688 85.9874 412.584C85.9874 413.469 85.806 414.259 85.4434 414.952C85.0807 415.645 84.5794 416.184 83.9394 416.568C83.31 416.952 82.606 417.144 81.8274 417.144C81.0807 417.144 80.4194 416.979 79.8434 416.648C79.278 416.307 78.846 415.885 78.5474 415.384V421.16H77.0914V408.232H78.5474V409.848ZM84.4994 412.584C84.4994 411.923 84.366 411.347 84.0994 410.856C83.8327 410.365 83.47 409.992 83.0114 409.736C82.5634 409.48 82.0674 409.352 81.5234 409.352C80.99 409.352 80.494 409.485 80.0354 409.752C79.5874 410.008 79.2247 410.387 78.9474 410.888C78.6807 411.379 78.5474 411.949 78.5474 412.6C78.5474 413.261 78.6807 413.843 78.9474 414.344C79.2247 414.835 79.5874 415.213 80.0354 415.48C80.494 415.736 80.99 415.864 81.5234 415.864C82.0674 415.864 82.5634 415.736 83.0114 415.48C83.47 415.213 83.8327 414.835 84.0994 414.344C84.366 413.843 84.4994 413.256 84.4994 412.584ZM89.3599 409.656C89.6159 409.155 89.9785 408.765 90.4479 408.488C90.9279 408.211 91.5092 408.072 92.1919 408.072V409.576H91.8079C90.1759 409.576 89.3599 410.461 89.3599 412.232V417H87.9039V408.232H89.3599V409.656ZM101.873 412.28C101.873 412.557 101.857 412.851 101.825 413.16H94.8166C94.87 414.024 95.1633 414.701 95.6966 415.192C96.2406 415.672 96.8966 415.912 97.6646 415.912C98.294 415.912 98.8166 415.768 99.2326 415.48C99.6593 415.181 99.958 414.787 100.129 414.296H101.697C101.462 415.139 100.993 415.827 100.289 416.36C99.5846 416.883 98.71 417.144 97.6646 417.144C96.8326 417.144 96.086 416.957 95.4246 416.584C94.774 416.211 94.262 415.683 93.8886 415C93.5153 414.307 93.3286 413.507 93.3286 412.6C93.3286 411.693 93.51 410.899 93.8726 410.216C94.2353 409.533 94.742 409.011 95.3926 408.648C96.054 408.275 96.8113 408.088 97.6646 408.088C98.4966 408.088 99.2326 408.269 99.8726 408.632C100.513 408.995 101.003 409.496 101.345 410.136C101.697 410.765 101.873 411.48 101.873 412.28ZM100.369 411.976C100.369 411.421 100.246 410.947 100.001 410.552C99.7553 410.147 99.4193 409.843 98.9926 409.64C98.5766 409.427 98.1126 409.32 97.6006 409.32C96.8646 409.32 96.2353 409.555 95.7126 410.024C95.2006 410.493 94.9073 411.144 94.8326 411.976H100.369ZM106.899 417.144C106.227 417.144 105.624 417.032 105.091 416.808C104.557 416.573 104.136 416.253 103.827 415.848C103.517 415.432 103.347 414.957 103.315 414.424H104.819C104.861 414.861 105.064 415.219 105.427 415.496C105.8 415.773 106.285 415.912 106.883 415.912C107.437 415.912 107.875 415.789 108.195 415.544C108.515 415.299 108.675 414.989 108.675 414.616C108.675 414.232 108.504 413.949 108.163 413.768C107.821 413.576 107.293 413.389 106.579 413.208C105.928 413.037 105.395 412.867 104.979 412.696C104.573 412.515 104.221 412.253 103.923 411.912C103.635 411.56 103.491 411.101 103.491 410.536C103.491 410.088 103.624 409.677 103.891 409.304C104.157 408.931 104.536 408.637 105.027 408.424C105.517 408.2 106.077 408.088 106.707 408.088C107.677 408.088 108.461 408.333 109.059 408.824C109.656 409.315 109.976 409.987 110.019 410.84H108.563C108.531 410.381 108.344 410.013 108.003 409.736C107.672 409.459 107.224 409.32 106.659 409.32C106.136 409.32 105.72 409.432 105.411 409.656C105.101 409.88 104.947 410.173 104.947 410.536C104.947 410.824 105.037 411.064 105.219 411.256C105.411 411.437 105.645 411.587 105.923 411.704C106.211 411.811 106.605 411.933 107.107 412.072C107.736 412.243 108.248 412.413 108.643 412.584C109.037 412.744 109.373 412.989 109.651 413.32C109.939 413.651 110.088 414.083 110.099 414.616C110.099 415.096 109.965 415.528 109.699 415.912C109.432 416.296 109.053 416.6 108.563 416.824C108.083 417.037 107.528 417.144 106.899 417.144ZM115.258 417.144C114.586 417.144 113.983 417.032 113.45 416.808C112.917 416.573 112.495 416.253 112.186 415.848C111.877 415.432 111.706 414.957 111.674 414.424H113.178C113.221 414.861 113.423 415.219 113.786 415.496C114.159 415.773 114.645 415.912 115.242 415.912C115.797 415.912 116.234 415.789 116.554 415.544C116.874 415.299 117.034 414.989 117.034 414.616C117.034 414.232 116.863 413.949 116.522 413.768C116.181 413.576 115.653 413.389 114.938 413.208C114.287 413.037 113.754 412.867 113.338 412.696C112.933 412.515 112.581 412.253 112.282 411.912C111.994 411.56 111.85 411.101 111.85 410.536C111.85 410.088 111.983 409.677 112.25 409.304C112.517 408.931 112.895 408.637 113.386 408.424C113.877 408.2 114.437 408.088 115.066 408.088C116.037 408.088 116.821 408.333 117.418 408.824C118.015 409.315 118.335 409.987 118.378 410.84H116.922C116.89 410.381 116.703 410.013 116.362 409.736C116.031 409.459 115.583 409.32 115.018 409.32C114.495 409.32 114.079 409.432 113.77 409.656C113.461 409.88 113.306 410.173 113.306 410.536C113.306 410.824 113.397 411.064 113.578 411.256C113.77 411.437 114.005 411.587 114.282 411.704C114.57 411.811 114.965 411.933 115.466 412.072C116.095 412.243 116.607 412.413 117.002 412.584C117.397 412.744 117.733 412.989 118.01 413.32C118.298 413.651 118.447 414.083 118.458 414.616C118.458 415.096 118.325 415.528 118.058 415.912C117.791 416.296 117.413 416.6 116.922 416.824C116.442 417.037 115.887 417.144 115.258 417.144Z" fill="#2C3441"/>
<circle cx="41" cy="357" r="5" fill="#2C3441"/>
<path d="M62.688 361.816H66.592V363H61.232V351.848H62.688V361.816ZM67.5943 358.584C67.5943 357.688 67.7756 356.904 68.1383 356.232C68.5009 355.549 68.9969 355.021 69.6263 354.648C70.2663 354.275 70.9756 354.088 71.7543 354.088C72.5223 354.088 73.1889 354.253 73.7543 354.584C74.3196 354.915 74.7409 355.331 75.0183 355.832V354.232H76.4903V363H75.0183V361.368C74.7303 361.88 74.2983 362.307 73.7223 362.648C73.1569 362.979 72.4956 363.144 71.7383 363.144C70.9596 363.144 70.2556 362.952 69.6263 362.568C68.9969 362.184 68.5009 361.645 68.1383 360.952C67.7756 360.259 67.5943 359.469 67.5943 358.584ZM75.0183 358.6C75.0183 357.939 74.8849 357.363 74.6183 356.872C74.3516 356.381 73.9889 356.008 73.5303 355.752C73.0823 355.485 72.5863 355.352 72.0423 355.352C71.4983 355.352 71.0023 355.48 70.5543 355.736C70.1063 355.992 69.7489 356.365 69.4823 356.856C69.2156 357.347 69.0823 357.923 69.0823 358.584C69.0823 359.256 69.2156 359.843 69.4823 360.344C69.7489 360.835 70.1063 361.213 70.5543 361.48C71.0023 361.736 71.4983 361.864 72.0423 361.864C72.5863 361.864 73.0823 361.736 73.5303 361.48C73.9889 361.213 74.3516 360.835 74.6183 360.344C74.8849 359.843 75.0183 359.261 75.0183 358.6ZM80.4068 355.656C80.6628 355.155 81.0254 354.765 81.4948 354.488C81.9748 354.211 82.5561 354.072 83.2388 354.072V355.576H82.8548C81.2228 355.576 80.4068 356.461 80.4068 358.232V363H78.9508V354.232H80.4068V355.656ZM84.3755 358.584C84.3755 357.688 84.5568 356.904 84.9195 356.232C85.2822 355.549 85.7782 355.021 86.4075 354.648C87.0475 354.275 87.7568 354.088 88.5355 354.088C89.3035 354.088 89.9702 354.253 90.5355 354.584C91.1008 354.915 91.5222 355.331 91.7995 355.832V354.232H93.2715V363H91.7995V361.368C91.5115 361.88 91.0795 362.307 90.5035 362.648C89.9382 362.979 89.2768 363.144 88.5195 363.144C87.7408 363.144 87.0368 362.952 86.4075 362.568C85.7782 362.184 85.2822 361.645 84.9195 360.952C84.5568 360.259 84.3755 359.469 84.3755 358.584ZM91.7995 358.6C91.7995 357.939 91.6662 357.363 91.3995 356.872C91.1328 356.381 90.7702 356.008 90.3115 355.752C89.8635 355.485 89.3675 355.352 88.8235 355.352C88.2795 355.352 87.7835 355.48 87.3355 355.736C86.8875 355.992 86.5302 356.365 86.2635 356.856C85.9968 357.347 85.8635 357.923 85.8635 358.584C85.8635 359.256 85.9968 359.843 86.2635 360.344C86.5302 360.835 86.8875 361.213 87.3355 361.48C87.7835 361.736 88.2795 361.864 88.8235 361.864C89.3675 361.864 89.8635 361.736 90.3115 361.48C90.7702 361.213 91.1328 360.835 91.3995 360.344C91.6662 359.843 91.7995 359.261 91.7995 358.6ZM98.996 361.656L101.716 354.232H103.268L99.828 363H98.132L94.692 354.232H96.26L98.996 361.656ZM112.701 358.28C112.701 358.557 112.685 358.851 112.653 359.16H105.645C105.698 360.024 105.991 360.701 106.525 361.192C107.069 361.672 107.725 361.912 108.493 361.912C109.122 361.912 109.645 361.768 110.061 361.48C110.487 361.181 110.786 360.787 110.957 360.296H112.525C112.29 361.139 111.821 361.827 111.117 362.36C110.413 362.883 109.538 363.144 108.493 363.144C107.661 363.144 106.914 362.957 106.253 362.584C105.602 362.211 105.09 361.683 104.717 361C104.343 360.307 104.157 359.507 104.157 358.6C104.157 357.693 104.338 356.899 104.701 356.216C105.063 355.533 105.57 355.011 106.221 354.648C106.882 354.275 107.639 354.088 108.493 354.088C109.325 354.088 110.061 354.269 110.701 354.632C111.341 354.995 111.831 355.496 112.173 356.136C112.525 356.765 112.701 357.48 112.701 358.28ZM111.197 357.976C111.197 357.421 111.074 356.947 110.829 356.552C110.583 356.147 110.247 355.843 109.821 355.64C109.405 355.427 108.941 355.32 108.429 355.32C107.693 355.32 107.063 355.555 106.541 356.024C106.029 356.493 105.735 357.144 105.661 357.976H111.197ZM116.079 351.16V363H114.623V351.16H116.079Z" fill="#2C3441"/>
<circle cx="41" cy="303" r="5" fill="#2C3441"/>
<path d="M64.704 297.848C65.92 297.848 66.9707 298.077 67.856 298.536C68.752 298.984 69.4347 299.629 69.904 300.472C70.384 301.315 70.624 302.307 70.624 303.448C70.624 304.589 70.384 305.581 69.904 306.424C69.4347 307.256 68.752 307.896 67.856 308.344C66.9707 308.781 65.92 309 64.704 309H61.232V297.848H64.704ZM64.704 307.8C66.144 307.8 67.2427 307.421 68 306.664C68.7573 305.896 69.136 304.824 69.136 303.448C69.136 302.061 68.752 300.979 67.984 300.2C67.2267 299.421 66.1333 299.032 64.704 299.032H62.688V307.8H64.704ZM78.1605 297.848V306.088C78.1605 307.005 77.8778 307.741 77.3125 308.296C76.7472 308.84 76.0005 309.112 75.0725 309.112C74.1338 309.112 73.3818 308.835 72.8165 308.28C72.2512 307.715 71.9685 306.947 71.9685 305.976H73.4245C73.4352 306.52 73.5738 306.963 73.8405 307.304C74.1178 307.645 74.5285 307.816 75.0725 307.816C75.6165 307.816 76.0218 307.656 76.2885 307.336C76.5552 307.005 76.6885 306.589 76.6885 306.088V297.848H78.1605ZM80.4849 304.584C80.4849 303.688 80.6662 302.904 81.0289 302.232C81.3915 301.549 81.8875 301.021 82.5169 300.648C83.1569 300.275 83.8662 300.088 84.6449 300.088C85.4129 300.088 86.0795 300.253 86.6449 300.584C87.2102 300.915 87.6315 301.331 87.9089 301.832V300.232H89.3809V309H87.9089V307.368C87.6209 307.88 87.1889 308.307 86.6129 308.648C86.0475 308.979 85.3862 309.144 84.6289 309.144C83.8502 309.144 83.1462 308.952 82.5169 308.568C81.8875 308.184 81.3915 307.645 81.0289 306.952C80.6662 306.259 80.4849 305.469 80.4849 304.584ZM87.9089 304.6C87.9089 303.939 87.7755 303.363 87.5089 302.872C87.2422 302.381 86.8795 302.008 86.4209 301.752C85.9729 301.485 85.4769 301.352 84.9329 301.352C84.3889 301.352 83.8929 301.48 83.4449 301.736C82.9969 301.992 82.6395 302.365 82.3729 302.856C82.1062 303.347 81.9729 303.923 81.9729 304.584C81.9729 305.256 82.1062 305.843 82.3729 306.344C82.6395 306.835 82.9969 307.213 83.4449 307.48C83.8929 307.736 84.3889 307.864 84.9329 307.864C85.4769 307.864 85.9729 307.736 86.4209 307.48C86.8795 307.213 87.2422 306.835 87.5089 306.344C87.7755 305.843 87.9089 305.261 87.9089 304.6ZM96.1134 300.072C97.18 300.072 98.044 300.397 98.7054 301.048C99.3667 301.688 99.6974 302.616 99.6974 303.832V309H98.2574V304.04C98.2574 303.165 98.0387 302.499 97.6014 302.04C97.164 301.571 96.5667 301.336 95.8094 301.336C95.0414 301.336 94.428 301.576 93.9694 302.056C93.5214 302.536 93.2974 303.235 93.2974 304.152V309H91.8414V300.232H93.2974V301.48C93.5854 301.032 93.9747 300.685 94.4654 300.44C94.9667 300.195 95.516 300.072 96.1134 300.072ZM105.692 300.088C106.449 300.088 107.11 300.253 107.676 300.584C108.252 300.915 108.678 301.331 108.956 301.832V300.232H110.428V309.192C110.428 309.992 110.257 310.701 109.916 311.32C109.574 311.949 109.084 312.44 108.444 312.792C107.814 313.144 107.078 313.32 106.236 313.32C105.084 313.32 104.124 313.048 103.356 312.504C102.588 311.96 102.134 311.219 101.996 310.28H103.436C103.596 310.813 103.926 311.24 104.428 311.56C104.929 311.891 105.532 312.056 106.236 312.056C107.036 312.056 107.686 311.805 108.188 311.304C108.7 310.803 108.956 310.099 108.956 309.192V307.352C108.668 307.864 108.241 308.291 107.676 308.632C107.11 308.973 106.449 309.144 105.692 309.144C104.913 309.144 104.204 308.952 103.564 308.568C102.934 308.184 102.438 307.645 102.076 306.952C101.713 306.259 101.532 305.469 101.532 304.584C101.532 303.688 101.713 302.904 102.076 302.232C102.438 301.549 102.934 301.021 103.564 300.648C104.204 300.275 104.913 300.088 105.692 300.088ZM108.956 304.6C108.956 303.939 108.822 303.363 108.556 302.872C108.289 302.381 107.926 302.008 107.468 301.752C107.02 301.485 106.524 301.352 105.98 301.352C105.436 301.352 104.94 301.48 104.492 301.736C104.044 301.992 103.686 302.365 103.42 302.856C103.153 303.347 103.02 303.923 103.02 304.584C103.02 305.256 103.153 305.843 103.42 306.344C103.686 306.835 104.044 307.213 104.492 307.48C104.94 307.736 105.436 307.864 105.98 307.864C106.524 307.864 107.02 307.736 107.468 307.48C107.926 307.213 108.289 306.835 108.556 306.344C108.822 305.843 108.956 305.261 108.956 304.6ZM116.712 309.144C115.891 309.144 115.144 308.957 114.472 308.584C113.811 308.211 113.288 307.683 112.904 307C112.531 306.307 112.344 305.507 112.344 304.6C112.344 303.704 112.536 302.915 112.92 302.232C113.315 301.539 113.848 301.011 114.52 300.648C115.192 300.275 115.944 300.088 116.776 300.088C117.608 300.088 118.36 300.275 119.032 300.648C119.704 301.011 120.232 301.533 120.616 302.216C121.011 302.899 121.208 303.693 121.208 304.6C121.208 305.507 121.006 306.307 120.6 307C120.206 307.683 119.667 308.211 118.984 308.584C118.302 308.957 117.544 309.144 116.712 309.144ZM116.712 307.864C117.235 307.864 117.726 307.741 118.184 307.496C118.643 307.251 119.011 306.883 119.288 306.392C119.576 305.901 119.72 305.304 119.72 304.6C119.72 303.896 119.582 303.299 119.304 302.808C119.027 302.317 118.664 301.955 118.216 301.72C117.768 301.475 117.283 301.352 116.76 301.352C116.227 301.352 115.736 301.475 115.288 301.72C114.851 301.955 114.499 302.317 114.232 302.808C113.966 303.299 113.832 303.896 113.832 304.6C113.832 305.315 113.96 305.917 114.216 306.408C114.483 306.899 114.835 307.267 115.272 307.512C115.71 307.747 116.19 307.864 116.712 307.864Z" fill="#2C3441"/>
<circle cx="41" cy="249" r="5" fill="#2C3441"/>
<path d="M70.448 243.848L66.24 255H64.56L60.352 243.848H61.904L65.408 253.464L68.912 243.848H70.448ZM79.8205 246.232V255H78.3645V253.704C78.0872 254.152 77.6978 254.504 77.1965 254.76C76.7058 255.005 76.1618 255.128 75.5645 255.128C74.8818 255.128 74.2685 254.989 73.7245 254.712C73.1805 254.424 72.7485 253.997 72.4285 253.432C72.1192 252.867 71.9645 252.179 71.9645 251.368V246.232H73.4045V251.176C73.4045 252.04 73.6232 252.707 74.0605 253.176C74.4978 253.635 75.0952 253.864 75.8525 253.864C76.6312 253.864 77.2445 253.624 77.6925 253.144C78.1405 252.664 78.3645 251.965 78.3645 251.048V246.232H79.8205ZM90.2789 250.28C90.2789 250.557 90.2629 250.851 90.2309 251.16H83.2229C83.2762 252.024 83.5695 252.701 84.1029 253.192C84.6469 253.672 85.3029 253.912 86.0709 253.912C86.7002 253.912 87.2229 253.768 87.6389 253.48C88.0655 253.181 88.3642 252.787 88.5349 252.296H90.1029C89.8682 253.139 89.3989 253.827 88.6949 254.36C87.9909 254.883 87.1162 255.144 86.0709 255.144C85.2389 255.144 84.4922 254.957 83.8309 254.584C83.1802 254.211 82.6682 253.683 82.2949 253C81.9215 252.307 81.7349 251.507 81.7349 250.6C81.7349 249.693 81.9162 248.899 82.2789 248.216C82.6415 247.533 83.1482 247.011 83.7989 246.648C84.4602 246.275 85.2175 246.088 86.0709 246.088C86.9029 246.088 87.6389 246.269 88.2789 246.632C88.9189 246.995 89.4095 247.496 89.7509 248.136C90.1029 248.765 90.2789 249.48 90.2789 250.28ZM88.7749 249.976C88.7749 249.421 88.6522 248.947 88.4069 248.552C88.1615 248.147 87.8255 247.843 87.3989 247.64C86.9829 247.427 86.5189 247.32 86.0069 247.32C85.2709 247.32 84.6415 247.555 84.1189 248.024C83.6069 248.493 83.3135 249.144 83.2389 249.976H88.7749ZM92.6648 255.096C92.3874 255.096 92.1528 255 91.9608 254.808C91.7688 254.616 91.6728 254.381 91.6728 254.104C91.6728 253.827 91.7688 253.592 91.9608 253.4C92.1528 253.208 92.3874 253.112 92.6648 253.112C92.9314 253.112 93.1554 253.208 93.3368 253.4C93.5288 253.592 93.6248 253.827 93.6248 254.104C93.6248 254.381 93.5288 254.616 93.3368 254.808C93.1554 255 92.9314 255.096 92.6648 255.096ZM96.3441 244.808C96.0668 244.808 95.8321 244.712 95.6401 244.52C95.4588 244.328 95.3681 244.093 95.3681 243.816C95.3681 243.539 95.4588 243.304 95.6401 243.112C95.8321 242.92 96.0668 242.824 96.3441 242.824C96.6215 242.824 96.8508 242.92 97.0321 243.112C97.2241 243.304 97.3201 243.539 97.3201 243.816C97.3201 244.093 97.2241 244.328 97.0321 244.52C96.8508 244.712 96.6215 244.808 96.3441 244.808ZM97.0641 256.904C97.0641 257.683 96.8668 258.253 96.4721 258.616C96.0775 258.979 95.5015 259.16 94.7441 259.16H93.8961V257.928H94.5041C94.9095 257.928 95.1921 257.848 95.3521 257.688C95.5228 257.528 95.6081 257.256 95.6081 256.872V246.232H97.0641V256.904ZM102.633 255.144C101.961 255.144 101.358 255.032 100.825 254.808C100.292 254.573 99.8702 254.253 99.5609 253.848C99.2515 253.432 99.0809 252.957 99.0489 252.424H100.553C100.596 252.861 100.798 253.219 101.161 253.496C101.534 253.773 102.02 253.912 102.617 253.912C103.172 253.912 103.609 253.789 103.929 253.544C104.249 253.299 104.409 252.989 104.409 252.616C104.409 252.232 104.238 251.949 103.897 251.768C103.556 251.576 103.028 251.389 102.313 251.208C101.662 251.037 101.129 250.867 100.713 250.696C100.308 250.515 99.9555 250.253 99.6569 249.912C99.3689 249.56 99.2249 249.101 99.2249 248.536C99.2249 248.088 99.3582 247.677 99.6249 247.304C99.8915 246.931 100.27 246.637 100.761 246.424C101.252 246.2 101.812 246.088 102.441 246.088C103.412 246.088 104.196 246.333 104.793 246.824C105.39 247.315 105.71 247.987 105.753 248.84H104.297C104.265 248.381 104.078 248.013 103.737 247.736C103.406 247.459 102.958 247.32 102.393 247.32C101.87 247.32 101.454 247.432 101.145 247.656C100.836 247.88 100.681 248.173 100.681 248.536C100.681 248.824 100.772 249.064 100.953 249.256C101.145 249.437 101.38 249.587 101.657 249.704C101.945 249.811 102.34 249.933 102.841 250.072C103.47 250.243 103.982 250.413 104.377 250.584C104.772 250.744 105.108 250.989 105.385 251.32C105.673 251.651 105.822 252.083 105.833 252.616C105.833 253.096 105.7 253.528 105.433 253.912C105.166 254.296 104.788 254.6 104.297 254.824C103.817 255.037 103.262 255.144 102.633 255.144Z" fill="#2C3441"/>
<circle cx="41" cy="195" r="5" fill="#2C3441"/>
<path d="M67.104 201L64.448 196.44H62.688V201H61.232V189.848H64.832C65.6747 189.848 66.384 189.992 66.96 190.28C67.5467 190.568 67.984 190.957 68.272 191.448C68.56 191.939 68.704 192.499 68.704 193.128C68.704 193.896 68.48 194.573 68.032 195.16C67.5947 195.747 66.9333 196.136 66.048 196.328L68.848 201H67.104ZM62.688 195.272H64.832C65.6213 195.272 66.2133 195.08 66.608 194.696C67.0027 194.301 67.2 193.779 67.2 193.128C67.2 192.467 67.0027 191.955 66.608 191.592C66.224 191.229 65.632 191.048 64.832 191.048H62.688V195.272ZM78.9664 196.28C78.9664 196.557 78.9504 196.851 78.9184 197.16H71.9104C71.9637 198.024 72.257 198.701 72.7904 199.192C73.3344 199.672 73.9904 199.912 74.7584 199.912C75.3877 199.912 75.9104 199.768 76.3264 199.48C76.753 199.181 77.0517 198.787 77.2224 198.296H78.7904C78.5557 199.139 78.0864 199.827 77.3824 200.36C76.6784 200.883 75.8037 201.144 74.7584 201.144C73.9264 201.144 73.1797 200.957 72.5184 200.584C71.8677 200.211 71.3557 199.683 70.9824 199C70.609 198.307 70.4224 197.507 70.4224 196.6C70.4224 195.693 70.6037 194.899 70.9664 194.216C71.329 193.533 71.8357 193.011 72.4864 192.648C73.1477 192.275 73.905 192.088 74.7584 192.088C75.5904 192.088 76.3264 192.269 76.9664 192.632C77.6064 192.995 78.097 193.496 78.4384 194.136C78.7904 194.765 78.9664 195.48 78.9664 196.28ZM77.4624 195.976C77.4624 195.421 77.3397 194.947 77.0944 194.552C76.849 194.147 76.513 193.843 76.0864 193.64C75.6704 193.427 75.2064 193.32 74.6944 193.32C73.9584 193.32 73.329 193.555 72.8064 194.024C72.2944 194.493 72.001 195.144 71.9264 195.976H77.4624ZM80.3443 196.584C80.3443 195.688 80.5256 194.904 80.8883 194.232C81.2509 193.549 81.7469 193.021 82.3763 192.648C83.0163 192.275 83.7256 192.088 84.5043 192.088C85.2723 192.088 85.9389 192.253 86.5043 192.584C87.0696 192.915 87.4909 193.331 87.7683 193.832V192.232H89.2403V201H87.7683V199.368C87.4803 199.88 87.0483 200.307 86.4723 200.648C85.9069 200.979 85.2456 201.144 84.4883 201.144C83.7096 201.144 83.0056 200.952 82.3763 200.568C81.7469 200.184 81.2509 199.645 80.8883 198.952C80.5256 198.259 80.3443 197.469 80.3443 196.584ZM87.7683 196.6C87.7683 195.939 87.6349 195.363 87.3683 194.872C87.1016 194.381 86.7389 194.008 86.2803 193.752C85.8323 193.485 85.3363 193.352 84.7923 193.352C84.2483 193.352 83.7523 193.48 83.3043 193.736C82.8563 193.992 82.4989 194.365 82.2323 194.856C81.9656 195.347 81.8323 195.923 81.8323 196.584C81.8323 197.256 81.9656 197.843 82.2323 198.344C82.4989 198.835 82.8563 199.213 83.3043 199.48C83.7523 199.736 84.2483 199.864 84.7923 199.864C85.3363 199.864 85.8323 199.736 86.2803 199.48C86.7389 199.213 87.1016 198.835 87.3683 198.344C87.6349 197.843 87.7683 197.261 87.7683 196.6ZM91.1568 196.6C91.1568 195.693 91.3381 194.904 91.7008 194.232C92.0634 193.549 92.5648 193.021 93.2048 192.648C93.8554 192.275 94.5968 192.088 95.4288 192.088C96.5061 192.088 97.3914 192.349 98.0848 192.872C98.7888 193.395 99.2528 194.12 99.4768 195.048H97.9088C97.7594 194.515 97.4661 194.093 97.0288 193.784C96.6021 193.475 96.0688 193.32 95.4288 193.32C94.5968 193.32 93.9248 193.608 93.4128 194.184C92.9008 194.749 92.6448 195.555 92.6448 196.6C92.6448 197.656 92.9008 198.472 93.4128 199.048C93.9248 199.624 94.5968 199.912 95.4288 199.912C96.0688 199.912 96.6021 199.763 97.0288 199.464C97.4554 199.165 97.7488 198.739 97.9088 198.184H99.4768C99.2421 199.08 98.7728 199.8 98.0688 200.344C97.3648 200.877 96.4848 201.144 95.4288 201.144C94.5968 201.144 93.8554 200.957 93.2048 200.584C92.5648 200.211 92.0634 199.683 91.7008 199C91.3381 198.317 91.1568 197.517 91.1568 196.6ZM103.196 193.432V198.6C103.196 199.027 103.286 199.331 103.468 199.512C103.649 199.683 103.964 199.768 104.411 199.768H105.484V201H104.172C103.361 201 102.753 200.813 102.348 200.44C101.942 200.067 101.74 199.453 101.74 198.6V193.432H100.604V192.232H101.74V190.024H103.196V192.232H105.484V193.432H103.196Z" fill="#2C3441"/>
<circle cx="41" cy="142" r="5" fill="#2C3441"/>
<path d="M67.824 145.52H62.96L62.064 148H60.528L64.56 136.912H66.24L70.256 148H68.72L67.824 145.52ZM67.408 144.336L65.392 138.704L63.376 144.336H67.408ZM76.2853 139.072C77.3519 139.072 78.2159 139.397 78.8773 140.048C79.5386 140.688 79.8693 141.616 79.8693 142.832V148H78.4293V143.04C78.4293 142.165 78.2106 141.499 77.7733 141.04C77.3359 140.571 76.7386 140.336 75.9813 140.336C75.2133 140.336 74.5999 140.576 74.1413 141.056C73.6933 141.536 73.4693 142.235 73.4693 143.152V148H72.0133V139.232H73.4693V140.48C73.7573 140.032 74.1466 139.685 74.6373 139.44C75.1386 139.195 75.6879 139.072 76.2853 139.072ZM85.8636 139.088C86.621 139.088 87.2823 139.253 87.8476 139.584C88.4236 139.915 88.8503 140.331 89.1276 140.832V139.232H90.5996V148.192C90.5996 148.992 90.429 149.701 90.0876 150.32C89.7463 150.949 89.2556 151.44 88.6156 151.792C87.9863 152.144 87.2503 152.32 86.4076 152.32C85.2556 152.32 84.2956 152.048 83.5276 151.504C82.7596 150.96 82.3063 150.219 82.1676 149.28H83.6076C83.7676 149.813 84.0983 150.24 84.5996 150.56C85.101 150.891 85.7036 151.056 86.4076 151.056C87.2076 151.056 87.8583 150.805 88.3596 150.304C88.8716 149.803 89.1276 149.099 89.1276 148.192V146.352C88.8396 146.864 88.413 147.291 87.8476 147.632C87.2823 147.973 86.621 148.144 85.8636 148.144C85.085 148.144 84.3756 147.952 83.7356 147.568C83.1063 147.184 82.6103 146.645 82.2476 145.952C81.885 145.259 81.7036 144.469 81.7036 143.584C81.7036 142.688 81.885 141.904 82.2476 141.232C82.6103 140.549 83.1063 140.021 83.7356 139.648C84.3756 139.275 85.085 139.088 85.8636 139.088ZM89.1276 143.6C89.1276 142.939 88.9943 142.363 88.7276 141.872C88.461 141.381 88.0983 141.008 87.6396 140.752C87.1916 140.485 86.6956 140.352 86.1516 140.352C85.6076 140.352 85.1116 140.48 84.6636 140.736C84.2156 140.992 83.8583 141.365 83.5916 141.856C83.325 142.347 83.1916 142.923 83.1916 143.584C83.1916 144.256 83.325 144.843 83.5916 145.344C83.8583 145.835 84.2156 146.213 84.6636 146.48C85.1116 146.736 85.6076 146.864 86.1516 146.864C86.6956 146.864 87.1916 146.736 87.6396 146.48C88.0983 146.213 88.461 145.835 88.7276 145.344C88.9943 144.843 89.1276 144.261 89.1276 143.6ZM100.836 139.232V148H99.3801V146.704C99.1028 147.152 98.7135 147.504 98.2121 147.76C97.7215 148.005 97.1775 148.128 96.5801 148.128C95.8975 148.128 95.2841 147.989 94.7401 147.712C94.1961 147.424 93.7641 146.997 93.4441 146.432C93.1348 145.867 92.9801 145.179 92.9801 144.368V139.232H94.4201V144.176C94.4201 145.04 94.6388 145.707 95.0761 146.176C95.5135 146.635 96.1108 146.864 96.8681 146.864C97.6468 146.864 98.2601 146.624 98.7081 146.144C99.1561 145.664 99.3801 144.965 99.3801 144.048V139.232H100.836ZM104.751 136.16V148H103.295V136.16H104.751ZM106.688 143.584C106.688 142.688 106.869 141.904 107.232 141.232C107.595 140.549 108.091 140.021 108.72 139.648C109.36 139.275 110.069 139.088 110.848 139.088C111.616 139.088 112.283 139.253 112.848 139.584C113.413 139.915 113.835 140.331 114.112 140.832V139.232H115.584V148H114.112V146.368C113.824 146.88 113.392 147.307 112.816 147.648C112.251 147.979 111.589 148.144 110.832 148.144C110.053 148.144 109.349 147.952 108.72 147.568C108.091 147.184 107.595 146.645 107.232 145.952C106.869 145.259 106.688 144.469 106.688 143.584ZM114.112 143.6C114.112 142.939 113.979 142.363 113.712 141.872C113.445 141.381 113.083 141.008 112.624 140.752C112.176 140.485 111.68 140.352 111.136 140.352C110.592 140.352 110.096 140.48 109.648 140.736C109.2 140.992 108.843 141.365 108.576 141.856C108.309 142.347 108.176 142.923 108.176 143.584C108.176 144.256 108.309 144.843 108.576 145.344C108.843 145.835 109.2 146.213 109.648 146.48C110.096 146.736 110.592 146.864 111.136 146.864C111.68 146.864 112.176 146.736 112.624 146.48C113.083 146.213 113.445 145.835 113.712 145.344C113.979 144.843 114.112 144.261 114.112 143.6ZM119.501 140.656C119.757 140.155 120.119 139.765 120.589 139.488C121.069 139.211 121.65 139.072 122.333 139.072V140.576H121.949C120.317 140.576 119.501 141.461 119.501 143.232V148H118.045V139.232H119.501V140.656Z" fill="#2C3441"/>
<rect width="79" height="79" fill="white"/>
<mask id="path-33-inside-1_1851_71502" fill="white">
<rect x="26" y="37" width="12" height="14" rx="1"/>
</mask>
<rect x="26" y="37" width="12" height="14" rx="1" stroke="#E82726" stroke-width="3" mask="url(#path-33-inside-1_1851_71502)"/>
<rect x="21.75" y="24.75" width="35.5" height="30.5" rx="4.25" stroke="#2C3441" stroke-width="1.5"/>
<line x1="22" y1="31.25" x2="57" y2="31.25" stroke="#2C3441" stroke-width="1.5"/>
<line x1="41" y1="37.25" x2="53" y2="37.25" stroke="#2C3441" stroke-width="1.5"/>
<line x1="41" y1="41.25" x2="53" y2="41.25" stroke="#2C3441" stroke-width="1.5"/>
<line x1="41" y1="45.25" x2="53" y2="45.25" stroke="#2C3441" stroke-width="1.5"/>
<line x1="41" y1="49.25" x2="53" y2="49.25" stroke="#2C3441" stroke-width="1.5"/>
<circle cx="26" cy="28" r="1.5" stroke="#2C3441"/>
<circle cx="31" cy="28" r="1.5" stroke="#2C3441"/>
<circle cx="36" cy="28" r="1.5" stroke="#2C3441"/>
<path d="M106.68 22.38L103.384 33.5H101.32L98.984 25.084L96.504 33.5L94.456 33.516L91.304 22.38H93.24L95.544 31.436L98.04 22.38H100.088L102.408 31.388L104.728 22.38H106.68ZM117.064 28.876C117.064 29.2067 117.043 29.5053 117 29.772H110.264C110.318 30.476 110.579 31.0413 111.048 31.468C111.518 31.8947 112.094 32.108 112.776 32.108C113.758 32.108 114.451 31.6973 114.856 30.876H116.824C116.558 31.6867 116.072 32.3533 115.368 32.876C114.675 33.388 113.811 33.644 112.776 33.644C111.934 33.644 111.176 33.4573 110.504 33.084C109.843 32.7 109.32 32.1667 108.936 31.484C108.563 30.7907 108.376 29.9907 108.376 29.084C108.376 28.1773 108.558 27.3827 108.92 26.7C109.294 26.0067 109.811 25.4733 110.472 25.1C111.144 24.7267 111.912 24.54 112.776 24.54C113.608 24.54 114.35 24.7213 115 25.084C115.651 25.4467 116.158 25.9587 116.52 26.62C116.883 27.2707 117.064 28.0227 117.064 28.876ZM115.16 28.3C115.15 27.628 114.91 27.0893 114.44 26.684C113.971 26.2787 113.39 26.076 112.696 26.076C112.067 26.076 111.528 26.2787 111.08 26.684C110.632 27.0787 110.366 27.6173 110.28 28.3H115.16ZM121.483 25.996C121.793 25.5693 122.214 25.2227 122.747 24.956C123.291 24.6787 123.894 24.54 124.555 24.54C125.334 24.54 126.038 24.7267 126.667 25.1C127.297 25.4733 127.793 26.0067 128.155 26.7C128.518 27.3827 128.699 28.1667 128.699 29.052C128.699 29.9373 128.518 30.732 128.155 31.436C127.793 32.1293 127.291 32.6733 126.651 33.068C126.022 33.452 125.323 33.644 124.555 33.644C123.873 33.644 123.265 33.5107 122.731 33.244C122.209 32.9773 121.793 32.636 121.483 32.22V33.5H119.659V21.66H121.483V25.996ZM126.843 29.052C126.843 28.444 126.715 27.9213 126.459 27.484C126.214 27.036 125.883 26.7 125.467 26.476C125.062 26.2413 124.625 26.124 124.155 26.124C123.697 26.124 123.259 26.2413 122.843 26.476C122.438 26.7107 122.107 27.052 121.851 27.5C121.606 27.948 121.483 28.476 121.483 29.084C121.483 29.692 121.606 30.2253 121.851 30.684C122.107 31.132 122.438 31.4733 122.843 31.708C123.259 31.9427 123.697 32.06 124.155 32.06C124.625 32.06 125.062 31.9427 125.467 31.708C125.883 31.4627 126.214 31.1107 126.459 30.652C126.715 30.1933 126.843 29.66 126.843 29.052ZM99.384 46.38V47.868H96.424V57.5H94.6V47.868H91.624V46.38H99.384ZM110.111 52.876C110.111 53.2067 110.09 53.5053 110.047 53.772H103.311C103.365 54.476 103.626 55.0413 104.095 55.468C104.565 55.8947 105.141 56.108 105.823 56.108C106.805 56.108 107.498 55.6973 107.903 54.876H109.871C109.605 55.6867 109.119 56.3533 108.415 56.876C107.722 57.388 106.858 57.644 105.823 57.644C104.981 57.644 104.223 57.4573 103.551 57.084C102.89 56.7 102.367 56.1667 101.983 55.484C101.61 54.7907 101.423 53.9907 101.423 53.084C101.423 52.1773 101.605 51.3827 101.967 50.7C102.341 50.0067 102.858 49.4733 103.519 49.1C104.191 48.7267 104.959 48.54 105.823 48.54C106.655 48.54 107.397 48.7213 108.047 49.084C108.698 49.4467 109.205 49.9587 109.567 50.62C109.93 51.2707 110.111 52.0227 110.111 52.876ZM108.207 52.3C108.197 51.628 107.957 51.0893 107.487 50.684C107.018 50.2787 106.437 50.076 105.743 50.076C105.114 50.076 104.575 50.2787 104.127 50.684C103.679 51.0787 103.413 51.6173 103.327 52.3H108.207ZM112.098 53.084C112.098 52.1773 112.28 51.3827 112.642 50.7C113.016 50.0067 113.528 49.4733 114.178 49.1C114.829 48.7267 115.576 48.54 116.418 48.54C117.485 48.54 118.365 48.796 119.058 49.308C119.762 49.8093 120.237 50.5293 120.482 51.468H118.514C118.354 51.0307 118.098 50.6893 117.746 50.444C117.394 50.1987 116.952 50.076 116.418 50.076C115.672 50.076 115.074 50.3427 114.626 50.876C114.189 51.3987 113.97 52.1347 113.97 53.084C113.97 54.0333 114.189 54.7747 114.626 55.308C115.074 55.8413 115.672 56.108 116.418 56.108C117.474 56.108 118.173 55.644 118.514 54.716H120.482C120.226 55.612 119.746 56.3267 119.042 56.86C118.338 57.3827 117.464 57.644 116.418 57.644C115.576 57.644 114.829 57.4573 114.178 57.084C113.528 56.7 113.016 56.1667 112.642 55.484C112.28 54.7907 112.098 53.9907 112.098 53.084ZM127.66 48.54C128.332 48.54 128.929 48.684 129.452 48.972C129.985 49.26 130.401 49.6867 130.7 50.252C131.009 50.8173 131.164 51.5 131.164 52.3V57.5H129.356V52.572C129.356 51.7827 129.159 51.18 128.764 50.764C128.369 50.3373 127.831 50.124 127.148 50.124C126.465 50.124 125.921 50.3373 125.516 50.764C125.121 51.18 124.924 51.7827 124.924 52.572V57.5H123.1V45.66H124.924V49.708C125.233 49.3347 125.623 49.0467 126.092 48.844C126.572 48.6413 127.095 48.54 127.66 48.54ZM138.739 48.54C139.432 48.54 140.051 48.684 140.595 48.972C141.149 49.26 141.581 49.6867 141.891 50.252C142.2 50.8173 142.355 51.5 142.355 52.3V57.5H140.547V52.572C140.547 51.7827 140.349 51.18 139.955 50.764C139.56 50.3373 139.021 50.124 138.339 50.124C137.656 50.124 137.112 50.3373 136.707 50.764C136.312 51.18 136.115 51.7827 136.115 52.572V57.5H134.291V48.684H136.115V49.692C136.413 49.3293 136.792 49.0467 137.251 48.844C137.72 48.6413 138.216 48.54 138.739 48.54ZM149.305 57.644C148.473 57.644 147.721 57.4573 147.049 57.084C146.377 56.7 145.849 56.1667 145.465 55.484C145.081 54.7907 144.889 53.9907 144.889 53.084C144.889 52.188 145.087 51.3933 145.481 50.7C145.876 50.0067 146.415 49.4733 147.097 49.1C147.78 48.7267 148.543 48.54 149.385 48.54C150.228 48.54 150.991 48.7267 151.673 49.1C152.356 49.4733 152.895 50.0067 153.289 50.7C153.684 51.3933 153.881 52.188 153.881 53.084C153.881 53.98 153.679 54.7747 153.273 55.468C152.868 56.1613 152.313 56.7 151.609 57.084C150.916 57.4573 150.148 57.644 149.305 57.644ZM149.305 56.06C149.775 56.06 150.212 55.948 150.617 55.724C151.033 55.5 151.369 55.164 151.625 54.716C151.881 54.268 152.009 53.724 152.009 53.084C152.009 52.444 151.887 51.9053 151.641 51.468C151.396 51.02 151.071 50.684 150.665 50.46C150.26 50.236 149.823 50.124 149.353 50.124C148.884 50.124 148.447 50.236 148.041 50.46C147.647 50.684 147.332 51.02 147.097 51.468C146.863 51.9053 146.745 52.444 146.745 53.084C146.745 54.0333 146.985 54.7693 147.465 55.292C147.956 55.804 148.569 56.06 149.305 56.06ZM158.308 45.66V57.5H156.484V45.66H158.308ZM165.327 57.644C164.495 57.644 163.743 57.4573 163.071 57.084C162.399 56.7 161.871 56.1667 161.487 55.484C161.103 54.7907 160.911 53.9907 160.911 53.084C160.911 52.188 161.108 51.3933 161.503 50.7C161.898 50.0067 162.436 49.4733 163.119 49.1C163.802 48.7267 164.564 48.54 165.407 48.54C166.25 48.54 167.012 48.7267 167.695 49.1C168.378 49.4733 168.916 50.0067 169.311 50.7C169.706 51.3933 169.903 52.188 169.903 53.084C169.903 53.98 169.7 54.7747 169.295 55.468C168.89 56.1613 168.335 56.7 167.631 57.084C166.938 57.4573 166.17 57.644 165.327 57.644ZM165.327 56.06C165.796 56.06 166.234 55.948 166.639 55.724C167.055 55.5 167.391 55.164 167.647 54.716C167.903 54.268 168.031 53.724 168.031 53.084C168.031 52.444 167.908 51.9053 167.663 51.468C167.418 51.02 167.092 50.684 166.687 50.46C166.282 50.236 165.844 50.124 165.375 50.124C164.906 50.124 164.468 50.236 164.063 50.46C163.668 50.684 163.354 51.02 163.119 51.468C162.884 51.9053 162.767 52.444 162.767 53.084C162.767 54.0333 163.007 54.7693 163.487 55.292C163.978 55.804 164.591 56.06 165.327 56.06ZM176.058 48.54C176.741 48.54 177.344 48.6787 177.866 48.956C178.4 49.2227 178.816 49.5587 179.114 49.964V48.684H180.954V57.644C180.954 58.4547 180.784 59.1747 180.442 59.804C180.101 60.444 179.605 60.9453 178.954 61.308C178.314 61.6707 177.546 61.852 176.65 61.852C175.456 61.852 174.464 61.5693 173.674 61.004C172.885 60.4493 172.437 59.692 172.33 58.732H174.138C174.277 59.1907 174.57 59.5587 175.018 59.836C175.477 60.124 176.021 60.268 176.65 60.268C177.386 60.268 177.978 60.044 178.426 59.596C178.885 59.148 179.114 58.4973 179.114 57.644V56.172C178.805 56.588 178.384 56.94 177.85 57.228C177.328 57.5053 176.73 57.644 176.058 57.644C175.29 57.644 174.586 57.452 173.946 57.068C173.317 56.6733 172.816 56.1293 172.442 55.436C172.08 54.732 171.898 53.9373 171.898 53.052C171.898 52.1667 172.08 51.3827 172.442 50.7C172.816 50.0173 173.317 49.4893 173.946 49.116C174.586 48.732 175.29 48.54 176.058 48.54ZM179.114 53.084C179.114 52.476 178.986 51.948 178.73 51.5C178.485 51.052 178.16 50.7107 177.754 50.476C177.349 50.2413 176.912 50.124 176.442 50.124C175.973 50.124 175.536 50.2413 175.13 50.476C174.725 50.7 174.394 51.036 174.138 51.484C173.893 51.9213 173.77 52.444 173.77 53.052C173.77 53.66 173.893 54.1933 174.138 54.652C174.394 55.1107 174.725 55.4627 175.13 55.708C175.546 55.9427 175.984 56.06 176.442 56.06C176.912 56.06 177.349 55.9427 177.754 55.708C178.16 55.4733 178.485 55.132 178.73 54.684C178.986 54.2253 179.114 53.692 179.114 53.084ZM185.078 47.516C184.747 47.516 184.47 47.404 184.246 47.18C184.022 46.956 183.91 46.6787 183.91 46.348C183.91 46.0173 184.022 45.74 184.246 45.516C184.47 45.292 184.747 45.18 185.078 45.18C185.398 45.18 185.67 45.292 185.894 45.516C186.118 45.74 186.23 46.0173 186.23 46.348C186.23 46.6787 186.118 46.956 185.894 47.18C185.67 47.404 185.398 47.516 185.078 47.516ZM185.974 48.684V57.5H184.15V48.684H185.974ZM197.249 52.876C197.249 53.2067 197.227 53.5053 197.185 53.772H190.449C190.502 54.476 190.763 55.0413 191.233 55.468C191.702 55.8947 192.278 56.108 192.961 56.108C193.942 56.108 194.635 55.6973 195.041 54.876H197.009C196.742 55.6867 196.257 56.3533 195.553 56.876C194.859 57.388 193.995 57.644 192.961 57.644C192.118 57.644 191.361 57.4573 190.689 57.084C190.027 56.7 189.505 56.1667 189.121 55.484C188.747 54.7907 188.561 53.9907 188.561 53.084C188.561 52.1773 188.742 51.3827 189.105 50.7C189.478 50.0067 189.995 49.4733 190.657 49.1C191.329 48.7267 192.097 48.54 192.961 48.54C193.793 48.54 194.534 48.7213 195.185 49.084C195.835 49.4467 196.342 49.9587 196.705 50.62C197.067 51.2707 197.249 52.0227 197.249 52.876ZM195.345 52.3C195.334 51.628 195.094 51.0893 194.625 50.684C194.155 50.2787 193.574 50.076 192.881 50.076C192.251 50.076 191.713 50.2787 191.265 50.684C190.817 51.0787 190.55 51.6173 190.465 52.3H195.345ZM203.044 57.644C202.35 57.644 201.726 57.5213 201.172 57.276C200.628 57.02 200.196 56.6787 199.876 56.252C199.556 55.8147 199.385 55.3293 199.364 54.796H201.252C201.284 55.1693 201.46 55.484 201.78 55.74C202.11 55.9853 202.521 56.108 203.012 56.108C203.524 56.108 203.918 56.012 204.196 55.82C204.484 55.6173 204.628 55.3613 204.628 55.052C204.628 54.7213 204.468 54.476 204.148 54.316C203.838 54.156 203.342 53.98 202.66 53.788C201.998 53.6067 201.46 53.4307 201.044 53.26C200.628 53.0893 200.265 52.828 199.956 52.476C199.657 52.124 199.508 51.66 199.508 51.084C199.508 50.6147 199.646 50.188 199.924 49.804C200.201 49.4093 200.596 49.1 201.108 48.876C201.63 48.652 202.228 48.54 202.9 48.54C203.902 48.54 204.708 48.796 205.316 49.308C205.934 49.8093 206.265 50.4973 206.308 51.372H204.484C204.452 50.9773 204.292 50.6627 204.004 50.428C203.716 50.1933 203.326 50.076 202.836 50.076C202.356 50.076 201.988 50.1667 201.732 50.348C201.476 50.5293 201.348 50.7693 201.348 51.068C201.348 51.3027 201.433 51.5 201.604 51.66C201.774 51.82 201.982 51.948 202.228 52.044C202.473 52.1293 202.836 52.2413 203.316 52.38C203.956 52.5507 204.478 52.7267 204.884 52.908C205.3 53.0787 205.657 53.3347 205.956 53.676C206.254 54.0173 206.409 54.4707 206.42 55.036C206.42 55.5373 206.281 55.9853 206.004 56.38C205.726 56.7747 205.332 57.084 204.82 57.308C204.318 57.532 203.726 57.644 203.044 57.644Z" fill="#2C3441"/>
</svg>
